0
SECTION
2
HEADER
9
$INSUNITS
70
4
9
$ACADVER
1
AC1014
9
$HANDSEED
5
FFFF
0
ENDSEC
0
SECTION
2
TABLES
0
TABLE
2
VPORT
5
8
100
AcDbSymbolTable
0
ENDTAB
0
TABLE
2
LTYPE
5
5
100
AcDbSymbolTable
70
3
0
LTYPE
5
14
100
AcDbSymbolTableRecord
100
AcDbLinetypeTableRecord
2
BYBLOCK
70
0
0
LTYPE
5
15
100
AcDbSymbolTableRecord
100
AcDbLinetypeTableRecord
2
BYLAYER
70
0
0
LTYPE
5
16
100
AcDbSymbolTableRecord
100
AcDbLinetypeTableRecord
2
DASHED
70
0
3
Dashed __ __ __ __ __ __ __ __ __ __ __ __ __ _
72
65
73
2
40
0.75
49
0.5
74
0
49
-0.25
74
0
0
ENDTAB
0
TABLE
2
LAYER
5
2
100
AcDbSymbolTable
70
3
0
LAYER
5
50
100
AcDbSymbolTableRecord
100
AcDbLayerTableRecord
2
0
70
0
6
CONTINUOUS
0
LAYER
5
51
100
AcDbSymbolTableRecord
100
AcDbLayerTableRecord
2
CUTOUTS
70
0
62
1
6
CONTINUOUS
0
LAYER
5
52
100
AcDbSymbolTableRecord
100
AcDbLayerTableRecord
2
PERIMETER
70
0
62
5
6
CONTINUOUS
0
ENDTAB
0
TABLE
2
STYLE
5
3
100
AcDbSymbolTable
70
1
0
STYLE
5
11
100
AcDbSymbolTableRecord
100
AcDbTextStyleTableRecord
2
STANDARD
70
0
0
ENDTAB
0
TABLE
2
VIEW
5
6
100
AcDbSymbolTable
0
ENDTAB
0
TABLE
2
UCS
5
7
100
AcDbSymbolTable
0
ENDTAB
0
TABLE
2
APPID
5
9
100
AcDbSymbolTable
70
1
0
APPID
5
12
100
AcDbSymbolTableRecord
100
AcDbRegAppTableRecord
2
ACAD
70
0
0
ENDTAB
0
TABLE
2
DIMSTYLE
5
A
100
AcDbSymbolTable
0
ENDTAB
0
TABLE
2
BLOCK_RECORD
5
1
100
AcDbSymbolTable
70
2
0
BLOCK_RECORD
5
1F
100
AcDbSymbolTableRecord
100
AcDbBlockTableRecord
2
*MODEL_SPACE
0
BLOCK_RECORD
5
1B
100
AcDbSymbolTableRecord
100
AcDbBlockTableRecord
2
*PAPER_SPACE
0
ENDTAB
0
ENDSEC
0
SECTION
2
BLOCKS
0
BLOCK
5
20
100
AcDbEntity
100
AcDbBlockBegin
2
*MODEL_SPACE
0
ENDBLK
5
21
100
AcDbEntity
100
AcDbBlockEnd
0
BLOCK
5
1C
100
AcDbEntity
100
AcDbBlockBegin
2
*PAPER_SPACE
0
ENDBLK
5
1D
100
AcDbEntity
100
AcDbBlockEnd
0
ENDSEC
0
SECTION
2
ENTITIES
0
CIRCLE
5
100
100
AcDbEntity
8
CUTOUTS
100
AcDbCircle
10
130.46851060868937
20
13.213176581308716
30
0
40
0.92499999999999361
210
0
220
0
230
1
0
CIRCLE
5
101
100
AcDbEntity
8
CUTOUTS
100
AcDbCircle
10
102.98509920608873
20
-48.160090970914062
30
0
40
0.92499999999999361
210
0
220
0
230
1
0
CIRCLE
5
102
100
AcDbEntity
8
CUTOUTS
100
AcDbCircle
10
130.38464007359522
20
-25.068194912269028
30
0
40
0.92499999999999361
210
0
220
0
230
1
0
CIRCLE
5
103
100
AcDbEntity
8
CUTOUTS
100
AcDbCircle
10
206.17583296811551
20
-29.167486424190841
30
0
40
0.92500000000001137
210
0
220
0
230
1
0
CIRCLE
5
104
100
AcDbEntity
8
CUTOUTS
100
AcDbCircle
10
206.21290600104533
20
9.0905013135072554
30
0
40
0.92499999999997584
210
0
220
0
230
1
0
LWPOLYLINE
5
105
100
AcDbEntity
8
PERIMETER
100
AcDbPolyline
90
38
70
1
43
0.0
10
82.245631918130115
20
-57.554893389837574
10
92.505750950220161
20
-75.373583275864547
10
92.876647311032414
20
-75.691519422722521
10
93.345608353971272
20
-75.847849497703152
10
93.918118500329783
20
-75.95194944380259
10
138.17617936260123
20
-63.200014999999979
10
187.52220557436868
20
-63.200014999999979
10
224.44806183154569
20
-49.063566679725604
10
224.86559911867315
20
-48.778585083569858
10
225.55741954295601
20
-47.379229467969786
10
225.55997030346035
20
-47.225618381509491
10
225.5241383461933
20
26.296491653600036
10
225.50442548769757
20
26.513888831893428
10
225.44675994094334
20
26.722650686517291
10
225.35470904993809
20
26.915372583219646
10
225.23162529382446
20
27.088194789852125
10
225.08067188369878
20
27.237315879120956
10
224.90514094825994
20
27.358939754377385
10
224.70824857485027
20
27.449185200549646
10
224.49664101742007
20
27.503372517150332
10
170.96527067191926
20
35.949979999999989
10
149.00925381369098
20
35.949979999999989
10
89.436652731772384
20
33.540377587999927
10
89.194749002662306
20
33.515974127657685
10
88.964260826795254
20
33.444418246724432
10
88.755733744823743
20
33.331229979806018
10
88.574114467505339
20
33.181373781992804
10
88.424274850609947
20
32.999741610733416
10
88.311088000174351
20
32.791205583718423
10
88.239546432169988
20
32.560696255377302
10
88.215013007953104
20
32.317259765156379
10
88.214853009129385
20
-43.520689688464564
10
88.140988353168296
20
-44.158673374009325
10
87.945512170053746
20
-44.745122449378528
10
82.143637456824351
20
-55.499293032050915
10
82.039980000000043
20
-56.017590682125544
10
82.039980000000043
20
-56.428137329155874
10
82.090885050557247
20
-57.039049864186936
0
ENDSEC
0
SECTION
2
OBJECTS
0
DICTIONARY
5
C
100
AcDbDictionary
3
ACAD_GROUP
350
D
3
ACAD_MLINESTYLE
350
17
0
DICTIONARY
5
D
100
AcDbDictionary
0
DICTIONARY
5
1A
330
C
100
AcDbDictionary
0
DICTIONARY
5
17
100
AcDbDictionary
0
ENDSEC
0
EOF
