0
SECTION
2
HEADER
9
$INSUNITS
70
4
9
$ACADVER
1
AC1014
9
$HANDSEED
5
FFFF
0
ENDSEC
0
SECTION
2
TABLES
0
TABLE
2
VPORT
5
8
100
AcDbSymbolTable
0
ENDTAB
0
TABLE
2
LTYPE
5
5
100
AcDbSymbolTable
0
LTYPE
5
14
100
AcDbSymbolTableRecord
100
AcDbLinetypeTableRecord
2
BYBLOCK
70
0
0
LTYPE
5
15
100
AcDbSymbolTableRecord
100
AcDbLinetypeTableRecord
2
BYLAYER
70
0
0
LTYPE
5
16
100
AcDbSymbolTableRecord
100
AcDbLinetypeTableRecord
2
DASHED
70
0
3
Dashed __ __ __ __ __ __ __ __ __ __ __ __ __ _
72
65
73
2
40
0.75
49
0.5
74
0
49
-0.25
74
0
0
ENDTAB
0
TABLE
2
LAYER
5
2
100
AcDbSymbolTable
70
3
0
LAYER
5
50
100
AcDbSymbolTableRecord
100
AcDbLayerTableRecord
2
1
70
0
62
7
6
DASHED
0
LAYER
5
51
100
AcDbSymbolTableRecord
100
AcDbLayerTableRecord
2
0
70
0
62
7
6
CONTINUOUS
0
ENDTAB
0
TABLE
2
STYLE
5
3
100
AcDbSymbolTable
70
1
0
STYLE
5
11
100
AcDbSymbolTableRecord
100
AcDbTextStyleTableRecord
2
STANDARD
70
0
0
ENDTAB
0
TABLE
2
VIEW
5
6
100
AcDbSymbolTable
70
0
0
ENDTAB
0
TABLE
2
UCS
5
7
100
AcDbSymbolTable
70
0
0
ENDTAB
0
TABLE
2
APPID
5
9
100
AcDbSymbolTable
70
2
0
APPID
5
12
100
AcDbSymbolTableRecord
100
AcDbRegAppTableRecord
2
ACAD
70
0
0
ENDTAB
0
TABLE
2
DIMSTYLE
5
A
100
AcDbSymbolTable
70
1
0
ENDTAB
0
TABLE
2
BLOCK_RECORD
5
1
100
AcDbSymbolTable
70
1
0
BLOCK_RECORD
5
1F
100
AcDbSymbolTableRecord
100
AcDbBlockTableRecord
2
*MODEL_SPACE
0
BLOCK_RECORD
5
1B
100
AcDbSymbolTableRecord
100
AcDbBlockTableRecord
2
*PAPER_SPACE
0
ENDTAB
0
ENDSEC
0
SECTION
2
BLOCKS
0
BLOCK
5
20
100
AcDbEntity
100
AcDbBlockBegin
2
*MODEL_SPACE
0
ENDBLK
5
21
100
AcDbEntity
100
AcDbBlockEnd
0
BLOCK
5
1C
100
AcDbEntity
100
AcDbBlockBegin
2
*PAPER_SPACE
0
ENDBLK
5
1D
100
AcDbEntity
100
AcDbBlockEnd
0
ENDSEC
0
SECTION
2
ENTITIES
0
LWPOLYLINE
5
100
100
AcDbEntity
8
0
100
AcDbPolyline
90
2
70
1
43
0.0
10
225.04149000000007
20
27.179370000000009
10
224.87672000000003
20
27.293520000000004
0
LWPOLYLINE
5
101
100
AcDbEntity
8
0
100
AcDbPolyline
90
2
70
1
43
0.0
10
146.51771000000002
20
30.378570000000007
10
146.51771000000002
20
16.378590000000006
0
LWPOLYLINE
5
102
100
AcDbEntity
8
0
100
AcDbPolyline
90
2
70
1
43
0.0
10
151.5677
20
18.878590000000006
10
151.5677
20
32.878570000000011
0
LWPOLYLINE
5
103
100
AcDbEntity
8
0
100
AcDbPolyline
90
44
70
1
43
0.0
10
225.45802000000003
20
26.293080000000018
10
225.48497000000003
20
-48.399101000000002
10
224.59166000000005
20
-48.398414999999993
10
187.27614000000003
20
-48.398414999999993
10
187.27559999999997
20
-49.129730000000009
10
187.27614000000003
20
-48.398414999999993
10
187.27559999999997
20
-49.129730000000009
10
187.27614000000003
20
-48.398414999999993
10
187.27559999999997
20
-49.129730000000009
10
187.26548000000003
20
-63.102660999999998
10
187.27559999999997
20
-49.129730000000009
10
187.27614000000003
20
-48.398414999999993
10
187.27559999999997
20
-49.129730000000009
10
187.26548000000003
20
-63.102660999999998
10
187.27559999999997
20
-49.129730000000009
10
187.27614000000003
20
-48.398414999999993
10
224.59166000000005
20
-48.398414999999993
10
187.27614000000003
20
-48.398414999999993
10
224.59166000000005
20
-48.398414999999993
10
187.27614000000003
20
-48.398414999999993
10
224.59166000000005
20
-48.398414999999993
10
225.48497000000003
20
-48.399101000000002
10
224.59166000000005
20
-48.398414999999993
10
225.48497000000003
20
-48.399101000000002
10
225.45802000000003
20
26.293080000000018
10
225.43925000000002
20
26.500400000000024
10
225.38513999999998
20
26.696300000000015
10
225.29875000000004
20
26.87717000000001
10
225.38513999999998
20
26.696300000000015
10
225.43925000000002
20
26.500400000000024
10
225.38513999999998
20
26.696300000000015
10
225.43925000000002
20
26.500400000000024
10
225.45802000000003
20
26.293080000000018
10
225.43925000000002
20
26.500400000000024
10
225.45802000000003
20
26.293080000000018
10
225.43925000000002
20
26.500400000000024
10
225.45802000000003
20
26.293080000000018
10
225.43925000000002
20
26.500400000000024
10
225.45802000000003
20
26.293080000000018
10
225.48497000000003
20
-48.399101000000002
10
225.45802000000003
20
26.293080000000018
10
225.48497000000003
20
-48.399101000000002
10
225.45802000000003
20
26.293080000000018
10
225.48497000000003
20
-48.399101000000002
0
LWPOLYLINE
5
104
100
AcDbEntity
8
0
100
AcDbPolyline
90
2
70
1
43
0.0
10
127.46771000000003
20
27.878570000000007
10
127.46771000000003
20
13.878590000000006
0
LWPOLYLINE
5
105
100
AcDbEntity
8
0
100
AcDbPolyline
90
2
70
1
43
0.0
10
132.51771000000002
20
30.378570000000007
10
132.51771000000002
20
16.378590000000006
0
LWPOLYLINE
5
106
100
AcDbEntity
8
0
100
AcDbPolyline
90
42
70
1
43
0.0
10
111.01492
20
-23.479995999999996
10
111.01492
20
33.274979999999999
10
111.11492000000001
20
33.619960000000034
10
111.01492
20
33.274979999999999
10
111.11492000000001
20
33.619960000000034
10
111.01492
20
33.274979999999999
10
111.11492000000001
20
33.619960000000034
10
111.31492
20
33.919970000000021
10
111.51492000000002
20
34.119980000000005
10
111.71492000000001
20
34.219969999999989
10
111.51492000000002
20
34.119980000000005
10
111.31492
20
33.919970000000021
10
111.51492000000002
20
34.119980000000005
10
111.71492000000001
20
34.219969999999989
10
112.01492
20
34.319980000000015
10
112.41491000000002
20
34.419970000000006
10
149.01490000000001
20
35.87496999999999
10
112.41491000000002
20
34.419970000000006
10
149.01490000000001
20
35.87496999999999
10
170.96488999999997
20
35.87496999999999
10
224.49031000000005
20
27.429820000000014
10
170.96488999999997
20
35.87496999999999
10
149.01490000000001
20
35.87496999999999
10
170.96488999999997
20
35.87496999999999
10
149.01490000000001
20
35.87496999999999
10
170.96488999999997
20
35.87496999999999
10
149.01490000000001
20
35.87496999999999
10
170.96488999999997
20
35.87496999999999
10
149.01490000000001
20
35.87496999999999
10
112.41491000000002
20
34.419970000000006
10
112.01492
20
34.319980000000015
10
112.41491000000002
20
34.419970000000006
10
112.01492
20
34.319980000000015
10
111.71492000000001
20
34.219969999999989
10
112.01492
20
34.319980000000015
10
111.71492000000001
20
34.219969999999989
10
112.01492
20
34.319980000000015
10
111.71492000000001
20
34.219969999999989
10
111.51492000000002
20
34.119980000000005
10
111.31492
20
33.919970000000021
10
111.11492000000001
20
33.619960000000034
10
111.01492
20
33.274979999999999
0
LWPOLYLINE
5
107
100
AcDbEntity
8
0
100
AcDbPolyline
90
2
70
1
43
0.0
10
132.51771000000002
20
30.378570000000007
10
132.51771000000002
20
16.378590000000006
0
LWPOLYLINE
5
108
100
AcDbEntity
8
0
100
AcDbPolyline
90
2
70
1
43
0.0
10
113.46772
20
13.878590000000006
10
113.46772
20
27.878570000000007
0
LWPOLYLINE
5
109
100
AcDbEntity
8
0
100
AcDbPolyline
90
2
70
1
43
0.0
10
127.46771000000003
20
13.878590000000006
10
127.46771000000003
20
27.878570000000007
0
LWPOLYLINE
5
110
100
AcDbEntity
8
0
100
AcDbPolyline
90
2
70
1
43
0.0
10
82.314938000000012
20
-57.524979000000002
10
82.164937000000009
20
-57.024979000000002
0
LWPOLYLINE
5
111
100
AcDbEntity
8
0
100
AcDbPolyline
90
2
70
1
43
0.0
10
102.53992900000001
20
-43.511382999999988
10
102.53992900000001
20
-43.871390999999996
0
LWPOLYLINE
5
112
100
AcDbEntity
8
0
100
AcDbPolyline
90
2
70
1
43
0.0
10
82.164937000000009
20
-57.024979000000002
10
82.114934000000005
20
-56.424972999999994
0
LWPOLYLINE
5
113
100
AcDbEntity
8
0
100
AcDbPolyline
90
2
70
1
43
0.0
10
82.164937000000009
20
-57.024979000000002
10
82.314938000000012
20
-57.524979000000002
0
LWPOLYLINE
5
114
100
AcDbEntity
8
0
100
AcDbPolyline
90
2
70
1
43
0.0
10
184.61769000000004
20
-2.6713999999999949
10
170.61768999999998
20
-2.6713999999999949
0
LWPOLYLINE
5
115
100
AcDbEntity
8
0
100
AcDbPolyline
90
2
70
1
43
0.0
10
92.019933000000009
20
-43.271384999999995
10
95.269925000000029
20
-43.271384999999995
0
LWPOLYLINE
5
116
100
AcDbEntity
8
0
100
AcDbPolyline
90
2
70
1
43
0.0
10
225.38513999999998
20
26.696300000000015
10
225.29875000000004
20
26.87717000000001
0
LWPOLYLINE
5
117
100
AcDbEntity
8
0
100
AcDbPolyline
90
2
70
1
43
0.0
10
102.53992900000001
20
-28.521392999999993
10
102.53992900000001
20
-29.031394999999982
0
LWPOLYLINE
5
118
100
AcDbEntity
8
0
100
AcDbPolyline
90
12
70
1
43
0.0
10
95.269925000000029
20
-29.271393000000003
10
95.499928000000011
20
-29.031394999999982
10
95.269925000000029
20
-29.271393000000003
10
92.019933000000009
20
-29.271393000000003
10
95.269925000000029
20
-29.271393000000003
10
95.499928000000011
20
-29.031394999999982
10
95.499928000000011
20
-28.521392999999993
10
102.53992900000001
20
-28.521392999999993
10
95.499928000000011
20
-28.521392999999993
10
95.499928000000011
20
-29.031394999999982
10
95.269925000000029
20
-29.271393000000003
10
92.019933000000009
20
-29.271393000000003
0
LWPOLYLINE
5
119
100
AcDbEntity
8
0
100
AcDbPolyline
90
2
70
1
43
0.0
10
184.61769000000004
20
-7.7214000000000027
10
170.61768999999998
20
-7.7214000000000027
0
LWPOLYLINE
5
120
100
AcDbEntity
8
0
100
AcDbPolyline
90
2
70
1
43
0.0
10
92.019933000000009
20
-43.271384999999995
10
92.019933000000009
20
-29.271393000000003
0
LWPOLYLINE
5
121
100
AcDbEntity
8
0
100
AcDbPolyline
90
2
70
1
43
0.0
10
122.46747000000001
20
-48.948173999999995
10
126.09092000000003
20
-62.471122999999992
0
LWPOLYLINE
5
122
100
AcDbEntity
8
0
100
AcDbPolyline
90
2
70
1
43
0.0
10
95.499928000000011
20
-28.521392999999993
10
95.499928000000011
20
-29.031394999999982
0
LWPOLYLINE
5
123
100
AcDbEntity
8
0
100
AcDbPolyline
90
10
70
1
43
0.0
10
95.499928000000011
20
-43.511382999999988
10
95.269925000000029
20
-43.271384999999995
10
95.499928000000011
20
-43.511382999999988
10
95.269925000000029
20
-43.271384999999995
10
95.499928000000011
20
-43.511382999999988
10
95.499928000000011
20
-43.871390999999996
10
102.53992900000001
20
-43.871390999999996
10
95.499928000000011
20
-43.871390999999996
10
102.53992900000001
20
-43.871390999999996
10
95.499928000000011
20
-43.871390999999996
0
LWPOLYLINE
5
124
100
AcDbEntity
8
0
100
AcDbPolyline
90
2
70
1
43
0.0
10
203.66768000000002
20
11.478590000000004
10
203.66768000000002
20
25.478579999999997
0
LWPOLYLINE
5
125
100
AcDbEntity
8
0
100
AcDbPolyline
90
2
70
1
43
0.0
10
102.53992900000001
20
-29.031394999999982
10
102.53992900000001
20
-28.521392999999993
0
LWPOLYLINE
5
126
100
AcDbEntity
8
0
100
AcDbPolyline
90
2
70
1
43
0.0
10
95.269925000000029
20
-43.271384999999995
10
92.019933000000009
20
-43.271384999999995
0
LWPOLYLINE
5
127
100
AcDbEntity
8
0
100
AcDbPolyline
90
2
70
1
43
0.0
10
132.51771000000002
20
-59.821372999999994
10
132.51771000000002
20
-45.821381000000002
0
LWPOLYLINE
5
128
100
AcDbEntity
8
0
100
AcDbPolyline
90
2
70
1
43
0.0
10
146.51771000000002
20
-45.821381000000002
10
146.51771000000002
20
-59.821372999999994
0
LWPOLYLINE
5
129
100
AcDbEntity
8
0
100
AcDbPolyline
90
2
70
1
43
0.0
10
102.53992900000001
20
-43.511382999999988
10
102.53992900000001
20
-43.871390999999996
0
LWPOLYLINE
5
130
100
AcDbEntity
8
0
100
AcDbPolyline
90
2
70
1
43
0.0
10
184.61769000000004
20
-2.6713999999999949
10
184.61769000000004
20
11.328580000000024
0
LWPOLYLINE
5
131
100
AcDbEntity
8
0
100
AcDbPolyline
90
2
70
1
43
0.0
10
82.314938000000012
20
-57.524979000000002
10
92.564931000000016
20
-75.324965999999989
0
LWPOLYLINE
5
132
100
AcDbEntity
8
0
100
AcDbPolyline
90
2
70
1
43
0.0
10
165.5677
20
-5.2214099999999952
10
151.5677
20
-5.2214099999999952
0
LWPOLYLINE
5
133
100
AcDbEntity
8
0
100
AcDbPolyline
90
2
70
1
43
0.0
10
151.5677
20
-57.321381000000002
10
151.5677
20
-43.321387999999992
0
LWPOLYLINE
5
134
100
AcDbEntity
8
0
100
AcDbPolyline
90
8
70
1
43
0.0
10
82.164937000000009
20
-57.024979000000002
10
82.314938000000012
20
-57.524979000000002
10
82.164937000000009
20
-57.024979000000002
10
82.314938000000012
20
-57.524979000000002
10
92.564931000000016
20
-75.324965999999989
10
82.314938000000012
20
-57.524979000000002
10
82.164937000000009
20
-57.024979000000002
10
82.114934000000005
20
-56.424972999999994
0
LWPOLYLINE
5
135
100
AcDbEntity
8
0
100
AcDbPolyline
90
14
70
1
43
0.0
10
151.5677
20
-0.17141999999999769
10
165.5677
20
-0.17141999999999769
10
151.5677
20
-0.17141999999999769
10
165.5677
20
-0.17141999999999769
10
165.5677
20
13.828580000000024
10
151.5677
20
13.828580000000024
10
165.5677
20
13.828580000000024
10
151.5677
20
13.828580000000024
10
151.5677
20
-0.17141999999999769
10
151.5677
20
13.828580000000024
10
151.5677
20
-0.17141999999999769
10
151.5677
20
13.828580000000024
10
165.5677
20
13.828580000000024
10
165.5677
20
-0.17141999999999769
0
LWPOLYLINE
5
136
100
AcDbEntity
8
0
100
AcDbPolyline
90
2
70
1
43
0.0
10
165.5677
20
-0.17141999999999769
10
165.5677
20
13.828580000000024
0
LWPOLYLINE
5
137
100
AcDbEntity
8
0
100
AcDbPolyline
90
2
70
1
43
0.0
10
93.364926000000011
20
-75.77496699999999
10
92.914929000000015
20
-75.624969000000007
0
LWPOLYLINE
5
138
100
AcDbEntity
8
0
100
AcDbPolyline
90
2
70
1
43
0.0
10
102.76992500000003
20
-29.271393000000003
10
102.53992900000001
20
-29.031394999999982
0
LWPOLYLINE
5
139
100
AcDbEntity
8
0
100
AcDbPolyline
90
2
70
1
43
0.0
10
87.065556000000015
20
-59.959202000000005
10
94.065549000000004
20
-72.083549000000005
0
LWPOLYLINE
5
140
100
AcDbEntity
8
0
100
AcDbPolyline
90
2
70
1
43
0.0
10
225.48497000000003
20
-48.399101000000002
10
224.59166000000005
20
-48.398414999999993
0
LWPOLYLINE
5
141
100
AcDbEntity
8
0
100
AcDbPolyline
90
2
70
1
43
0.0
10
170.61768999999998
20
-2.6713999999999949
10
184.61769000000004
20
-2.6713999999999949
0
LWPOLYLINE
5
142
100
AcDbEntity
8
0
100
AcDbPolyline
90
2
70
1
43
0.0
10
102.53992900000001
20
-29.031394999999982
10
102.76992500000003
20
-29.271393000000003
0
LWPOLYLINE
5
143
100
AcDbEntity
8
0
100
AcDbPolyline
90
2
70
1
43
0.0
10
92.564931000000016
20
-75.324965999999989
10
82.314938000000012
20
-57.524979000000002
0
LWPOLYLINE
5
144
100
AcDbEntity
8
0
100
AcDbPolyline
90
2
70
1
43
0.0
10
146.51771000000002
20
-59.821372999999994
10
132.51771000000002
20
-59.821372999999994
0
LWPOLYLINE
5
145
100
AcDbEntity
8
0
100
AcDbPolyline
90
2
70
1
43
0.0
10
146.51771000000002
20
-45.821381000000002
10
146.51771000000002
20
-59.821372999999994
0
LWPOLYLINE
5
146
100
AcDbEntity
8
0
100
AcDbPolyline
90
2
70
1
43
0.0
10
184.61769000000004
20
-7.7214000000000027
10
170.61768999999998
20
-7.7214000000000027
0
LWPOLYLINE
5
147
100
AcDbEntity
8
0
100
AcDbPolyline
90
2
70
1
43
0.0
10
102.53992900000001
20
-28.521392999999993
10
95.499928000000011
20
-28.521392999999993
0
LWPOLYLINE
5
148
100
AcDbEntity
8
0
100
AcDbPolyline
90
2
70
1
43
0.0
10
165.5677
20
-5.2214099999999952
10
151.5677
20
-5.2214099999999952
0
LWPOLYLINE
5
149
100
AcDbEntity
8
0
100
AcDbPolyline
90
2
70
1
43
0.0
10
225.38513999999998
20
26.696300000000015
10
225.43925000000002
20
26.500400000000024
0
LWPOLYLINE
5
150
100
AcDbEntity
8
0
100
AcDbPolyline
90
2
70
1
43
0.0
10
132.51771000000002
20
-45.821381000000002
10
146.51771000000002
20
-45.821381000000002
0
LWPOLYLINE
5
151
100
AcDbEntity
8
0
100
AcDbPolyline
90
18
70
1
43
0.0
10
92.914929000000015
20
-75.624969000000007
10
93.364926000000011
20
-75.77496699999999
10
92.914929000000015
20
-75.624969000000007
10
93.364926000000011
20
-75.77496699999999
10
92.914929000000015
20
-75.624969000000007
10
92.564931000000016
20
-75.324965999999989
10
92.914929000000015
20
-75.624969000000007
10
92.564931000000016
20
-75.324965999999989
10
92.914929000000015
20
-75.624969000000007
10
92.564931000000016
20
-75.324965999999989
10
92.914929000000015
20
-75.624969000000007
10
92.564931000000016
20
-75.324965999999989
10
92.914929000000015
20
-75.624969000000007
10
93.364926000000011
20
-75.77496699999999
10
93.914929000000015
20
-75.874968999999993
10
93.364926000000011
20
-75.77496699999999
10
93.914929000000015
20
-75.874968999999993
10
93.364926000000011
20
-75.77496699999999
0
LWPOLYLINE
5
152
100
AcDbEntity
8
0
100
AcDbPolyline
90
2
70
1
43
0.0
10
82.114934000000005
20
-56.424972999999994
10
82.164937000000009
20
-57.024979000000002
0
LWPOLYLINE
5
153
100
AcDbEntity
8
0
100
AcDbPolyline
90
2
70
1
43
0.0
10
93.364926000000011
20
-75.77496699999999
10
93.914929000000015
20
-75.874968999999993
0
LWPOLYLINE
5
154
100
AcDbEntity
8
0
100
AcDbPolyline
90
2
70
1
43
0.0
10
87.065556000000015
20
-59.959202000000005
10
94.065549000000004
20
-72.083549000000005
0
LWPOLYLINE
5
155
100
AcDbEntity
8
0
100
AcDbPolyline
90
2
70
1
43
0.0
10
82.114934000000005
20
-56.424972999999994
10
82.164937000000009
20
-57.024979000000002
0
LWPOLYLINE
5
156
100
AcDbEntity
8
0
100
AcDbPolyline
90
2
70
1
43
0.0
10
208.71766000000002
20
11.478590000000004
10
208.71766000000002
20
25.478579999999997
0
LWPOLYLINE
5
157
100
AcDbEntity
8
0
100
AcDbPolyline
90
2
70
1
43
0.0
10
151.5677
20
-43.321387999999992
10
151.5677
20
-57.321381000000002
0
LWPOLYLINE
5
158
100
AcDbEntity
8
0
100
AcDbPolyline
90
2
70
1
43
0.0
10
170.61768999999998
20
11.328580000000024
10
170.61768999999998
20
-2.6713999999999949
0
LWPOLYLINE
5
159
100
AcDbEntity
8
0
100
AcDbPolyline
90
2
70
1
43
0.0
10
222.71766000000008
20
11.478590000000004
10
208.71766000000002
20
11.478590000000004
0
LWPOLYLINE
5
160
100
AcDbEntity
8
0
100
AcDbPolyline
90
2
70
1
43
0.0
10
222.71766000000008
20
25.478579999999997
10
208.71766000000002
20
25.478579999999997
0
LWPOLYLINE
5
161
100
AcDbEntity
8
0
100
AcDbPolyline
90
2
70
1
43
0.0
10
92.564931000000016
20
-75.324965999999989
10
82.314938000000012
20
-57.524979000000002
0
LWPOLYLINE
5
162
100
AcDbEntity
8
0
100
AcDbPolyline
90
2
70
1
43
0.0
10
208.71766000000002
20
25.478579999999997
10
222.71766000000008
20
25.478579999999997
0
LWPOLYLINE
5
163
100
AcDbEntity
8
0
100
AcDbPolyline
90
2
70
1
43
0.0
10
203.66768000000002
20
-7.571399999999997
10
203.66768000000002
20
6.4285899999999963
0
LWPOLYLINE
5
164
100
AcDbEntity
8
0
100
AcDbPolyline
90
2
70
1
43
0.0
10
93.364926000000011
20
-75.77496699999999
10
93.914929000000015
20
-75.874968999999993
0
LWPOLYLINE
5
165
100
AcDbEntity
8
0
100
AcDbPolyline
90
4
70
1
43
0.0
10
222.71766000000008
20
6.4285899999999963
10
208.71766000000002
20
6.4285899999999963
10
222.71766000000008
20
6.4285899999999963
10
222.71766000000008
20
-7.571399999999997
0
LWPOLYLINE
5
166
100
AcDbEntity
8
0
100
AcDbPolyline
90
4
70
1
43
0.0
10
208.71766000000002
20
6.4285899999999963
10
208.71766000000002
20
-7.571399999999997
10
222.71766000000008
20
-7.571399999999997
10
222.71766000000008
20
6.4285899999999963
0
LWPOLYLINE
5
167
100
AcDbEntity
8
0
100
AcDbPolyline
90
2
70
1
43
0.0
10
208.71766000000002
20
-7.571399999999997
10
222.71766000000008
20
-7.571399999999997
0
LWPOLYLINE
5
168
100
AcDbEntity
8
0
100
AcDbPolyline
90
2
70
1
43
0.0
10
208.71766000000002
20
11.478590000000004
10
222.71766000000008
20
11.478590000000004
0
LWPOLYLINE
5
169
100
AcDbEntity
8
0
100
AcDbPolyline
90
2
70
1
43
0.0
10
170.61768999999998
20
-2.6713999999999949
10
170.61768999999998
20
11.328580000000024
0
LWPOLYLINE
5
170
100
AcDbEntity
8
0
100
AcDbPolyline
90
2
70
1
43
0.0
10
208.71766000000002
20
6.4285899999999963
10
208.71766000000002
20
-7.571399999999997
0
LWPOLYLINE
5
171
100
AcDbEntity
8
0
100
AcDbPolyline
90
2
70
1
43
0.0
10
203.66768000000002
20
-7.571399999999997
10
203.66768000000002
20
6.4285899999999963
0
LWPOLYLINE
5
172
100
AcDbEntity
8
0
100
AcDbPolyline
90
4
70
1
43
0.0
10
208.71766000000002
20
6.4285899999999963
10
222.71766000000008
20
6.4285899999999963
10
222.71766000000008
20
-7.571399999999997
10
208.71766000000002
20
-7.571399999999997
0
LWPOLYLINE
5
173
100
AcDbEntity
8
0
100
AcDbPolyline
90
2
70
1
43
0.0
10
208.71766000000002
20
-12.621399999999987
10
222.71766000000008
20
-12.621399999999987
0
LWPOLYLINE
5
174
100
AcDbEntity
8
0
100
AcDbPolyline
90
2
70
1
43
0.0
10
112.41491000000002
20
34.419970000000006
10
149.01490000000001
20
35.87496999999999
0
LWPOLYLINE
5
175
100
AcDbEntity
8
0
100
AcDbPolyline
90
2
70
1
43
0.0
10
224.49031000000005
20
27.429820000000014
10
170.96488999999997
20
35.87496999999999
0
LWPOLYLINE
5
176
100
AcDbEntity
8
0
100
AcDbPolyline
90
2
70
1
43
0.0
10
111.31492
20
33.919970000000021
10
111.11492000000001
20
33.619960000000034
0
LWPOLYLINE
5
177
100
AcDbEntity
8
0
100
AcDbPolyline
90
6
70
1
43
0.0
10
127.46771000000003
20
-10.221400000000003
10
113.46772
20
-10.221400000000003
10
113.46772
20
-24.221396999999989
10
127.46771000000003
20
-24.221396999999989
10
113.46772
20
-24.221396999999989
10
113.46772
20
-10.221400000000003
0
LWPOLYLINE
5
178
100
AcDbEntity
8
0
100
AcDbPolyline
90
2
70
1
43
0.0
10
89.319928000000019
20
-24.479995999999993
10
110.01492
20
-24.479995999999993
0
LWPOLYLINE
5
179
100
AcDbEntity
8
0
100
AcDbPolyline
90
2
70
1
43
0.0
10
203.66768000000002
20
-12.621399999999987
10
189.66768000000002
20
-12.621399999999987
0
LWPOLYLINE
5
180
100
AcDbEntity
8
0
100
AcDbPolyline
90
8
70
1
43
0.0
10
113.46772
20
-5.1713999999999949
10
113.46772
20
8.8285800000000236
10
113.46772
20
-5.1713999999999949
10
113.46772
20
8.8285800000000236
10
113.46772
20
-5.1713999999999949
10
127.46771000000003
20
-5.1713999999999949
10
127.46771000000003
20
8.8285800000000236
10
127.46771000000003
20
-5.1713999999999949
0
LWPOLYLINE
5
181
100
AcDbEntity
8
0
100
AcDbPolyline
90
2
70
1
43
0.0
10
222.71766000000008
20
-12.621399999999987
10
208.71766000000002
20
-12.621399999999987
0
LWPOLYLINE
5
182
100
AcDbEntity
8
0
100
AcDbPolyline
90
2
70
1
43
0.0
10
111.51492000000002
20
34.119980000000005
10
111.71492000000001
20
34.219969999999989
0
LWPOLYLINE
5
183
100
AcDbEntity
8
0
100
AcDbPolyline
90
2
70
1
43
0.0
10
138.16903000000002
20
-63.124972999999997
10
93.914929000000015
20
-75.874968999999993
0
LWPOLYLINE
5
184
100
AcDbEntity
8
0
100
AcDbPolyline
90
2
70
1
43
0.0
10
146.51771000000002
20
-26.771393000000003
10
146.51771000000002
20
-40.771384999999995
0
LWPOLYLINE
5
185
100
AcDbEntity
8
0
100
AcDbPolyline
90
2
70
1
43
0.0
10
222.71766000000008
20
-31.671393999999982
10
222.71766000000008
20
-45.671386999999996
0
LWPOLYLINE
5
186
100
AcDbEntity
8
0
100
AcDbPolyline
90
2
70
1
43
0.0
10
110.01492
20
-24.479995999999993
10
89.319928000000019
20
-24.479995999999993
0
LWPOLYLINE
5
187
100
AcDbEntity
8
0
100
AcDbPolyline
90
2
70
1
43
0.0
10
170.61768999999998
20
-40.771384999999995
10
170.61768999999998
20
-26.771393000000003
0
LWPOLYLINE
5
188
100
AcDbEntity
8
0
100
AcDbPolyline
90
8
70
1
43
0.0
10
222.71766000000008
20
-45.671386999999996
10
208.71766000000002
20
-45.671386999999996
10
208.71766000000002
20
-31.671393999999982
10
222.71766000000008
20
-31.671393999999982
10
222.71766000000008
20
-45.671386999999996
10
208.71766000000002
20
-45.671386999999996
10
208.71766000000002
20
-31.671393999999982
10
208.71766000000002
20
-45.671386999999996
0
LWPOLYLINE
5
189
100
AcDbEntity
8
0
100
AcDbPolyline
90
2
70
1
43
0.0
10
184.61769000000004
20
-59.821372999999994
10
184.61769000000004
20
-45.821381000000002
0
LWPOLYLINE
5
190
100
AcDbEntity
8
0
100
AcDbPolyline
90
2
70
1
43
0.0
10
132.51771000000002
20
-21.721396999999989
10
146.51771000000002
20
-21.721396999999989
0
LWPOLYLINE
5
191
100
AcDbEntity
8
0
100
AcDbPolyline
90
2
70
1
43
0.0
10
208.71766000000002
20
-31.671393999999982
10
222.71766000000008
20
-31.671393999999982
0
LWPOLYLINE
5
192
100
AcDbEntity
8
0
100
AcDbPolyline
90
2
70
1
43
0.0
10
224.69197000000003
20
27.378199999999993
10
224.49031000000005
20
27.429820000000014
0
LWPOLYLINE
5
193
100
AcDbEntity
8
0
100
AcDbPolyline
90
2
70
1
43
0.0
10
225.48497000000003
20
-48.399101000000002
10
224.59166000000005
20
-48.398414999999993
0
LWPOLYLINE
5
194
100
AcDbEntity
8
0
100
AcDbPolyline
90
2
70
1
43
0.0
10
151.5677
20
-38.271384999999981
10
151.5677
20
-24.271393000000003
0
LWPOLYLINE
5
195
100
AcDbEntity
8
0
100
AcDbPolyline
90
2
70
1
43
0.0
10
93.914929000000015
20
-75.874968999999993
10
138.16903000000002
20
-63.124972999999997
0
LWPOLYLINE
5
196
100
AcDbEntity
8
0
100
AcDbPolyline
90
2
70
1
43
0.0
10
111.31492
20
33.919970000000021
10
111.11492000000001
20
33.619960000000034
0
LWPOLYLINE
5
197
100
AcDbEntity
8
0
100
AcDbPolyline
90
2
70
1
43
0.0
10
184.61769000000004
20
-21.721396999999989
10
184.61769000000004
20
-7.7214000000000027
0
LWPOLYLINE
5
198
100
AcDbEntity
8
0
100
AcDbPolyline
90
2
70
1
43
0.0
10
184.61769000000004
20
-21.721396999999989
10
170.61768999999998
20
-21.721396999999989
0
LWPOLYLINE
5
199
100
AcDbEntity
8
0
100
AcDbPolyline
90
2
70
1
43
0.0
10
184.61769000000004
20
-26.771393000000003
10
170.61768999999998
20
-26.771393000000003
0
LWPOLYLINE
5
200
100
AcDbEntity
8
0
100
AcDbPolyline
90
2
70
1
43
0.0
10
184.61769000000004
20
-59.821372999999994
10
184.61769000000004
20
-45.821381000000002
0
LWPOLYLINE
5
201
100
AcDbEntity
8
0
100
AcDbPolyline
90
4
70
1
43
0.0
10
170.61768999999998
20
-26.771393000000003
10
184.61769000000004
20
-26.771393000000003
10
170.61768999999998
20
-26.771393000000003
10
170.61768999999998
20
-40.771384999999995
0
LWPOLYLINE
5
202
100
AcDbEntity
8
0
100
AcDbPolyline
90
2
70
1
43
0.0
10
151.5677
20
-38.271384999999981
10
165.5677
20
-38.271384999999981
0
LWPOLYLINE
5
203
100
AcDbEntity
8
0
100
AcDbPolyline
90
2
70
1
43
0.0
10
111.51492000000002
20
34.119980000000005
10
111.71492000000001
20
34.219969999999989
0
LWPOLYLINE
5
204
100
AcDbEntity
8
0
100
AcDbPolyline
90
28
70
1
43
0.0
10
224.49031000000005
20
27.429820000000014
10
224.69197000000003
20
27.378199999999993
10
224.49031000000005
20
27.429820000000014
10
224.69197000000003
20
27.378199999999993
10
224.87672000000003
20
27.293520000000004
10
225.04149000000007
20
27.179370000000009
10
224.87672000000003
20
27.293520000000004
10
225.04149000000007
20
27.179370000000009
10
225.18317999999999
20
27.039400000000011
10
225.29875000000004
20
26.87717000000001
10
225.38513999999998
20
26.696300000000015
10
225.29875000000004
20
26.87717000000001
10
225.38513999999998
20
26.696300000000015
10
225.29875000000004
20
26.87717000000001
10
225.18317999999999
20
27.039400000000011
10
225.04149000000007
20
27.179370000000009
10
225.18317999999999
20
27.039400000000011
10
225.04149000000007
20
27.179370000000009
10
225.18317999999999
20
27.039400000000011
10
225.04149000000007
20
27.179370000000009
10
225.18317999999999
20
27.039400000000011
10
225.29875000000004
20
26.87717000000001
10
225.18317999999999
20
27.039400000000011
10
225.04149000000007
20
27.179370000000009
10
224.87672000000003
20
27.293520000000004
10
224.69197000000003
20
27.378199999999993
10
224.49031000000005
20
27.429820000000014
10
170.96488999999997
20
35.87496999999999
0
LWPOLYLINE
5
205
100
AcDbEntity
8
0
100
AcDbPolyline
90
2
70
1
43
0.0
10
151.5677
20
-57.321381000000002
10
165.5677
20
-57.321381000000002
0
LWPOLYLINE
5
206
100
AcDbEntity
8
0
100
AcDbPolyline
90
2
70
1
43
0.0
10
132.51771000000002
20
-21.721396999999989
10
146.51771000000002
20
-21.721396999999989
0
LWPOLYLINE
5
207
100
AcDbEntity
8
0
100
AcDbPolyline
90
2
70
1
43
0.0
10
146.51771000000002
20
-26.771393000000003
10
132.51771000000002
20
-26.771393000000003
0
LWPOLYLINE
5
208
100
AcDbEntity
8
0
100
AcDbPolyline
90
6
70
1
43
0.0
10
224.69197000000003
20
27.378199999999993
10
224.87672000000003
20
27.293520000000004
10
224.69197000000003
20
27.378199999999993
10
224.87672000000003
20
27.293520000000004
10
224.69197000000003
20
27.378199999999993
10
224.49031000000005
20
27.429820000000014
0
LWPOLYLINE
5
209
100
AcDbEntity
8
0
100
AcDbPolyline
90
10
70
1
43
0.0
10
151.5677
20
-24.271393000000003
10
165.5677
20
-24.271393000000003
10
151.5677
20
-24.271393000000003
10
151.5677
20
-38.271384999999981
10
151.5677
20
-24.271393000000003
10
165.5677
20
-24.271393000000003
10
165.5677
20
-38.271384999999981
10
165.5677
20
-24.271393000000003
10
165.5677
20
-38.271384999999981
10
165.5677
20
-24.271393000000003
0
LWPOLYLINE
5
210
100
AcDbEntity
8
0
100
AcDbPolyline
90
2
70
1
43
0.0
10
132.51771000000002
20
-40.771384999999995
10
146.51771000000002
20
-40.771384999999995
0
LWPOLYLINE
5
211
100
AcDbEntity
8
0
100
AcDbPolyline
90
16
70
1
43
0.0
10
111.11492000000001
20
33.619960000000034
10
111.31492
20
33.919970000000021
10
111.11492000000001
20
33.619960000000034
10
111.01492
20
33.274979999999999
10
111.01492
20
-23.479995999999996
10
111.01251000000003
20
-23.578246999999983
10
110.72175000000001
20
-24.190918000000003
10
110.63731000000003
20
-24.265624999999993
10
110.72175000000001
20
-24.190918000000003
10
111.01251000000003
20
-23.578246999999983
10
110.99803000000001
20
-23.676589999999997
10
111.01251000000003
20
-23.578246999999983
10
111.01492
20
-23.479995999999996
10
111.01492
20
33.274979999999999
10
111.01492
20
-23.479995999999996
10
111.01492
20
33.274979999999999
0
LWPOLYLINE
5
212
100
AcDbEntity
8
0
100
AcDbPolyline
90
2
70
1
43
0.0
10
170.61768999999998
20
-45.821381000000002
10
184.61769000000004
20
-45.821381000000002
0
LWPOLYLINE
5
213
100
AcDbEntity
8
0
100
AcDbPolyline
90
2
70
1
43
0.0
10
184.61769000000004
20
-21.721396999999989
10
170.61768999999998
20
-21.721396999999989
0
LWPOLYLINE
5
214
100
AcDbEntity
8
0
100
AcDbPolyline
90
2
70
1
43
0.0
10
151.5677
20
-57.321381000000002
10
165.5677
20
-57.321381000000002
0
LWPOLYLINE
5
215
100
AcDbEntity
8
0
100
AcDbPolyline
90
2
70
1
43
0.0
10
184.61769000000004
20
-21.721396999999989
10
184.61769000000004
20
-7.7214000000000027
0
LWPOLYLINE
5
216
100
AcDbEntity
8
0
100
AcDbPolyline
90
2
70
1
43
0.0
10
165.5677
20
-19.221399999999988
10
151.5677
20
-19.221399999999988
0
LWPOLYLINE
5
217
100
AcDbEntity
8
0
100
AcDbPolyline
90
2
70
1
43
0.0
10
111.01492
20
-23.479995999999996
10
111.01251000000003
20
-23.578246999999983
0
LWPOLYLINE
5
218
100
AcDbEntity
8
0
100
AcDbPolyline
90
2
70
1
43
0.0
10
122.46747000000001
20
-48.948173999999995
10
108.94451000000002
20
-52.571631999999994
0
LWPOLYLINE
5
219
100
AcDbEntity
8
0
100
AcDbPolyline
90
16
70
1
43
0.0
10
110.94075000000002
20
-23.865096999999977
10
110.97401000000004
20
-23.772422999999989
10
110.94075000000002
20
-23.865096999999977
10
110.89859000000001
20
-23.953948999999994
10
110.84782000000003
20
-24.038306999999985
10
110.78877000000003
20
-24.117516000000006
10
110.72175000000001
20
-24.190918000000003
10
110.01492
20
-24.479995999999993
10
89.319928000000019
20
-24.479995999999993
10
89.221677000000014
20
-24.48239899999999
10
89.319928000000019
20
-24.479995999999993
10
110.01492
20
-24.479995999999993
10
110.72175000000001
20
-24.190918000000003
10
110.78877000000003
20
-24.117516000000006
10
110.84782000000003
20
-24.038306999999985
10
110.89859000000001
20
-23.953948999999994
0
LWPOLYLINE
5
220
100
AcDbEntity
8
0
100
AcDbPolyline
90
2
70
1
43
0.0
10
82.114934000000005
20
-56.024978999999995
10
82.214940000000013
20
-55.524978999999995
0
LWPOLYLINE
5
221
100
AcDbEntity
8
0
100
AcDbPolyline
90
2
70
1
43
0.0
10
106.01992000000001
20
-43.271384999999995
10
102.76992500000003
20
-43.271384999999995
0
LWPOLYLINE
5
222
100
AcDbEntity
8
0
100
AcDbPolyline
90
2
70
1
43
0.0
10
203.66768000000002
20
-45.671386999999996
10
203.66768000000002
20
-31.671393999999982
0
LWPOLYLINE
5
223
100
AcDbEntity
8
0
100
AcDbPolyline
90
2
70
1
43
0.0
10
187.26548000000003
20
-63.102660999999998
10
187.27559999999997
20
-49.129730000000009
0
LWPOLYLINE
5
224
100
AcDbEntity
8
0
100
AcDbPolyline
90
16
70
1
43
0.0
10
88.761632000000006
20
-24.647094999999997
10
88.845990000000015
20
-24.596335999999983
10
88.761632000000006
20
-24.647094999999997
10
88.682416000000018
20
-24.706145999999993
10
88.609013000000019
20
-24.773169999999993
10
89.221677000000014
20
-24.482414000000006
10
89.123341000000011
20
-24.496886999999994
10
89.221677000000014
20
-24.482414000000006
10
88.609013000000019
20
-24.773169999999993
10
88.319928000000019
20
-25.479995999999989
10
88.290189000000012
20
-43.524985999999998
10
88.319928000000019
20
-25.479995999999989
10
88.290189000000012
20
-43.524985999999998
10
88.319928000000019
20
-25.479995999999989
10
88.609013000000019
20
-24.773169999999993
10
88.682416000000018
20
-24.706145999999993
0
LWPOLYLINE
5
225
100
AcDbEntity
8
0
100
AcDbPolyline
90
2
70
1
43
0.0
10
89.027509000000009
20
-24.520919999999986
10
89.123341000000011
20
-24.496886999999994
0
LWPOLYLINE
5
226
100
AcDbEntity
8
0
100
AcDbPolyline
90
2
70
1
43
0.0
10
151.5677
20
18.878590000000006
10
165.5677
20
18.878590000000006
0
LWPOLYLINE
5
227
100
AcDbEntity
8
0
100
AcDbPolyline
90
2
70
1
43
0.0
10
82.114934000000005
20
-56.024978999999995
10
82.114934000000005
20
-56.424972999999994
0
LWPOLYLINE
5
228
100
AcDbEntity
8
0
100
AcDbPolyline
90
2
70
1
43
0.0
10
88.534306000000015
20
-24.857596999999991
10
88.609013000000019
20
-24.773169999999993
0
LWPOLYLINE
5
229
100
AcDbEntity
8
0
100
AcDbPolyline
90
2
70
1
43
0.0
10
203.66768000000002
20
-31.671393999999982
10
203.66768000000002
20
-45.671386999999996
0
LWPOLYLINE
5
230
100
AcDbEntity
8
0
100
AcDbPolyline
90
4
70
1
43
0.0
10
108.94451000000002
20
-52.571631999999994
10
122.46747000000001
20
-48.948173999999995
10
108.94451000000002
20
-52.571631999999994
10
112.56797
20
-66.094588999999999
0
LWPOLYLINE
5
231
100
AcDbEntity
8
0
100
AcDbPolyline
90
2
70
1
43
0.0
10
151.5677
20
32.878570000000011
10
165.5677
20
32.878570000000011
0
LWPOLYLINE
5
232
100
AcDbEntity
8
0
100
AcDbPolyline
90
4
70
1
43
0.0
10
127.46771000000003
20
-43.271384999999995
10
113.46772
20
-43.271384999999995
10
127.46771000000003
20
-43.271384999999995
10
127.46771000000003
20
-29.271393000000003
0
LWPOLYLINE
5
233
100
AcDbEntity
8
0
100
AcDbPolyline
90
4
70
1
43
0.0
10
151.5677
20
18.878590000000006
10
165.5677
20
18.878590000000006
10
151.5677
20
18.878590000000006
10
151.5677
20
32.878570000000011
0
LWPOLYLINE
5
234
100
AcDbEntity
8
0
100
AcDbPolyline
90
2
70
1
43
0.0
10
99.189908000000003
20
-52.959206000000009
10
106.18990000000002
20
-65.083548999999991
0
LWPOLYLINE
5
235
100
AcDbEntity
8
0
100
AcDbPolyline
90
2
70
1
43
0.0
10
102.76992500000003
20
-43.271384999999995
10
106.01992000000001
20
-43.271384999999995
0
LWPOLYLINE
5
236
100
AcDbEntity
8
0
100
AcDbPolyline
90
2
70
1
43
0.0
10
170.61768999999998
20
30.378570000000007
10
170.61768999999998
20
16.378590000000006
0
LWPOLYLINE
5
237
100
AcDbEntity
8
0
100
AcDbPolyline
90
2
70
1
43
0.0
10
110.34501000000003
20
-24.425345999999983
10
110.44796000000004
20
-24.38324699999999
0
LWPOLYLINE
5
238
100
AcDbEntity
8
0
100
AcDbPolyline
90
2
70
1
43
0.0
10
110.12750000000003
20
-24.474128999999998
10
110.23786000000003
20
-24.455779999999994
0
LWPOLYLINE
5
239
100
AcDbEntity
8
0
100
AcDbPolyline
90
2
70
1
43
0.0
10
106.01992000000001
20
-29.271393000000003
10
102.76992500000003
20
-29.271393000000003
0
LWPOLYLINE
5
240
100
AcDbEntity
8
0
100
AcDbPolyline
90
2
70
1
43
0.0
10
170.61768999999998
20
16.378590000000006
10
170.61768999999998
20
30.378570000000007
0
LWPOLYLINE
5
241
100
AcDbEntity
8
0
100
AcDbPolyline
90
2
70
1
43
0.0
10
113.46772
20
-24.221396999999989
10
127.46771000000003
20
-24.221396999999989
0
LWPOLYLINE
5
242
100
AcDbEntity
8
0
100
AcDbPolyline
90
2
70
1
43
0.0
10
106.01992000000001
20
-29.271393000000003
10
102.76992500000003
20
-29.271393000000003
0
LWPOLYLINE
5
243
100
AcDbEntity
8
0
100
AcDbPolyline
90
2
70
1
43
0.0
10
88.416692000000012
20
-25.046951000000011
10
88.470067000000014
20
-24.949188000000007
0
LWPOLYLINE
5
244
100
AcDbEntity
8
0
100
AcDbPolyline
90
2
70
1
43
0.0
10
82.114934000000005
20
-56.024978999999995
10
82.114934000000005
20
-56.424972999999994
0
LWPOLYLINE
5
245
100
AcDbEntity
8
0
100
AcDbPolyline
90
2
70
1
43
0.0
10
82.114934000000005
20
-56.424972999999994
10
82.114934000000005
20
-56.024978999999995
0
LWPOLYLINE
5
246
100
AcDbEntity
8
0
100
AcDbPolyline
90
30
70
1
43
0.0
10
88.325803000000008
20
-25.367408999999999
10
88.344151000000011
20
-25.257050000000003
10
88.325803000000008
20
-25.367408999999999
10
88.319928000000019
20
-25.479995999999989
10
88.290189000000012
20
-43.524985999999998
10
88.214932000000005
20
-44.174980000000005
10
88.014935000000008
20
-44.774985999999998
10
82.214940000000013
20
-55.524978999999995
10
88.014935000000008
20
-44.774985999999998
10
88.214932000000005
20
-44.174980000000005
10
88.014935000000008
20
-44.774985999999998
10
82.214940000000013
20
-55.524978999999995
10
82.114934000000005
20
-56.024978999999995
10
82.114934000000005
20
-56.424972999999994
10
82.114934000000005
20
-56.024978999999995
10
82.214940000000013
20
-55.524978999999995
10
88.014935000000008
20
-44.774985999999998
10
88.214932000000005
20
-44.174980000000005
10
88.290189000000012
20
-43.524985999999998
10
88.214932000000005
20
-44.174980000000005
10
88.014935000000008
20
-44.774985999999998
10
88.214932000000005
20
-44.174980000000005
10
88.290189000000012
20
-43.524985999999998
10
88.214932000000005
20
-44.174980000000005
10
88.290189000000012
20
-43.524985999999998
10
88.214932000000005
20
-44.174980000000005
10
88.014935000000008
20
-44.774985999999998
10
88.214932000000005
20
-44.174980000000005
10
88.290189000000012
20
-43.524985999999998
10
88.319928000000019
20
-25.479995999999989
0
LWPOLYLINE
5
247
100
AcDbEntity
8
0
100
AcDbPolyline
90
2
70
1
43
0.0
10
88.470067000000014
20
-24.949188000000007
10
88.534306000000015
20
-24.857596999999991
0
LWPOLYLINE
5
248
100
AcDbEntity
8
0
100
AcDbPolyline
90
2
70
1
43
0.0
10
106.01992000000001
20
-29.271393000000003
10
106.01992000000001
20
-43.271384999999995
0
LWPOLYLINE
5
249
100
AcDbEntity
8
0
100
AcDbPolyline
90
2
70
1
43
0.0
10
110.23786000000003
20
-24.455779999999994
10
110.34501000000003
20
-24.425345999999983
0
LWPOLYLINE
5
250
100
AcDbEntity
8
0
100
AcDbPolyline
90
2
70
1
43
0.0
10
106.18990000000002
20
-65.083548999999991
10
99.189908000000003
20
-52.959206000000009
0
LWPOLYLINE
5
251
100
AcDbEntity
8
0
100
AcDbPolyline
90
2
70
1
43
0.0
10
88.344151000000011
20
-25.257050000000003
10
88.374584999999996
20
-25.149901999999997
0
LWPOLYLINE
5
252
100
AcDbEntity
8
0
100
AcDbPolyline
90
2
70
1
43
0.0
10
106.01992000000001
20
-43.271384999999995
10
106.01992000000001
20
-29.271393000000003
0
LWPOLYLINE
5
253
100
AcDbEntity
8
0
100
AcDbPolyline
90
2
70
1
43
0.0
10
113.46772
20
-29.271393000000003
10
113.46772
20
-43.271384999999995
0
LWPOLYLINE
5
254
100
AcDbEntity
8
0
100
AcDbPolyline
90
2
70
1
43
0.0
10
88.374584999999996
20
-25.149901999999997
10
88.416692000000012
20
-25.046951000000011
0
LWPOLYLINE
5
255
100
AcDbEntity
8
0
100
AcDbPolyline
90
2
70
1
43
0.0
10
184.61769000000004
20
11.328580000000024
10
170.61768999999998
20
11.328580000000024
0
LWPOLYLINE
5
256
100
AcDbEntity
8
0
100
AcDbPolyline
90
2
70
1
43
0.0
10
110.54573000000003
20
-24.329865000000002
10
110.63731000000003
20
-24.265624999999993
0
LWPOLYLINE
5
257
100
AcDbEntity
8
0
100
AcDbPolyline
90
2
70
1
43
0.0
10
110.01492
20
-24.479995999999993
10
110.12750000000003
20
-24.474128999999998
0
LWPOLYLINE
5
258
100
AcDbEntity
8
0
100
AcDbPolyline
90
2
70
1
43
0.0
10
82.214940000000013
20
-55.524978999999995
10
82.114934000000005
20
-56.024978999999995
0
LWPOLYLINE
5
259
100
AcDbEntity
8
0
100
AcDbPolyline
90
2
70
1
43
0.0
10
112.56797
20
-66.094588999999999
10
108.94451000000002
20
-52.571631999999994
0
LWPOLYLINE
5
260
100
AcDbEntity
8
0
100
AcDbPolyline
90
2
70
1
43
0.0
10
165.5677
20
18.878590000000006
10
165.5677
20
32.878570000000011
0
LWPOLYLINE
5
261
100
AcDbEntity
8
0
100
AcDbPolyline
90
2
70
1
43
0.0
10
112.56797
20
-66.094588999999999
10
126.09092000000003
20
-62.471122999999992
0
LWPOLYLINE
5
262
100
AcDbEntity
8
0
100
AcDbPolyline
90
2
70
1
43
0.0
10
110.44796000000004
20
-24.38324699999999
10
110.54573000000003
20
-24.329865000000002
0
LWPOLYLINE
5
263
100
AcDbEntity
8
0
100
AcDbPolyline
90
4
70
1
43
0.0
10
113.46772
20
-43.271384999999995
10
127.46771000000003
20
-43.271384999999995
10
127.46771000000003
20
-29.271393000000003
10
113.46772
20
-29.271393000000003
0
LWPOLYLINE
5
264
100
AcDbEntity
8
0
100
AcDbPolyline
90
6
70
1
43
0.0
10
113.46772
20
-43.271384999999995
10
113.46772
20
-29.271393000000003
10
127.46771000000003
20
-29.271393000000003
10
113.46772
20
-29.271393000000003
10
127.46771000000003
20
-29.271393000000003
10
127.46771000000003
20
-43.271384999999995
0
LWPOLYLINE
5
265
100
AcDbEntity
8
0
100
AcDbPolyline
90
2
70
1
43
0.0
10
222.71766000000008
20
25.478579999999997
10
222.71766000000008
20
11.478590000000004
0
LWPOLYLINE
5
266
100
AcDbEntity
8
0
100
AcDbPolyline
90
2
70
1
43
0.0
10
126.09092000000003
20
-62.471122999999992
10
112.56797
20
-66.094588999999999
0
LWPOLYLINE
5
267
100
AcDbEntity
8
0
100
AcDbPolyline
90
2
70
1
43
0.0
10
208.71766000000002
20
25.478579999999997
10
208.71766000000002
20
11.478590000000004
0
LWPOLYLINE
5
268
100
AcDbEntity
8
0
100
AcDbPolyline
90
2
70
1
43
0.0
10
88.319928000000019
20
-25.479995999999989
10
88.290189000000012
20
-43.524985999999998
0
LWPOLYLINE
5
269
100
AcDbEntity
8
0
100
AcDbPolyline
90
2
70
1
43
0.0
10
225.38513999999998
20
26.696300000000015
10
225.43925000000002
20
26.500400000000024
0
LWPOLYLINE
5
270
100
AcDbEntity
8
0
100
AcDbPolyline
90
2
70
1
43
0.0
10
87.065556000000015
20
-59.959202000000005
10
99.189908000000003
20
-52.959206000000009
0
LWPOLYLINE
5
271
100
AcDbEntity
8
0
100
AcDbPolyline
90
2
70
1
43
0.0
10
184.61769000000004
20
30.378570000000007
10
170.61768999999998
20
30.378570000000007
0
LWPOLYLINE
5
272
100
AcDbEntity
8
0
100
AcDbPolyline
90
2
70
1
43
0.0
10
165.5677
20
32.878570000000011
10
151.5677
20
32.878570000000011
0
LWPOLYLINE
5
273
100
AcDbEntity
8
0
100
AcDbPolyline
90
6
70
1
43
0.0
10
146.51771000000002
20
-45.821381000000002
10
132.51771000000002
20
-45.821381000000002
10
132.51771000000002
20
-59.821372999999994
10
146.51771000000002
20
-59.821372999999994
10
132.51771000000002
20
-59.821372999999994
10
132.51771000000002
20
-45.821381000000002
0
LWPOLYLINE
5
274
100
AcDbEntity
8
0
100
AcDbPolyline
90
2
70
1
43
0.0
10
184.61769000000004
20
30.378570000000007
10
184.61769000000004
20
16.378590000000006
0
LWPOLYLINE
5
275
100
AcDbEntity
8
0
100
AcDbPolyline
90
2
70
1
43
0.0
10
187.26548000000003
20
-63.102660999999998
10
187.27559999999997
20
-49.129730000000009
0
LWPOLYLINE
5
276
100
AcDbEntity
8
0
100
AcDbPolyline
90
2
70
1
43
0.0
10
99.189908000000003
20
-52.959206000000009
10
87.065556000000015
20
-59.959202000000005
0
LWPOLYLINE
5
277
100
AcDbEntity
8
0
100
AcDbPolyline
90
2
70
1
43
0.0
10
126.09092000000003
20
-62.471122999999992
10
122.46747000000001
20
-48.948173999999995
0
LWPOLYLINE
5
278
100
AcDbEntity
8
0
100
AcDbPolyline
90
2
70
1
43
0.0
10
165.5677
20
32.878570000000011
10
165.5677
20
18.878590000000006
0
LWPOLYLINE
5
279
100
AcDbEntity
8
0
100
AcDbPolyline
90
2
70
1
43
0.0
10
92.019933000000009
20
-29.271393000000003
10
92.019933000000009
20
-43.271384999999995
0
LWPOLYLINE
5
280
100
AcDbEntity
8
0
100
AcDbPolyline
90
2
70
1
43
0.0
10
102.53992900000001
20
-43.511382999999988
10
102.76992500000003
20
-43.271384999999995
0
LWPOLYLINE
5
281
100
AcDbEntity
8
0
100
AcDbPolyline
90
2
70
1
43
0.0
10
102.76992500000003
20
-43.271384999999995
10
102.53992900000001
20
-43.511382999999988
0
LWPOLYLINE
5
282
100
AcDbEntity
8
0
100
AcDbPolyline
90
2
70
1
43
0.0
10
203.66768000000002
20
25.478579999999997
10
203.66768000000002
20
11.478590000000004
0
LWPOLYLINE
5
283
100
AcDbEntity
8
0
100
AcDbPolyline
90
2
70
1
43
0.0
10
170.61768999999998
20
30.378570000000007
10
184.61769000000004
20
30.378570000000007
0
LWPOLYLINE
5
284
100
AcDbEntity
8
0
100
AcDbPolyline
90
6
70
1
43
0.0
10
170.61768999999998
20
-45.821381000000002
10
170.61768999999998
20
-59.821372999999994
10
184.61769000000004
20
-59.821372999999994
10
170.61768999999998
20
-59.821372999999994
10
170.61768999999998
20
-45.821381000000002
10
184.61769000000004
20
-45.821381000000002
0
LWPOLYLINE
5
285
100
AcDbEntity
8
0
100
AcDbPolyline
90
2
70
1
43
0.0
10
89.221677000000014
20
-24.48239899999999
10
89.319928000000019
20
-24.479995999999993
0
LWPOLYLINE
5
286
100
AcDbEntity
8
0
100
AcDbPolyline
90
2
70
1
43
0.0
10
184.61769000000004
20
16.378590000000006
10
170.61768999999998
20
16.378590000000006
0
LWPOLYLINE
5
287
100
AcDbEntity
8
0
100
AcDbPolyline
90
2
70
1
43
0.0
10
110.97401000000004
20
-23.772422999999989
10
110.99803000000001
20
-23.676589999999997
0
LWPOLYLINE
5
288
100
AcDbEntity
8
0
100
AcDbPolyline
90
2
70
1
43
0.0
10
88.845990000000015
20
-24.596335999999983
10
88.934834000000009
20
-24.554168999999977
0
LWPOLYLINE
5
289
100
AcDbEntity
8
0
100
AcDbPolyline
90
2
70
1
43
0.0
10
88.934834000000009
20
-24.554168999999977
10
89.027509000000009
20
-24.520919999999986
0
LWPOLYLINE
5
290
100
AcDbEntity
8
0
100
AcDbPolyline
90
2
70
1
43
0.0
10
189.66768000000002
20
-31.671393999999982
10
203.66768000000002
20
-31.671393999999982
0
LWPOLYLINE
5
291
100
AcDbEntity
8
0
100
AcDbPolyline
90
2
70
1
43
0.0
10
94.065549000000004
20
-72.083549000000005
10
106.18990000000002
20
-65.083548999999991
0
LWPOLYLINE
5
292
100
AcDbEntity
8
0
100
AcDbPolyline
90
2
70
1
43
0.0
10
138.16903000000002
20
-63.124972999999997
10
187.26548000000003
20
-63.102660999999998
0
LWPOLYLINE
5
293
100
AcDbEntity
8
0
100
AcDbPolyline
90
2
70
1
43
0.0
10
138.16903000000002
20
-63.124972999999997
10
187.26548000000003
20
-63.102660999999998
0
LWPOLYLINE
5
294
100
AcDbEntity
8
0
100
AcDbPolyline
90
2
70
1
43
0.0
10
138.16903000000002
20
-63.124972999999997
10
187.26548000000003
20
-63.102660999999998
0
LWPOLYLINE
5
295
100
AcDbEntity
8
0
100
AcDbPolyline
90
2
70
1
43
0.0
10
138.16903000000002
20
-63.124972999999997
10
187.26548000000003
20
-63.102660999999998
0
LWPOLYLINE
5
296
100
AcDbEntity
8
0
100
AcDbPolyline
90
2
70
1
43
0.0
10
132.51771000000002
20
30.378570000000007
10
146.51771000000002
20
30.378570000000007
0
LWPOLYLINE
5
297
100
AcDbEntity
8
0
100
AcDbPolyline
90
2
70
1
43
0.0
10
146.51771000000002
20
16.378590000000006
10
146.51771000000002
20
30.378570000000007
0
LWPOLYLINE
5
298
100
AcDbEntity
8
0
100
AcDbPolyline
90
2
70
1
43
0.0
10
111.01492
20
33.274979999999999
10
111.01492
20
-23.479995999999996
0
LWPOLYLINE
5
299
100
AcDbEntity
8
0
100
AcDbPolyline
90
2
70
1
43
0.0
10
146.51771000000002
20
30.378570000000007
10
132.51771000000002
20
30.378570000000007
0
LWPOLYLINE
5
300
100
AcDbEntity
8
0
100
AcDbPolyline
90
2
70
1
43
0.0
10
224.87672000000003
20
27.293520000000004
10
225.04149000000007
20
27.179370000000009
0
LWPOLYLINE
5
301
100
AcDbEntity
8
0
100
AcDbPolyline
90
2
70
1
43
0.0
10
138.16903000000002
20
-63.124972999999997
10
93.914929000000015
20
-75.874968999999993
0
LWPOLYLINE
5
302
100
AcDbEntity
8
0
100
AcDbPolyline
90
2
70
1
43
0.0
10
113.46772
20
13.878590000000006
10
127.46771000000003
20
13.878590000000006
0
LWPOLYLINE
5
303
100
AcDbEntity
8
0
100
AcDbPolyline
90
2
70
1
43
0.0
10
225.18317999999999
20
27.039400000000011
10
225.29875000000004
20
26.87717000000001
0
LWPOLYLINE
5
304
100
AcDbEntity
8
0
100
AcDbPolyline
90
2
70
1
43
0.0
10
132.51771000000002
20
-2.6713999999999949
10
132.51771000000002
20
11.328580000000024
0
LWPOLYLINE
5
305
100
AcDbEntity
8
0
100
AcDbPolyline
90
2
70
1
43
0.0
10
132.51771000000002
20
-2.6713999999999949
10
132.51771000000002
20
11.328580000000024
0
LWPOLYLINE
5
306
100
AcDbEntity
8
0
100
AcDbPolyline
90
2
70
1
43
0.0
10
146.51771000000002
20
11.328580000000024
10
146.51771000000002
20
-2.6713999999999949
0
LWPOLYLINE
5
307
100
AcDbEntity
8
0
100
AcDbPolyline
90
2
70
1
43
0.0
10
189.66768000000002
20
-26.621390999999992
10
203.66768000000002
20
-26.621390999999992
0
LWPOLYLINE
5
308
100
AcDbEntity
8
0
100
AcDbPolyline
90
2
70
1
43
0.0
10
203.66768000000002
20
-26.621390999999992
10
203.66768000000002
20
-12.621399999999987
0
LWPOLYLINE
5
309
100
AcDbEntity
8
0
100
AcDbPolyline
90
4
70
1
43
0.0
10
146.51771000000002
20
-7.7214000000000027
10
132.51771000000002
20
-7.7214000000000027
10
146.51771000000002
20
-7.7214000000000027
10
146.51771000000002
20
-21.721396999999989
0
LWPOLYLINE
5
310
100
AcDbEntity
8
0
100
AcDbPolyline
90
4
70
1
43
0.0
10
112.01492
20
34.319980000000015
10
112.41491000000002
20
34.419970000000006
10
112.01492
20
34.319980000000015
10
111.71492000000001
20
34.219969999999989
0
LWPOLYLINE
5
311
100
AcDbEntity
8
0
100
AcDbPolyline
90
2
70
1
43
0.0
10
146.51771000000002
20
11.328580000000024
10
132.51771000000002
20
11.328580000000024
0
LWPOLYLINE
5
312
100
AcDbEntity
8
0
100
AcDbPolyline
90
4
70
1
43
0.0
10
189.66768000000002
20
-26.621390999999992
10
203.66768000000002
20
-26.621390999999992
10
203.66768000000002
20
-12.621399999999987
10
189.66768000000002
20
-12.621399999999987
0
LWPOLYLINE
5
313
100
AcDbEntity
8
0
100
AcDbPolyline
90
4
70
1
43
0.0
10
203.66768000000002
20
-26.621390999999992
10
203.66768000000002
20
-12.621399999999987
10
189.66768000000002
20
-12.621399999999987
10
189.66768000000002
20
-26.621390999999992
0
LWPOLYLINE
5
314
100
AcDbEntity
8
0
100
AcDbPolyline
90
2
70
1
43
0.0
10
132.51771000000002
20
16.378590000000006
10
146.51771000000002
20
16.378590000000006
0
LWPOLYLINE
5
315
100
AcDbEntity
8
0
100
AcDbPolyline
90
2
70
1
43
0.0
10
132.51771000000002
20
-21.721396999999989
10
132.51771000000002
20
-7.7214000000000027
0
LWPOLYLINE
5
316
100
AcDbEntity
8
0
100
AcDbPolyline
90
2
70
1
43
0.0
10
127.46771000000003
20
8.8285800000000236
10
113.46772
20
8.8285800000000236
0
LWPOLYLINE
5
317
100
AcDbEntity
8
0
100
AcDbPolyline
90
2
70
1
43
0.0
10
222.71766000000008
20
-26.621390999999992
10
222.71766000000008
20
-12.621399999999987
0
LWPOLYLINE
5
318
100
AcDbEntity
8
0
100
AcDbPolyline
90
2
70
1
43
0.0
10
203.66768000000002
20
-31.671393999999982
10
189.66768000000002
20
-31.671393999999982
0
LWPOLYLINE
5
319
100
AcDbEntity
8
0
100
AcDbPolyline
90
2
70
1
43
0.0
10
203.66768000000002
20
-45.671386999999996
10
189.66768000000002
20
-45.671386999999996
0
LWPOLYLINE
5
320
100
AcDbEntity
8
0
100
AcDbPolyline
90
2
70
1
43
0.0
10
111.01492
20
-23.479995999999996
10
111.01251000000003
20
-23.578246999999983
0
LWPOLYLINE
5
321
100
AcDbEntity
8
0
100
AcDbPolyline
90
10
70
1
43
0.0
10
203.66768000000002
20
11.478590000000004
10
189.66768000000002
20
11.478590000000004
10
203.66768000000002
20
11.478590000000004
10
189.66768000000002
20
11.478590000000004
10
189.66768000000002
20
25.478579999999997
10
203.66768000000002
20
25.478579999999997
10
189.66768000000002
20
25.478579999999997
10
203.66768000000002
20
25.478579999999997
10
189.66768000000002
20
25.478579999999997
10
189.66768000000002
20
11.478590000000004
0
LWPOLYLINE
5
322
100
AcDbEntity
8
0
100
AcDbPolyline
90
2
70
1
43
0.0
10
184.61769000000004
20
-59.821372999999994
10
170.61768999999998
20
-59.821372999999994
0
LWPOLYLINE
5
323
100
AcDbEntity
8
0
100
AcDbPolyline
90
2
70
1
43
0.0
10
189.66768000000002
20
11.478590000000004
10
189.66768000000002
20
25.478579999999997
0
LWPOLYLINE
5
324
100
AcDbEntity
8
0
100
AcDbPolyline
90
2
70
1
43
0.0
10
82.214940000000013
20
-55.524978999999995
10
82.114934000000005
20
-56.024978999999995
0
LWPOLYLINE
5
325
100
AcDbEntity
8
0
100
AcDbPolyline
90
4
70
1
43
0.0
10
89.221677000000014
20
-24.48239899999999
10
89.319928000000019
20
-24.479995999999993
10
110.01492
20
-24.479995999999993
10
89.319928000000019
20
-24.479995999999993
0
LWPOLYLINE
5
326
100
AcDbEntity
8
0
100
AcDbPolyline
90
2
70
1
43
0.0
10
184.61769000000004
20
11.328580000000024
10
184.61769000000004
20
-2.6713999999999949
0
LWPOLYLINE
5
327
100
AcDbEntity
8
0
100
AcDbPolyline
90
2
70
1
43
0.0
10
88.014935000000008
20
-44.774985999999998
10
82.214940000000013
20
-55.524978999999995
0
LWPOLYLINE
5
328
100
AcDbEntity
8
0
100
AcDbPolyline
90
2
70
1
43
0.0
10
106.18990000000002
20
-65.083548999999991
10
94.065549000000004
20
-72.083549000000005
0
LWPOLYLINE
5
329
100
AcDbEntity
8
0
100
AcDbPolyline
90
2
70
1
43
0.0
10
184.61769000000004
20
30.378570000000007
10
184.61769000000004
20
16.378590000000006
0
LWPOLYLINE
5
330
100
AcDbEntity
8
0
100
AcDbPolyline
90
4
70
1
43
0.0
10
203.66768000000002
20
-45.671386999999996
10
189.66768000000002
20
-45.671386999999996
10
189.66768000000002
20
-31.671393999999982
10
189.66768000000002
20
-45.671386999999996
0
LWPOLYLINE
5
331
100
AcDbEntity
8
0
100
AcDbPolyline
90
2
70
1
43
0.0
10
165.5677
20
-5.2214099999999952
10
165.5677
20
-19.221399999999988
0
LWPOLYLINE
5
332
100
AcDbEntity
8
0
100
AcDbPolyline
90
2
70
1
43
0.0
10
127.46771000000003
20
27.878570000000007
10
113.46772
20
27.878570000000007
0
LWPOLYLINE
5
333
100
AcDbEntity
8
0
100
AcDbPolyline
90
6
70
1
43
0.0
10
184.61769000000004
20
-26.771393000000003
10
184.61769000000004
20
-40.771384999999995
10
184.61769000000004
20
-26.771393000000003
10
184.61769000000004
20
-40.771384999999995
10
170.61768999999998
20
-40.771384999999995
10
184.61769000000004
20
-40.771384999999995
0
LWPOLYLINE
5
334
100
AcDbEntity
8
0
100
AcDbPolyline
90
2
70
1
43
0.0
10
165.5677
20
-57.321381000000002
10
165.5677
20
-43.321387999999992
0
LWPOLYLINE
5
335
100
AcDbEntity
8
0
100
AcDbPolyline
90
2
70
1
43
0.0
10
189.66768000000002
20
-26.621390999999992
10
189.66768000000002
20
-12.621399999999987
0
LWPOLYLINE
5
336
100
AcDbEntity
8
0
100
AcDbPolyline
90
2
70
1
43
0.0
10
132.51771000000002
20
-26.771393000000003
10
146.51771000000002
20
-26.771393000000003
0
LWPOLYLINE
5
337
100
AcDbEntity
8
0
100
AcDbPolyline
90
2
70
1
43
0.0
10
170.61768999999998
20
-40.771384999999995
10
184.61769000000004
20
-40.771384999999995
0
LWPOLYLINE
5
338
100
AcDbEntity
8
0
100
AcDbPolyline
90
2
70
1
43
0.0
10
111.31492
20
33.919970000000021
10
111.51492000000002
20
34.119980000000005
0
LWPOLYLINE
5
339
100
AcDbEntity
8
0
100
AcDbPolyline
90
2
70
1
43
0.0
10
184.61769000000004
20
16.378590000000006
10
170.61768999999998
20
16.378590000000006
0
LWPOLYLINE
5
340
100
AcDbEntity
8
0
100
AcDbPolyline
90
2
70
1
43
0.0
10
222.71766000000008
20
25.478579999999997
10
222.71766000000008
20
11.478590000000004
0
LWPOLYLINE
5
341
100
AcDbEntity
8
0
100
AcDbPolyline
90
2
70
1
43
0.0
10
165.5677
20
-43.321387999999992
10
151.5677
20
-43.321387999999992
0
LWPOLYLINE
5
342
100
AcDbEntity
8
0
100
AcDbPolyline
90
2
70
1
43
0.0
10
132.51771000000002
20
-40.771384999999995
10
146.51771000000002
20
-40.771384999999995
0
LWPOLYLINE
5
343
100
AcDbEntity
8
0
100
AcDbPolyline
90
2
70
1
43
0.0
10
113.46772
20
27.878570000000007
10
113.46772
20
13.878590000000006
0
LWPOLYLINE
5
344
100
AcDbEntity
8
0
100
AcDbPolyline
90
2
70
1
43
0.0
10
165.5677
20
-38.271384999999981
10
151.5677
20
-38.271384999999981
0
LWPOLYLINE
5
345
100
AcDbEntity
8
0
100
AcDbPolyline
90
2
70
1
43
0.0
10
151.5677
20
-19.221399999999988
10
165.5677
20
-19.221399999999988
0
LWPOLYLINE
5
346
100
AcDbEntity
8
0
100
AcDbPolyline
90
2
70
1
43
0.0
10
170.61768999999998
20
-7.7214000000000027
10
170.61768999999998
20
-21.721396999999989
0
LWPOLYLINE
5
347
100
AcDbEntity
8
0
100
AcDbPolyline
90
2
70
1
43
0.0
10
111.51492000000002
20
34.119980000000005
10
111.31492
20
33.919970000000021
0
LWPOLYLINE
5
348
100
AcDbEntity
8
0
100
AcDbPolyline
90
2
70
1
43
0.0
10
170.61768999999998
20
-7.7214000000000027
10
170.61768999999998
20
-21.721396999999989
0
LWPOLYLINE
5
349
100
AcDbEntity
8
0
100
AcDbPolyline
90
2
70
1
43
0.0
10
113.46772
20
27.878570000000007
10
127.46771000000003
20
27.878570000000007
0
LWPOLYLINE
5
350
100
AcDbEntity
8
0
100
AcDbPolyline
90
2
70
1
43
0.0
10
93.914929000000015
20
-75.874968999999993
10
138.16903000000002
20
-63.124972999999997
0
LWPOLYLINE
5
351
100
AcDbEntity
8
0
100
AcDbPolyline
90
2
70
1
43
0.0
10
151.5677
20
-43.321387999999992
10
165.5677
20
-43.321387999999992
0
LWPOLYLINE
5
352
100
AcDbEntity
8
0
100
AcDbPolyline
90
4
70
1
43
0.0
10
222.71766000000008
20
-31.671393999999982
10
208.71766000000002
20
-31.671393999999982
10
208.71766000000002
20
-45.671386999999996
10
222.71766000000008
20
-45.671386999999996
0
LWPOLYLINE
5
353
100
AcDbEntity
8
0
100
AcDbPolyline
90
2
70
1
43
0.0
10
203.66768000000002
20
-7.571399999999997
10
189.66768000000002
20
-7.571399999999997
0
LWPOLYLINE
5
354
100
AcDbEntity
8
0
100
AcDbPolyline
90
2
70
1
43
0.0
10
165.5677
20
-43.321387999999992
10
165.5677
20
-57.321381000000002
0
LWPOLYLINE
5
355
100
AcDbEntity
8
0
100
AcDbPolyline
90
2
70
1
43
0.0
10
189.66768000000002
20
-31.671393999999982
10
189.66768000000002
20
-45.671386999999996
0
LWPOLYLINE
5
356
100
AcDbEntity
8
0
100
AcDbPolyline
90
2
70
1
43
0.0
10
165.5677
20
-5.2214099999999952
10
165.5677
20
-19.221399999999988
0
LWPOLYLINE
5
357
100
AcDbEntity
8
0
100
AcDbPolyline
90
2
70
1
43
0.0
10
184.61769000000004
20
11.328580000000024
10
170.61768999999998
20
11.328580000000024
0
LWPOLYLINE
5
358
100
AcDbEntity
8
0
100
AcDbPolyline
90
2
70
1
43
0.0
10
224.69197000000003
20
27.378199999999993
10
224.87672000000003
20
27.293520000000004
0
LWPOLYLINE
5
359
100
AcDbEntity
8
0
100
AcDbPolyline
90
8
70
1
43
0.0
10
189.66768000000002
20
-7.571399999999997
10
189.66768000000002
20
6.4285899999999963
10
203.66768000000002
20
6.4285899999999963
10
189.66768000000002
20
6.4285899999999963
10
189.66768000000002
20
-7.571399999999997
10
189.66768000000002
20
6.4285899999999963
10
189.66768000000002
20
-7.571399999999997
10
203.66768000000002
20
-7.571399999999997
0
LWPOLYLINE
5
360
100
AcDbEntity
8
0
100
AcDbPolyline
90
2
70
1
43
0.0
10
95.499928000000011
20
-43.871390999999996
10
95.499928000000011
20
-43.511382999999988
0
LWPOLYLINE
5
361
100
AcDbEntity
8
0
100
AcDbPolyline
90
2
70
1
43
0.0
10
203.66768000000002
20
6.4285899999999963
10
189.66768000000002
20
6.4285899999999963
0
LWPOLYLINE
5
362
100
AcDbEntity
8
0
100
AcDbPolyline
90
2
70
1
43
0.0
10
170.61768999999998
20
-45.821381000000002
10
170.61768999999998
20
-59.821372999999994
0
LWPOLYLINE
5
363
100
AcDbEntity
8
0
100
AcDbPolyline
90
2
70
1
43
0.0
10
89.319928000000019
20
-24.479995999999993
10
89.221677000000014
20
-24.48239899999999
0
LWPOLYLINE
5
364
100
AcDbEntity
8
0
100
AcDbPolyline
90
2
70
1
43
0.0
10
82.214940000000013
20
-55.524978999999995
10
88.014935000000008
20
-44.774985999999998
0
LWPOLYLINE
5
365
100
AcDbEntity
8
0
100
AcDbPolyline
90
2
70
1
43
0.0
10
111.01251000000003
20
-23.578246999999983
10
111.01492
20
-23.479995999999996
0
LWPOLYLINE
5
366
100
AcDbEntity
8
0
100
AcDbPolyline
90
2
70
1
43
0.0
10
208.71766000000002
20
-26.621390999999992
10
208.71766000000002
20
-12.621399999999987
0
LWPOLYLINE
5
367
100
AcDbEntity
8
0
100
AcDbPolyline
90
2
70
1
43
0.0
10
132.51771000000002
20
-2.6713999999999949
10
146.51771000000002
20
-2.6713999999999949
0
LWPOLYLINE
5
368
100
AcDbEntity
8
0
100
AcDbPolyline
90
2
70
1
43
0.0
10
132.51771000000002
20
-40.771384999999995
10
132.51771000000002
20
-26.771393000000003
0
LWPOLYLINE
5
369
100
AcDbEntity
8
0
100
AcDbPolyline
90
2
70
1
43
0.0
10
151.5677
20
-19.221399999999988
10
151.5677
20
-5.2214099999999952
0
LWPOLYLINE
5
370
100
AcDbEntity
8
0
100
AcDbPolyline
90
2
70
1
43
0.0
10
127.46771000000003
20
-10.221400000000003
10
127.46771000000003
20
-24.221396999999989
0
LWPOLYLINE
5
371
100
AcDbEntity
8
0
100
AcDbPolyline
90
2
70
1
43
0.0
10
225.18317999999999
20
27.039400000000011
10
225.29875000000004
20
26.87717000000001
0
LWPOLYLINE
5
372
100
AcDbEntity
8
0
100
AcDbPolyline
90
2
70
1
43
0.0
10
224.59166000000005
20
-48.398414999999993
10
187.27614000000003
20
-48.398414999999993
0
LWPOLYLINE
5
373
100
AcDbEntity
8
0
100
AcDbPolyline
90
4
70
1
43
0.0
10
222.71766000000008
20
-26.621390999999992
10
208.71766000000002
20
-26.621390999999992
10
208.71766000000002
20
-12.621399999999987
10
208.71766000000002
20
-26.621390999999992
0
LWPOLYLINE
5
374
100
AcDbEntity
8
0
100
AcDbPolyline
90
2
70
1
43
0.0
10
146.51771000000002
20
11.328580000000024
10
132.51771000000002
20
11.328580000000024
0
LWPOLYLINE
5
375
100
AcDbEntity
8
0
100
AcDbPolyline
90
2
70
1
43
0.0
10
146.51771000000002
20
-21.721396999999989
10
146.51771000000002
20
-7.7214000000000027
0
LWPOLYLINE
5
376
100
AcDbEntity
8
0
100
AcDbPolyline
90
2
70
1
43
0.0
10
222.71766000000008
20
-26.621390999999992
10
222.71766000000008
20
-12.621399999999987
0
LWPOLYLINE
5
377
100
AcDbEntity
8
0
100
AcDbPolyline
90
2
70
1
43
0.0
10
132.51771000000002
20
-40.771384999999995
10
132.51771000000002
20
-26.771393000000003
0
LWPOLYLINE
5
378
100
AcDbEntity
8
0
100
AcDbPolyline
90
2
70
1
43
0.0
10
146.51771000000002
20
-40.771384999999995
10
146.51771000000002
20
-26.771393000000003
0
LWPOLYLINE
5
379
100
AcDbEntity
8
0
100
AcDbPolyline
90
6
70
1
43
0.0
10
113.46772
20
8.8285800000000236
10
127.46771000000003
20
8.8285800000000236
10
127.46771000000003
20
-5.1713999999999949
10
113.46772
20
-5.1713999999999949
10
127.46771000000003
20
-5.1713999999999949
10
127.46771000000003
20
8.8285800000000236
0
LWPOLYLINE
5
380
100
AcDbEntity
8
0
100
AcDbPolyline
90
2
70
1
43
0.0
10
112.41491000000002
20
34.419970000000006
10
149.01490000000001
20
35.87496999999999
0
LWPOLYLINE
5
381
100
AcDbEntity
8
0
100
AcDbPolyline
90
2
70
1
43
0.0
10
151.5677
20
-5.2214099999999952
10
151.5677
20
-19.221399999999988
0
LWPOLYLINE
5
382
100
AcDbEntity
8
0
100
AcDbPolyline
90
2
70
1
43
0.0
10
113.46772
20
-10.221400000000003
10
127.46771000000003
20
-10.221400000000003
0
LWPOLYLINE
5
383
100
AcDbEntity
8
0
100
AcDbPolyline
90
2
70
1
43
0.0
10
113.46772
20
-10.221400000000003
10
113.46772
20
-24.221396999999989
0
LWPOLYLINE
5
384
100
AcDbEntity
8
0
100
AcDbPolyline
90
2
70
1
43
0.0
10
224.49031000000005
20
27.429820000000014
10
170.96488999999997
20
35.87496999999999
0
LWPOLYLINE
5
385
100
AcDbEntity
8
0
100
AcDbPolyline
90
2
70
1
43
0.0
10
208.71766000000002
20
-26.621390999999992
10
222.71766000000008
20
-26.621390999999992
0
LWPOLYLINE
5
386
100
AcDbEntity
8
0
100
AcDbPolyline
90
2
70
1
43
0.0
10
127.46771000000003
20
-24.221396999999989
10
127.46771000000003
20
-10.221400000000003
0
LWPOLYLINE
5
387
100
AcDbEntity
8
0
100
AcDbPolyline
90
2
70
1
43
0.0
10
146.51771000000002
20
-2.6713999999999949
10
146.51771000000002
20
11.328580000000024
0
LWPOLYLINE
5
388
100
AcDbEntity
8
0
100
AcDbPolyline
90
2
70
1
43
0.0
10
127.46771000000003
20
13.878590000000006
10
113.46772
20
13.878590000000006
0
LWPOLYLINE
5
389
100
AcDbEntity
8
0
100
AcDbPolyline
90
2
70
1
43
0.0
10
132.51771000000002
20
-7.7214000000000027
10
132.51771000000002
20
-21.721396999999989
0
LWPOLYLINE
5
390
100
AcDbEntity
8
0
100
AcDbPolyline
90
2
70
1
43
0.0
10
132.51771000000002
20
-7.7214000000000027
10
146.51771000000002
20
-7.7214000000000027
0
LWPOLYLINE
5
391
100
AcDbEntity
8
0
100
AcDbPolyline
90
2
70
1
43
0.0
10
132.51771000000002
20
16.378590000000006
10
146.51771000000002
20
16.378590000000006
0
LWPOLYLINE
5
392
100
AcDbEntity
8
0
100
AcDbPolyline
90
2
70
1
43
0.0
10
112.01492
20
34.319980000000015
10
112.41491000000002
20
34.419970000000006
0
LWPOLYLINE
5
393
100
AcDbEntity
8
0
100
AcDbPolyline
90
2
70
1
43
0.0
10
146.51771000000002
20
-2.6713999999999949
10
132.51771000000002
20
-2.6713999999999949
0
CIRCLE
5
394
100
AcDbEntity
8
0
100
AcDbCircle
10
130.40010000000001
20
-25.066288293531045
30
0
40
1.0000000000000013
210
0
220
0
230
1
0
CIRCLE
5
395
100
AcDbEntity
8
0
100
AcDbCircle
10
206.17156870103986
20
-29.159125125518351
30
0
40
0.99999999999999933
210
0
220
0
230
1
0
CIRCLE
5
396
100
AcDbEntity
8
0
100
AcDbCircle
10
206.22446004634139
20
9.0864022536960558
30
0
40
0.99999999999999378
210
0
220
0
230
1
0
CIRCLE
5
397
100
AcDbEntity
8
0
100
AcDbCircle
10
130.50210000000001
20
13.21271170646896
30
0
40
1.0000000000000027
210
0
220
0
230
1
0
CIRCLE
5
398
100
AcDbEntity
8
0
100
AcDbCircle
10
102.9983549722692
20
-48.135668707088406
30
0
40
1.000000000000002
210
0
220
0
230
1
0
ENDSEC
0
SECTION
2
OBJECTS
0
DICTIONARY
5
C
100
AcDbDictionary
3
ACAD_GROUP
350
D
3
ACAD_MLINESTYLE
350
17
0
DICTIONARY
5
D
100
AcDbDictionary
0
DICTIONARY
5
1A
330
C
100
AcDbDictionary
0
DICTIONARY
5
17
100
AcDbDictionary
0
ENDSEC
0
EOF
