%TF.GenerationSoftware,KiCad,Pcbnew,8.99.0-3407-g6a48e2c35a*%
%TF.CreationDate,2025-03-01T14:59:21+00:00*%
%TF.ProjectId,DragonBoard,44726167-6f6e-4426-9f61-72642e6b6963,rev?*%
%TF.SameCoordinates,Original*%
%TF.FileFunction,Drillmap*%
%TF.FilePolarity,Positive*%
%FSLAX45Y45*%
G04 Gerber Fmt 4.5, Leading zero omitted, Abs format (unit mm)*
G04 Created by KiCad (PCBNEW 8.99.0-3407-g6a48e2c35a) date 2025-03-01 14:59:21*
%MOMM*%
%LPD*%
G01*
G04 APERTURE LIST*
%ADD10C,0.100000*%
%ADD11C,0.150000*%
%ADD12C,0.200000*%
%ADD13C,0.170000*%
%ADD14C,0.190000*%
%ADD15C,0.300000*%
%ADD16C,0.410000*%
G04 APERTURE END LIST*
D10*
X8919368Y-3734881D02*
X8942585Y-3732540D01*
X8897744Y-3741594D02*
X8919368Y-3734881D01*
X8820000Y-11505000D02*
X8800000Y-11565000D01*
X8210000Y-12690000D02*
X8220000Y-12640000D01*
X8827526Y-11440000D02*
X8820000Y-11505000D01*
X8847059Y-3783333D02*
X8861126Y-3766283D01*
X8827386Y-3847743D02*
X8829726Y-3824526D01*
X8836438Y-3802901D02*
X8847059Y-3783333D01*
X8220000Y-12640000D02*
X8800000Y-11565000D01*
X8878175Y-3752216D02*
X8897744Y-3741594D01*
X8861126Y-3766283D02*
X8878175Y-3752216D01*
X8829726Y-3824526D02*
X8836438Y-3802901D01*
X22528388Y-4399781D02*
X22537028Y-4417867D01*
X9255000Y-14620000D02*
X8230000Y-12840000D01*
X17095000Y-3500000D02*
X22447544Y-4344515D01*
X22542438Y-4437457D02*
X22544318Y-4458190D01*
X22537028Y-4417867D02*
X22542438Y-4437457D01*
X22467711Y-4349678D02*
X22486187Y-4358147D01*
X22447544Y-4344515D02*
X22467711Y-4349678D01*
X9255000Y-14620000D02*
X9290000Y-14650000D01*
X13815413Y-13400000D02*
X18750000Y-13400000D01*
X8230000Y-12840000D02*
X8215000Y-12790000D01*
X8210000Y-12730000D02*
X8210000Y-12690000D01*
X9335000Y-14665000D02*
X9390000Y-14675000D01*
X8215000Y-12790000D02*
X8210000Y-12730000D01*
X9290000Y-14650000D02*
X9335000Y-14665000D01*
X22438639Y-11992865D02*
X18750000Y-13400000D01*
X22516832Y-4383558D02*
X22528388Y-4399781D01*
X22486187Y-4358147D02*
X22502662Y-4369560D01*
X14900000Y-3500000D02*
X17095000Y-3500000D01*
X22502662Y-4369560D02*
X22516832Y-4383558D01*
X13815413Y-13400000D02*
X9390000Y-14675000D01*
X22544318Y-4458190D02*
X22547018Y-11835000D01*
X10943912Y-7800264D02*
X10913912Y-7780264D01*
D11*
X12230000Y-10390000D02*
X11880000Y-10390000D01*
X21405000Y-4915000D02*
X21405000Y-4465000D01*
X16040000Y-11795000D02*
X15690000Y-11795000D01*
X17595000Y-6330264D02*
X17595000Y-5880264D01*
D10*
X10943912Y-8520264D02*
X10953912Y-8490264D01*
D11*
X17595000Y-12045000D02*
X17595000Y-11595000D01*
X12230000Y-8035000D02*
X12230000Y-8485000D01*
X17595000Y-11595000D02*
X17945000Y-11595000D01*
X17945000Y-6330264D02*
X17595000Y-6330264D01*
X12230000Y-6135000D02*
X12230000Y-6585000D01*
D10*
X22547018Y-11835000D02*
G75*
G02*
X22438637Y-11992859I-175038J4040D01*
G01*
D11*
X11728452Y-12046114D02*
X11844921Y-12480781D01*
X17595000Y-8235000D02*
X17595000Y-7785000D01*
X13785000Y-7785000D02*
X14135000Y-7785000D01*
X19500000Y-8725000D02*
X19500000Y-8275000D01*
X16040000Y-4175000D02*
X15690000Y-4175000D01*
X19500000Y-8275000D02*
X19850000Y-8275000D01*
X17595000Y-9690000D02*
X17945000Y-9690000D01*
X15690000Y-6080000D02*
X15690000Y-5630000D01*
X15690000Y-4175000D02*
X15690000Y-3725000D01*
X11880000Y-8485000D02*
X11880000Y-8035000D01*
X21755000Y-4915000D02*
X21405000Y-4915000D01*
X17595000Y-7785000D02*
X17945000Y-7785000D01*
D10*
X10103912Y-7800264D02*
X10099884Y-7816378D01*
X10923912Y-8540264D02*
X10943912Y-8520264D01*
D11*
X19850000Y-6370000D02*
X19850000Y-6820000D01*
D10*
X10103912Y-8520264D02*
X10123912Y-8540264D01*
X8827526Y-11440000D02*
X8827386Y-3847743D01*
D11*
X14135000Y-10140000D02*
X13785000Y-10140000D01*
X16040000Y-7535000D02*
X16040000Y-7985000D01*
X19500949Y-4465000D02*
X19850949Y-4465000D01*
X13785000Y-4425000D02*
X13785000Y-3975000D01*
X12230000Y-8485000D02*
X11880000Y-8485000D01*
X17945000Y-10140000D02*
X17595000Y-10140000D01*
X19500000Y-6370000D02*
X19850000Y-6370000D01*
X13785000Y-10140000D02*
X13785000Y-9690000D01*
X21755000Y-10180000D02*
X21755000Y-10630000D01*
D10*
X10913912Y-7780264D02*
X10133912Y-7780264D01*
D11*
X17595000Y-10140000D02*
X17595000Y-9690000D01*
X11506847Y-12571367D02*
X11390378Y-12136701D01*
D10*
X10093912Y-7864885D02*
X10093912Y-8490264D01*
D11*
X15690000Y-7985000D02*
X15690000Y-7535000D01*
X21405000Y-8725000D02*
X21405000Y-8275000D01*
X10040079Y-13329318D02*
X9865079Y-13026209D01*
X12230000Y-6585000D02*
X11880000Y-6585000D01*
X13785000Y-11595000D02*
X14135000Y-11595000D01*
X11880000Y-4675000D02*
X11880000Y-4225000D01*
X19850000Y-10180000D02*
X19850000Y-10630000D01*
X21755000Y-10630000D02*
X21405000Y-10630000D01*
X14135000Y-7785000D02*
X14135000Y-8235000D01*
X21405000Y-6370000D02*
X21755000Y-6370000D01*
X19850949Y-4915000D02*
X19500949Y-4915000D01*
X16040000Y-11345000D02*
X16040000Y-11795000D01*
X10429790Y-13104318D02*
X10040079Y-13329318D01*
X12230000Y-4225000D02*
X12230000Y-4675000D01*
X14135000Y-5880000D02*
X14135000Y-6330000D01*
X13785000Y-5880000D02*
X14135000Y-5880000D01*
X9865079Y-13026209D02*
X10254790Y-12801210D01*
X21405000Y-10630000D02*
X21405000Y-10180000D01*
X14135000Y-3975000D02*
X14135000Y-4425000D01*
D10*
X10133912Y-7780264D02*
X10103912Y-7800264D01*
D11*
X13785000Y-3975000D02*
X14135000Y-3975000D01*
X16040000Y-9440000D02*
X16040000Y-9890000D01*
D10*
X10953912Y-8490264D02*
X10953912Y-7864885D01*
D11*
X14135000Y-6330000D02*
X13785000Y-6330000D01*
X15690000Y-5630000D02*
X16040000Y-5630000D01*
X21405000Y-10180000D02*
X21755000Y-10180000D01*
X17595000Y-5880264D02*
X17945000Y-5880264D01*
D10*
X14900000Y-3500000D02*
X8942585Y-3732540D01*
D11*
X15690000Y-3725000D02*
X16040000Y-3725000D01*
X11880000Y-9940000D02*
X12230000Y-9940000D01*
X13785000Y-12045000D02*
X13785000Y-11595000D01*
X21405000Y-8275000D02*
X21755000Y-8275000D01*
X13785000Y-9690000D02*
X14135000Y-9690000D01*
X19850949Y-4465000D02*
X19850949Y-4915000D01*
X16040000Y-5630000D02*
X16040000Y-6080000D01*
X21755000Y-8725000D02*
X21405000Y-8725000D01*
X11880000Y-6585000D02*
X11880000Y-6135000D01*
X19850000Y-8725000D02*
X19500000Y-8725000D01*
X14135000Y-11595000D02*
X14135000Y-12045000D01*
X14135000Y-8235000D02*
X13785000Y-8235000D01*
X17945000Y-8235000D02*
X17595000Y-8235000D01*
D10*
X10123912Y-8540264D02*
X10923912Y-8540264D01*
D11*
X11880000Y-10390000D02*
X11880000Y-9940000D01*
X21755000Y-6370000D02*
X21755000Y-6820000D01*
X12230000Y-4675000D02*
X11880000Y-4675000D01*
D10*
X10093912Y-8490264D02*
X10103912Y-8520264D01*
D11*
X14135000Y-12045000D02*
X13785000Y-12045000D01*
X19500000Y-10630000D02*
X19500000Y-10180000D01*
X15690000Y-11795000D02*
X15690000Y-11345000D01*
X14135000Y-4425000D02*
X13785000Y-4425000D01*
X19500949Y-4915000D02*
X19500949Y-4465000D01*
X13785000Y-8235000D02*
X13785000Y-7785000D01*
D10*
X10947941Y-7816378D02*
X10943912Y-7800264D01*
D11*
X10254790Y-12801210D02*
X10429790Y-13104318D01*
X16040000Y-6080000D02*
X15690000Y-6080000D01*
X19500000Y-10180000D02*
X19850000Y-10180000D01*
X11880000Y-4225000D02*
X12230000Y-4225000D01*
X17945000Y-4425000D02*
X17595000Y-4425000D01*
X11880000Y-6135000D02*
X12230000Y-6135000D01*
X11390378Y-12136701D02*
X11728452Y-12046114D01*
X13785000Y-6330000D02*
X13785000Y-5880000D01*
X11880000Y-8035000D02*
X12230000Y-8035000D01*
X16040000Y-7985000D02*
X15690000Y-7985000D01*
D10*
X10947941Y-7816378D02*
G75*
G02*
X10953913Y-7864885I-193951J-48502D01*
G01*
D11*
X14135000Y-9690000D02*
X14135000Y-10140000D01*
X21405000Y-6820000D02*
X21405000Y-6370000D01*
X16040000Y-3725000D02*
X16040000Y-4175000D01*
X17945000Y-9690000D02*
X17945000Y-10140000D01*
X17595000Y-3975000D02*
X17945000Y-3975000D01*
X19850000Y-10630000D02*
X19500000Y-10630000D01*
X15690000Y-11345000D02*
X16040000Y-11345000D01*
X21755000Y-4465000D02*
X21755000Y-4915000D01*
X12230000Y-9940000D02*
X12230000Y-10390000D01*
X17945000Y-12045000D02*
X17595000Y-12045000D01*
X17945000Y-7785000D02*
X17945000Y-8235000D01*
X15690000Y-7535000D02*
X16040000Y-7535000D01*
X19500000Y-6820000D02*
X19500000Y-6370000D01*
X21755000Y-6820000D02*
X21405000Y-6820000D01*
X19850000Y-8275000D02*
X19850000Y-8725000D01*
X15690000Y-9440000D02*
X16040000Y-9440000D01*
X21405000Y-4465000D02*
X21755000Y-4465000D01*
X17945000Y-3975000D02*
X17945000Y-4425000D01*
X19850000Y-6820000D02*
X19500000Y-6820000D01*
X16040000Y-9890000D02*
X15690000Y-9890000D01*
X17595000Y-4425000D02*
X17595000Y-3975000D01*
X15690000Y-9890000D02*
X15690000Y-9440000D01*
D10*
X10093912Y-7864885D02*
G75*
G02*
X10099885Y-7816378I200078J-15D01*
G01*
D11*
X17945000Y-11595000D02*
X17945000Y-12045000D01*
X21755000Y-8275000D02*
X21755000Y-8725000D01*
X17945000Y-5880264D02*
X17945000Y-6330264D01*
X11844921Y-12480781D02*
X11506847Y-12571367D01*
D12*
D10*
X8953410Y-7465260D02*
X9043410Y-7555260D01*
X9043410Y-7465260D02*
X8953410Y-7555260D01*
X8953410Y-7465260D02*
X9043410Y-7555260D01*
X9043410Y-7465260D02*
X8953410Y-7555260D01*
X8953410Y-7765260D02*
X9043410Y-7855260D01*
X9043410Y-7765260D02*
X8953410Y-7855260D01*
X8953410Y-7765260D02*
X9043410Y-7855260D01*
X9043410Y-7765260D02*
X8953410Y-7855260D01*
D13*
X9531120Y-12950553D02*
G75*
G02*
X9361120Y-12950553I-85000J0D01*
G01*
X9361120Y-12950553D02*
G75*
G02*
X9531120Y-12950553I85000J0D01*
G01*
X9981120Y-13729975D02*
G75*
G02*
X9811120Y-13729975I-85000J0D01*
G01*
X9811120Y-13729975D02*
G75*
G02*
X9981120Y-13729975I85000J0D01*
G01*
X11410333Y-12956469D02*
G75*
G02*
X11240333Y-12956469I-85000J0D01*
G01*
X11240333Y-12956469D02*
G75*
G02*
X11410333Y-12956469I85000J0D01*
G01*
X11690000Y-5000000D02*
G75*
G02*
X11520000Y-5000000I-85000J0D01*
G01*
X11520000Y-5000000D02*
G75*
G02*
X11690000Y-5000000I85000J0D01*
G01*
X11690000Y-6910000D02*
G75*
G02*
X11520000Y-6910000I-85000J0D01*
G01*
X11520000Y-6910000D02*
G75*
G02*
X11690000Y-6910000I85000J0D01*
G01*
X11690000Y-8810000D02*
G75*
G02*
X11520000Y-8810000I-85000J0D01*
G01*
X11520000Y-8810000D02*
G75*
G02*
X11690000Y-8810000I85000J0D01*
G01*
X11690000Y-10715000D02*
G75*
G02*
X11520000Y-10715000I-85000J0D01*
G01*
X11520000Y-10715000D02*
G75*
G02*
X11690000Y-10715000I85000J0D01*
G01*
X12279666Y-12723531D02*
G75*
G02*
X12109666Y-12723531I-85000J0D01*
G01*
X12109666Y-12723531D02*
G75*
G02*
X12279666Y-12723531I85000J0D01*
G01*
X12590000Y-5000000D02*
G75*
G02*
X12420000Y-5000000I-85000J0D01*
G01*
X12420000Y-5000000D02*
G75*
G02*
X12590000Y-5000000I85000J0D01*
G01*
X12590000Y-6910000D02*
G75*
G02*
X12420000Y-6910000I-85000J0D01*
G01*
X12420000Y-6910000D02*
G75*
G02*
X12590000Y-6910000I85000J0D01*
G01*
X12590000Y-8810000D02*
G75*
G02*
X12420000Y-8810000I-85000J0D01*
G01*
X12420000Y-8810000D02*
G75*
G02*
X12590000Y-8810000I85000J0D01*
G01*
X12590000Y-10715000D02*
G75*
G02*
X12420000Y-10715000I-85000J0D01*
G01*
X12420000Y-10715000D02*
G75*
G02*
X12590000Y-10715000I85000J0D01*
G01*
X13595000Y-6655000D02*
G75*
G02*
X13425000Y-6655000I-85000J0D01*
G01*
X13425000Y-6655000D02*
G75*
G02*
X13595000Y-6655000I85000J0D01*
G01*
X13595000Y-8560000D02*
G75*
G02*
X13425000Y-8560000I-85000J0D01*
G01*
X13425000Y-8560000D02*
G75*
G02*
X13595000Y-8560000I85000J0D01*
G01*
X13595000Y-10465000D02*
G75*
G02*
X13425000Y-10465000I-85000J0D01*
G01*
X13425000Y-10465000D02*
G75*
G02*
X13595000Y-10465000I85000J0D01*
G01*
X13595000Y-12370000D02*
G75*
G02*
X13425000Y-12370000I-85000J0D01*
G01*
X13425000Y-12370000D02*
G75*
G02*
X13595000Y-12370000I85000J0D01*
G01*
X13595000Y-4750000D02*
G75*
G02*
X13425000Y-4750000I-85000J0D01*
G01*
X13425000Y-4750000D02*
G75*
G02*
X13595000Y-4750000I85000J0D01*
G01*
X14495000Y-6655000D02*
G75*
G02*
X14325000Y-6655000I-85000J0D01*
G01*
X14325000Y-6655000D02*
G75*
G02*
X14495000Y-6655000I85000J0D01*
G01*
X14495000Y-8560000D02*
G75*
G02*
X14325000Y-8560000I-85000J0D01*
G01*
X14325000Y-8560000D02*
G75*
G02*
X14495000Y-8560000I85000J0D01*
G01*
X14495000Y-10465000D02*
G75*
G02*
X14325000Y-10465000I-85000J0D01*
G01*
X14325000Y-10465000D02*
G75*
G02*
X14495000Y-10465000I85000J0D01*
G01*
X14495000Y-12370000D02*
G75*
G02*
X14325000Y-12370000I-85000J0D01*
G01*
X14325000Y-12370000D02*
G75*
G02*
X14495000Y-12370000I85000J0D01*
G01*
X14495000Y-4750000D02*
G75*
G02*
X14325000Y-4750000I-85000J0D01*
G01*
X14325000Y-4750000D02*
G75*
G02*
X14495000Y-4750000I85000J0D01*
G01*
X15500000Y-6405000D02*
G75*
G02*
X15330000Y-6405000I-85000J0D01*
G01*
X15330000Y-6405000D02*
G75*
G02*
X15500000Y-6405000I85000J0D01*
G01*
X15500000Y-8310000D02*
G75*
G02*
X15330000Y-8310000I-85000J0D01*
G01*
X15330000Y-8310000D02*
G75*
G02*
X15500000Y-8310000I85000J0D01*
G01*
X15500000Y-10215000D02*
G75*
G02*
X15330000Y-10215000I-85000J0D01*
G01*
X15330000Y-10215000D02*
G75*
G02*
X15500000Y-10215000I85000J0D01*
G01*
X15500000Y-12120000D02*
G75*
G02*
X15330000Y-12120000I-85000J0D01*
G01*
X15330000Y-12120000D02*
G75*
G02*
X15500000Y-12120000I85000J0D01*
G01*
X15500000Y-4500000D02*
G75*
G02*
X15330000Y-4500000I-85000J0D01*
G01*
X15330000Y-4500000D02*
G75*
G02*
X15500000Y-4500000I85000J0D01*
G01*
X16400000Y-6405000D02*
G75*
G02*
X16230000Y-6405000I-85000J0D01*
G01*
X16230000Y-6405000D02*
G75*
G02*
X16400000Y-6405000I85000J0D01*
G01*
X16400000Y-8310000D02*
G75*
G02*
X16230000Y-8310000I-85000J0D01*
G01*
X16230000Y-8310000D02*
G75*
G02*
X16400000Y-8310000I85000J0D01*
G01*
X16400000Y-10215000D02*
G75*
G02*
X16230000Y-10215000I-85000J0D01*
G01*
X16230000Y-10215000D02*
G75*
G02*
X16400000Y-10215000I85000J0D01*
G01*
X16400000Y-12120000D02*
G75*
G02*
X16230000Y-12120000I-85000J0D01*
G01*
X16230000Y-12120000D02*
G75*
G02*
X16400000Y-12120000I85000J0D01*
G01*
X16400000Y-4500000D02*
G75*
G02*
X16230000Y-4500000I-85000J0D01*
G01*
X16230000Y-4500000D02*
G75*
G02*
X16400000Y-4500000I85000J0D01*
G01*
X17405000Y-4750000D02*
G75*
G02*
X17235000Y-4750000I-85000J0D01*
G01*
X17235000Y-4750000D02*
G75*
G02*
X17405000Y-4750000I85000J0D01*
G01*
X17405000Y-6655264D02*
G75*
G02*
X17235000Y-6655264I-85000J0D01*
G01*
X17235000Y-6655264D02*
G75*
G02*
X17405000Y-6655264I85000J0D01*
G01*
X17405000Y-8560000D02*
G75*
G02*
X17235000Y-8560000I-85000J0D01*
G01*
X17235000Y-8560000D02*
G75*
G02*
X17405000Y-8560000I85000J0D01*
G01*
X17405000Y-10465000D02*
G75*
G02*
X17235000Y-10465000I-85000J0D01*
G01*
X17235000Y-10465000D02*
G75*
G02*
X17405000Y-10465000I85000J0D01*
G01*
X17405000Y-12370000D02*
G75*
G02*
X17235000Y-12370000I-85000J0D01*
G01*
X17235000Y-12370000D02*
G75*
G02*
X17405000Y-12370000I85000J0D01*
G01*
X18305000Y-4750000D02*
G75*
G02*
X18135000Y-4750000I-85000J0D01*
G01*
X18135000Y-4750000D02*
G75*
G02*
X18305000Y-4750000I85000J0D01*
G01*
X18305000Y-6655264D02*
G75*
G02*
X18135000Y-6655264I-85000J0D01*
G01*
X18135000Y-6655264D02*
G75*
G02*
X18305000Y-6655264I85000J0D01*
G01*
X18305000Y-8560000D02*
G75*
G02*
X18135000Y-8560000I-85000J0D01*
G01*
X18135000Y-8560000D02*
G75*
G02*
X18305000Y-8560000I85000J0D01*
G01*
X18305000Y-10465000D02*
G75*
G02*
X18135000Y-10465000I-85000J0D01*
G01*
X18135000Y-10465000D02*
G75*
G02*
X18305000Y-10465000I85000J0D01*
G01*
X18305000Y-12370000D02*
G75*
G02*
X18135000Y-12370000I-85000J0D01*
G01*
X18135000Y-12370000D02*
G75*
G02*
X18305000Y-12370000I85000J0D01*
G01*
X19310000Y-5240000D02*
G75*
G02*
X19140000Y-5240000I-85000J0D01*
G01*
X19140000Y-5240000D02*
G75*
G02*
X19310000Y-5240000I85000J0D01*
G01*
X19310000Y-7145000D02*
G75*
G02*
X19140000Y-7145000I-85000J0D01*
G01*
X19140000Y-7145000D02*
G75*
G02*
X19310000Y-7145000I85000J0D01*
G01*
X19310000Y-9050000D02*
G75*
G02*
X19140000Y-9050000I-85000J0D01*
G01*
X19140000Y-9050000D02*
G75*
G02*
X19310000Y-9050000I85000J0D01*
G01*
X19310000Y-10955000D02*
G75*
G02*
X19140000Y-10955000I-85000J0D01*
G01*
X19140000Y-10955000D02*
G75*
G02*
X19310000Y-10955000I85000J0D01*
G01*
X20210000Y-5240000D02*
G75*
G02*
X20040000Y-5240000I-85000J0D01*
G01*
X20040000Y-5240000D02*
G75*
G02*
X20210000Y-5240000I85000J0D01*
G01*
X20210000Y-7145000D02*
G75*
G02*
X20040000Y-7145000I-85000J0D01*
G01*
X20040000Y-7145000D02*
G75*
G02*
X20210000Y-7145000I85000J0D01*
G01*
X20210000Y-9050000D02*
G75*
G02*
X20040000Y-9050000I-85000J0D01*
G01*
X20040000Y-9050000D02*
G75*
G02*
X20210000Y-9050000I85000J0D01*
G01*
X20210000Y-10955000D02*
G75*
G02*
X20040000Y-10955000I-85000J0D01*
G01*
X20040000Y-10955000D02*
G75*
G02*
X20210000Y-10955000I85000J0D01*
G01*
X21215000Y-5240000D02*
G75*
G02*
X21045000Y-5240000I-85000J0D01*
G01*
X21045000Y-5240000D02*
G75*
G02*
X21215000Y-5240000I85000J0D01*
G01*
X21215000Y-7145000D02*
G75*
G02*
X21045000Y-7145000I-85000J0D01*
G01*
X21045000Y-7145000D02*
G75*
G02*
X21215000Y-7145000I85000J0D01*
G01*
X21215000Y-9050000D02*
G75*
G02*
X21045000Y-9050000I-85000J0D01*
G01*
X21045000Y-9050000D02*
G75*
G02*
X21215000Y-9050000I85000J0D01*
G01*
X21215000Y-10955000D02*
G75*
G02*
X21045000Y-10955000I-85000J0D01*
G01*
X21045000Y-10955000D02*
G75*
G02*
X21215000Y-10955000I85000J0D01*
G01*
X22115000Y-5240000D02*
G75*
G02*
X21945000Y-5240000I-85000J0D01*
G01*
X21945000Y-5240000D02*
G75*
G02*
X22115000Y-5240000I85000J0D01*
G01*
X22115000Y-7145000D02*
G75*
G02*
X21945000Y-7145000I-85000J0D01*
G01*
X21945000Y-7145000D02*
G75*
G02*
X22115000Y-7145000I85000J0D01*
G01*
X22115000Y-9050000D02*
G75*
G02*
X21945000Y-9050000I-85000J0D01*
G01*
X21945000Y-9050000D02*
G75*
G02*
X22115000Y-9050000I85000J0D01*
G01*
X22115000Y-10955000D02*
G75*
G02*
X21945000Y-10955000I-85000J0D01*
G01*
X21945000Y-10955000D02*
G75*
G02*
X22115000Y-10955000I85000J0D01*
G01*
D14*
X9417120Y-12805323D02*
X9417120Y-12995323D01*
X9322120Y-12900323D02*
X9512120Y-12900323D01*
X9925120Y-13685205D02*
X9925120Y-13875205D01*
X9830120Y-13780205D02*
X10020120Y-13780205D01*
X11269310Y-12876480D02*
X11269310Y-13066480D01*
X11174310Y-12971480D02*
X11364310Y-12971480D01*
X11547000Y-4905000D02*
X11547000Y-5095000D01*
X11452000Y-5000000D02*
X11642000Y-5000000D01*
X11547000Y-6815000D02*
X11547000Y-7005000D01*
X11452000Y-6910000D02*
X11642000Y-6910000D01*
X11547000Y-8715000D02*
X11547000Y-8905000D01*
X11452000Y-8810000D02*
X11642000Y-8810000D01*
X11547000Y-10620000D02*
X11547000Y-10810000D01*
X11452000Y-10715000D02*
X11642000Y-10715000D01*
X12250690Y-12613520D02*
X12250690Y-12803520D01*
X12155690Y-12708520D02*
X12345690Y-12708520D01*
X12563000Y-4905000D02*
X12563000Y-5095000D01*
X12468000Y-5000000D02*
X12658000Y-5000000D01*
X12563000Y-6815000D02*
X12563000Y-7005000D01*
X12468000Y-6910000D02*
X12658000Y-6910000D01*
X12563000Y-8715000D02*
X12563000Y-8905000D01*
X12468000Y-8810000D02*
X12658000Y-8810000D01*
X12563000Y-10620000D02*
X12563000Y-10810000D01*
X12468000Y-10715000D02*
X12658000Y-10715000D01*
X13452000Y-6560000D02*
X13452000Y-6750000D01*
X13357000Y-6655000D02*
X13547000Y-6655000D01*
X13452000Y-8465000D02*
X13452000Y-8655000D01*
X13357000Y-8560000D02*
X13547000Y-8560000D01*
X13452000Y-10370000D02*
X13452000Y-10560000D01*
X13357000Y-10465000D02*
X13547000Y-10465000D01*
X13452000Y-12275000D02*
X13452000Y-12465000D01*
X13357000Y-12370000D02*
X13547000Y-12370000D01*
X13452000Y-4655000D02*
X13452000Y-4845000D01*
X13357000Y-4750000D02*
X13547000Y-4750000D01*
X14468000Y-6560000D02*
X14468000Y-6750000D01*
X14373000Y-6655000D02*
X14563000Y-6655000D01*
X14468000Y-8465000D02*
X14468000Y-8655000D01*
X14373000Y-8560000D02*
X14563000Y-8560000D01*
X14468000Y-10370000D02*
X14468000Y-10560000D01*
X14373000Y-10465000D02*
X14563000Y-10465000D01*
X14468000Y-12275000D02*
X14468000Y-12465000D01*
X14373000Y-12370000D02*
X14563000Y-12370000D01*
X14468000Y-4655000D02*
X14468000Y-4845000D01*
X14373000Y-4750000D02*
X14563000Y-4750000D01*
X15357000Y-6310000D02*
X15357000Y-6500000D01*
X15262000Y-6405000D02*
X15452000Y-6405000D01*
X15357000Y-8215000D02*
X15357000Y-8405000D01*
X15262000Y-8310000D02*
X15452000Y-8310000D01*
X15357000Y-10120000D02*
X15357000Y-10310000D01*
X15262000Y-10215000D02*
X15452000Y-10215000D01*
X15357000Y-12025000D02*
X15357000Y-12215000D01*
X15262000Y-12120000D02*
X15452000Y-12120000D01*
X15357000Y-4405000D02*
X15357000Y-4595000D01*
X15262000Y-4500000D02*
X15452000Y-4500000D01*
X16373000Y-6310000D02*
X16373000Y-6500000D01*
X16278000Y-6405000D02*
X16468000Y-6405000D01*
X16373000Y-8215000D02*
X16373000Y-8405000D01*
X16278000Y-8310000D02*
X16468000Y-8310000D01*
X16373000Y-10120000D02*
X16373000Y-10310000D01*
X16278000Y-10215000D02*
X16468000Y-10215000D01*
X16373000Y-12025000D02*
X16373000Y-12215000D01*
X16278000Y-12120000D02*
X16468000Y-12120000D01*
X16373000Y-4405000D02*
X16373000Y-4595000D01*
X16278000Y-4500000D02*
X16468000Y-4500000D01*
X17262000Y-4655000D02*
X17262000Y-4845000D01*
X17167000Y-4750000D02*
X17357000Y-4750000D01*
X17262000Y-6560264D02*
X17262000Y-6750264D01*
X17167000Y-6655264D02*
X17357000Y-6655264D01*
X17262000Y-8465000D02*
X17262000Y-8655000D01*
X17167000Y-8560000D02*
X17357000Y-8560000D01*
X17262000Y-10370000D02*
X17262000Y-10560000D01*
X17167000Y-10465000D02*
X17357000Y-10465000D01*
X17262000Y-12275000D02*
X17262000Y-12465000D01*
X17167000Y-12370000D02*
X17357000Y-12370000D01*
X18278000Y-4655000D02*
X18278000Y-4845000D01*
X18183000Y-4750000D02*
X18373000Y-4750000D01*
X18278000Y-6560264D02*
X18278000Y-6750264D01*
X18183000Y-6655264D02*
X18373000Y-6655264D01*
X18278000Y-8465000D02*
X18278000Y-8655000D01*
X18183000Y-8560000D02*
X18373000Y-8560000D01*
X18278000Y-10370000D02*
X18278000Y-10560000D01*
X18183000Y-10465000D02*
X18373000Y-10465000D01*
X18278000Y-12275000D02*
X18278000Y-12465000D01*
X18183000Y-12370000D02*
X18373000Y-12370000D01*
X19167000Y-5145000D02*
X19167000Y-5335000D01*
X19072000Y-5240000D02*
X19262000Y-5240000D01*
X19167000Y-7050000D02*
X19167000Y-7240000D01*
X19072000Y-7145000D02*
X19262000Y-7145000D01*
X19167000Y-8955000D02*
X19167000Y-9145000D01*
X19072000Y-9050000D02*
X19262000Y-9050000D01*
X19167000Y-10860000D02*
X19167000Y-11050000D01*
X19072000Y-10955000D02*
X19262000Y-10955000D01*
X20183000Y-5145000D02*
X20183000Y-5335000D01*
X20088000Y-5240000D02*
X20278000Y-5240000D01*
X20183000Y-7050000D02*
X20183000Y-7240000D01*
X20088000Y-7145000D02*
X20278000Y-7145000D01*
X20183000Y-8955000D02*
X20183000Y-9145000D01*
X20088000Y-9050000D02*
X20278000Y-9050000D01*
X20183000Y-10860000D02*
X20183000Y-11050000D01*
X20088000Y-10955000D02*
X20278000Y-10955000D01*
X21072000Y-5145000D02*
X21072000Y-5335000D01*
X20977000Y-5240000D02*
X21167000Y-5240000D01*
X21072000Y-7050000D02*
X21072000Y-7240000D01*
X20977000Y-7145000D02*
X21167000Y-7145000D01*
X21072000Y-8955000D02*
X21072000Y-9145000D01*
X20977000Y-9050000D02*
X21167000Y-9050000D01*
X21072000Y-10860000D02*
X21072000Y-11050000D01*
X20977000Y-10955000D02*
X21167000Y-10955000D01*
X22088000Y-5145000D02*
X22088000Y-5335000D01*
X21993000Y-5240000D02*
X22183000Y-5240000D01*
X22088000Y-7050000D02*
X22088000Y-7240000D01*
X21993000Y-7145000D02*
X22183000Y-7145000D01*
X22088000Y-8955000D02*
X22088000Y-9145000D01*
X21993000Y-9050000D02*
X22183000Y-9050000D01*
X22088000Y-10860000D02*
X22088000Y-11050000D01*
X21993000Y-10955000D02*
X22183000Y-10955000D01*
D15*
X9210247Y-13480360D02*
X9210247Y-13268226D01*
X8998113Y-13268226D01*
X8998113Y-13480360D01*
X9210247Y-13480360D01*
X9366717Y-13243375D02*
X9366717Y-13031241D01*
X9154583Y-13031241D01*
X9154583Y-13243375D01*
X9366717Y-13243375D01*
X9464247Y-13920301D02*
X9464247Y-13708167D01*
X9252113Y-13708167D01*
X9252113Y-13920301D01*
X9464247Y-13920301D01*
X9747717Y-13903287D02*
X9747717Y-13691153D01*
X9535583Y-13691153D01*
X9535583Y-13903287D01*
X9747717Y-13903287D01*
X11563789Y-13290022D02*
X11563789Y-13077888D01*
X11351655Y-13077888D01*
X11351655Y-13290022D01*
X11563789Y-13290022D01*
X11752202Y-13502497D02*
X11752202Y-13290363D01*
X11540068Y-13290363D01*
X11540068Y-13502497D01*
X11752202Y-13502497D01*
X11780067Y-5360067D02*
X11780067Y-5147933D01*
X11567933Y-5147933D01*
X11567933Y-5360067D01*
X11780067Y-5360067D01*
X11780067Y-7270067D02*
X11780067Y-7057933D01*
X11567933Y-7057933D01*
X11567933Y-7270067D01*
X11780067Y-7270067D01*
X11780067Y-9170067D02*
X11780067Y-8957933D01*
X11567933Y-8957933D01*
X11567933Y-9170067D01*
X11780067Y-9170067D01*
X11780067Y-11075067D02*
X11780067Y-10862933D01*
X11567933Y-10862933D01*
X11567933Y-11075067D01*
X11780067Y-11075067D01*
X11907067Y-5614067D02*
X11907067Y-5401933D01*
X11694933Y-5401933D01*
X11694933Y-5614067D01*
X11907067Y-5614067D01*
X11907067Y-7524067D02*
X11907067Y-7311933D01*
X11694933Y-7311933D01*
X11694933Y-7524067D01*
X11907067Y-7524067D01*
X11907067Y-9424067D02*
X11907067Y-9211933D01*
X11694933Y-9211933D01*
X11694933Y-9424067D01*
X11907067Y-9424067D01*
X11907067Y-11329067D02*
X11907067Y-11116933D01*
X11694933Y-11116933D01*
X11694933Y-11329067D01*
X11907067Y-11329067D01*
X12242892Y-13371017D02*
X12242892Y-13158883D01*
X12030758Y-13158883D01*
X12030758Y-13371017D01*
X12242892Y-13371017D01*
X12299825Y-13092802D02*
X12299825Y-12880668D01*
X12087691Y-12880668D01*
X12087691Y-13092802D01*
X12299825Y-13092802D01*
X12415067Y-7524067D02*
X12415067Y-7311933D01*
X12202933Y-7311933D01*
X12202933Y-7524067D01*
X12415067Y-7524067D01*
X12415067Y-9424067D02*
X12415067Y-9211933D01*
X12202933Y-9211933D01*
X12202933Y-9424067D01*
X12415067Y-9424067D01*
X12415067Y-11329067D02*
X12415067Y-11116933D01*
X12202933Y-11116933D01*
X12202933Y-11329067D01*
X12415067Y-11329067D01*
X12415067Y-5614067D02*
X12415067Y-5401933D01*
X12202933Y-5401933D01*
X12202933Y-5614067D01*
X12415067Y-5614067D01*
X12542067Y-5360067D02*
X12542067Y-5147933D01*
X12329933Y-5147933D01*
X12329933Y-5360067D01*
X12542067Y-5360067D01*
X12542067Y-7270067D02*
X12542067Y-7057933D01*
X12329933Y-7057933D01*
X12329933Y-7270067D01*
X12542067Y-7270067D01*
X12542067Y-9170067D02*
X12542067Y-8957933D01*
X12329933Y-8957933D01*
X12329933Y-9170067D01*
X12542067Y-9170067D01*
X12542067Y-11075067D02*
X12542067Y-10862933D01*
X12329933Y-10862933D01*
X12329933Y-11075067D01*
X12542067Y-11075067D01*
X13685067Y-7015067D02*
X13685067Y-6802933D01*
X13472933Y-6802933D01*
X13472933Y-7015067D01*
X13685067Y-7015067D01*
X13685067Y-8920067D02*
X13685067Y-8707933D01*
X13472933Y-8707933D01*
X13472933Y-8920067D01*
X13685067Y-8920067D01*
X13685067Y-10825067D02*
X13685067Y-10612933D01*
X13472933Y-10612933D01*
X13472933Y-10825067D01*
X13685067Y-10825067D01*
X13685067Y-12730067D02*
X13685067Y-12517933D01*
X13472933Y-12517933D01*
X13472933Y-12730067D01*
X13685067Y-12730067D01*
X13685067Y-5110067D02*
X13685067Y-4897933D01*
X13472933Y-4897933D01*
X13472933Y-5110067D01*
X13685067Y-5110067D01*
X13812067Y-5364067D02*
X13812067Y-5151933D01*
X13599933Y-5151933D01*
X13599933Y-5364067D01*
X13812067Y-5364067D01*
X13812067Y-7269067D02*
X13812067Y-7056933D01*
X13599933Y-7056933D01*
X13599933Y-7269067D01*
X13812067Y-7269067D01*
X13812067Y-9174067D02*
X13812067Y-8961933D01*
X13599933Y-8961933D01*
X13599933Y-9174067D01*
X13812067Y-9174067D01*
X13812067Y-11079067D02*
X13812067Y-10866933D01*
X13599933Y-10866933D01*
X13599933Y-11079067D01*
X13812067Y-11079067D01*
X13812067Y-12984067D02*
X13812067Y-12771933D01*
X13599933Y-12771933D01*
X13599933Y-12984067D01*
X13812067Y-12984067D01*
X14320067Y-7269067D02*
X14320067Y-7056933D01*
X14107933Y-7056933D01*
X14107933Y-7269067D01*
X14320067Y-7269067D01*
X14320067Y-9174067D02*
X14320067Y-8961933D01*
X14107933Y-8961933D01*
X14107933Y-9174067D01*
X14320067Y-9174067D01*
X14320067Y-11079067D02*
X14320067Y-10866933D01*
X14107933Y-10866933D01*
X14107933Y-11079067D01*
X14320067Y-11079067D01*
X14320067Y-12984067D02*
X14320067Y-12771933D01*
X14107933Y-12771933D01*
X14107933Y-12984067D01*
X14320067Y-12984067D01*
X14320067Y-5364067D02*
X14320067Y-5151933D01*
X14107933Y-5151933D01*
X14107933Y-5364067D01*
X14320067Y-5364067D01*
X14447067Y-7015067D02*
X14447067Y-6802933D01*
X14234933Y-6802933D01*
X14234933Y-7015067D01*
X14447067Y-7015067D01*
X14447067Y-8920067D02*
X14447067Y-8707933D01*
X14234933Y-8707933D01*
X14234933Y-8920067D01*
X14447067Y-8920067D01*
X14447067Y-10825067D02*
X14447067Y-10612933D01*
X14234933Y-10612933D01*
X14234933Y-10825067D01*
X14447067Y-10825067D01*
X14447067Y-12730067D02*
X14447067Y-12517933D01*
X14234933Y-12517933D01*
X14234933Y-12730067D01*
X14447067Y-12730067D01*
X14447067Y-5110067D02*
X14447067Y-4897933D01*
X14234933Y-4897933D01*
X14234933Y-5110067D01*
X14447067Y-5110067D01*
X15590067Y-6765067D02*
X15590067Y-6552933D01*
X15377933Y-6552933D01*
X15377933Y-6765067D01*
X15590067Y-6765067D01*
X15590067Y-8670067D02*
X15590067Y-8457933D01*
X15377933Y-8457933D01*
X15377933Y-8670067D01*
X15590067Y-8670067D01*
X15590067Y-10575067D02*
X15590067Y-10362933D01*
X15377933Y-10362933D01*
X15377933Y-10575067D01*
X15590067Y-10575067D01*
X15590067Y-12480067D02*
X15590067Y-12267933D01*
X15377933Y-12267933D01*
X15377933Y-12480067D01*
X15590067Y-12480067D01*
X15590067Y-4860067D02*
X15590067Y-4647933D01*
X15377933Y-4647933D01*
X15377933Y-4860067D01*
X15590067Y-4860067D01*
X15717067Y-5114067D02*
X15717067Y-4901933D01*
X15504933Y-4901933D01*
X15504933Y-5114067D01*
X15717067Y-5114067D01*
X15717067Y-7019067D02*
X15717067Y-6806933D01*
X15504933Y-6806933D01*
X15504933Y-7019067D01*
X15717067Y-7019067D01*
X15717067Y-8924067D02*
X15717067Y-8711933D01*
X15504933Y-8711933D01*
X15504933Y-8924067D01*
X15717067Y-8924067D01*
X15717067Y-10829067D02*
X15717067Y-10616933D01*
X15504933Y-10616933D01*
X15504933Y-10829067D01*
X15717067Y-10829067D01*
X15717067Y-12734067D02*
X15717067Y-12521933D01*
X15504933Y-12521933D01*
X15504933Y-12734067D01*
X15717067Y-12734067D01*
X16225067Y-7019067D02*
X16225067Y-6806933D01*
X16012933Y-6806933D01*
X16012933Y-7019067D01*
X16225067Y-7019067D01*
X16225067Y-8924067D02*
X16225067Y-8711933D01*
X16012933Y-8711933D01*
X16012933Y-8924067D01*
X16225067Y-8924067D01*
X16225067Y-10829067D02*
X16225067Y-10616933D01*
X16012933Y-10616933D01*
X16012933Y-10829067D01*
X16225067Y-10829067D01*
X16225067Y-12734067D02*
X16225067Y-12521933D01*
X16012933Y-12521933D01*
X16012933Y-12734067D01*
X16225067Y-12734067D01*
X16225067Y-5114067D02*
X16225067Y-4901933D01*
X16012933Y-4901933D01*
X16012933Y-5114067D01*
X16225067Y-5114067D01*
X16352067Y-6765067D02*
X16352067Y-6552933D01*
X16139933Y-6552933D01*
X16139933Y-6765067D01*
X16352067Y-6765067D01*
X16352067Y-8670067D02*
X16352067Y-8457933D01*
X16139933Y-8457933D01*
X16139933Y-8670067D01*
X16352067Y-8670067D01*
X16352067Y-10575067D02*
X16352067Y-10362933D01*
X16139933Y-10362933D01*
X16139933Y-10575067D01*
X16352067Y-10575067D01*
X16352067Y-12480067D02*
X16352067Y-12267933D01*
X16139933Y-12267933D01*
X16139933Y-12480067D01*
X16352067Y-12480067D01*
X16352067Y-4860067D02*
X16352067Y-4647933D01*
X16139933Y-4647933D01*
X16139933Y-4860067D01*
X16352067Y-4860067D01*
X17495067Y-5110067D02*
X17495067Y-4897933D01*
X17282933Y-4897933D01*
X17282933Y-5110067D01*
X17495067Y-5110067D01*
X17495067Y-7015331D02*
X17495067Y-6803197D01*
X17282933Y-6803197D01*
X17282933Y-7015331D01*
X17495067Y-7015331D01*
X17495067Y-8920067D02*
X17495067Y-8707933D01*
X17282933Y-8707933D01*
X17282933Y-8920067D01*
X17495067Y-8920067D01*
X17495067Y-10825067D02*
X17495067Y-10612933D01*
X17282933Y-10612933D01*
X17282933Y-10825067D01*
X17495067Y-10825067D01*
X17495067Y-12730067D02*
X17495067Y-12517933D01*
X17282933Y-12517933D01*
X17282933Y-12730067D01*
X17495067Y-12730067D01*
X17622067Y-5364067D02*
X17622067Y-5151933D01*
X17409933Y-5151933D01*
X17409933Y-5364067D01*
X17622067Y-5364067D01*
X17622067Y-7269331D02*
X17622067Y-7057197D01*
X17409933Y-7057197D01*
X17409933Y-7269331D01*
X17622067Y-7269331D01*
X17622067Y-9174067D02*
X17622067Y-8961933D01*
X17409933Y-8961933D01*
X17409933Y-9174067D01*
X17622067Y-9174067D01*
X17622067Y-11079067D02*
X17622067Y-10866933D01*
X17409933Y-10866933D01*
X17409933Y-11079067D01*
X17622067Y-11079067D01*
X17622067Y-12984067D02*
X17622067Y-12771933D01*
X17409933Y-12771933D01*
X17409933Y-12984067D01*
X17622067Y-12984067D01*
X18130067Y-5364067D02*
X18130067Y-5151933D01*
X17917933Y-5151933D01*
X17917933Y-5364067D01*
X18130067Y-5364067D01*
X18130067Y-7269331D02*
X18130067Y-7057197D01*
X17917933Y-7057197D01*
X17917933Y-7269331D01*
X18130067Y-7269331D01*
X18130067Y-9174067D02*
X18130067Y-8961933D01*
X17917933Y-8961933D01*
X17917933Y-9174067D01*
X18130067Y-9174067D01*
X18130067Y-11079067D02*
X18130067Y-10866933D01*
X17917933Y-10866933D01*
X17917933Y-11079067D01*
X18130067Y-11079067D01*
X18130067Y-12984067D02*
X18130067Y-12771933D01*
X17917933Y-12771933D01*
X17917933Y-12984067D01*
X18130067Y-12984067D01*
X18257067Y-5110067D02*
X18257067Y-4897933D01*
X18044933Y-4897933D01*
X18044933Y-5110067D01*
X18257067Y-5110067D01*
X18257067Y-7015331D02*
X18257067Y-6803197D01*
X18044933Y-6803197D01*
X18044933Y-7015331D01*
X18257067Y-7015331D01*
X18257067Y-8920067D02*
X18257067Y-8707933D01*
X18044933Y-8707933D01*
X18044933Y-8920067D01*
X18257067Y-8920067D01*
X18257067Y-10825067D02*
X18257067Y-10612933D01*
X18044933Y-10612933D01*
X18044933Y-10825067D01*
X18257067Y-10825067D01*
X18257067Y-12730067D02*
X18257067Y-12517933D01*
X18044933Y-12517933D01*
X18044933Y-12730067D01*
X18257067Y-12730067D01*
X19400067Y-5600067D02*
X19400067Y-5387933D01*
X19187933Y-5387933D01*
X19187933Y-5600067D01*
X19400067Y-5600067D01*
X19400067Y-7505067D02*
X19400067Y-7292933D01*
X19187933Y-7292933D01*
X19187933Y-7505067D01*
X19400067Y-7505067D01*
X19400067Y-9410067D02*
X19400067Y-9197933D01*
X19187933Y-9197933D01*
X19187933Y-9410067D01*
X19400067Y-9410067D01*
X19400067Y-11315067D02*
X19400067Y-11102933D01*
X19187933Y-11102933D01*
X19187933Y-11315067D01*
X19400067Y-11315067D01*
X19527067Y-5854067D02*
X19527067Y-5641933D01*
X19314933Y-5641933D01*
X19314933Y-5854067D01*
X19527067Y-5854067D01*
X19527067Y-7759067D02*
X19527067Y-7546933D01*
X19314933Y-7546933D01*
X19314933Y-7759067D01*
X19527067Y-7759067D01*
X19527067Y-9664067D02*
X19527067Y-9451933D01*
X19314933Y-9451933D01*
X19314933Y-9664067D01*
X19527067Y-9664067D01*
X19527067Y-11569067D02*
X19527067Y-11356933D01*
X19314933Y-11356933D01*
X19314933Y-11569067D01*
X19527067Y-11569067D01*
X20035067Y-5854067D02*
X20035067Y-5641933D01*
X19822933Y-5641933D01*
X19822933Y-5854067D01*
X20035067Y-5854067D01*
X20035067Y-7759067D02*
X20035067Y-7546933D01*
X19822933Y-7546933D01*
X19822933Y-7759067D01*
X20035067Y-7759067D01*
X20035067Y-9664067D02*
X20035067Y-9451933D01*
X19822933Y-9451933D01*
X19822933Y-9664067D01*
X20035067Y-9664067D01*
X20035067Y-11569067D02*
X20035067Y-11356933D01*
X19822933Y-11356933D01*
X19822933Y-11569067D01*
X20035067Y-11569067D01*
X20162067Y-5600067D02*
X20162067Y-5387933D01*
X19949933Y-5387933D01*
X19949933Y-5600067D01*
X20162067Y-5600067D01*
X20162067Y-7505067D02*
X20162067Y-7292933D01*
X19949933Y-7292933D01*
X19949933Y-7505067D01*
X20162067Y-7505067D01*
X20162067Y-9410067D02*
X20162067Y-9197933D01*
X19949933Y-9197933D01*
X19949933Y-9410067D01*
X20162067Y-9410067D01*
X20162067Y-11315067D02*
X20162067Y-11102933D01*
X19949933Y-11102933D01*
X19949933Y-11315067D01*
X20162067Y-11315067D01*
X21305067Y-5600067D02*
X21305067Y-5387933D01*
X21092933Y-5387933D01*
X21092933Y-5600067D01*
X21305067Y-5600067D01*
X21305067Y-7505067D02*
X21305067Y-7292933D01*
X21092933Y-7292933D01*
X21092933Y-7505067D01*
X21305067Y-7505067D01*
X21305067Y-9410067D02*
X21305067Y-9197933D01*
X21092933Y-9197933D01*
X21092933Y-9410067D01*
X21305067Y-9410067D01*
X21305067Y-11315067D02*
X21305067Y-11102933D01*
X21092933Y-11102933D01*
X21092933Y-11315067D01*
X21305067Y-11315067D01*
X21432067Y-5854067D02*
X21432067Y-5641933D01*
X21219933Y-5641933D01*
X21219933Y-5854067D01*
X21432067Y-5854067D01*
X21432067Y-7759067D02*
X21432067Y-7546933D01*
X21219933Y-7546933D01*
X21219933Y-7759067D01*
X21432067Y-7759067D01*
X21432067Y-9664067D02*
X21432067Y-9451933D01*
X21219933Y-9451933D01*
X21219933Y-9664067D01*
X21432067Y-9664067D01*
X21432067Y-11569067D02*
X21432067Y-11356933D01*
X21219933Y-11356933D01*
X21219933Y-11569067D01*
X21432067Y-11569067D01*
X21940067Y-5854067D02*
X21940067Y-5641933D01*
X21727933Y-5641933D01*
X21727933Y-5854067D01*
X21940067Y-5854067D01*
X21940067Y-7759067D02*
X21940067Y-7546933D01*
X21727933Y-7546933D01*
X21727933Y-7759067D01*
X21940067Y-7759067D01*
X21940067Y-9664067D02*
X21940067Y-9451933D01*
X21727933Y-9451933D01*
X21727933Y-9664067D01*
X21940067Y-9664067D01*
X21940067Y-11569067D02*
X21940067Y-11356933D01*
X21727933Y-11356933D01*
X21727933Y-11569067D01*
X21940067Y-11569067D01*
X22067067Y-5600067D02*
X22067067Y-5387933D01*
X21854933Y-5387933D01*
X21854933Y-5600067D01*
X22067067Y-5600067D01*
X22067067Y-7505067D02*
X22067067Y-7292933D01*
X21854933Y-7292933D01*
X21854933Y-7505067D01*
X22067067Y-7505067D01*
X22067067Y-9410067D02*
X22067067Y-9197933D01*
X21854933Y-9197933D01*
X21854933Y-9410067D01*
X22067067Y-9410067D01*
X22067067Y-11315067D02*
X22067067Y-11102933D01*
X21854933Y-11102933D01*
X21854933Y-11315067D01*
X22067067Y-11315067D01*
D16*
X9671120Y-13545264D02*
X9876120Y-13340264D01*
X9671120Y-13135264D01*
X9466120Y-13340264D01*
X9671120Y-13545264D01*
X11760000Y-13045000D02*
X11965000Y-12840000D01*
X11760000Y-12635000D01*
X11555000Y-12840000D01*
X11760000Y-13045000D01*
X12055000Y-5205000D02*
X12260000Y-5000000D01*
X12055000Y-4795000D01*
X11850000Y-5000000D01*
X12055000Y-5205000D01*
X12055000Y-7115000D02*
X12260000Y-6910000D01*
X12055000Y-6705000D01*
X11850000Y-6910000D01*
X12055000Y-7115000D01*
X12055000Y-9015000D02*
X12260000Y-8810000D01*
X12055000Y-8605000D01*
X11850000Y-8810000D01*
X12055000Y-9015000D01*
X12055000Y-10920000D02*
X12260000Y-10715000D01*
X12055000Y-10510000D01*
X11850000Y-10715000D01*
X12055000Y-10920000D01*
X13960000Y-6860000D02*
X14165000Y-6655000D01*
X13960000Y-6450000D01*
X13755000Y-6655000D01*
X13960000Y-6860000D01*
X13960000Y-8765000D02*
X14165000Y-8560000D01*
X13960000Y-8355000D01*
X13755000Y-8560000D01*
X13960000Y-8765000D01*
X13960000Y-10670000D02*
X14165000Y-10465000D01*
X13960000Y-10260000D01*
X13755000Y-10465000D01*
X13960000Y-10670000D01*
X13960000Y-12575000D02*
X14165000Y-12370000D01*
X13960000Y-12165000D01*
X13755000Y-12370000D01*
X13960000Y-12575000D01*
X13960000Y-4955000D02*
X14165000Y-4750000D01*
X13960000Y-4545000D01*
X13755000Y-4750000D01*
X13960000Y-4955000D01*
X15865000Y-6610000D02*
X16070000Y-6405000D01*
X15865000Y-6200000D01*
X15660000Y-6405000D01*
X15865000Y-6610000D01*
X15865000Y-8515000D02*
X16070000Y-8310000D01*
X15865000Y-8105000D01*
X15660000Y-8310000D01*
X15865000Y-8515000D01*
X15865000Y-10420000D02*
X16070000Y-10215000D01*
X15865000Y-10010000D01*
X15660000Y-10215000D01*
X15865000Y-10420000D01*
X15865000Y-12325000D02*
X16070000Y-12120000D01*
X15865000Y-11915000D01*
X15660000Y-12120000D01*
X15865000Y-12325000D01*
X15865000Y-4705000D02*
X16070000Y-4500000D01*
X15865000Y-4295000D01*
X15660000Y-4500000D01*
X15865000Y-4705000D01*
X17770000Y-4955000D02*
X17975000Y-4750000D01*
X17770000Y-4545000D01*
X17565000Y-4750000D01*
X17770000Y-4955000D01*
X17770000Y-6860264D02*
X17975000Y-6655264D01*
X17770000Y-6450264D01*
X17565000Y-6655264D01*
X17770000Y-6860264D01*
X17770000Y-8765000D02*
X17975000Y-8560000D01*
X17770000Y-8355000D01*
X17565000Y-8560000D01*
X17770000Y-8765000D01*
X17770000Y-10670000D02*
X17975000Y-10465000D01*
X17770000Y-10260000D01*
X17565000Y-10465000D01*
X17770000Y-10670000D01*
X17770000Y-12575000D02*
X17975000Y-12370000D01*
X17770000Y-12165000D01*
X17565000Y-12370000D01*
X17770000Y-12575000D01*
X19675000Y-5445000D02*
X19880000Y-5240000D01*
X19675000Y-5035000D01*
X19470000Y-5240000D01*
X19675000Y-5445000D01*
X19675000Y-7350000D02*
X19880000Y-7145000D01*
X19675000Y-6940000D01*
X19470000Y-7145000D01*
X19675000Y-7350000D01*
X19675000Y-9255000D02*
X19880000Y-9050000D01*
X19675000Y-8845000D01*
X19470000Y-9050000D01*
X19675000Y-9255000D01*
X19675000Y-11160000D02*
X19880000Y-10955000D01*
X19675000Y-10750000D01*
X19470000Y-10955000D01*
X19675000Y-11160000D01*
X21580000Y-5445000D02*
X21785000Y-5240000D01*
X21580000Y-5035000D01*
X21375000Y-5240000D01*
X21580000Y-5445000D01*
X21580000Y-7350000D02*
X21785000Y-7145000D01*
X21580000Y-6940000D01*
X21375000Y-7145000D01*
X21580000Y-7350000D01*
X21580000Y-9255000D02*
X21785000Y-9050000D01*
X21580000Y-8845000D01*
X21375000Y-9050000D01*
X21580000Y-9255000D01*
X21580000Y-11160000D02*
X21785000Y-10955000D01*
X21580000Y-10750000D01*
X21375000Y-10955000D01*
X21580000Y-11160000D01*
D12*
X8465777Y-14991484D02*
X8465777Y-14791484D01*
X8465777Y-14791484D02*
X8513396Y-14791484D01*
X8513396Y-14791484D02*
X8541967Y-14801008D01*
X8541967Y-14801008D02*
X8561015Y-14820055D01*
X8561015Y-14820055D02*
X8570539Y-14839103D01*
X8570539Y-14839103D02*
X8580063Y-14877198D01*
X8580063Y-14877198D02*
X8580063Y-14905769D01*
X8580063Y-14905769D02*
X8570539Y-14943865D01*
X8570539Y-14943865D02*
X8561015Y-14962912D01*
X8561015Y-14962912D02*
X8541967Y-14981960D01*
X8541967Y-14981960D02*
X8513396Y-14991484D01*
X8513396Y-14991484D02*
X8465777Y-14991484D01*
X8665777Y-14991484D02*
X8665777Y-14858150D01*
X8665777Y-14896246D02*
X8675301Y-14877198D01*
X8675301Y-14877198D02*
X8684824Y-14867674D01*
X8684824Y-14867674D02*
X8703872Y-14858150D01*
X8703872Y-14858150D02*
X8722920Y-14858150D01*
X8789586Y-14991484D02*
X8789586Y-14858150D01*
X8789586Y-14791484D02*
X8780063Y-14801008D01*
X8780063Y-14801008D02*
X8789586Y-14810531D01*
X8789586Y-14810531D02*
X8799110Y-14801008D01*
X8799110Y-14801008D02*
X8789586Y-14791484D01*
X8789586Y-14791484D02*
X8789586Y-14810531D01*
X8913396Y-14991484D02*
X8894348Y-14981960D01*
X8894348Y-14981960D02*
X8884824Y-14962912D01*
X8884824Y-14962912D02*
X8884824Y-14791484D01*
X9018158Y-14991484D02*
X8999110Y-14981960D01*
X8999110Y-14981960D02*
X8989586Y-14962912D01*
X8989586Y-14962912D02*
X8989586Y-14791484D01*
X9246729Y-14991484D02*
X9246729Y-14791484D01*
X9246729Y-14791484D02*
X9313396Y-14934341D01*
X9313396Y-14934341D02*
X9380063Y-14791484D01*
X9380063Y-14791484D02*
X9380063Y-14991484D01*
X9561015Y-14991484D02*
X9561015Y-14886722D01*
X9561015Y-14886722D02*
X9551491Y-14867674D01*
X9551491Y-14867674D02*
X9532444Y-14858150D01*
X9532444Y-14858150D02*
X9494348Y-14858150D01*
X9494348Y-14858150D02*
X9475301Y-14867674D01*
X9561015Y-14981960D02*
X9541967Y-14991484D01*
X9541967Y-14991484D02*
X9494348Y-14991484D01*
X9494348Y-14991484D02*
X9475301Y-14981960D01*
X9475301Y-14981960D02*
X9465777Y-14962912D01*
X9465777Y-14962912D02*
X9465777Y-14943865D01*
X9465777Y-14943865D02*
X9475301Y-14924817D01*
X9475301Y-14924817D02*
X9494348Y-14915293D01*
X9494348Y-14915293D02*
X9541967Y-14915293D01*
X9541967Y-14915293D02*
X9561015Y-14905769D01*
X9656253Y-14858150D02*
X9656253Y-15058150D01*
X9656253Y-14867674D02*
X9675301Y-14858150D01*
X9675301Y-14858150D02*
X9713396Y-14858150D01*
X9713396Y-14858150D02*
X9732444Y-14867674D01*
X9732444Y-14867674D02*
X9741967Y-14877198D01*
X9741967Y-14877198D02*
X9751491Y-14896246D01*
X9751491Y-14896246D02*
X9751491Y-14953388D01*
X9751491Y-14953388D02*
X9741967Y-14972436D01*
X9741967Y-14972436D02*
X9732444Y-14981960D01*
X9732444Y-14981960D02*
X9713396Y-14991484D01*
X9713396Y-14991484D02*
X9675301Y-14991484D01*
X9675301Y-14991484D02*
X9656253Y-14981960D01*
X9837205Y-14972436D02*
X9846729Y-14981960D01*
X9846729Y-14981960D02*
X9837205Y-14991484D01*
X9837205Y-14991484D02*
X9827682Y-14981960D01*
X9827682Y-14981960D02*
X9837205Y-14972436D01*
X9837205Y-14972436D02*
X9837205Y-14991484D01*
X9837205Y-14867674D02*
X9846729Y-14877198D01*
X9846729Y-14877198D02*
X9837205Y-14886722D01*
X9837205Y-14886722D02*
X9827682Y-14877198D01*
X9827682Y-14877198D02*
X9837205Y-14867674D01*
X9837205Y-14867674D02*
X9837205Y-14886722D01*
D10*
X8115000Y-15275000D02*
X8205000Y-15365000D01*
X8205000Y-15275000D02*
X8115000Y-15365000D01*
D12*
X8503872Y-15211484D02*
X8522920Y-15211484D01*
X8522920Y-15211484D02*
X8541967Y-15221008D01*
X8541967Y-15221008D02*
X8551491Y-15230531D01*
X8551491Y-15230531D02*
X8561015Y-15249579D01*
X8561015Y-15249579D02*
X8570539Y-15287674D01*
X8570539Y-15287674D02*
X8570539Y-15335293D01*
X8570539Y-15335293D02*
X8561015Y-15373388D01*
X8561015Y-15373388D02*
X8551491Y-15392436D01*
X8551491Y-15392436D02*
X8541967Y-15401960D01*
X8541967Y-15401960D02*
X8522920Y-15411484D01*
X8522920Y-15411484D02*
X8503872Y-15411484D01*
X8503872Y-15411484D02*
X8484824Y-15401960D01*
X8484824Y-15401960D02*
X8475301Y-15392436D01*
X8475301Y-15392436D02*
X8465777Y-15373388D01*
X8465777Y-15373388D02*
X8456253Y-15335293D01*
X8456253Y-15335293D02*
X8456253Y-15287674D01*
X8456253Y-15287674D02*
X8465777Y-15249579D01*
X8465777Y-15249579D02*
X8475301Y-15230531D01*
X8475301Y-15230531D02*
X8484824Y-15221008D01*
X8484824Y-15221008D02*
X8503872Y-15211484D01*
X8656253Y-15392436D02*
X8665777Y-15401960D01*
X8665777Y-15401960D02*
X8656253Y-15411484D01*
X8656253Y-15411484D02*
X8646729Y-15401960D01*
X8646729Y-15401960D02*
X8656253Y-15392436D01*
X8656253Y-15392436D02*
X8656253Y-15411484D01*
X8761015Y-15411484D02*
X8799110Y-15411484D01*
X8799110Y-15411484D02*
X8818158Y-15401960D01*
X8818158Y-15401960D02*
X8827682Y-15392436D01*
X8827682Y-15392436D02*
X8846729Y-15363865D01*
X8846729Y-15363865D02*
X8856253Y-15325769D01*
X8856253Y-15325769D02*
X8856253Y-15249579D01*
X8856253Y-15249579D02*
X8846729Y-15230531D01*
X8846729Y-15230531D02*
X8837205Y-15221008D01*
X8837205Y-15221008D02*
X8818158Y-15211484D01*
X8818158Y-15211484D02*
X8780063Y-15211484D01*
X8780063Y-15211484D02*
X8761015Y-15221008D01*
X8761015Y-15221008D02*
X8751491Y-15230531D01*
X8751491Y-15230531D02*
X8741967Y-15249579D01*
X8741967Y-15249579D02*
X8741967Y-15297198D01*
X8741967Y-15297198D02*
X8751491Y-15316246D01*
X8751491Y-15316246D02*
X8761015Y-15325769D01*
X8761015Y-15325769D02*
X8780063Y-15335293D01*
X8780063Y-15335293D02*
X8818158Y-15335293D01*
X8818158Y-15335293D02*
X8837205Y-15325769D01*
X8837205Y-15325769D02*
X8846729Y-15316246D01*
X8846729Y-15316246D02*
X8856253Y-15297198D01*
X8980063Y-15211484D02*
X8999110Y-15211484D01*
X8999110Y-15211484D02*
X9018158Y-15221008D01*
X9018158Y-15221008D02*
X9027682Y-15230531D01*
X9027682Y-15230531D02*
X9037205Y-15249579D01*
X9037205Y-15249579D02*
X9046729Y-15287674D01*
X9046729Y-15287674D02*
X9046729Y-15335293D01*
X9046729Y-15335293D02*
X9037205Y-15373388D01*
X9037205Y-15373388D02*
X9027682Y-15392436D01*
X9027682Y-15392436D02*
X9018158Y-15401960D01*
X9018158Y-15401960D02*
X8999110Y-15411484D01*
X8999110Y-15411484D02*
X8980063Y-15411484D01*
X8980063Y-15411484D02*
X8961015Y-15401960D01*
X8961015Y-15401960D02*
X8951491Y-15392436D01*
X8951491Y-15392436D02*
X8941967Y-15373388D01*
X8941967Y-15373388D02*
X8932444Y-15335293D01*
X8932444Y-15335293D02*
X8932444Y-15287674D01*
X8932444Y-15287674D02*
X8941967Y-15249579D01*
X8941967Y-15249579D02*
X8951491Y-15230531D01*
X8951491Y-15230531D02*
X8961015Y-15221008D01*
X8961015Y-15221008D02*
X8980063Y-15211484D01*
X9170539Y-15211484D02*
X9189586Y-15211484D01*
X9189586Y-15211484D02*
X9208634Y-15221008D01*
X9208634Y-15221008D02*
X9218158Y-15230531D01*
X9218158Y-15230531D02*
X9227682Y-15249579D01*
X9227682Y-15249579D02*
X9237205Y-15287674D01*
X9237205Y-15287674D02*
X9237205Y-15335293D01*
X9237205Y-15335293D02*
X9227682Y-15373388D01*
X9227682Y-15373388D02*
X9218158Y-15392436D01*
X9218158Y-15392436D02*
X9208634Y-15401960D01*
X9208634Y-15401960D02*
X9189586Y-15411484D01*
X9189586Y-15411484D02*
X9170539Y-15411484D01*
X9170539Y-15411484D02*
X9151491Y-15401960D01*
X9151491Y-15401960D02*
X9141967Y-15392436D01*
X9141967Y-15392436D02*
X9132444Y-15373388D01*
X9132444Y-15373388D02*
X9122920Y-15335293D01*
X9122920Y-15335293D02*
X9122920Y-15287674D01*
X9122920Y-15287674D02*
X9132444Y-15249579D01*
X9132444Y-15249579D02*
X9141967Y-15230531D01*
X9141967Y-15230531D02*
X9151491Y-15221008D01*
X9151491Y-15221008D02*
X9170539Y-15211484D01*
X9322920Y-15411484D02*
X9322920Y-15278150D01*
X9322920Y-15297198D02*
X9332444Y-15287674D01*
X9332444Y-15287674D02*
X9351491Y-15278150D01*
X9351491Y-15278150D02*
X9380063Y-15278150D01*
X9380063Y-15278150D02*
X9399110Y-15287674D01*
X9399110Y-15287674D02*
X9408634Y-15306722D01*
X9408634Y-15306722D02*
X9408634Y-15411484D01*
X9408634Y-15306722D02*
X9418158Y-15287674D01*
X9418158Y-15287674D02*
X9437205Y-15278150D01*
X9437205Y-15278150D02*
X9465777Y-15278150D01*
X9465777Y-15278150D02*
X9484825Y-15287674D01*
X9484825Y-15287674D02*
X9494348Y-15306722D01*
X9494348Y-15306722D02*
X9494348Y-15411484D01*
X9589586Y-15411484D02*
X9589586Y-15278150D01*
X9589586Y-15297198D02*
X9599110Y-15287674D01*
X9599110Y-15287674D02*
X9618158Y-15278150D01*
X9618158Y-15278150D02*
X9646729Y-15278150D01*
X9646729Y-15278150D02*
X9665777Y-15287674D01*
X9665777Y-15287674D02*
X9675301Y-15306722D01*
X9675301Y-15306722D02*
X9675301Y-15411484D01*
X9675301Y-15306722D02*
X9684825Y-15287674D01*
X9684825Y-15287674D02*
X9703872Y-15278150D01*
X9703872Y-15278150D02*
X9732444Y-15278150D01*
X9732444Y-15278150D02*
X9751491Y-15287674D01*
X9751491Y-15287674D02*
X9761015Y-15306722D01*
X9761015Y-15306722D02*
X9761015Y-15411484D01*
X10151491Y-15201960D02*
X9980063Y-15459103D01*
X10408634Y-15211484D02*
X10427682Y-15211484D01*
X10427682Y-15211484D02*
X10446729Y-15221008D01*
X10446729Y-15221008D02*
X10456253Y-15230531D01*
X10456253Y-15230531D02*
X10465777Y-15249579D01*
X10465777Y-15249579D02*
X10475301Y-15287674D01*
X10475301Y-15287674D02*
X10475301Y-15335293D01*
X10475301Y-15335293D02*
X10465777Y-15373388D01*
X10465777Y-15373388D02*
X10456253Y-15392436D01*
X10456253Y-15392436D02*
X10446729Y-15401960D01*
X10446729Y-15401960D02*
X10427682Y-15411484D01*
X10427682Y-15411484D02*
X10408634Y-15411484D01*
X10408634Y-15411484D02*
X10389587Y-15401960D01*
X10389587Y-15401960D02*
X10380063Y-15392436D01*
X10380063Y-15392436D02*
X10370539Y-15373388D01*
X10370539Y-15373388D02*
X10361015Y-15335293D01*
X10361015Y-15335293D02*
X10361015Y-15287674D01*
X10361015Y-15287674D02*
X10370539Y-15249579D01*
X10370539Y-15249579D02*
X10380063Y-15230531D01*
X10380063Y-15230531D02*
X10389587Y-15221008D01*
X10389587Y-15221008D02*
X10408634Y-15211484D01*
X10561015Y-15392436D02*
X10570539Y-15401960D01*
X10570539Y-15401960D02*
X10561015Y-15411484D01*
X10561015Y-15411484D02*
X10551491Y-15401960D01*
X10551491Y-15401960D02*
X10561015Y-15392436D01*
X10561015Y-15392436D02*
X10561015Y-15411484D01*
X10694348Y-15211484D02*
X10713396Y-15211484D01*
X10713396Y-15211484D02*
X10732444Y-15221008D01*
X10732444Y-15221008D02*
X10741968Y-15230531D01*
X10741968Y-15230531D02*
X10751491Y-15249579D01*
X10751491Y-15249579D02*
X10761015Y-15287674D01*
X10761015Y-15287674D02*
X10761015Y-15335293D01*
X10761015Y-15335293D02*
X10751491Y-15373388D01*
X10751491Y-15373388D02*
X10741968Y-15392436D01*
X10741968Y-15392436D02*
X10732444Y-15401960D01*
X10732444Y-15401960D02*
X10713396Y-15411484D01*
X10713396Y-15411484D02*
X10694348Y-15411484D01*
X10694348Y-15411484D02*
X10675301Y-15401960D01*
X10675301Y-15401960D02*
X10665777Y-15392436D01*
X10665777Y-15392436D02*
X10656253Y-15373388D01*
X10656253Y-15373388D02*
X10646729Y-15335293D01*
X10646729Y-15335293D02*
X10646729Y-15287674D01*
X10646729Y-15287674D02*
X10656253Y-15249579D01*
X10656253Y-15249579D02*
X10665777Y-15230531D01*
X10665777Y-15230531D02*
X10675301Y-15221008D01*
X10675301Y-15221008D02*
X10694348Y-15211484D01*
X10827682Y-15211484D02*
X10951491Y-15211484D01*
X10951491Y-15211484D02*
X10884825Y-15287674D01*
X10884825Y-15287674D02*
X10913396Y-15287674D01*
X10913396Y-15287674D02*
X10932444Y-15297198D01*
X10932444Y-15297198D02*
X10941968Y-15306722D01*
X10941968Y-15306722D02*
X10951491Y-15325769D01*
X10951491Y-15325769D02*
X10951491Y-15373388D01*
X10951491Y-15373388D02*
X10941968Y-15392436D01*
X10941968Y-15392436D02*
X10932444Y-15401960D01*
X10932444Y-15401960D02*
X10913396Y-15411484D01*
X10913396Y-15411484D02*
X10856253Y-15411484D01*
X10856253Y-15411484D02*
X10837206Y-15401960D01*
X10837206Y-15401960D02*
X10827682Y-15392436D01*
X11132444Y-15211484D02*
X11037206Y-15211484D01*
X11037206Y-15211484D02*
X11027682Y-15306722D01*
X11027682Y-15306722D02*
X11037206Y-15297198D01*
X11037206Y-15297198D02*
X11056253Y-15287674D01*
X11056253Y-15287674D02*
X11103872Y-15287674D01*
X11103872Y-15287674D02*
X11122920Y-15297198D01*
X11122920Y-15297198D02*
X11132444Y-15306722D01*
X11132444Y-15306722D02*
X11141968Y-15325769D01*
X11141968Y-15325769D02*
X11141968Y-15373388D01*
X11141968Y-15373388D02*
X11132444Y-15392436D01*
X11132444Y-15392436D02*
X11122920Y-15401960D01*
X11122920Y-15401960D02*
X11103872Y-15411484D01*
X11103872Y-15411484D02*
X11056253Y-15411484D01*
X11056253Y-15411484D02*
X11037206Y-15401960D01*
X11037206Y-15401960D02*
X11027682Y-15392436D01*
X11313396Y-15278150D02*
X11313396Y-15411484D01*
X11265777Y-15201960D02*
X11218158Y-15344817D01*
X11218158Y-15344817D02*
X11341967Y-15344817D01*
X11408634Y-15211484D02*
X11408634Y-15249579D01*
X11484825Y-15211484D02*
X11484825Y-15249579D01*
X11780063Y-15487674D02*
X11770539Y-15478150D01*
X11770539Y-15478150D02*
X11751491Y-15449579D01*
X11751491Y-15449579D02*
X11741968Y-15430531D01*
X11741968Y-15430531D02*
X11732444Y-15401960D01*
X11732444Y-15401960D02*
X11722920Y-15354341D01*
X11722920Y-15354341D02*
X11722920Y-15316246D01*
X11722920Y-15316246D02*
X11732444Y-15268627D01*
X11732444Y-15268627D02*
X11741968Y-15240055D01*
X11741968Y-15240055D02*
X11751491Y-15221008D01*
X11751491Y-15221008D02*
X11770539Y-15192436D01*
X11770539Y-15192436D02*
X11780063Y-15182912D01*
X11941968Y-15278150D02*
X11941968Y-15411484D01*
X11894348Y-15201960D02*
X11846729Y-15344817D01*
X11846729Y-15344817D02*
X11970539Y-15344817D01*
X12199110Y-15411484D02*
X12199110Y-15211484D01*
X12284825Y-15411484D02*
X12284825Y-15306722D01*
X12284825Y-15306722D02*
X12275301Y-15287674D01*
X12275301Y-15287674D02*
X12256253Y-15278150D01*
X12256253Y-15278150D02*
X12227682Y-15278150D01*
X12227682Y-15278150D02*
X12208634Y-15287674D01*
X12208634Y-15287674D02*
X12199110Y-15297198D01*
X12408634Y-15411484D02*
X12389587Y-15401960D01*
X12389587Y-15401960D02*
X12380063Y-15392436D01*
X12380063Y-15392436D02*
X12370539Y-15373388D01*
X12370539Y-15373388D02*
X12370539Y-15316246D01*
X12370539Y-15316246D02*
X12380063Y-15297198D01*
X12380063Y-15297198D02*
X12389587Y-15287674D01*
X12389587Y-15287674D02*
X12408634Y-15278150D01*
X12408634Y-15278150D02*
X12437206Y-15278150D01*
X12437206Y-15278150D02*
X12456253Y-15287674D01*
X12456253Y-15287674D02*
X12465777Y-15297198D01*
X12465777Y-15297198D02*
X12475301Y-15316246D01*
X12475301Y-15316246D02*
X12475301Y-15373388D01*
X12475301Y-15373388D02*
X12465777Y-15392436D01*
X12465777Y-15392436D02*
X12456253Y-15401960D01*
X12456253Y-15401960D02*
X12437206Y-15411484D01*
X12437206Y-15411484D02*
X12408634Y-15411484D01*
X12589587Y-15411484D02*
X12570539Y-15401960D01*
X12570539Y-15401960D02*
X12561015Y-15382912D01*
X12561015Y-15382912D02*
X12561015Y-15211484D01*
X12741968Y-15401960D02*
X12722920Y-15411484D01*
X12722920Y-15411484D02*
X12684825Y-15411484D01*
X12684825Y-15411484D02*
X12665777Y-15401960D01*
X12665777Y-15401960D02*
X12656253Y-15382912D01*
X12656253Y-15382912D02*
X12656253Y-15306722D01*
X12656253Y-15306722D02*
X12665777Y-15287674D01*
X12665777Y-15287674D02*
X12684825Y-15278150D01*
X12684825Y-15278150D02*
X12722920Y-15278150D01*
X12722920Y-15278150D02*
X12741968Y-15287674D01*
X12741968Y-15287674D02*
X12751491Y-15306722D01*
X12751491Y-15306722D02*
X12751491Y-15325769D01*
X12751491Y-15325769D02*
X12656253Y-15344817D01*
X12827682Y-15401960D02*
X12846730Y-15411484D01*
X12846730Y-15411484D02*
X12884825Y-15411484D01*
X12884825Y-15411484D02*
X12903872Y-15401960D01*
X12903872Y-15401960D02*
X12913396Y-15382912D01*
X12913396Y-15382912D02*
X12913396Y-15373388D01*
X12913396Y-15373388D02*
X12903872Y-15354341D01*
X12903872Y-15354341D02*
X12884825Y-15344817D01*
X12884825Y-15344817D02*
X12856253Y-15344817D01*
X12856253Y-15344817D02*
X12837206Y-15335293D01*
X12837206Y-15335293D02*
X12827682Y-15316246D01*
X12827682Y-15316246D02*
X12827682Y-15306722D01*
X12827682Y-15306722D02*
X12837206Y-15287674D01*
X12837206Y-15287674D02*
X12856253Y-15278150D01*
X12856253Y-15278150D02*
X12884825Y-15278150D01*
X12884825Y-15278150D02*
X12903872Y-15287674D01*
X12980063Y-15487674D02*
X12989587Y-15478150D01*
X12989587Y-15478150D02*
X13008634Y-15449579D01*
X13008634Y-15449579D02*
X13018158Y-15430531D01*
X13018158Y-15430531D02*
X13027682Y-15401960D01*
X13027682Y-15401960D02*
X13037206Y-15354341D01*
X13037206Y-15354341D02*
X13037206Y-15316246D01*
X13037206Y-15316246D02*
X13027682Y-15268627D01*
X13027682Y-15268627D02*
X13018158Y-15240055D01*
X13018158Y-15240055D02*
X13008634Y-15221008D01*
X13008634Y-15221008D02*
X12989587Y-15192436D01*
X12989587Y-15192436D02*
X12980063Y-15182912D01*
X13341968Y-15487674D02*
X13332444Y-15478150D01*
X13332444Y-15478150D02*
X13313396Y-15449579D01*
X13313396Y-15449579D02*
X13303872Y-15430531D01*
X13303872Y-15430531D02*
X13294349Y-15401960D01*
X13294349Y-15401960D02*
X13284825Y-15354341D01*
X13284825Y-15354341D02*
X13284825Y-15316246D01*
X13284825Y-15316246D02*
X13294349Y-15268627D01*
X13294349Y-15268627D02*
X13303872Y-15240055D01*
X13303872Y-15240055D02*
X13313396Y-15221008D01*
X13313396Y-15221008D02*
X13332444Y-15192436D01*
X13332444Y-15192436D02*
X13341968Y-15182912D01*
X13418158Y-15278150D02*
X13418158Y-15411484D01*
X13418158Y-15297198D02*
X13427682Y-15287674D01*
X13427682Y-15287674D02*
X13446730Y-15278150D01*
X13446730Y-15278150D02*
X13475301Y-15278150D01*
X13475301Y-15278150D02*
X13494349Y-15287674D01*
X13494349Y-15287674D02*
X13503872Y-15306722D01*
X13503872Y-15306722D02*
X13503872Y-15411484D01*
X13627682Y-15411484D02*
X13608634Y-15401960D01*
X13608634Y-15401960D02*
X13599111Y-15392436D01*
X13599111Y-15392436D02*
X13589587Y-15373388D01*
X13589587Y-15373388D02*
X13589587Y-15316246D01*
X13589587Y-15316246D02*
X13599111Y-15297198D01*
X13599111Y-15297198D02*
X13608634Y-15287674D01*
X13608634Y-15287674D02*
X13627682Y-15278150D01*
X13627682Y-15278150D02*
X13656253Y-15278150D01*
X13656253Y-15278150D02*
X13675301Y-15287674D01*
X13675301Y-15287674D02*
X13684825Y-15297198D01*
X13684825Y-15297198D02*
X13694349Y-15316246D01*
X13694349Y-15316246D02*
X13694349Y-15373388D01*
X13694349Y-15373388D02*
X13684825Y-15392436D01*
X13684825Y-15392436D02*
X13675301Y-15401960D01*
X13675301Y-15401960D02*
X13656253Y-15411484D01*
X13656253Y-15411484D02*
X13627682Y-15411484D01*
X13751492Y-15278150D02*
X13827682Y-15278150D01*
X13780063Y-15211484D02*
X13780063Y-15382912D01*
X13780063Y-15382912D02*
X13789587Y-15401960D01*
X13789587Y-15401960D02*
X13808634Y-15411484D01*
X13808634Y-15411484D02*
X13827682Y-15411484D01*
X14046730Y-15278150D02*
X14046730Y-15478150D01*
X14046730Y-15287674D02*
X14065777Y-15278150D01*
X14065777Y-15278150D02*
X14103873Y-15278150D01*
X14103873Y-15278150D02*
X14122920Y-15287674D01*
X14122920Y-15287674D02*
X14132444Y-15297198D01*
X14132444Y-15297198D02*
X14141968Y-15316246D01*
X14141968Y-15316246D02*
X14141968Y-15373388D01*
X14141968Y-15373388D02*
X14132444Y-15392436D01*
X14132444Y-15392436D02*
X14122920Y-15401960D01*
X14122920Y-15401960D02*
X14103873Y-15411484D01*
X14103873Y-15411484D02*
X14065777Y-15411484D01*
X14065777Y-15411484D02*
X14046730Y-15401960D01*
X14256253Y-15411484D02*
X14237206Y-15401960D01*
X14237206Y-15401960D02*
X14227682Y-15382912D01*
X14227682Y-15382912D02*
X14227682Y-15211484D01*
X14418158Y-15411484D02*
X14418158Y-15306722D01*
X14418158Y-15306722D02*
X14408634Y-15287674D01*
X14408634Y-15287674D02*
X14389587Y-15278150D01*
X14389587Y-15278150D02*
X14351492Y-15278150D01*
X14351492Y-15278150D02*
X14332444Y-15287674D01*
X14418158Y-15401960D02*
X14399111Y-15411484D01*
X14399111Y-15411484D02*
X14351492Y-15411484D01*
X14351492Y-15411484D02*
X14332444Y-15401960D01*
X14332444Y-15401960D02*
X14322920Y-15382912D01*
X14322920Y-15382912D02*
X14322920Y-15363865D01*
X14322920Y-15363865D02*
X14332444Y-15344817D01*
X14332444Y-15344817D02*
X14351492Y-15335293D01*
X14351492Y-15335293D02*
X14399111Y-15335293D01*
X14399111Y-15335293D02*
X14418158Y-15325769D01*
X14484825Y-15278150D02*
X14561015Y-15278150D01*
X14513396Y-15211484D02*
X14513396Y-15382912D01*
X14513396Y-15382912D02*
X14522920Y-15401960D01*
X14522920Y-15401960D02*
X14541968Y-15411484D01*
X14541968Y-15411484D02*
X14561015Y-15411484D01*
X14703873Y-15401960D02*
X14684825Y-15411484D01*
X14684825Y-15411484D02*
X14646730Y-15411484D01*
X14646730Y-15411484D02*
X14627682Y-15401960D01*
X14627682Y-15401960D02*
X14618158Y-15382912D01*
X14618158Y-15382912D02*
X14618158Y-15306722D01*
X14618158Y-15306722D02*
X14627682Y-15287674D01*
X14627682Y-15287674D02*
X14646730Y-15278150D01*
X14646730Y-15278150D02*
X14684825Y-15278150D01*
X14684825Y-15278150D02*
X14703873Y-15287674D01*
X14703873Y-15287674D02*
X14713396Y-15306722D01*
X14713396Y-15306722D02*
X14713396Y-15325769D01*
X14713396Y-15325769D02*
X14618158Y-15344817D01*
X14884825Y-15411484D02*
X14884825Y-15211484D01*
X14884825Y-15401960D02*
X14865777Y-15411484D01*
X14865777Y-15411484D02*
X14827682Y-15411484D01*
X14827682Y-15411484D02*
X14808634Y-15401960D01*
X14808634Y-15401960D02*
X14799111Y-15392436D01*
X14799111Y-15392436D02*
X14789587Y-15373388D01*
X14789587Y-15373388D02*
X14789587Y-15316246D01*
X14789587Y-15316246D02*
X14799111Y-15297198D01*
X14799111Y-15297198D02*
X14808634Y-15287674D01*
X14808634Y-15287674D02*
X14827682Y-15278150D01*
X14827682Y-15278150D02*
X14865777Y-15278150D01*
X14865777Y-15278150D02*
X14884825Y-15287674D01*
X14961015Y-15487674D02*
X14970539Y-15478150D01*
X14970539Y-15478150D02*
X14989587Y-15449579D01*
X14989587Y-15449579D02*
X14999111Y-15430531D01*
X14999111Y-15430531D02*
X15008634Y-15401960D01*
X15008634Y-15401960D02*
X15018158Y-15354341D01*
X15018158Y-15354341D02*
X15018158Y-15316246D01*
X15018158Y-15316246D02*
X15008634Y-15268627D01*
X15008634Y-15268627D02*
X14999111Y-15240055D01*
X14999111Y-15240055D02*
X14989587Y-15221008D01*
X14989587Y-15221008D02*
X14970539Y-15192436D01*
X14970539Y-15192436D02*
X14961015Y-15182912D01*
D13*
X8205000Y-15584000D02*
G75*
G02*
X8035000Y-15584000I-85000J0D01*
G01*
X8035000Y-15584000D02*
G75*
G02*
X8205000Y-15584000I85000J0D01*
G01*
D12*
X8570539Y-15675484D02*
X8456253Y-15675484D01*
X8513396Y-15675484D02*
X8513396Y-15475484D01*
X8513396Y-15475484D02*
X8494348Y-15504055D01*
X8494348Y-15504055D02*
X8475301Y-15523103D01*
X8475301Y-15523103D02*
X8456253Y-15532627D01*
X8656253Y-15656436D02*
X8665777Y-15665960D01*
X8665777Y-15665960D02*
X8656253Y-15675484D01*
X8656253Y-15675484D02*
X8646729Y-15665960D01*
X8646729Y-15665960D02*
X8656253Y-15656436D01*
X8656253Y-15656436D02*
X8656253Y-15675484D01*
X8732444Y-15475484D02*
X8865777Y-15475484D01*
X8865777Y-15475484D02*
X8780063Y-15675484D01*
X8980063Y-15475484D02*
X8999110Y-15475484D01*
X8999110Y-15475484D02*
X9018158Y-15485008D01*
X9018158Y-15485008D02*
X9027682Y-15494531D01*
X9027682Y-15494531D02*
X9037205Y-15513579D01*
X9037205Y-15513579D02*
X9046729Y-15551674D01*
X9046729Y-15551674D02*
X9046729Y-15599293D01*
X9046729Y-15599293D02*
X9037205Y-15637388D01*
X9037205Y-15637388D02*
X9027682Y-15656436D01*
X9027682Y-15656436D02*
X9018158Y-15665960D01*
X9018158Y-15665960D02*
X8999110Y-15675484D01*
X8999110Y-15675484D02*
X8980063Y-15675484D01*
X8980063Y-15675484D02*
X8961015Y-15665960D01*
X8961015Y-15665960D02*
X8951491Y-15656436D01*
X8951491Y-15656436D02*
X8941967Y-15637388D01*
X8941967Y-15637388D02*
X8932444Y-15599293D01*
X8932444Y-15599293D02*
X8932444Y-15551674D01*
X8932444Y-15551674D02*
X8941967Y-15513579D01*
X8941967Y-15513579D02*
X8951491Y-15494531D01*
X8951491Y-15494531D02*
X8961015Y-15485008D01*
X8961015Y-15485008D02*
X8980063Y-15475484D01*
X9170539Y-15475484D02*
X9189586Y-15475484D01*
X9189586Y-15475484D02*
X9208634Y-15485008D01*
X9208634Y-15485008D02*
X9218158Y-15494531D01*
X9218158Y-15494531D02*
X9227682Y-15513579D01*
X9227682Y-15513579D02*
X9237205Y-15551674D01*
X9237205Y-15551674D02*
X9237205Y-15599293D01*
X9237205Y-15599293D02*
X9227682Y-15637388D01*
X9227682Y-15637388D02*
X9218158Y-15656436D01*
X9218158Y-15656436D02*
X9208634Y-15665960D01*
X9208634Y-15665960D02*
X9189586Y-15675484D01*
X9189586Y-15675484D02*
X9170539Y-15675484D01*
X9170539Y-15675484D02*
X9151491Y-15665960D01*
X9151491Y-15665960D02*
X9141967Y-15656436D01*
X9141967Y-15656436D02*
X9132444Y-15637388D01*
X9132444Y-15637388D02*
X9122920Y-15599293D01*
X9122920Y-15599293D02*
X9122920Y-15551674D01*
X9122920Y-15551674D02*
X9132444Y-15513579D01*
X9132444Y-15513579D02*
X9141967Y-15494531D01*
X9141967Y-15494531D02*
X9151491Y-15485008D01*
X9151491Y-15485008D02*
X9170539Y-15475484D01*
X9322920Y-15675484D02*
X9322920Y-15542150D01*
X9322920Y-15561198D02*
X9332444Y-15551674D01*
X9332444Y-15551674D02*
X9351491Y-15542150D01*
X9351491Y-15542150D02*
X9380063Y-15542150D01*
X9380063Y-15542150D02*
X9399110Y-15551674D01*
X9399110Y-15551674D02*
X9408634Y-15570722D01*
X9408634Y-15570722D02*
X9408634Y-15675484D01*
X9408634Y-15570722D02*
X9418158Y-15551674D01*
X9418158Y-15551674D02*
X9437205Y-15542150D01*
X9437205Y-15542150D02*
X9465777Y-15542150D01*
X9465777Y-15542150D02*
X9484825Y-15551674D01*
X9484825Y-15551674D02*
X9494348Y-15570722D01*
X9494348Y-15570722D02*
X9494348Y-15675484D01*
X9589586Y-15675484D02*
X9589586Y-15542150D01*
X9589586Y-15561198D02*
X9599110Y-15551674D01*
X9599110Y-15551674D02*
X9618158Y-15542150D01*
X9618158Y-15542150D02*
X9646729Y-15542150D01*
X9646729Y-15542150D02*
X9665777Y-15551674D01*
X9665777Y-15551674D02*
X9675301Y-15570722D01*
X9675301Y-15570722D02*
X9675301Y-15675484D01*
X9675301Y-15570722D02*
X9684825Y-15551674D01*
X9684825Y-15551674D02*
X9703872Y-15542150D01*
X9703872Y-15542150D02*
X9732444Y-15542150D01*
X9732444Y-15542150D02*
X9751491Y-15551674D01*
X9751491Y-15551674D02*
X9761015Y-15570722D01*
X9761015Y-15570722D02*
X9761015Y-15675484D01*
X10151491Y-15465960D02*
X9980063Y-15723103D01*
X10408634Y-15475484D02*
X10427682Y-15475484D01*
X10427682Y-15475484D02*
X10446729Y-15485008D01*
X10446729Y-15485008D02*
X10456253Y-15494531D01*
X10456253Y-15494531D02*
X10465777Y-15513579D01*
X10465777Y-15513579D02*
X10475301Y-15551674D01*
X10475301Y-15551674D02*
X10475301Y-15599293D01*
X10475301Y-15599293D02*
X10465777Y-15637388D01*
X10465777Y-15637388D02*
X10456253Y-15656436D01*
X10456253Y-15656436D02*
X10446729Y-15665960D01*
X10446729Y-15665960D02*
X10427682Y-15675484D01*
X10427682Y-15675484D02*
X10408634Y-15675484D01*
X10408634Y-15675484D02*
X10389587Y-15665960D01*
X10389587Y-15665960D02*
X10380063Y-15656436D01*
X10380063Y-15656436D02*
X10370539Y-15637388D01*
X10370539Y-15637388D02*
X10361015Y-15599293D01*
X10361015Y-15599293D02*
X10361015Y-15551674D01*
X10361015Y-15551674D02*
X10370539Y-15513579D01*
X10370539Y-15513579D02*
X10380063Y-15494531D01*
X10380063Y-15494531D02*
X10389587Y-15485008D01*
X10389587Y-15485008D02*
X10408634Y-15475484D01*
X10561015Y-15656436D02*
X10570539Y-15665960D01*
X10570539Y-15665960D02*
X10561015Y-15675484D01*
X10561015Y-15675484D02*
X10551491Y-15665960D01*
X10551491Y-15665960D02*
X10561015Y-15656436D01*
X10561015Y-15656436D02*
X10561015Y-15675484D01*
X10694348Y-15475484D02*
X10713396Y-15475484D01*
X10713396Y-15475484D02*
X10732444Y-15485008D01*
X10732444Y-15485008D02*
X10741968Y-15494531D01*
X10741968Y-15494531D02*
X10751491Y-15513579D01*
X10751491Y-15513579D02*
X10761015Y-15551674D01*
X10761015Y-15551674D02*
X10761015Y-15599293D01*
X10761015Y-15599293D02*
X10751491Y-15637388D01*
X10751491Y-15637388D02*
X10741968Y-15656436D01*
X10741968Y-15656436D02*
X10732444Y-15665960D01*
X10732444Y-15665960D02*
X10713396Y-15675484D01*
X10713396Y-15675484D02*
X10694348Y-15675484D01*
X10694348Y-15675484D02*
X10675301Y-15665960D01*
X10675301Y-15665960D02*
X10665777Y-15656436D01*
X10665777Y-15656436D02*
X10656253Y-15637388D01*
X10656253Y-15637388D02*
X10646729Y-15599293D01*
X10646729Y-15599293D02*
X10646729Y-15551674D01*
X10646729Y-15551674D02*
X10656253Y-15513579D01*
X10656253Y-15513579D02*
X10665777Y-15494531D01*
X10665777Y-15494531D02*
X10675301Y-15485008D01*
X10675301Y-15485008D02*
X10694348Y-15475484D01*
X10932444Y-15475484D02*
X10894348Y-15475484D01*
X10894348Y-15475484D02*
X10875301Y-15485008D01*
X10875301Y-15485008D02*
X10865777Y-15494531D01*
X10865777Y-15494531D02*
X10846729Y-15523103D01*
X10846729Y-15523103D02*
X10837206Y-15561198D01*
X10837206Y-15561198D02*
X10837206Y-15637388D01*
X10837206Y-15637388D02*
X10846729Y-15656436D01*
X10846729Y-15656436D02*
X10856253Y-15665960D01*
X10856253Y-15665960D02*
X10875301Y-15675484D01*
X10875301Y-15675484D02*
X10913396Y-15675484D01*
X10913396Y-15675484D02*
X10932444Y-15665960D01*
X10932444Y-15665960D02*
X10941968Y-15656436D01*
X10941968Y-15656436D02*
X10951491Y-15637388D01*
X10951491Y-15637388D02*
X10951491Y-15589769D01*
X10951491Y-15589769D02*
X10941968Y-15570722D01*
X10941968Y-15570722D02*
X10932444Y-15561198D01*
X10932444Y-15561198D02*
X10913396Y-15551674D01*
X10913396Y-15551674D02*
X10875301Y-15551674D01*
X10875301Y-15551674D02*
X10856253Y-15561198D01*
X10856253Y-15561198D02*
X10846729Y-15570722D01*
X10846729Y-15570722D02*
X10837206Y-15589769D01*
X11122920Y-15475484D02*
X11084825Y-15475484D01*
X11084825Y-15475484D02*
X11065777Y-15485008D01*
X11065777Y-15485008D02*
X11056253Y-15494531D01*
X11056253Y-15494531D02*
X11037206Y-15523103D01*
X11037206Y-15523103D02*
X11027682Y-15561198D01*
X11027682Y-15561198D02*
X11027682Y-15637388D01*
X11027682Y-15637388D02*
X11037206Y-15656436D01*
X11037206Y-15656436D02*
X11046729Y-15665960D01*
X11046729Y-15665960D02*
X11065777Y-15675484D01*
X11065777Y-15675484D02*
X11103872Y-15675484D01*
X11103872Y-15675484D02*
X11122920Y-15665960D01*
X11122920Y-15665960D02*
X11132444Y-15656436D01*
X11132444Y-15656436D02*
X11141968Y-15637388D01*
X11141968Y-15637388D02*
X11141968Y-15589769D01*
X11141968Y-15589769D02*
X11132444Y-15570722D01*
X11132444Y-15570722D02*
X11122920Y-15561198D01*
X11122920Y-15561198D02*
X11103872Y-15551674D01*
X11103872Y-15551674D02*
X11065777Y-15551674D01*
X11065777Y-15551674D02*
X11046729Y-15561198D01*
X11046729Y-15561198D02*
X11037206Y-15570722D01*
X11037206Y-15570722D02*
X11027682Y-15589769D01*
X11237206Y-15675484D02*
X11275301Y-15675484D01*
X11275301Y-15675484D02*
X11294348Y-15665960D01*
X11294348Y-15665960D02*
X11303872Y-15656436D01*
X11303872Y-15656436D02*
X11322920Y-15627865D01*
X11322920Y-15627865D02*
X11332444Y-15589769D01*
X11332444Y-15589769D02*
X11332444Y-15513579D01*
X11332444Y-15513579D02*
X11322920Y-15494531D01*
X11322920Y-15494531D02*
X11313396Y-15485008D01*
X11313396Y-15485008D02*
X11294348Y-15475484D01*
X11294348Y-15475484D02*
X11256253Y-15475484D01*
X11256253Y-15475484D02*
X11237206Y-15485008D01*
X11237206Y-15485008D02*
X11227682Y-15494531D01*
X11227682Y-15494531D02*
X11218158Y-15513579D01*
X11218158Y-15513579D02*
X11218158Y-15561198D01*
X11218158Y-15561198D02*
X11227682Y-15580246D01*
X11227682Y-15580246D02*
X11237206Y-15589769D01*
X11237206Y-15589769D02*
X11256253Y-15599293D01*
X11256253Y-15599293D02*
X11294348Y-15599293D01*
X11294348Y-15599293D02*
X11313396Y-15589769D01*
X11313396Y-15589769D02*
X11322920Y-15580246D01*
X11322920Y-15580246D02*
X11332444Y-15561198D01*
X11408634Y-15475484D02*
X11408634Y-15513579D01*
X11484825Y-15475484D02*
X11484825Y-15513579D01*
X11780063Y-15751674D02*
X11770539Y-15742150D01*
X11770539Y-15742150D02*
X11751491Y-15713579D01*
X11751491Y-15713579D02*
X11741968Y-15694531D01*
X11741968Y-15694531D02*
X11732444Y-15665960D01*
X11732444Y-15665960D02*
X11722920Y-15618341D01*
X11722920Y-15618341D02*
X11722920Y-15580246D01*
X11722920Y-15580246D02*
X11732444Y-15532627D01*
X11732444Y-15532627D02*
X11741968Y-15504055D01*
X11741968Y-15504055D02*
X11751491Y-15485008D01*
X11751491Y-15485008D02*
X11770539Y-15456436D01*
X11770539Y-15456436D02*
X11780063Y-15446912D01*
X11951491Y-15475484D02*
X11856253Y-15475484D01*
X11856253Y-15475484D02*
X11846729Y-15570722D01*
X11846729Y-15570722D02*
X11856253Y-15561198D01*
X11856253Y-15561198D02*
X11875301Y-15551674D01*
X11875301Y-15551674D02*
X11922920Y-15551674D01*
X11922920Y-15551674D02*
X11941968Y-15561198D01*
X11941968Y-15561198D02*
X11951491Y-15570722D01*
X11951491Y-15570722D02*
X11961015Y-15589769D01*
X11961015Y-15589769D02*
X11961015Y-15637388D01*
X11961015Y-15637388D02*
X11951491Y-15656436D01*
X11951491Y-15656436D02*
X11941968Y-15665960D01*
X11941968Y-15665960D02*
X11922920Y-15675484D01*
X11922920Y-15675484D02*
X11875301Y-15675484D01*
X11875301Y-15675484D02*
X11856253Y-15665960D01*
X11856253Y-15665960D02*
X11846729Y-15656436D01*
X12075301Y-15561198D02*
X12056253Y-15551674D01*
X12056253Y-15551674D02*
X12046729Y-15542150D01*
X12046729Y-15542150D02*
X12037206Y-15523103D01*
X12037206Y-15523103D02*
X12037206Y-15513579D01*
X12037206Y-15513579D02*
X12046729Y-15494531D01*
X12046729Y-15494531D02*
X12056253Y-15485008D01*
X12056253Y-15485008D02*
X12075301Y-15475484D01*
X12075301Y-15475484D02*
X12113396Y-15475484D01*
X12113396Y-15475484D02*
X12132444Y-15485008D01*
X12132444Y-15485008D02*
X12141968Y-15494531D01*
X12141968Y-15494531D02*
X12151491Y-15513579D01*
X12151491Y-15513579D02*
X12151491Y-15523103D01*
X12151491Y-15523103D02*
X12141968Y-15542150D01*
X12141968Y-15542150D02*
X12132444Y-15551674D01*
X12132444Y-15551674D02*
X12113396Y-15561198D01*
X12113396Y-15561198D02*
X12075301Y-15561198D01*
X12075301Y-15561198D02*
X12056253Y-15570722D01*
X12056253Y-15570722D02*
X12046729Y-15580246D01*
X12046729Y-15580246D02*
X12037206Y-15599293D01*
X12037206Y-15599293D02*
X12037206Y-15637388D01*
X12037206Y-15637388D02*
X12046729Y-15656436D01*
X12046729Y-15656436D02*
X12056253Y-15665960D01*
X12056253Y-15665960D02*
X12075301Y-15675484D01*
X12075301Y-15675484D02*
X12113396Y-15675484D01*
X12113396Y-15675484D02*
X12132444Y-15665960D01*
X12132444Y-15665960D02*
X12141968Y-15656436D01*
X12141968Y-15656436D02*
X12151491Y-15637388D01*
X12151491Y-15637388D02*
X12151491Y-15599293D01*
X12151491Y-15599293D02*
X12141968Y-15580246D01*
X12141968Y-15580246D02*
X12132444Y-15570722D01*
X12132444Y-15570722D02*
X12113396Y-15561198D01*
X12389587Y-15675484D02*
X12389587Y-15475484D01*
X12475301Y-15675484D02*
X12475301Y-15570722D01*
X12475301Y-15570722D02*
X12465777Y-15551674D01*
X12465777Y-15551674D02*
X12446730Y-15542150D01*
X12446730Y-15542150D02*
X12418158Y-15542150D01*
X12418158Y-15542150D02*
X12399110Y-15551674D01*
X12399110Y-15551674D02*
X12389587Y-15561198D01*
X12599110Y-15675484D02*
X12580063Y-15665960D01*
X12580063Y-15665960D02*
X12570539Y-15656436D01*
X12570539Y-15656436D02*
X12561015Y-15637388D01*
X12561015Y-15637388D02*
X12561015Y-15580246D01*
X12561015Y-15580246D02*
X12570539Y-15561198D01*
X12570539Y-15561198D02*
X12580063Y-15551674D01*
X12580063Y-15551674D02*
X12599110Y-15542150D01*
X12599110Y-15542150D02*
X12627682Y-15542150D01*
X12627682Y-15542150D02*
X12646730Y-15551674D01*
X12646730Y-15551674D02*
X12656253Y-15561198D01*
X12656253Y-15561198D02*
X12665777Y-15580246D01*
X12665777Y-15580246D02*
X12665777Y-15637388D01*
X12665777Y-15637388D02*
X12656253Y-15656436D01*
X12656253Y-15656436D02*
X12646730Y-15665960D01*
X12646730Y-15665960D02*
X12627682Y-15675484D01*
X12627682Y-15675484D02*
X12599110Y-15675484D01*
X12780063Y-15675484D02*
X12761015Y-15665960D01*
X12761015Y-15665960D02*
X12751491Y-15646912D01*
X12751491Y-15646912D02*
X12751491Y-15475484D01*
X12932444Y-15665960D02*
X12913396Y-15675484D01*
X12913396Y-15675484D02*
X12875301Y-15675484D01*
X12875301Y-15675484D02*
X12856253Y-15665960D01*
X12856253Y-15665960D02*
X12846730Y-15646912D01*
X12846730Y-15646912D02*
X12846730Y-15570722D01*
X12846730Y-15570722D02*
X12856253Y-15551674D01*
X12856253Y-15551674D02*
X12875301Y-15542150D01*
X12875301Y-15542150D02*
X12913396Y-15542150D01*
X12913396Y-15542150D02*
X12932444Y-15551674D01*
X12932444Y-15551674D02*
X12941968Y-15570722D01*
X12941968Y-15570722D02*
X12941968Y-15589769D01*
X12941968Y-15589769D02*
X12846730Y-15608817D01*
X13018158Y-15665960D02*
X13037206Y-15675484D01*
X13037206Y-15675484D02*
X13075301Y-15675484D01*
X13075301Y-15675484D02*
X13094349Y-15665960D01*
X13094349Y-15665960D02*
X13103872Y-15646912D01*
X13103872Y-15646912D02*
X13103872Y-15637388D01*
X13103872Y-15637388D02*
X13094349Y-15618341D01*
X13094349Y-15618341D02*
X13075301Y-15608817D01*
X13075301Y-15608817D02*
X13046730Y-15608817D01*
X13046730Y-15608817D02*
X13027682Y-15599293D01*
X13027682Y-15599293D02*
X13018158Y-15580246D01*
X13018158Y-15580246D02*
X13018158Y-15570722D01*
X13018158Y-15570722D02*
X13027682Y-15551674D01*
X13027682Y-15551674D02*
X13046730Y-15542150D01*
X13046730Y-15542150D02*
X13075301Y-15542150D01*
X13075301Y-15542150D02*
X13094349Y-15551674D01*
X13170539Y-15751674D02*
X13180063Y-15742150D01*
X13180063Y-15742150D02*
X13199111Y-15713579D01*
X13199111Y-15713579D02*
X13208634Y-15694531D01*
X13208634Y-15694531D02*
X13218158Y-15665960D01*
X13218158Y-15665960D02*
X13227682Y-15618341D01*
X13227682Y-15618341D02*
X13227682Y-15580246D01*
X13227682Y-15580246D02*
X13218158Y-15532627D01*
X13218158Y-15532627D02*
X13208634Y-15504055D01*
X13208634Y-15504055D02*
X13199111Y-15485008D01*
X13199111Y-15485008D02*
X13180063Y-15456436D01*
X13180063Y-15456436D02*
X13170539Y-15446912D01*
X13532444Y-15751674D02*
X13522920Y-15742150D01*
X13522920Y-15742150D02*
X13503872Y-15713579D01*
X13503872Y-15713579D02*
X13494349Y-15694531D01*
X13494349Y-15694531D02*
X13484825Y-15665960D01*
X13484825Y-15665960D02*
X13475301Y-15618341D01*
X13475301Y-15618341D02*
X13475301Y-15580246D01*
X13475301Y-15580246D02*
X13484825Y-15532627D01*
X13484825Y-15532627D02*
X13494349Y-15504055D01*
X13494349Y-15504055D02*
X13503872Y-15485008D01*
X13503872Y-15485008D02*
X13522920Y-15456436D01*
X13522920Y-15456436D02*
X13532444Y-15446912D01*
X13608634Y-15542150D02*
X13608634Y-15675484D01*
X13608634Y-15561198D02*
X13618158Y-15551674D01*
X13618158Y-15551674D02*
X13637206Y-15542150D01*
X13637206Y-15542150D02*
X13665777Y-15542150D01*
X13665777Y-15542150D02*
X13684825Y-15551674D01*
X13684825Y-15551674D02*
X13694349Y-15570722D01*
X13694349Y-15570722D02*
X13694349Y-15675484D01*
X13818158Y-15675484D02*
X13799111Y-15665960D01*
X13799111Y-15665960D02*
X13789587Y-15656436D01*
X13789587Y-15656436D02*
X13780063Y-15637388D01*
X13780063Y-15637388D02*
X13780063Y-15580246D01*
X13780063Y-15580246D02*
X13789587Y-15561198D01*
X13789587Y-15561198D02*
X13799111Y-15551674D01*
X13799111Y-15551674D02*
X13818158Y-15542150D01*
X13818158Y-15542150D02*
X13846730Y-15542150D01*
X13846730Y-15542150D02*
X13865777Y-15551674D01*
X13865777Y-15551674D02*
X13875301Y-15561198D01*
X13875301Y-15561198D02*
X13884825Y-15580246D01*
X13884825Y-15580246D02*
X13884825Y-15637388D01*
X13884825Y-15637388D02*
X13875301Y-15656436D01*
X13875301Y-15656436D02*
X13865777Y-15665960D01*
X13865777Y-15665960D02*
X13846730Y-15675484D01*
X13846730Y-15675484D02*
X13818158Y-15675484D01*
X13941968Y-15542150D02*
X14018158Y-15542150D01*
X13970539Y-15475484D02*
X13970539Y-15646912D01*
X13970539Y-15646912D02*
X13980063Y-15665960D01*
X13980063Y-15665960D02*
X13999111Y-15675484D01*
X13999111Y-15675484D02*
X14018158Y-15675484D01*
X14237206Y-15542150D02*
X14237206Y-15742150D01*
X14237206Y-15551674D02*
X14256253Y-15542150D01*
X14256253Y-15542150D02*
X14294349Y-15542150D01*
X14294349Y-15542150D02*
X14313396Y-15551674D01*
X14313396Y-15551674D02*
X14322920Y-15561198D01*
X14322920Y-15561198D02*
X14332444Y-15580246D01*
X14332444Y-15580246D02*
X14332444Y-15637388D01*
X14332444Y-15637388D02*
X14322920Y-15656436D01*
X14322920Y-15656436D02*
X14313396Y-15665960D01*
X14313396Y-15665960D02*
X14294349Y-15675484D01*
X14294349Y-15675484D02*
X14256253Y-15675484D01*
X14256253Y-15675484D02*
X14237206Y-15665960D01*
X14446730Y-15675484D02*
X14427682Y-15665960D01*
X14427682Y-15665960D02*
X14418158Y-15646912D01*
X14418158Y-15646912D02*
X14418158Y-15475484D01*
X14608634Y-15675484D02*
X14608634Y-15570722D01*
X14608634Y-15570722D02*
X14599111Y-15551674D01*
X14599111Y-15551674D02*
X14580063Y-15542150D01*
X14580063Y-15542150D02*
X14541968Y-15542150D01*
X14541968Y-15542150D02*
X14522920Y-15551674D01*
X14608634Y-15665960D02*
X14589587Y-15675484D01*
X14589587Y-15675484D02*
X14541968Y-15675484D01*
X14541968Y-15675484D02*
X14522920Y-15665960D01*
X14522920Y-15665960D02*
X14513396Y-15646912D01*
X14513396Y-15646912D02*
X14513396Y-15627865D01*
X14513396Y-15627865D02*
X14522920Y-15608817D01*
X14522920Y-15608817D02*
X14541968Y-15599293D01*
X14541968Y-15599293D02*
X14589587Y-15599293D01*
X14589587Y-15599293D02*
X14608634Y-15589769D01*
X14675301Y-15542150D02*
X14751492Y-15542150D01*
X14703873Y-15475484D02*
X14703873Y-15646912D01*
X14703873Y-15646912D02*
X14713396Y-15665960D01*
X14713396Y-15665960D02*
X14732444Y-15675484D01*
X14732444Y-15675484D02*
X14751492Y-15675484D01*
X14894349Y-15665960D02*
X14875301Y-15675484D01*
X14875301Y-15675484D02*
X14837206Y-15675484D01*
X14837206Y-15675484D02*
X14818158Y-15665960D01*
X14818158Y-15665960D02*
X14808634Y-15646912D01*
X14808634Y-15646912D02*
X14808634Y-15570722D01*
X14808634Y-15570722D02*
X14818158Y-15551674D01*
X14818158Y-15551674D02*
X14837206Y-15542150D01*
X14837206Y-15542150D02*
X14875301Y-15542150D01*
X14875301Y-15542150D02*
X14894349Y-15551674D01*
X14894349Y-15551674D02*
X14903873Y-15570722D01*
X14903873Y-15570722D02*
X14903873Y-15589769D01*
X14903873Y-15589769D02*
X14808634Y-15608817D01*
X15075301Y-15675484D02*
X15075301Y-15475484D01*
X15075301Y-15665960D02*
X15056254Y-15675484D01*
X15056254Y-15675484D02*
X15018158Y-15675484D01*
X15018158Y-15675484D02*
X14999111Y-15665960D01*
X14999111Y-15665960D02*
X14989587Y-15656436D01*
X14989587Y-15656436D02*
X14980063Y-15637388D01*
X14980063Y-15637388D02*
X14980063Y-15580246D01*
X14980063Y-15580246D02*
X14989587Y-15561198D01*
X14989587Y-15561198D02*
X14999111Y-15551674D01*
X14999111Y-15551674D02*
X15018158Y-15542150D01*
X15018158Y-15542150D02*
X15056254Y-15542150D01*
X15056254Y-15542150D02*
X15075301Y-15551674D01*
X15151492Y-15751674D02*
X15161015Y-15742150D01*
X15161015Y-15742150D02*
X15180063Y-15713579D01*
X15180063Y-15713579D02*
X15189587Y-15694531D01*
X15189587Y-15694531D02*
X15199111Y-15665960D01*
X15199111Y-15665960D02*
X15208634Y-15618341D01*
X15208634Y-15618341D02*
X15208634Y-15580246D01*
X15208634Y-15580246D02*
X15199111Y-15532627D01*
X15199111Y-15532627D02*
X15189587Y-15504055D01*
X15189587Y-15504055D02*
X15180063Y-15485008D01*
X15180063Y-15485008D02*
X15161015Y-15456436D01*
X15161015Y-15456436D02*
X15151492Y-15446912D01*
D14*
X8110000Y-15779000D02*
X8110000Y-15969000D01*
X8015000Y-15874000D02*
X8205000Y-15874000D01*
D12*
X8570539Y-15965484D02*
X8456253Y-15965484D01*
X8513396Y-15965484D02*
X8513396Y-15765484D01*
X8513396Y-15765484D02*
X8494348Y-15794055D01*
X8494348Y-15794055D02*
X8475301Y-15813103D01*
X8475301Y-15813103D02*
X8456253Y-15822627D01*
X8656253Y-15946436D02*
X8665777Y-15955960D01*
X8665777Y-15955960D02*
X8656253Y-15965484D01*
X8656253Y-15965484D02*
X8646729Y-15955960D01*
X8646729Y-15955960D02*
X8656253Y-15946436D01*
X8656253Y-15946436D02*
X8656253Y-15965484D01*
X8761015Y-15965484D02*
X8799110Y-15965484D01*
X8799110Y-15965484D02*
X8818158Y-15955960D01*
X8818158Y-15955960D02*
X8827682Y-15946436D01*
X8827682Y-15946436D02*
X8846729Y-15917865D01*
X8846729Y-15917865D02*
X8856253Y-15879769D01*
X8856253Y-15879769D02*
X8856253Y-15803579D01*
X8856253Y-15803579D02*
X8846729Y-15784531D01*
X8846729Y-15784531D02*
X8837205Y-15775008D01*
X8837205Y-15775008D02*
X8818158Y-15765484D01*
X8818158Y-15765484D02*
X8780063Y-15765484D01*
X8780063Y-15765484D02*
X8761015Y-15775008D01*
X8761015Y-15775008D02*
X8751491Y-15784531D01*
X8751491Y-15784531D02*
X8741967Y-15803579D01*
X8741967Y-15803579D02*
X8741967Y-15851198D01*
X8741967Y-15851198D02*
X8751491Y-15870246D01*
X8751491Y-15870246D02*
X8761015Y-15879769D01*
X8761015Y-15879769D02*
X8780063Y-15889293D01*
X8780063Y-15889293D02*
X8818158Y-15889293D01*
X8818158Y-15889293D02*
X8837205Y-15879769D01*
X8837205Y-15879769D02*
X8846729Y-15870246D01*
X8846729Y-15870246D02*
X8856253Y-15851198D01*
X8980063Y-15765484D02*
X8999110Y-15765484D01*
X8999110Y-15765484D02*
X9018158Y-15775008D01*
X9018158Y-15775008D02*
X9027682Y-15784531D01*
X9027682Y-15784531D02*
X9037205Y-15803579D01*
X9037205Y-15803579D02*
X9046729Y-15841674D01*
X9046729Y-15841674D02*
X9046729Y-15889293D01*
X9046729Y-15889293D02*
X9037205Y-15927388D01*
X9037205Y-15927388D02*
X9027682Y-15946436D01*
X9027682Y-15946436D02*
X9018158Y-15955960D01*
X9018158Y-15955960D02*
X8999110Y-15965484D01*
X8999110Y-15965484D02*
X8980063Y-15965484D01*
X8980063Y-15965484D02*
X8961015Y-15955960D01*
X8961015Y-15955960D02*
X8951491Y-15946436D01*
X8951491Y-15946436D02*
X8941967Y-15927388D01*
X8941967Y-15927388D02*
X8932444Y-15889293D01*
X8932444Y-15889293D02*
X8932444Y-15841674D01*
X8932444Y-15841674D02*
X8941967Y-15803579D01*
X8941967Y-15803579D02*
X8951491Y-15784531D01*
X8951491Y-15784531D02*
X8961015Y-15775008D01*
X8961015Y-15775008D02*
X8980063Y-15765484D01*
X9170539Y-15765484D02*
X9189586Y-15765484D01*
X9189586Y-15765484D02*
X9208634Y-15775008D01*
X9208634Y-15775008D02*
X9218158Y-15784531D01*
X9218158Y-15784531D02*
X9227682Y-15803579D01*
X9227682Y-15803579D02*
X9237205Y-15841674D01*
X9237205Y-15841674D02*
X9237205Y-15889293D01*
X9237205Y-15889293D02*
X9227682Y-15927388D01*
X9227682Y-15927388D02*
X9218158Y-15946436D01*
X9218158Y-15946436D02*
X9208634Y-15955960D01*
X9208634Y-15955960D02*
X9189586Y-15965484D01*
X9189586Y-15965484D02*
X9170539Y-15965484D01*
X9170539Y-15965484D02*
X9151491Y-15955960D01*
X9151491Y-15955960D02*
X9141967Y-15946436D01*
X9141967Y-15946436D02*
X9132444Y-15927388D01*
X9132444Y-15927388D02*
X9122920Y-15889293D01*
X9122920Y-15889293D02*
X9122920Y-15841674D01*
X9122920Y-15841674D02*
X9132444Y-15803579D01*
X9132444Y-15803579D02*
X9141967Y-15784531D01*
X9141967Y-15784531D02*
X9151491Y-15775008D01*
X9151491Y-15775008D02*
X9170539Y-15765484D01*
X9322920Y-15965484D02*
X9322920Y-15832150D01*
X9322920Y-15851198D02*
X9332444Y-15841674D01*
X9332444Y-15841674D02*
X9351491Y-15832150D01*
X9351491Y-15832150D02*
X9380063Y-15832150D01*
X9380063Y-15832150D02*
X9399110Y-15841674D01*
X9399110Y-15841674D02*
X9408634Y-15860722D01*
X9408634Y-15860722D02*
X9408634Y-15965484D01*
X9408634Y-15860722D02*
X9418158Y-15841674D01*
X9418158Y-15841674D02*
X9437205Y-15832150D01*
X9437205Y-15832150D02*
X9465777Y-15832150D01*
X9465777Y-15832150D02*
X9484825Y-15841674D01*
X9484825Y-15841674D02*
X9494348Y-15860722D01*
X9494348Y-15860722D02*
X9494348Y-15965484D01*
X9589586Y-15965484D02*
X9589586Y-15832150D01*
X9589586Y-15851198D02*
X9599110Y-15841674D01*
X9599110Y-15841674D02*
X9618158Y-15832150D01*
X9618158Y-15832150D02*
X9646729Y-15832150D01*
X9646729Y-15832150D02*
X9665777Y-15841674D01*
X9665777Y-15841674D02*
X9675301Y-15860722D01*
X9675301Y-15860722D02*
X9675301Y-15965484D01*
X9675301Y-15860722D02*
X9684825Y-15841674D01*
X9684825Y-15841674D02*
X9703872Y-15832150D01*
X9703872Y-15832150D02*
X9732444Y-15832150D01*
X9732444Y-15832150D02*
X9751491Y-15841674D01*
X9751491Y-15841674D02*
X9761015Y-15860722D01*
X9761015Y-15860722D02*
X9761015Y-15965484D01*
X10151491Y-15755960D02*
X9980063Y-16013103D01*
X10408634Y-15765484D02*
X10427682Y-15765484D01*
X10427682Y-15765484D02*
X10446729Y-15775008D01*
X10446729Y-15775008D02*
X10456253Y-15784531D01*
X10456253Y-15784531D02*
X10465777Y-15803579D01*
X10465777Y-15803579D02*
X10475301Y-15841674D01*
X10475301Y-15841674D02*
X10475301Y-15889293D01*
X10475301Y-15889293D02*
X10465777Y-15927388D01*
X10465777Y-15927388D02*
X10456253Y-15946436D01*
X10456253Y-15946436D02*
X10446729Y-15955960D01*
X10446729Y-15955960D02*
X10427682Y-15965484D01*
X10427682Y-15965484D02*
X10408634Y-15965484D01*
X10408634Y-15965484D02*
X10389587Y-15955960D01*
X10389587Y-15955960D02*
X10380063Y-15946436D01*
X10380063Y-15946436D02*
X10370539Y-15927388D01*
X10370539Y-15927388D02*
X10361015Y-15889293D01*
X10361015Y-15889293D02*
X10361015Y-15841674D01*
X10361015Y-15841674D02*
X10370539Y-15803579D01*
X10370539Y-15803579D02*
X10380063Y-15784531D01*
X10380063Y-15784531D02*
X10389587Y-15775008D01*
X10389587Y-15775008D02*
X10408634Y-15765484D01*
X10561015Y-15946436D02*
X10570539Y-15955960D01*
X10570539Y-15955960D02*
X10561015Y-15965484D01*
X10561015Y-15965484D02*
X10551491Y-15955960D01*
X10551491Y-15955960D02*
X10561015Y-15946436D01*
X10561015Y-15946436D02*
X10561015Y-15965484D01*
X10694348Y-15765484D02*
X10713396Y-15765484D01*
X10713396Y-15765484D02*
X10732444Y-15775008D01*
X10732444Y-15775008D02*
X10741968Y-15784531D01*
X10741968Y-15784531D02*
X10751491Y-15803579D01*
X10751491Y-15803579D02*
X10761015Y-15841674D01*
X10761015Y-15841674D02*
X10761015Y-15889293D01*
X10761015Y-15889293D02*
X10751491Y-15927388D01*
X10751491Y-15927388D02*
X10741968Y-15946436D01*
X10741968Y-15946436D02*
X10732444Y-15955960D01*
X10732444Y-15955960D02*
X10713396Y-15965484D01*
X10713396Y-15965484D02*
X10694348Y-15965484D01*
X10694348Y-15965484D02*
X10675301Y-15955960D01*
X10675301Y-15955960D02*
X10665777Y-15946436D01*
X10665777Y-15946436D02*
X10656253Y-15927388D01*
X10656253Y-15927388D02*
X10646729Y-15889293D01*
X10646729Y-15889293D02*
X10646729Y-15841674D01*
X10646729Y-15841674D02*
X10656253Y-15803579D01*
X10656253Y-15803579D02*
X10665777Y-15784531D01*
X10665777Y-15784531D02*
X10675301Y-15775008D01*
X10675301Y-15775008D02*
X10694348Y-15765484D01*
X10827682Y-15765484D02*
X10961015Y-15765484D01*
X10961015Y-15765484D02*
X10875301Y-15965484D01*
X11122920Y-15832150D02*
X11122920Y-15965484D01*
X11075301Y-15755960D02*
X11027682Y-15898817D01*
X11027682Y-15898817D02*
X11151491Y-15898817D01*
X11256253Y-15851198D02*
X11237206Y-15841674D01*
X11237206Y-15841674D02*
X11227682Y-15832150D01*
X11227682Y-15832150D02*
X11218158Y-15813103D01*
X11218158Y-15813103D02*
X11218158Y-15803579D01*
X11218158Y-15803579D02*
X11227682Y-15784531D01*
X11227682Y-15784531D02*
X11237206Y-15775008D01*
X11237206Y-15775008D02*
X11256253Y-15765484D01*
X11256253Y-15765484D02*
X11294348Y-15765484D01*
X11294348Y-15765484D02*
X11313396Y-15775008D01*
X11313396Y-15775008D02*
X11322920Y-15784531D01*
X11322920Y-15784531D02*
X11332444Y-15803579D01*
X11332444Y-15803579D02*
X11332444Y-15813103D01*
X11332444Y-15813103D02*
X11322920Y-15832150D01*
X11322920Y-15832150D02*
X11313396Y-15841674D01*
X11313396Y-15841674D02*
X11294348Y-15851198D01*
X11294348Y-15851198D02*
X11256253Y-15851198D01*
X11256253Y-15851198D02*
X11237206Y-15860722D01*
X11237206Y-15860722D02*
X11227682Y-15870246D01*
X11227682Y-15870246D02*
X11218158Y-15889293D01*
X11218158Y-15889293D02*
X11218158Y-15927388D01*
X11218158Y-15927388D02*
X11227682Y-15946436D01*
X11227682Y-15946436D02*
X11237206Y-15955960D01*
X11237206Y-15955960D02*
X11256253Y-15965484D01*
X11256253Y-15965484D02*
X11294348Y-15965484D01*
X11294348Y-15965484D02*
X11313396Y-15955960D01*
X11313396Y-15955960D02*
X11322920Y-15946436D01*
X11322920Y-15946436D02*
X11332444Y-15927388D01*
X11332444Y-15927388D02*
X11332444Y-15889293D01*
X11332444Y-15889293D02*
X11322920Y-15870246D01*
X11322920Y-15870246D02*
X11313396Y-15860722D01*
X11313396Y-15860722D02*
X11294348Y-15851198D01*
X11408634Y-15765484D02*
X11408634Y-15803579D01*
X11484825Y-15765484D02*
X11484825Y-15803579D01*
X11780063Y-16041674D02*
X11770539Y-16032150D01*
X11770539Y-16032150D02*
X11751491Y-16003579D01*
X11751491Y-16003579D02*
X11741968Y-15984531D01*
X11741968Y-15984531D02*
X11732444Y-15955960D01*
X11732444Y-15955960D02*
X11722920Y-15908341D01*
X11722920Y-15908341D02*
X11722920Y-15870246D01*
X11722920Y-15870246D02*
X11732444Y-15822627D01*
X11732444Y-15822627D02*
X11741968Y-15794055D01*
X11741968Y-15794055D02*
X11751491Y-15775008D01*
X11751491Y-15775008D02*
X11770539Y-15746436D01*
X11770539Y-15746436D02*
X11780063Y-15736912D01*
X11951491Y-15765484D02*
X11856253Y-15765484D01*
X11856253Y-15765484D02*
X11846729Y-15860722D01*
X11846729Y-15860722D02*
X11856253Y-15851198D01*
X11856253Y-15851198D02*
X11875301Y-15841674D01*
X11875301Y-15841674D02*
X11922920Y-15841674D01*
X11922920Y-15841674D02*
X11941968Y-15851198D01*
X11941968Y-15851198D02*
X11951491Y-15860722D01*
X11951491Y-15860722D02*
X11961015Y-15879769D01*
X11961015Y-15879769D02*
X11961015Y-15927388D01*
X11961015Y-15927388D02*
X11951491Y-15946436D01*
X11951491Y-15946436D02*
X11941968Y-15955960D01*
X11941968Y-15955960D02*
X11922920Y-15965484D01*
X11922920Y-15965484D02*
X11875301Y-15965484D01*
X11875301Y-15965484D02*
X11856253Y-15955960D01*
X11856253Y-15955960D02*
X11846729Y-15946436D01*
X12075301Y-15851198D02*
X12056253Y-15841674D01*
X12056253Y-15841674D02*
X12046729Y-15832150D01*
X12046729Y-15832150D02*
X12037206Y-15813103D01*
X12037206Y-15813103D02*
X12037206Y-15803579D01*
X12037206Y-15803579D02*
X12046729Y-15784531D01*
X12046729Y-15784531D02*
X12056253Y-15775008D01*
X12056253Y-15775008D02*
X12075301Y-15765484D01*
X12075301Y-15765484D02*
X12113396Y-15765484D01*
X12113396Y-15765484D02*
X12132444Y-15775008D01*
X12132444Y-15775008D02*
X12141968Y-15784531D01*
X12141968Y-15784531D02*
X12151491Y-15803579D01*
X12151491Y-15803579D02*
X12151491Y-15813103D01*
X12151491Y-15813103D02*
X12141968Y-15832150D01*
X12141968Y-15832150D02*
X12132444Y-15841674D01*
X12132444Y-15841674D02*
X12113396Y-15851198D01*
X12113396Y-15851198D02*
X12075301Y-15851198D01*
X12075301Y-15851198D02*
X12056253Y-15860722D01*
X12056253Y-15860722D02*
X12046729Y-15870246D01*
X12046729Y-15870246D02*
X12037206Y-15889293D01*
X12037206Y-15889293D02*
X12037206Y-15927388D01*
X12037206Y-15927388D02*
X12046729Y-15946436D01*
X12046729Y-15946436D02*
X12056253Y-15955960D01*
X12056253Y-15955960D02*
X12075301Y-15965484D01*
X12075301Y-15965484D02*
X12113396Y-15965484D01*
X12113396Y-15965484D02*
X12132444Y-15955960D01*
X12132444Y-15955960D02*
X12141968Y-15946436D01*
X12141968Y-15946436D02*
X12151491Y-15927388D01*
X12151491Y-15927388D02*
X12151491Y-15889293D01*
X12151491Y-15889293D02*
X12141968Y-15870246D01*
X12141968Y-15870246D02*
X12132444Y-15860722D01*
X12132444Y-15860722D02*
X12113396Y-15851198D01*
X12389587Y-15965484D02*
X12389587Y-15765484D01*
X12475301Y-15965484D02*
X12475301Y-15860722D01*
X12475301Y-15860722D02*
X12465777Y-15841674D01*
X12465777Y-15841674D02*
X12446730Y-15832150D01*
X12446730Y-15832150D02*
X12418158Y-15832150D01*
X12418158Y-15832150D02*
X12399110Y-15841674D01*
X12399110Y-15841674D02*
X12389587Y-15851198D01*
X12599110Y-15965484D02*
X12580063Y-15955960D01*
X12580063Y-15955960D02*
X12570539Y-15946436D01*
X12570539Y-15946436D02*
X12561015Y-15927388D01*
X12561015Y-15927388D02*
X12561015Y-15870246D01*
X12561015Y-15870246D02*
X12570539Y-15851198D01*
X12570539Y-15851198D02*
X12580063Y-15841674D01*
X12580063Y-15841674D02*
X12599110Y-15832150D01*
X12599110Y-15832150D02*
X12627682Y-15832150D01*
X12627682Y-15832150D02*
X12646730Y-15841674D01*
X12646730Y-15841674D02*
X12656253Y-15851198D01*
X12656253Y-15851198D02*
X12665777Y-15870246D01*
X12665777Y-15870246D02*
X12665777Y-15927388D01*
X12665777Y-15927388D02*
X12656253Y-15946436D01*
X12656253Y-15946436D02*
X12646730Y-15955960D01*
X12646730Y-15955960D02*
X12627682Y-15965484D01*
X12627682Y-15965484D02*
X12599110Y-15965484D01*
X12780063Y-15965484D02*
X12761015Y-15955960D01*
X12761015Y-15955960D02*
X12751491Y-15936912D01*
X12751491Y-15936912D02*
X12751491Y-15765484D01*
X12932444Y-15955960D02*
X12913396Y-15965484D01*
X12913396Y-15965484D02*
X12875301Y-15965484D01*
X12875301Y-15965484D02*
X12856253Y-15955960D01*
X12856253Y-15955960D02*
X12846730Y-15936912D01*
X12846730Y-15936912D02*
X12846730Y-15860722D01*
X12846730Y-15860722D02*
X12856253Y-15841674D01*
X12856253Y-15841674D02*
X12875301Y-15832150D01*
X12875301Y-15832150D02*
X12913396Y-15832150D01*
X12913396Y-15832150D02*
X12932444Y-15841674D01*
X12932444Y-15841674D02*
X12941968Y-15860722D01*
X12941968Y-15860722D02*
X12941968Y-15879769D01*
X12941968Y-15879769D02*
X12846730Y-15898817D01*
X13018158Y-15955960D02*
X13037206Y-15965484D01*
X13037206Y-15965484D02*
X13075301Y-15965484D01*
X13075301Y-15965484D02*
X13094349Y-15955960D01*
X13094349Y-15955960D02*
X13103872Y-15936912D01*
X13103872Y-15936912D02*
X13103872Y-15927388D01*
X13103872Y-15927388D02*
X13094349Y-15908341D01*
X13094349Y-15908341D02*
X13075301Y-15898817D01*
X13075301Y-15898817D02*
X13046730Y-15898817D01*
X13046730Y-15898817D02*
X13027682Y-15889293D01*
X13027682Y-15889293D02*
X13018158Y-15870246D01*
X13018158Y-15870246D02*
X13018158Y-15860722D01*
X13018158Y-15860722D02*
X13027682Y-15841674D01*
X13027682Y-15841674D02*
X13046730Y-15832150D01*
X13046730Y-15832150D02*
X13075301Y-15832150D01*
X13075301Y-15832150D02*
X13094349Y-15841674D01*
X13170539Y-16041674D02*
X13180063Y-16032150D01*
X13180063Y-16032150D02*
X13199111Y-16003579D01*
X13199111Y-16003579D02*
X13208634Y-15984531D01*
X13208634Y-15984531D02*
X13218158Y-15955960D01*
X13218158Y-15955960D02*
X13227682Y-15908341D01*
X13227682Y-15908341D02*
X13227682Y-15870246D01*
X13227682Y-15870246D02*
X13218158Y-15822627D01*
X13218158Y-15822627D02*
X13208634Y-15794055D01*
X13208634Y-15794055D02*
X13199111Y-15775008D01*
X13199111Y-15775008D02*
X13180063Y-15746436D01*
X13180063Y-15746436D02*
X13170539Y-15736912D01*
X13532444Y-16041674D02*
X13522920Y-16032150D01*
X13522920Y-16032150D02*
X13503872Y-16003579D01*
X13503872Y-16003579D02*
X13494349Y-15984531D01*
X13494349Y-15984531D02*
X13484825Y-15955960D01*
X13484825Y-15955960D02*
X13475301Y-15908341D01*
X13475301Y-15908341D02*
X13475301Y-15870246D01*
X13475301Y-15870246D02*
X13484825Y-15822627D01*
X13484825Y-15822627D02*
X13494349Y-15794055D01*
X13494349Y-15794055D02*
X13503872Y-15775008D01*
X13503872Y-15775008D02*
X13522920Y-15746436D01*
X13522920Y-15746436D02*
X13532444Y-15736912D01*
X13608634Y-15832150D02*
X13608634Y-15965484D01*
X13608634Y-15851198D02*
X13618158Y-15841674D01*
X13618158Y-15841674D02*
X13637206Y-15832150D01*
X13637206Y-15832150D02*
X13665777Y-15832150D01*
X13665777Y-15832150D02*
X13684825Y-15841674D01*
X13684825Y-15841674D02*
X13694349Y-15860722D01*
X13694349Y-15860722D02*
X13694349Y-15965484D01*
X13818158Y-15965484D02*
X13799111Y-15955960D01*
X13799111Y-15955960D02*
X13789587Y-15946436D01*
X13789587Y-15946436D02*
X13780063Y-15927388D01*
X13780063Y-15927388D02*
X13780063Y-15870246D01*
X13780063Y-15870246D02*
X13789587Y-15851198D01*
X13789587Y-15851198D02*
X13799111Y-15841674D01*
X13799111Y-15841674D02*
X13818158Y-15832150D01*
X13818158Y-15832150D02*
X13846730Y-15832150D01*
X13846730Y-15832150D02*
X13865777Y-15841674D01*
X13865777Y-15841674D02*
X13875301Y-15851198D01*
X13875301Y-15851198D02*
X13884825Y-15870246D01*
X13884825Y-15870246D02*
X13884825Y-15927388D01*
X13884825Y-15927388D02*
X13875301Y-15946436D01*
X13875301Y-15946436D02*
X13865777Y-15955960D01*
X13865777Y-15955960D02*
X13846730Y-15965484D01*
X13846730Y-15965484D02*
X13818158Y-15965484D01*
X13941968Y-15832150D02*
X14018158Y-15832150D01*
X13970539Y-15765484D02*
X13970539Y-15936912D01*
X13970539Y-15936912D02*
X13980063Y-15955960D01*
X13980063Y-15955960D02*
X13999111Y-15965484D01*
X13999111Y-15965484D02*
X14018158Y-15965484D01*
X14237206Y-15832150D02*
X14237206Y-16032150D01*
X14237206Y-15841674D02*
X14256253Y-15832150D01*
X14256253Y-15832150D02*
X14294349Y-15832150D01*
X14294349Y-15832150D02*
X14313396Y-15841674D01*
X14313396Y-15841674D02*
X14322920Y-15851198D01*
X14322920Y-15851198D02*
X14332444Y-15870246D01*
X14332444Y-15870246D02*
X14332444Y-15927388D01*
X14332444Y-15927388D02*
X14322920Y-15946436D01*
X14322920Y-15946436D02*
X14313396Y-15955960D01*
X14313396Y-15955960D02*
X14294349Y-15965484D01*
X14294349Y-15965484D02*
X14256253Y-15965484D01*
X14256253Y-15965484D02*
X14237206Y-15955960D01*
X14446730Y-15965484D02*
X14427682Y-15955960D01*
X14427682Y-15955960D02*
X14418158Y-15936912D01*
X14418158Y-15936912D02*
X14418158Y-15765484D01*
X14608634Y-15965484D02*
X14608634Y-15860722D01*
X14608634Y-15860722D02*
X14599111Y-15841674D01*
X14599111Y-15841674D02*
X14580063Y-15832150D01*
X14580063Y-15832150D02*
X14541968Y-15832150D01*
X14541968Y-15832150D02*
X14522920Y-15841674D01*
X14608634Y-15955960D02*
X14589587Y-15965484D01*
X14589587Y-15965484D02*
X14541968Y-15965484D01*
X14541968Y-15965484D02*
X14522920Y-15955960D01*
X14522920Y-15955960D02*
X14513396Y-15936912D01*
X14513396Y-15936912D02*
X14513396Y-15917865D01*
X14513396Y-15917865D02*
X14522920Y-15898817D01*
X14522920Y-15898817D02*
X14541968Y-15889293D01*
X14541968Y-15889293D02*
X14589587Y-15889293D01*
X14589587Y-15889293D02*
X14608634Y-15879769D01*
X14675301Y-15832150D02*
X14751492Y-15832150D01*
X14703873Y-15765484D02*
X14703873Y-15936912D01*
X14703873Y-15936912D02*
X14713396Y-15955960D01*
X14713396Y-15955960D02*
X14732444Y-15965484D01*
X14732444Y-15965484D02*
X14751492Y-15965484D01*
X14894349Y-15955960D02*
X14875301Y-15965484D01*
X14875301Y-15965484D02*
X14837206Y-15965484D01*
X14837206Y-15965484D02*
X14818158Y-15955960D01*
X14818158Y-15955960D02*
X14808634Y-15936912D01*
X14808634Y-15936912D02*
X14808634Y-15860722D01*
X14808634Y-15860722D02*
X14818158Y-15841674D01*
X14818158Y-15841674D02*
X14837206Y-15832150D01*
X14837206Y-15832150D02*
X14875301Y-15832150D01*
X14875301Y-15832150D02*
X14894349Y-15841674D01*
X14894349Y-15841674D02*
X14903873Y-15860722D01*
X14903873Y-15860722D02*
X14903873Y-15879769D01*
X14903873Y-15879769D02*
X14808634Y-15898817D01*
X15075301Y-15965484D02*
X15075301Y-15765484D01*
X15075301Y-15955960D02*
X15056254Y-15965484D01*
X15056254Y-15965484D02*
X15018158Y-15965484D01*
X15018158Y-15965484D02*
X14999111Y-15955960D01*
X14999111Y-15955960D02*
X14989587Y-15946436D01*
X14989587Y-15946436D02*
X14980063Y-15927388D01*
X14980063Y-15927388D02*
X14980063Y-15870246D01*
X14980063Y-15870246D02*
X14989587Y-15851198D01*
X14989587Y-15851198D02*
X14999111Y-15841674D01*
X14999111Y-15841674D02*
X15018158Y-15832150D01*
X15018158Y-15832150D02*
X15056254Y-15832150D01*
X15056254Y-15832150D02*
X15075301Y-15841674D01*
X15151492Y-16041674D02*
X15161015Y-16032150D01*
X15161015Y-16032150D02*
X15180063Y-16003579D01*
X15180063Y-16003579D02*
X15189587Y-15984531D01*
X15189587Y-15984531D02*
X15199111Y-15955960D01*
X15199111Y-15955960D02*
X15208634Y-15908341D01*
X15208634Y-15908341D02*
X15208634Y-15870246D01*
X15208634Y-15870246D02*
X15199111Y-15822627D01*
X15199111Y-15822627D02*
X15189587Y-15794055D01*
X15189587Y-15794055D02*
X15180063Y-15775008D01*
X15180063Y-15775008D02*
X15161015Y-15746436D01*
X15161015Y-15746436D02*
X15151492Y-15736912D01*
X8175711Y-16254711D02*
X8175711Y-16113289D01*
X8034289Y-16113289D01*
X8034289Y-16254711D01*
X8175711Y-16254711D01*
X8446729Y-16075484D02*
X8570539Y-16075484D01*
X8570539Y-16075484D02*
X8503872Y-16151674D01*
X8503872Y-16151674D02*
X8532444Y-16151674D01*
X8532444Y-16151674D02*
X8551491Y-16161198D01*
X8551491Y-16161198D02*
X8561015Y-16170722D01*
X8561015Y-16170722D02*
X8570539Y-16189769D01*
X8570539Y-16189769D02*
X8570539Y-16237388D01*
X8570539Y-16237388D02*
X8561015Y-16256436D01*
X8561015Y-16256436D02*
X8551491Y-16265960D01*
X8551491Y-16265960D02*
X8532444Y-16275484D01*
X8532444Y-16275484D02*
X8475301Y-16275484D01*
X8475301Y-16275484D02*
X8456253Y-16265960D01*
X8456253Y-16265960D02*
X8446729Y-16256436D01*
X8656253Y-16256436D02*
X8665777Y-16265960D01*
X8665777Y-16265960D02*
X8656253Y-16275484D01*
X8656253Y-16275484D02*
X8646729Y-16265960D01*
X8646729Y-16265960D02*
X8656253Y-16256436D01*
X8656253Y-16256436D02*
X8656253Y-16275484D01*
X8789586Y-16075484D02*
X8808634Y-16075484D01*
X8808634Y-16075484D02*
X8827682Y-16085008D01*
X8827682Y-16085008D02*
X8837205Y-16094531D01*
X8837205Y-16094531D02*
X8846729Y-16113579D01*
X8846729Y-16113579D02*
X8856253Y-16151674D01*
X8856253Y-16151674D02*
X8856253Y-16199293D01*
X8856253Y-16199293D02*
X8846729Y-16237388D01*
X8846729Y-16237388D02*
X8837205Y-16256436D01*
X8837205Y-16256436D02*
X8827682Y-16265960D01*
X8827682Y-16265960D02*
X8808634Y-16275484D01*
X8808634Y-16275484D02*
X8789586Y-16275484D01*
X8789586Y-16275484D02*
X8770539Y-16265960D01*
X8770539Y-16265960D02*
X8761015Y-16256436D01*
X8761015Y-16256436D02*
X8751491Y-16237388D01*
X8751491Y-16237388D02*
X8741967Y-16199293D01*
X8741967Y-16199293D02*
X8741967Y-16151674D01*
X8741967Y-16151674D02*
X8751491Y-16113579D01*
X8751491Y-16113579D02*
X8761015Y-16094531D01*
X8761015Y-16094531D02*
X8770539Y-16085008D01*
X8770539Y-16085008D02*
X8789586Y-16075484D01*
X8980063Y-16075484D02*
X8999110Y-16075484D01*
X8999110Y-16075484D02*
X9018158Y-16085008D01*
X9018158Y-16085008D02*
X9027682Y-16094531D01*
X9027682Y-16094531D02*
X9037205Y-16113579D01*
X9037205Y-16113579D02*
X9046729Y-16151674D01*
X9046729Y-16151674D02*
X9046729Y-16199293D01*
X9046729Y-16199293D02*
X9037205Y-16237388D01*
X9037205Y-16237388D02*
X9027682Y-16256436D01*
X9027682Y-16256436D02*
X9018158Y-16265960D01*
X9018158Y-16265960D02*
X8999110Y-16275484D01*
X8999110Y-16275484D02*
X8980063Y-16275484D01*
X8980063Y-16275484D02*
X8961015Y-16265960D01*
X8961015Y-16265960D02*
X8951491Y-16256436D01*
X8951491Y-16256436D02*
X8941967Y-16237388D01*
X8941967Y-16237388D02*
X8932444Y-16199293D01*
X8932444Y-16199293D02*
X8932444Y-16151674D01*
X8932444Y-16151674D02*
X8941967Y-16113579D01*
X8941967Y-16113579D02*
X8951491Y-16094531D01*
X8951491Y-16094531D02*
X8961015Y-16085008D01*
X8961015Y-16085008D02*
X8980063Y-16075484D01*
X9170539Y-16075484D02*
X9189586Y-16075484D01*
X9189586Y-16075484D02*
X9208634Y-16085008D01*
X9208634Y-16085008D02*
X9218158Y-16094531D01*
X9218158Y-16094531D02*
X9227682Y-16113579D01*
X9227682Y-16113579D02*
X9237205Y-16151674D01*
X9237205Y-16151674D02*
X9237205Y-16199293D01*
X9237205Y-16199293D02*
X9227682Y-16237388D01*
X9227682Y-16237388D02*
X9218158Y-16256436D01*
X9218158Y-16256436D02*
X9208634Y-16265960D01*
X9208634Y-16265960D02*
X9189586Y-16275484D01*
X9189586Y-16275484D02*
X9170539Y-16275484D01*
X9170539Y-16275484D02*
X9151491Y-16265960D01*
X9151491Y-16265960D02*
X9141967Y-16256436D01*
X9141967Y-16256436D02*
X9132444Y-16237388D01*
X9132444Y-16237388D02*
X9122920Y-16199293D01*
X9122920Y-16199293D02*
X9122920Y-16151674D01*
X9122920Y-16151674D02*
X9132444Y-16113579D01*
X9132444Y-16113579D02*
X9141967Y-16094531D01*
X9141967Y-16094531D02*
X9151491Y-16085008D01*
X9151491Y-16085008D02*
X9170539Y-16075484D01*
X9322920Y-16275484D02*
X9322920Y-16142150D01*
X9322920Y-16161198D02*
X9332444Y-16151674D01*
X9332444Y-16151674D02*
X9351491Y-16142150D01*
X9351491Y-16142150D02*
X9380063Y-16142150D01*
X9380063Y-16142150D02*
X9399110Y-16151674D01*
X9399110Y-16151674D02*
X9408634Y-16170722D01*
X9408634Y-16170722D02*
X9408634Y-16275484D01*
X9408634Y-16170722D02*
X9418158Y-16151674D01*
X9418158Y-16151674D02*
X9437205Y-16142150D01*
X9437205Y-16142150D02*
X9465777Y-16142150D01*
X9465777Y-16142150D02*
X9484825Y-16151674D01*
X9484825Y-16151674D02*
X9494348Y-16170722D01*
X9494348Y-16170722D02*
X9494348Y-16275484D01*
X9589586Y-16275484D02*
X9589586Y-16142150D01*
X9589586Y-16161198D02*
X9599110Y-16151674D01*
X9599110Y-16151674D02*
X9618158Y-16142150D01*
X9618158Y-16142150D02*
X9646729Y-16142150D01*
X9646729Y-16142150D02*
X9665777Y-16151674D01*
X9665777Y-16151674D02*
X9675301Y-16170722D01*
X9675301Y-16170722D02*
X9675301Y-16275484D01*
X9675301Y-16170722D02*
X9684825Y-16151674D01*
X9684825Y-16151674D02*
X9703872Y-16142150D01*
X9703872Y-16142150D02*
X9732444Y-16142150D01*
X9732444Y-16142150D02*
X9751491Y-16151674D01*
X9751491Y-16151674D02*
X9761015Y-16170722D01*
X9761015Y-16170722D02*
X9761015Y-16275484D01*
X10151491Y-16065960D02*
X9980063Y-16323103D01*
X10408634Y-16075484D02*
X10427682Y-16075484D01*
X10427682Y-16075484D02*
X10446729Y-16085008D01*
X10446729Y-16085008D02*
X10456253Y-16094531D01*
X10456253Y-16094531D02*
X10465777Y-16113579D01*
X10465777Y-16113579D02*
X10475301Y-16151674D01*
X10475301Y-16151674D02*
X10475301Y-16199293D01*
X10475301Y-16199293D02*
X10465777Y-16237388D01*
X10465777Y-16237388D02*
X10456253Y-16256436D01*
X10456253Y-16256436D02*
X10446729Y-16265960D01*
X10446729Y-16265960D02*
X10427682Y-16275484D01*
X10427682Y-16275484D02*
X10408634Y-16275484D01*
X10408634Y-16275484D02*
X10389587Y-16265960D01*
X10389587Y-16265960D02*
X10380063Y-16256436D01*
X10380063Y-16256436D02*
X10370539Y-16237388D01*
X10370539Y-16237388D02*
X10361015Y-16199293D01*
X10361015Y-16199293D02*
X10361015Y-16151674D01*
X10361015Y-16151674D02*
X10370539Y-16113579D01*
X10370539Y-16113579D02*
X10380063Y-16094531D01*
X10380063Y-16094531D02*
X10389587Y-16085008D01*
X10389587Y-16085008D02*
X10408634Y-16075484D01*
X10561015Y-16256436D02*
X10570539Y-16265960D01*
X10570539Y-16265960D02*
X10561015Y-16275484D01*
X10561015Y-16275484D02*
X10551491Y-16265960D01*
X10551491Y-16265960D02*
X10561015Y-16256436D01*
X10561015Y-16256436D02*
X10561015Y-16275484D01*
X10761015Y-16275484D02*
X10646729Y-16275484D01*
X10703872Y-16275484D02*
X10703872Y-16075484D01*
X10703872Y-16075484D02*
X10684825Y-16104055D01*
X10684825Y-16104055D02*
X10665777Y-16123103D01*
X10665777Y-16123103D02*
X10646729Y-16132627D01*
X10951491Y-16275484D02*
X10837206Y-16275484D01*
X10894348Y-16275484D02*
X10894348Y-16075484D01*
X10894348Y-16075484D02*
X10875301Y-16104055D01*
X10875301Y-16104055D02*
X10856253Y-16123103D01*
X10856253Y-16123103D02*
X10837206Y-16132627D01*
X11065777Y-16161198D02*
X11046729Y-16151674D01*
X11046729Y-16151674D02*
X11037206Y-16142150D01*
X11037206Y-16142150D02*
X11027682Y-16123103D01*
X11027682Y-16123103D02*
X11027682Y-16113579D01*
X11027682Y-16113579D02*
X11037206Y-16094531D01*
X11037206Y-16094531D02*
X11046729Y-16085008D01*
X11046729Y-16085008D02*
X11065777Y-16075484D01*
X11065777Y-16075484D02*
X11103872Y-16075484D01*
X11103872Y-16075484D02*
X11122920Y-16085008D01*
X11122920Y-16085008D02*
X11132444Y-16094531D01*
X11132444Y-16094531D02*
X11141968Y-16113579D01*
X11141968Y-16113579D02*
X11141968Y-16123103D01*
X11141968Y-16123103D02*
X11132444Y-16142150D01*
X11132444Y-16142150D02*
X11122920Y-16151674D01*
X11122920Y-16151674D02*
X11103872Y-16161198D01*
X11103872Y-16161198D02*
X11065777Y-16161198D01*
X11065777Y-16161198D02*
X11046729Y-16170722D01*
X11046729Y-16170722D02*
X11037206Y-16180246D01*
X11037206Y-16180246D02*
X11027682Y-16199293D01*
X11027682Y-16199293D02*
X11027682Y-16237388D01*
X11027682Y-16237388D02*
X11037206Y-16256436D01*
X11037206Y-16256436D02*
X11046729Y-16265960D01*
X11046729Y-16265960D02*
X11065777Y-16275484D01*
X11065777Y-16275484D02*
X11103872Y-16275484D01*
X11103872Y-16275484D02*
X11122920Y-16265960D01*
X11122920Y-16265960D02*
X11132444Y-16256436D01*
X11132444Y-16256436D02*
X11141968Y-16237388D01*
X11141968Y-16237388D02*
X11141968Y-16199293D01*
X11141968Y-16199293D02*
X11132444Y-16180246D01*
X11132444Y-16180246D02*
X11122920Y-16170722D01*
X11122920Y-16170722D02*
X11103872Y-16161198D01*
X11332444Y-16275484D02*
X11218158Y-16275484D01*
X11275301Y-16275484D02*
X11275301Y-16075484D01*
X11275301Y-16075484D02*
X11256253Y-16104055D01*
X11256253Y-16104055D02*
X11237206Y-16123103D01*
X11237206Y-16123103D02*
X11218158Y-16132627D01*
X11408634Y-16075484D02*
X11408634Y-16113579D01*
X11484825Y-16075484D02*
X11484825Y-16113579D01*
X11780063Y-16351674D02*
X11770539Y-16342150D01*
X11770539Y-16342150D02*
X11751491Y-16313579D01*
X11751491Y-16313579D02*
X11741968Y-16294531D01*
X11741968Y-16294531D02*
X11732444Y-16265960D01*
X11732444Y-16265960D02*
X11722920Y-16218341D01*
X11722920Y-16218341D02*
X11722920Y-16180246D01*
X11722920Y-16180246D02*
X11732444Y-16132627D01*
X11732444Y-16132627D02*
X11741968Y-16104055D01*
X11741968Y-16104055D02*
X11751491Y-16085008D01*
X11751491Y-16085008D02*
X11770539Y-16056436D01*
X11770539Y-16056436D02*
X11780063Y-16046912D01*
X11961015Y-16275484D02*
X11846729Y-16275484D01*
X11903872Y-16275484D02*
X11903872Y-16075484D01*
X11903872Y-16075484D02*
X11884825Y-16104055D01*
X11884825Y-16104055D02*
X11865777Y-16123103D01*
X11865777Y-16123103D02*
X11846729Y-16132627D01*
X12151491Y-16275484D02*
X12037206Y-16275484D01*
X12094348Y-16275484D02*
X12094348Y-16075484D01*
X12094348Y-16075484D02*
X12075301Y-16104055D01*
X12075301Y-16104055D02*
X12056253Y-16123103D01*
X12056253Y-16123103D02*
X12037206Y-16132627D01*
X12322920Y-16075484D02*
X12284825Y-16075484D01*
X12284825Y-16075484D02*
X12265777Y-16085008D01*
X12265777Y-16085008D02*
X12256253Y-16094531D01*
X12256253Y-16094531D02*
X12237206Y-16123103D01*
X12237206Y-16123103D02*
X12227682Y-16161198D01*
X12227682Y-16161198D02*
X12227682Y-16237388D01*
X12227682Y-16237388D02*
X12237206Y-16256436D01*
X12237206Y-16256436D02*
X12246729Y-16265960D01*
X12246729Y-16265960D02*
X12265777Y-16275484D01*
X12265777Y-16275484D02*
X12303872Y-16275484D01*
X12303872Y-16275484D02*
X12322920Y-16265960D01*
X12322920Y-16265960D02*
X12332444Y-16256436D01*
X12332444Y-16256436D02*
X12341968Y-16237388D01*
X12341968Y-16237388D02*
X12341968Y-16189769D01*
X12341968Y-16189769D02*
X12332444Y-16170722D01*
X12332444Y-16170722D02*
X12322920Y-16161198D01*
X12322920Y-16161198D02*
X12303872Y-16151674D01*
X12303872Y-16151674D02*
X12265777Y-16151674D01*
X12265777Y-16151674D02*
X12246729Y-16161198D01*
X12246729Y-16161198D02*
X12237206Y-16170722D01*
X12237206Y-16170722D02*
X12227682Y-16189769D01*
X12580063Y-16275484D02*
X12580063Y-16075484D01*
X12665777Y-16275484D02*
X12665777Y-16170722D01*
X12665777Y-16170722D02*
X12656253Y-16151674D01*
X12656253Y-16151674D02*
X12637206Y-16142150D01*
X12637206Y-16142150D02*
X12608634Y-16142150D01*
X12608634Y-16142150D02*
X12589587Y-16151674D01*
X12589587Y-16151674D02*
X12580063Y-16161198D01*
X12789587Y-16275484D02*
X12770539Y-16265960D01*
X12770539Y-16265960D02*
X12761015Y-16256436D01*
X12761015Y-16256436D02*
X12751491Y-16237388D01*
X12751491Y-16237388D02*
X12751491Y-16180246D01*
X12751491Y-16180246D02*
X12761015Y-16161198D01*
X12761015Y-16161198D02*
X12770539Y-16151674D01*
X12770539Y-16151674D02*
X12789587Y-16142150D01*
X12789587Y-16142150D02*
X12818158Y-16142150D01*
X12818158Y-16142150D02*
X12837206Y-16151674D01*
X12837206Y-16151674D02*
X12846730Y-16161198D01*
X12846730Y-16161198D02*
X12856253Y-16180246D01*
X12856253Y-16180246D02*
X12856253Y-16237388D01*
X12856253Y-16237388D02*
X12846730Y-16256436D01*
X12846730Y-16256436D02*
X12837206Y-16265960D01*
X12837206Y-16265960D02*
X12818158Y-16275484D01*
X12818158Y-16275484D02*
X12789587Y-16275484D01*
X12970539Y-16275484D02*
X12951491Y-16265960D01*
X12951491Y-16265960D02*
X12941968Y-16246912D01*
X12941968Y-16246912D02*
X12941968Y-16075484D01*
X13122920Y-16265960D02*
X13103872Y-16275484D01*
X13103872Y-16275484D02*
X13065777Y-16275484D01*
X13065777Y-16275484D02*
X13046730Y-16265960D01*
X13046730Y-16265960D02*
X13037206Y-16246912D01*
X13037206Y-16246912D02*
X13037206Y-16170722D01*
X13037206Y-16170722D02*
X13046730Y-16151674D01*
X13046730Y-16151674D02*
X13065777Y-16142150D01*
X13065777Y-16142150D02*
X13103872Y-16142150D01*
X13103872Y-16142150D02*
X13122920Y-16151674D01*
X13122920Y-16151674D02*
X13132444Y-16170722D01*
X13132444Y-16170722D02*
X13132444Y-16189769D01*
X13132444Y-16189769D02*
X13037206Y-16208817D01*
X13208634Y-16265960D02*
X13227682Y-16275484D01*
X13227682Y-16275484D02*
X13265777Y-16275484D01*
X13265777Y-16275484D02*
X13284825Y-16265960D01*
X13284825Y-16265960D02*
X13294349Y-16246912D01*
X13294349Y-16246912D02*
X13294349Y-16237388D01*
X13294349Y-16237388D02*
X13284825Y-16218341D01*
X13284825Y-16218341D02*
X13265777Y-16208817D01*
X13265777Y-16208817D02*
X13237206Y-16208817D01*
X13237206Y-16208817D02*
X13218158Y-16199293D01*
X13218158Y-16199293D02*
X13208634Y-16180246D01*
X13208634Y-16180246D02*
X13208634Y-16170722D01*
X13208634Y-16170722D02*
X13218158Y-16151674D01*
X13218158Y-16151674D02*
X13237206Y-16142150D01*
X13237206Y-16142150D02*
X13265777Y-16142150D01*
X13265777Y-16142150D02*
X13284825Y-16151674D01*
X13361015Y-16351674D02*
X13370539Y-16342150D01*
X13370539Y-16342150D02*
X13389587Y-16313579D01*
X13389587Y-16313579D02*
X13399111Y-16294531D01*
X13399111Y-16294531D02*
X13408634Y-16265960D01*
X13408634Y-16265960D02*
X13418158Y-16218341D01*
X13418158Y-16218341D02*
X13418158Y-16180246D01*
X13418158Y-16180246D02*
X13408634Y-16132627D01*
X13408634Y-16132627D02*
X13399111Y-16104055D01*
X13399111Y-16104055D02*
X13389587Y-16085008D01*
X13389587Y-16085008D02*
X13370539Y-16056436D01*
X13370539Y-16056436D02*
X13361015Y-16046912D01*
X13722920Y-16351674D02*
X13713396Y-16342150D01*
X13713396Y-16342150D02*
X13694349Y-16313579D01*
X13694349Y-16313579D02*
X13684825Y-16294531D01*
X13684825Y-16294531D02*
X13675301Y-16265960D01*
X13675301Y-16265960D02*
X13665777Y-16218341D01*
X13665777Y-16218341D02*
X13665777Y-16180246D01*
X13665777Y-16180246D02*
X13675301Y-16132627D01*
X13675301Y-16132627D02*
X13684825Y-16104055D01*
X13684825Y-16104055D02*
X13694349Y-16085008D01*
X13694349Y-16085008D02*
X13713396Y-16056436D01*
X13713396Y-16056436D02*
X13722920Y-16046912D01*
X13799111Y-16142150D02*
X13799111Y-16275484D01*
X13799111Y-16161198D02*
X13808634Y-16151674D01*
X13808634Y-16151674D02*
X13827682Y-16142150D01*
X13827682Y-16142150D02*
X13856253Y-16142150D01*
X13856253Y-16142150D02*
X13875301Y-16151674D01*
X13875301Y-16151674D02*
X13884825Y-16170722D01*
X13884825Y-16170722D02*
X13884825Y-16275484D01*
X14008634Y-16275484D02*
X13989587Y-16265960D01*
X13989587Y-16265960D02*
X13980063Y-16256436D01*
X13980063Y-16256436D02*
X13970539Y-16237388D01*
X13970539Y-16237388D02*
X13970539Y-16180246D01*
X13970539Y-16180246D02*
X13980063Y-16161198D01*
X13980063Y-16161198D02*
X13989587Y-16151674D01*
X13989587Y-16151674D02*
X14008634Y-16142150D01*
X14008634Y-16142150D02*
X14037206Y-16142150D01*
X14037206Y-16142150D02*
X14056253Y-16151674D01*
X14056253Y-16151674D02*
X14065777Y-16161198D01*
X14065777Y-16161198D02*
X14075301Y-16180246D01*
X14075301Y-16180246D02*
X14075301Y-16237388D01*
X14075301Y-16237388D02*
X14065777Y-16256436D01*
X14065777Y-16256436D02*
X14056253Y-16265960D01*
X14056253Y-16265960D02*
X14037206Y-16275484D01*
X14037206Y-16275484D02*
X14008634Y-16275484D01*
X14132444Y-16142150D02*
X14208634Y-16142150D01*
X14161015Y-16075484D02*
X14161015Y-16246912D01*
X14161015Y-16246912D02*
X14170539Y-16265960D01*
X14170539Y-16265960D02*
X14189587Y-16275484D01*
X14189587Y-16275484D02*
X14208634Y-16275484D01*
X14427682Y-16142150D02*
X14427682Y-16342150D01*
X14427682Y-16151674D02*
X14446730Y-16142150D01*
X14446730Y-16142150D02*
X14484825Y-16142150D01*
X14484825Y-16142150D02*
X14503873Y-16151674D01*
X14503873Y-16151674D02*
X14513396Y-16161198D01*
X14513396Y-16161198D02*
X14522920Y-16180246D01*
X14522920Y-16180246D02*
X14522920Y-16237388D01*
X14522920Y-16237388D02*
X14513396Y-16256436D01*
X14513396Y-16256436D02*
X14503873Y-16265960D01*
X14503873Y-16265960D02*
X14484825Y-16275484D01*
X14484825Y-16275484D02*
X14446730Y-16275484D01*
X14446730Y-16275484D02*
X14427682Y-16265960D01*
X14637206Y-16275484D02*
X14618158Y-16265960D01*
X14618158Y-16265960D02*
X14608634Y-16246912D01*
X14608634Y-16246912D02*
X14608634Y-16075484D01*
X14799111Y-16275484D02*
X14799111Y-16170722D01*
X14799111Y-16170722D02*
X14789587Y-16151674D01*
X14789587Y-16151674D02*
X14770539Y-16142150D01*
X14770539Y-16142150D02*
X14732444Y-16142150D01*
X14732444Y-16142150D02*
X14713396Y-16151674D01*
X14799111Y-16265960D02*
X14780063Y-16275484D01*
X14780063Y-16275484D02*
X14732444Y-16275484D01*
X14732444Y-16275484D02*
X14713396Y-16265960D01*
X14713396Y-16265960D02*
X14703873Y-16246912D01*
X14703873Y-16246912D02*
X14703873Y-16227865D01*
X14703873Y-16227865D02*
X14713396Y-16208817D01*
X14713396Y-16208817D02*
X14732444Y-16199293D01*
X14732444Y-16199293D02*
X14780063Y-16199293D01*
X14780063Y-16199293D02*
X14799111Y-16189769D01*
X14865777Y-16142150D02*
X14941968Y-16142150D01*
X14894349Y-16075484D02*
X14894349Y-16246912D01*
X14894349Y-16246912D02*
X14903873Y-16265960D01*
X14903873Y-16265960D02*
X14922920Y-16275484D01*
X14922920Y-16275484D02*
X14941968Y-16275484D01*
X15084825Y-16265960D02*
X15065777Y-16275484D01*
X15065777Y-16275484D02*
X15027682Y-16275484D01*
X15027682Y-16275484D02*
X15008634Y-16265960D01*
X15008634Y-16265960D02*
X14999111Y-16246912D01*
X14999111Y-16246912D02*
X14999111Y-16170722D01*
X14999111Y-16170722D02*
X15008634Y-16151674D01*
X15008634Y-16151674D02*
X15027682Y-16142150D01*
X15027682Y-16142150D02*
X15065777Y-16142150D01*
X15065777Y-16142150D02*
X15084825Y-16151674D01*
X15084825Y-16151674D02*
X15094349Y-16170722D01*
X15094349Y-16170722D02*
X15094349Y-16189769D01*
X15094349Y-16189769D02*
X14999111Y-16208817D01*
X15265777Y-16275484D02*
X15265777Y-16075484D01*
X15265777Y-16265960D02*
X15246730Y-16275484D01*
X15246730Y-16275484D02*
X15208634Y-16275484D01*
X15208634Y-16275484D02*
X15189587Y-16265960D01*
X15189587Y-16265960D02*
X15180063Y-16256436D01*
X15180063Y-16256436D02*
X15170539Y-16237388D01*
X15170539Y-16237388D02*
X15170539Y-16180246D01*
X15170539Y-16180246D02*
X15180063Y-16161198D01*
X15180063Y-16161198D02*
X15189587Y-16151674D01*
X15189587Y-16151674D02*
X15208634Y-16142150D01*
X15208634Y-16142150D02*
X15246730Y-16142150D01*
X15246730Y-16142150D02*
X15265777Y-16151674D01*
X15341968Y-16351674D02*
X15351492Y-16342150D01*
X15351492Y-16342150D02*
X15370539Y-16313579D01*
X15370539Y-16313579D02*
X15380063Y-16294531D01*
X15380063Y-16294531D02*
X15389587Y-16265960D01*
X15389587Y-16265960D02*
X15399111Y-16218341D01*
X15399111Y-16218341D02*
X15399111Y-16180246D01*
X15399111Y-16180246D02*
X15389587Y-16132627D01*
X15389587Y-16132627D02*
X15380063Y-16104055D01*
X15380063Y-16104055D02*
X15370539Y-16085008D01*
X15370539Y-16085008D02*
X15351492Y-16056436D01*
X15351492Y-16056436D02*
X15341968Y-16046912D01*
X8105000Y-16604000D02*
X8205000Y-16504000D01*
X8105000Y-16404000D01*
X8005000Y-16504000D01*
X8105000Y-16604000D01*
X8551491Y-16462150D02*
X8551491Y-16595484D01*
X8503872Y-16385960D02*
X8456253Y-16528817D01*
X8456253Y-16528817D02*
X8580063Y-16528817D01*
X8656253Y-16576436D02*
X8665777Y-16585960D01*
X8665777Y-16585960D02*
X8656253Y-16595484D01*
X8656253Y-16595484D02*
X8646729Y-16585960D01*
X8646729Y-16585960D02*
X8656253Y-16576436D01*
X8656253Y-16576436D02*
X8656253Y-16595484D01*
X8856253Y-16595484D02*
X8741967Y-16595484D01*
X8799110Y-16595484D02*
X8799110Y-16395484D01*
X8799110Y-16395484D02*
X8780063Y-16424055D01*
X8780063Y-16424055D02*
X8761015Y-16443103D01*
X8761015Y-16443103D02*
X8741967Y-16452627D01*
X8980063Y-16395484D02*
X8999110Y-16395484D01*
X8999110Y-16395484D02*
X9018158Y-16405008D01*
X9018158Y-16405008D02*
X9027682Y-16414531D01*
X9027682Y-16414531D02*
X9037205Y-16433579D01*
X9037205Y-16433579D02*
X9046729Y-16471674D01*
X9046729Y-16471674D02*
X9046729Y-16519293D01*
X9046729Y-16519293D02*
X9037205Y-16557388D01*
X9037205Y-16557388D02*
X9027682Y-16576436D01*
X9027682Y-16576436D02*
X9018158Y-16585960D01*
X9018158Y-16585960D02*
X8999110Y-16595484D01*
X8999110Y-16595484D02*
X8980063Y-16595484D01*
X8980063Y-16595484D02*
X8961015Y-16585960D01*
X8961015Y-16585960D02*
X8951491Y-16576436D01*
X8951491Y-16576436D02*
X8941967Y-16557388D01*
X8941967Y-16557388D02*
X8932444Y-16519293D01*
X8932444Y-16519293D02*
X8932444Y-16471674D01*
X8932444Y-16471674D02*
X8941967Y-16433579D01*
X8941967Y-16433579D02*
X8951491Y-16414531D01*
X8951491Y-16414531D02*
X8961015Y-16405008D01*
X8961015Y-16405008D02*
X8980063Y-16395484D01*
X9170539Y-16395484D02*
X9189586Y-16395484D01*
X9189586Y-16395484D02*
X9208634Y-16405008D01*
X9208634Y-16405008D02*
X9218158Y-16414531D01*
X9218158Y-16414531D02*
X9227682Y-16433579D01*
X9227682Y-16433579D02*
X9237205Y-16471674D01*
X9237205Y-16471674D02*
X9237205Y-16519293D01*
X9237205Y-16519293D02*
X9227682Y-16557388D01*
X9227682Y-16557388D02*
X9218158Y-16576436D01*
X9218158Y-16576436D02*
X9208634Y-16585960D01*
X9208634Y-16585960D02*
X9189586Y-16595484D01*
X9189586Y-16595484D02*
X9170539Y-16595484D01*
X9170539Y-16595484D02*
X9151491Y-16585960D01*
X9151491Y-16585960D02*
X9141967Y-16576436D01*
X9141967Y-16576436D02*
X9132444Y-16557388D01*
X9132444Y-16557388D02*
X9122920Y-16519293D01*
X9122920Y-16519293D02*
X9122920Y-16471674D01*
X9122920Y-16471674D02*
X9132444Y-16433579D01*
X9132444Y-16433579D02*
X9141967Y-16414531D01*
X9141967Y-16414531D02*
X9151491Y-16405008D01*
X9151491Y-16405008D02*
X9170539Y-16395484D01*
X9322920Y-16595484D02*
X9322920Y-16462150D01*
X9322920Y-16481198D02*
X9332444Y-16471674D01*
X9332444Y-16471674D02*
X9351491Y-16462150D01*
X9351491Y-16462150D02*
X9380063Y-16462150D01*
X9380063Y-16462150D02*
X9399110Y-16471674D01*
X9399110Y-16471674D02*
X9408634Y-16490722D01*
X9408634Y-16490722D02*
X9408634Y-16595484D01*
X9408634Y-16490722D02*
X9418158Y-16471674D01*
X9418158Y-16471674D02*
X9437205Y-16462150D01*
X9437205Y-16462150D02*
X9465777Y-16462150D01*
X9465777Y-16462150D02*
X9484825Y-16471674D01*
X9484825Y-16471674D02*
X9494348Y-16490722D01*
X9494348Y-16490722D02*
X9494348Y-16595484D01*
X9589586Y-16595484D02*
X9589586Y-16462150D01*
X9589586Y-16481198D02*
X9599110Y-16471674D01*
X9599110Y-16471674D02*
X9618158Y-16462150D01*
X9618158Y-16462150D02*
X9646729Y-16462150D01*
X9646729Y-16462150D02*
X9665777Y-16471674D01*
X9665777Y-16471674D02*
X9675301Y-16490722D01*
X9675301Y-16490722D02*
X9675301Y-16595484D01*
X9675301Y-16490722D02*
X9684825Y-16471674D01*
X9684825Y-16471674D02*
X9703872Y-16462150D01*
X9703872Y-16462150D02*
X9732444Y-16462150D01*
X9732444Y-16462150D02*
X9751491Y-16471674D01*
X9751491Y-16471674D02*
X9761015Y-16490722D01*
X9761015Y-16490722D02*
X9761015Y-16595484D01*
X10151491Y-16385960D02*
X9980063Y-16643103D01*
X10408634Y-16395484D02*
X10427682Y-16395484D01*
X10427682Y-16395484D02*
X10446729Y-16405008D01*
X10446729Y-16405008D02*
X10456253Y-16414531D01*
X10456253Y-16414531D02*
X10465777Y-16433579D01*
X10465777Y-16433579D02*
X10475301Y-16471674D01*
X10475301Y-16471674D02*
X10475301Y-16519293D01*
X10475301Y-16519293D02*
X10465777Y-16557388D01*
X10465777Y-16557388D02*
X10456253Y-16576436D01*
X10456253Y-16576436D02*
X10446729Y-16585960D01*
X10446729Y-16585960D02*
X10427682Y-16595484D01*
X10427682Y-16595484D02*
X10408634Y-16595484D01*
X10408634Y-16595484D02*
X10389587Y-16585960D01*
X10389587Y-16585960D02*
X10380063Y-16576436D01*
X10380063Y-16576436D02*
X10370539Y-16557388D01*
X10370539Y-16557388D02*
X10361015Y-16519293D01*
X10361015Y-16519293D02*
X10361015Y-16471674D01*
X10361015Y-16471674D02*
X10370539Y-16433579D01*
X10370539Y-16433579D02*
X10380063Y-16414531D01*
X10380063Y-16414531D02*
X10389587Y-16405008D01*
X10389587Y-16405008D02*
X10408634Y-16395484D01*
X10561015Y-16576436D02*
X10570539Y-16585960D01*
X10570539Y-16585960D02*
X10561015Y-16595484D01*
X10561015Y-16595484D02*
X10551491Y-16585960D01*
X10551491Y-16585960D02*
X10561015Y-16576436D01*
X10561015Y-16576436D02*
X10561015Y-16595484D01*
X10761015Y-16595484D02*
X10646729Y-16595484D01*
X10703872Y-16595484D02*
X10703872Y-16395484D01*
X10703872Y-16395484D02*
X10684825Y-16424055D01*
X10684825Y-16424055D02*
X10665777Y-16443103D01*
X10665777Y-16443103D02*
X10646729Y-16452627D01*
X10932444Y-16395484D02*
X10894348Y-16395484D01*
X10894348Y-16395484D02*
X10875301Y-16405008D01*
X10875301Y-16405008D02*
X10865777Y-16414531D01*
X10865777Y-16414531D02*
X10846729Y-16443103D01*
X10846729Y-16443103D02*
X10837206Y-16481198D01*
X10837206Y-16481198D02*
X10837206Y-16557388D01*
X10837206Y-16557388D02*
X10846729Y-16576436D01*
X10846729Y-16576436D02*
X10856253Y-16585960D01*
X10856253Y-16585960D02*
X10875301Y-16595484D01*
X10875301Y-16595484D02*
X10913396Y-16595484D01*
X10913396Y-16595484D02*
X10932444Y-16585960D01*
X10932444Y-16585960D02*
X10941968Y-16576436D01*
X10941968Y-16576436D02*
X10951491Y-16557388D01*
X10951491Y-16557388D02*
X10951491Y-16509769D01*
X10951491Y-16509769D02*
X10941968Y-16490722D01*
X10941968Y-16490722D02*
X10932444Y-16481198D01*
X10932444Y-16481198D02*
X10913396Y-16471674D01*
X10913396Y-16471674D02*
X10875301Y-16471674D01*
X10875301Y-16471674D02*
X10856253Y-16481198D01*
X10856253Y-16481198D02*
X10846729Y-16490722D01*
X10846729Y-16490722D02*
X10837206Y-16509769D01*
X11141968Y-16595484D02*
X11027682Y-16595484D01*
X11084825Y-16595484D02*
X11084825Y-16395484D01*
X11084825Y-16395484D02*
X11065777Y-16424055D01*
X11065777Y-16424055D02*
X11046729Y-16443103D01*
X11046729Y-16443103D02*
X11027682Y-16452627D01*
X11313396Y-16462150D02*
X11313396Y-16595484D01*
X11265777Y-16385960D02*
X11218158Y-16528817D01*
X11218158Y-16528817D02*
X11341967Y-16528817D01*
X11408634Y-16395484D02*
X11408634Y-16433579D01*
X11484825Y-16395484D02*
X11484825Y-16433579D01*
X11780063Y-16671674D02*
X11770539Y-16662150D01*
X11770539Y-16662150D02*
X11751491Y-16633579D01*
X11751491Y-16633579D02*
X11741968Y-16614531D01*
X11741968Y-16614531D02*
X11732444Y-16585960D01*
X11732444Y-16585960D02*
X11722920Y-16538341D01*
X11722920Y-16538341D02*
X11722920Y-16500246D01*
X11722920Y-16500246D02*
X11732444Y-16452627D01*
X11732444Y-16452627D02*
X11741968Y-16424055D01*
X11741968Y-16424055D02*
X11751491Y-16405008D01*
X11751491Y-16405008D02*
X11770539Y-16376436D01*
X11770539Y-16376436D02*
X11780063Y-16366912D01*
X11846729Y-16414531D02*
X11856253Y-16405008D01*
X11856253Y-16405008D02*
X11875301Y-16395484D01*
X11875301Y-16395484D02*
X11922920Y-16395484D01*
X11922920Y-16395484D02*
X11941968Y-16405008D01*
X11941968Y-16405008D02*
X11951491Y-16414531D01*
X11951491Y-16414531D02*
X11961015Y-16433579D01*
X11961015Y-16433579D02*
X11961015Y-16452627D01*
X11961015Y-16452627D02*
X11951491Y-16481198D01*
X11951491Y-16481198D02*
X11837206Y-16595484D01*
X11837206Y-16595484D02*
X11961015Y-16595484D01*
X12056253Y-16595484D02*
X12094348Y-16595484D01*
X12094348Y-16595484D02*
X12113396Y-16585960D01*
X12113396Y-16585960D02*
X12122920Y-16576436D01*
X12122920Y-16576436D02*
X12141968Y-16547865D01*
X12141968Y-16547865D02*
X12151491Y-16509769D01*
X12151491Y-16509769D02*
X12151491Y-16433579D01*
X12151491Y-16433579D02*
X12141968Y-16414531D01*
X12141968Y-16414531D02*
X12132444Y-16405008D01*
X12132444Y-16405008D02*
X12113396Y-16395484D01*
X12113396Y-16395484D02*
X12075301Y-16395484D01*
X12075301Y-16395484D02*
X12056253Y-16405008D01*
X12056253Y-16405008D02*
X12046729Y-16414531D01*
X12046729Y-16414531D02*
X12037206Y-16433579D01*
X12037206Y-16433579D02*
X12037206Y-16481198D01*
X12037206Y-16481198D02*
X12046729Y-16500246D01*
X12046729Y-16500246D02*
X12056253Y-16509769D01*
X12056253Y-16509769D02*
X12075301Y-16519293D01*
X12075301Y-16519293D02*
X12113396Y-16519293D01*
X12113396Y-16519293D02*
X12132444Y-16509769D01*
X12132444Y-16509769D02*
X12141968Y-16500246D01*
X12141968Y-16500246D02*
X12151491Y-16481198D01*
X12389587Y-16595484D02*
X12389587Y-16395484D01*
X12475301Y-16595484D02*
X12475301Y-16490722D01*
X12475301Y-16490722D02*
X12465777Y-16471674D01*
X12465777Y-16471674D02*
X12446730Y-16462150D01*
X12446730Y-16462150D02*
X12418158Y-16462150D01*
X12418158Y-16462150D02*
X12399110Y-16471674D01*
X12399110Y-16471674D02*
X12389587Y-16481198D01*
X12599110Y-16595484D02*
X12580063Y-16585960D01*
X12580063Y-16585960D02*
X12570539Y-16576436D01*
X12570539Y-16576436D02*
X12561015Y-16557388D01*
X12561015Y-16557388D02*
X12561015Y-16500246D01*
X12561015Y-16500246D02*
X12570539Y-16481198D01*
X12570539Y-16481198D02*
X12580063Y-16471674D01*
X12580063Y-16471674D02*
X12599110Y-16462150D01*
X12599110Y-16462150D02*
X12627682Y-16462150D01*
X12627682Y-16462150D02*
X12646730Y-16471674D01*
X12646730Y-16471674D02*
X12656253Y-16481198D01*
X12656253Y-16481198D02*
X12665777Y-16500246D01*
X12665777Y-16500246D02*
X12665777Y-16557388D01*
X12665777Y-16557388D02*
X12656253Y-16576436D01*
X12656253Y-16576436D02*
X12646730Y-16585960D01*
X12646730Y-16585960D02*
X12627682Y-16595484D01*
X12627682Y-16595484D02*
X12599110Y-16595484D01*
X12780063Y-16595484D02*
X12761015Y-16585960D01*
X12761015Y-16585960D02*
X12751491Y-16566912D01*
X12751491Y-16566912D02*
X12751491Y-16395484D01*
X12932444Y-16585960D02*
X12913396Y-16595484D01*
X12913396Y-16595484D02*
X12875301Y-16595484D01*
X12875301Y-16595484D02*
X12856253Y-16585960D01*
X12856253Y-16585960D02*
X12846730Y-16566912D01*
X12846730Y-16566912D02*
X12846730Y-16490722D01*
X12846730Y-16490722D02*
X12856253Y-16471674D01*
X12856253Y-16471674D02*
X12875301Y-16462150D01*
X12875301Y-16462150D02*
X12913396Y-16462150D01*
X12913396Y-16462150D02*
X12932444Y-16471674D01*
X12932444Y-16471674D02*
X12941968Y-16490722D01*
X12941968Y-16490722D02*
X12941968Y-16509769D01*
X12941968Y-16509769D02*
X12846730Y-16528817D01*
X13018158Y-16585960D02*
X13037206Y-16595484D01*
X13037206Y-16595484D02*
X13075301Y-16595484D01*
X13075301Y-16595484D02*
X13094349Y-16585960D01*
X13094349Y-16585960D02*
X13103872Y-16566912D01*
X13103872Y-16566912D02*
X13103872Y-16557388D01*
X13103872Y-16557388D02*
X13094349Y-16538341D01*
X13094349Y-16538341D02*
X13075301Y-16528817D01*
X13075301Y-16528817D02*
X13046730Y-16528817D01*
X13046730Y-16528817D02*
X13027682Y-16519293D01*
X13027682Y-16519293D02*
X13018158Y-16500246D01*
X13018158Y-16500246D02*
X13018158Y-16490722D01*
X13018158Y-16490722D02*
X13027682Y-16471674D01*
X13027682Y-16471674D02*
X13046730Y-16462150D01*
X13046730Y-16462150D02*
X13075301Y-16462150D01*
X13075301Y-16462150D02*
X13094349Y-16471674D01*
X13170539Y-16671674D02*
X13180063Y-16662150D01*
X13180063Y-16662150D02*
X13199111Y-16633579D01*
X13199111Y-16633579D02*
X13208634Y-16614531D01*
X13208634Y-16614531D02*
X13218158Y-16585960D01*
X13218158Y-16585960D02*
X13227682Y-16538341D01*
X13227682Y-16538341D02*
X13227682Y-16500246D01*
X13227682Y-16500246D02*
X13218158Y-16452627D01*
X13218158Y-16452627D02*
X13208634Y-16424055D01*
X13208634Y-16424055D02*
X13199111Y-16405008D01*
X13199111Y-16405008D02*
X13180063Y-16376436D01*
X13180063Y-16376436D02*
X13170539Y-16366912D01*
X13532444Y-16671674D02*
X13522920Y-16662150D01*
X13522920Y-16662150D02*
X13503872Y-16633579D01*
X13503872Y-16633579D02*
X13494349Y-16614531D01*
X13494349Y-16614531D02*
X13484825Y-16585960D01*
X13484825Y-16585960D02*
X13475301Y-16538341D01*
X13475301Y-16538341D02*
X13475301Y-16500246D01*
X13475301Y-16500246D02*
X13484825Y-16452627D01*
X13484825Y-16452627D02*
X13494349Y-16424055D01*
X13494349Y-16424055D02*
X13503872Y-16405008D01*
X13503872Y-16405008D02*
X13522920Y-16376436D01*
X13522920Y-16376436D02*
X13532444Y-16366912D01*
X13608634Y-16462150D02*
X13608634Y-16595484D01*
X13608634Y-16481198D02*
X13618158Y-16471674D01*
X13618158Y-16471674D02*
X13637206Y-16462150D01*
X13637206Y-16462150D02*
X13665777Y-16462150D01*
X13665777Y-16462150D02*
X13684825Y-16471674D01*
X13684825Y-16471674D02*
X13694349Y-16490722D01*
X13694349Y-16490722D02*
X13694349Y-16595484D01*
X13818158Y-16595484D02*
X13799111Y-16585960D01*
X13799111Y-16585960D02*
X13789587Y-16576436D01*
X13789587Y-16576436D02*
X13780063Y-16557388D01*
X13780063Y-16557388D02*
X13780063Y-16500246D01*
X13780063Y-16500246D02*
X13789587Y-16481198D01*
X13789587Y-16481198D02*
X13799111Y-16471674D01*
X13799111Y-16471674D02*
X13818158Y-16462150D01*
X13818158Y-16462150D02*
X13846730Y-16462150D01*
X13846730Y-16462150D02*
X13865777Y-16471674D01*
X13865777Y-16471674D02*
X13875301Y-16481198D01*
X13875301Y-16481198D02*
X13884825Y-16500246D01*
X13884825Y-16500246D02*
X13884825Y-16557388D01*
X13884825Y-16557388D02*
X13875301Y-16576436D01*
X13875301Y-16576436D02*
X13865777Y-16585960D01*
X13865777Y-16585960D02*
X13846730Y-16595484D01*
X13846730Y-16595484D02*
X13818158Y-16595484D01*
X13941968Y-16462150D02*
X14018158Y-16462150D01*
X13970539Y-16395484D02*
X13970539Y-16566912D01*
X13970539Y-16566912D02*
X13980063Y-16585960D01*
X13980063Y-16585960D02*
X13999111Y-16595484D01*
X13999111Y-16595484D02*
X14018158Y-16595484D01*
X14237206Y-16462150D02*
X14237206Y-16662150D01*
X14237206Y-16471674D02*
X14256253Y-16462150D01*
X14256253Y-16462150D02*
X14294349Y-16462150D01*
X14294349Y-16462150D02*
X14313396Y-16471674D01*
X14313396Y-16471674D02*
X14322920Y-16481198D01*
X14322920Y-16481198D02*
X14332444Y-16500246D01*
X14332444Y-16500246D02*
X14332444Y-16557388D01*
X14332444Y-16557388D02*
X14322920Y-16576436D01*
X14322920Y-16576436D02*
X14313396Y-16585960D01*
X14313396Y-16585960D02*
X14294349Y-16595484D01*
X14294349Y-16595484D02*
X14256253Y-16595484D01*
X14256253Y-16595484D02*
X14237206Y-16585960D01*
X14446730Y-16595484D02*
X14427682Y-16585960D01*
X14427682Y-16585960D02*
X14418158Y-16566912D01*
X14418158Y-16566912D02*
X14418158Y-16395484D01*
X14608634Y-16595484D02*
X14608634Y-16490722D01*
X14608634Y-16490722D02*
X14599111Y-16471674D01*
X14599111Y-16471674D02*
X14580063Y-16462150D01*
X14580063Y-16462150D02*
X14541968Y-16462150D01*
X14541968Y-16462150D02*
X14522920Y-16471674D01*
X14608634Y-16585960D02*
X14589587Y-16595484D01*
X14589587Y-16595484D02*
X14541968Y-16595484D01*
X14541968Y-16595484D02*
X14522920Y-16585960D01*
X14522920Y-16585960D02*
X14513396Y-16566912D01*
X14513396Y-16566912D02*
X14513396Y-16547865D01*
X14513396Y-16547865D02*
X14522920Y-16528817D01*
X14522920Y-16528817D02*
X14541968Y-16519293D01*
X14541968Y-16519293D02*
X14589587Y-16519293D01*
X14589587Y-16519293D02*
X14608634Y-16509769D01*
X14675301Y-16462150D02*
X14751492Y-16462150D01*
X14703873Y-16395484D02*
X14703873Y-16566912D01*
X14703873Y-16566912D02*
X14713396Y-16585960D01*
X14713396Y-16585960D02*
X14732444Y-16595484D01*
X14732444Y-16595484D02*
X14751492Y-16595484D01*
X14894349Y-16585960D02*
X14875301Y-16595484D01*
X14875301Y-16595484D02*
X14837206Y-16595484D01*
X14837206Y-16595484D02*
X14818158Y-16585960D01*
X14818158Y-16585960D02*
X14808634Y-16566912D01*
X14808634Y-16566912D02*
X14808634Y-16490722D01*
X14808634Y-16490722D02*
X14818158Y-16471674D01*
X14818158Y-16471674D02*
X14837206Y-16462150D01*
X14837206Y-16462150D02*
X14875301Y-16462150D01*
X14875301Y-16462150D02*
X14894349Y-16471674D01*
X14894349Y-16471674D02*
X14903873Y-16490722D01*
X14903873Y-16490722D02*
X14903873Y-16509769D01*
X14903873Y-16509769D02*
X14808634Y-16528817D01*
X15075301Y-16595484D02*
X15075301Y-16395484D01*
X15075301Y-16585960D02*
X15056254Y-16595484D01*
X15056254Y-16595484D02*
X15018158Y-16595484D01*
X15018158Y-16595484D02*
X14999111Y-16585960D01*
X14999111Y-16585960D02*
X14989587Y-16576436D01*
X14989587Y-16576436D02*
X14980063Y-16557388D01*
X14980063Y-16557388D02*
X14980063Y-16500246D01*
X14980063Y-16500246D02*
X14989587Y-16481198D01*
X14989587Y-16481198D02*
X14999111Y-16471674D01*
X14999111Y-16471674D02*
X15018158Y-16462150D01*
X15018158Y-16462150D02*
X15056254Y-16462150D01*
X15056254Y-16462150D02*
X15075301Y-16471674D01*
X15151492Y-16671674D02*
X15161015Y-16662150D01*
X15161015Y-16662150D02*
X15180063Y-16633579D01*
X15180063Y-16633579D02*
X15189587Y-16614531D01*
X15189587Y-16614531D02*
X15199111Y-16585960D01*
X15199111Y-16585960D02*
X15208634Y-16538341D01*
X15208634Y-16538341D02*
X15208634Y-16500246D01*
X15208634Y-16500246D02*
X15199111Y-16452627D01*
X15199111Y-16452627D02*
X15189587Y-16424055D01*
X15189587Y-16424055D02*
X15180063Y-16405008D01*
X15180063Y-16405008D02*
X15161015Y-16376436D01*
X15161015Y-16376436D02*
X15151492Y-16366912D01*
M02*
