M48
; DRILL file {KiCad 8.99.0-3407-g6a48e2c35a} date 2025-02-22T10:59:14+0000
; FORMAT={-:-/ absolute / inch / decimal}
; #@! TF.CreationDate,2025-02-22T10:59:14+00:00
; #@! TF.GenerationSoftware,Kicad,Pcbnew,8.99.0-3407-g6a48e2c35a
; #@! TF.FileFunction,Plated,1,2,PTH
FMAT,2
INCH
; #@! TA.AperFunction,Plated,PTH,ViaDrill
T1C0.0118
; #@! TA.AperFunction,Plated,PTH,ComponentDrill
T2C0.0295
; #@! TA.AperFunction,Plated,PTH,ComponentDrill
T3C0.0320
; #@! TA.AperFunction,Plated,PTH,ComponentDrill
T4C0.0394
; #@! TA.AperFunction,Plated,PTH,ComponentDrill
T5C0.0512
; #@! TA.AperFunction,Plated,PTH,ComponentDrill
T6C0.0591
; #@! TA.AperFunction,Plated,PTH,ComponentDrill
T7C0.0866
; #@! TA.AperFunction,Plated,PTH,ComponentDrill
T8C0.1614
%
G90
G05
T1
X3.4464Y-5.0847
X3.4779Y-5.2186
X3.4917Y-5.0395
X3.5065Y-2.8082
X3.5202Y-3.0178
X3.5448Y-5.0021
X3.5882Y-1.9676
X3.6275Y-3.4804
X3.6502Y-3.5582
X3.6561Y-3.2157
X3.66Y-1.5641
X3.683Y-1.5224
X3.7033Y-2.8938
X3.7279Y-1.8571
X3.7338Y-3.8347
X3.75Y-2.1562
X3.7574Y-3.005
X3.7702Y-3.7373
X3.7775Y-2.6871
X3.7791Y-2.0178
X3.7958Y-1.8781
X3.7988Y-3.5316
X3.8052Y-2.7191
X3.8067Y-1.5224
X3.809Y-2.0592
X3.8096Y-1.6842
X3.8509Y-3.7924
X3.8641Y-1.7586
X3.8657Y-2.6523
X3.8795Y-4.9001
X3.8903Y-2.2206
X3.8903Y-2.2905
X3.8903Y-2.3889
X3.909Y-1.8928
X3.9139Y-2.8722
X3.9159Y-1.5857
X3.9232Y-2.7422
X3.9307Y-3.2353
X3.9346Y-1.9571
X3.9543Y-1.5224
X3.9622Y-2.1162
X3.9779Y-4.9233
X3.9779Y-4.9804
X3.9907Y-4.4201
X3.9956Y-1.6871
X3.9995Y-2.7364
X4.0094Y-5.321
X4.0114Y-2.6523
X4.0153Y-2.3869
X4.0168Y-2.2585
X4.037Y-4.8682
X4.0375Y-2.3544
X4.0409Y-3.821
X4.0413Y-2.731
X4.057Y-2.6989
X4.0582Y-2.4585
X4.0685Y-5.006
X4.0763Y-2.5302
X4.0885Y-2.7285
X4.098Y-2.5853
X4.1059Y-2.6297
X4.1137Y-5.0847
X4.1236Y-2.696
X4.1275Y-5.0257
X4.1279Y-2.735
X4.1324Y-3.5395
X4.1413Y-5.2084
X4.1432Y-2.6261
X4.1452Y-4.9292
X4.1472Y-2.5095
X4.1482Y-2.2157
X4.1511Y-4.8131
X4.1543Y-2.1171
X4.1572Y-2.4232
X4.159Y-2.2796
X4.1612Y-2.0177
X4.1649Y-2.3175
X4.1668Y-2.5691
X4.1697Y-1.7298
X4.1718Y-1.8574
X4.1738Y-1.7875
X4.1758Y-2.3909
X4.1823Y-3.7793
X4.1826Y-1.6871
X4.1902Y-4.9198
X4.2023Y-4.9706
X4.2358Y-3.8603
X4.2358Y-5.2107
X4.2387Y-5.0572
X4.2515Y-4.3994
X4.285Y-4.9607
X4.3057Y-4.8685
X4.3126Y-4.8941
X4.3244Y-4.9942
X4.3267Y-1.9276
X4.3441Y-1.6182
X4.3441Y-4.2698
X4.3443Y-1.8026
X4.3618Y-1.5808
X4.363Y-1.7546
X4.3736Y-5.3052
X4.3834Y-5.0513
X4.409Y-1.816
X4.4189Y-4.4201
X4.4318Y-1.6379
X4.4326Y-4.8702
X4.4326Y-4.9607
X4.4346Y-2.506
X4.4425Y-1.7382
X4.4464Y-3.9214
X4.4487Y-1.7875
X4.4494Y-4.2048
X4.4553Y-4.004
X4.4602Y-3.1714
X4.4622Y-2.4607
X4.4632Y-3.256
X4.4838Y-3.0001
X4.4838Y-3.7442
X4.4907Y-1.7382
X4.4995Y-1.6152
X4.5015Y-4.7383
X4.5045Y-3.256
X4.5045Y-3.7757
X4.5045Y-4.004
X4.5045Y-4.1477
X4.5084Y-5.0641
X4.5094Y-3.4115
X4.5104Y-1.7875
X4.5124Y-2.3101
X4.5124Y-2.4814
X4.5124Y-2.6025
X4.5134Y-5.0975
X4.5153Y-2.6419
X4.5212Y-1.882
X4.5212Y-5.3643
X4.5217Y-2.2481
X4.533Y-1.8443
X4.5448Y-3.2864
X4.5586Y-4.0364
X4.5645Y-2.5384
X4.5675Y-2.2777
X4.5803Y-1.5788
X4.5803Y-1.6152
X4.5882Y-1.7175
X4.5921Y-3.2175
X4.595Y-1.8958
X4.6Y-3.9675
X4.6019Y-2.4607
X4.6236Y-4.193
X4.6236Y-4.5582
X4.6748Y-4.7127
X4.6885Y-5.3288
X4.7397Y-4.9184
X4.7496Y-5.0405
X4.7824Y-1.5788
X4.8153Y-4.6937
X4.8332Y-4.8436
X4.8549Y-3.4184
X4.8618Y-4.1851
X4.8756Y-1.5592
X4.8756Y-1.6379
X4.8756Y-4.571
X4.9064Y-3.9017
X4.913Y-3.0946
X4.9149Y-2.4076
X4.9445Y-1.7422
X4.9504Y-3.0985
X4.9523Y-2.5552
X4.9543Y-3.9273
X4.9579Y-2.644
X4.9582Y-2.4351
X5.0015Y-2.3072
X5.0055Y-1.8623
X5.0055Y-2.7038
X5.0074Y-4.1458
X5.0114Y-1.6222
X5.0134Y-3.3977
X5.0193Y-4.6842
X5.0232Y-4.0316
X5.0311Y-3.319
X5.0488Y-4.4519
X5.0508Y-3.0139
X5.0671Y-2.5743
X5.0724Y-2.3662
X5.0832Y-3.5985
X5.1029Y-4.317
X5.1078Y-4.7502
X5.1374Y-2.0503
X5.1728Y-4.571
X5.1748Y-4.4509
X5.1748Y-4.5159
X5.2013Y-4.0237
X5.2023Y-5.0395
X5.2043Y-2.0651
X5.2043Y-3.567
X5.2082Y-2.819
X5.2082Y-2.9253
X5.2092Y-4.7737
X5.2102Y-4.3092
X5.2112Y-3.2737
X5.2122Y-2.1694
X5.2122Y-2.5237
X5.2141Y-4.4233
X5.2151Y-1.7737
X5.2191Y-3.6773
X5.223Y-3.9273
X5.2319Y-2.8997
X5.2397Y-3.6497
X5.2397Y-4.3977
X5.2417Y-2.1477
X5.2535Y-3.1222
X5.2673Y-2.9253
X5.2673Y-3.6773
X5.2673Y-4.4214
X5.2722Y-2.5572
X5.2771Y-5.1438
X5.2791Y-2.1694
X5.283Y-1.6458
X5.2859Y-2.3937
X5.2948Y-4.4853
X5.3067Y-4.751
X5.3115Y-1.7531
X5.3135Y-2.5031
X5.3234Y-4.0031
X5.3254Y-3.2531
X5.3342Y-4.6418
X5.3401Y-3.1222
X5.3441Y-2.3691
X5.346Y-1.6191
X5.346Y-3.8702
X5.3588Y-1.8121
X5.3687Y-3.3131
X5.5367Y-4.5493
X5.6443Y-4.5601
X5.6452Y-2.3013
X5.6511Y-3.7973
X5.663Y-3.0592
X5.6649Y-1.506
X5.6787Y-3.938
X5.6787Y-4.5237
X5.6826Y-2.438
X5.6984Y-1.6615
X5.6994Y-4.3879
X5.7072Y-2.1487
X5.7082Y-3.1212
X5.7269Y-2.3525
X5.7368Y-3.8426
X5.7614Y-3.1103
X5.7643Y-1.5001
X5.7663Y-2.6359
X5.7742Y-1.8918
X5.8185Y-2.3426
X5.8204Y-3.8387
X5.8441Y-3.0277
X5.8519Y-3.1694
X5.8598Y-4.4725
X5.8618Y-4.6553
X5.8716Y-1.6989
X5.8716Y-3.9033
X5.8815Y-2.443
X5.9086Y-4.4702
X5.9297Y-4.3181
X5.9326Y-4.2009
X5.9543Y-1.9607
X5.9563Y-3.4627
X5.9563Y-3.5828
X5.9563Y-4.2973
X5.9602Y-2.7186
X5.9602Y-2.821
X5.9602Y-4.9725
X5.9622Y-2.0867
X5.9622Y-4.506
X5.9641Y-2.4233
X5.9641Y-3.9253
X5.9651Y-1.6733
X5.9651Y-3.1753
X5.971Y-4.6753
X5.974Y-4.318
X5.9858Y-2.0473
X5.9858Y-2.7973
X5.9878Y-3.5533
X5.9917Y-5.0473
X6.0025Y-4.3564
X6.0065Y-2.821
X6.0065Y-3.0198
X6.0084Y-3.5828
X6.0153Y-2.0867
X6.0242Y-2.1212
X6.0271Y-3.6241
X6.0344Y-3.7712
X6.0354Y-2.2859
X6.0488Y-2.8525
X6.0606Y-1.6556
X6.0606Y-4.6526
X6.0675Y-3.9046
X6.0685Y-2.4007
X6.0685Y-3.1546
X6.0941Y-1.5207
X6.0941Y-4.506
X6.096Y-3.0198
X6.096Y-3.7707
X6.1Y-2.2855
X6.1551Y-4.3751
X6.4011Y-3.7029
X6.411Y-2.2029
X6.412Y-4.4657
X6.4248Y-2.9509
X6.4287Y-3.8396
X6.4326Y-1.4765
X6.4425Y-2.3396
X6.4464Y-4.5896
X6.4484Y-4.2885
X6.4513Y-5.0414
X6.4582Y-2.7954
X6.4602Y-1.5896
X6.4641Y-3.0896
X6.4887Y-4.3613
X6.5586Y-2.3643
X6.5586Y-3.0926
X6.5704Y-3.1753
X6.5763Y-3.8564
X6.5763Y-4.6553
X6.5862Y-1.6162
X6.5872Y-3.9253
X6.6158Y-1.6989
X6.6246Y-2.4557
X6.6856Y-3.9785
X6.6984Y-2.0533
X6.7023Y-3.5375
X6.7031Y-3.9184
X6.7042Y-3.1833
X6.7043Y-2.819
X6.7043Y-4.3033
X6.7082Y-2.1694
X6.7082Y-2.9194
X6.7092Y-2.5129
X6.7102Y-4.3751
X6.7102Y-4.4164
X6.7112Y-3.6792
X6.7141Y-5.1359
X6.721Y-1.7737
X6.7299Y-2.1458
X6.7319Y-2.8899
X6.7319Y-3.6438
X6.7506Y-2.3682
X6.7525Y-2.9184
X6.7525Y-3.1202
X6.7525Y-3.6792
X6.7535Y-2.1743
X6.7693Y-1.6241
X6.7732Y-4.3963
X6.7791Y-4.7304
X6.787Y-3.9568
X6.7909Y-5.1576
X6.8008Y-2.4962
X6.8126Y-1.751
X6.8126Y-3.8741
X6.8165Y-3.251
X6.8391Y-1.8111
X6.846Y-2.3682
X6.846Y-4.5896
X6.848Y-1.6191
X6.85Y-3.1202
X6.85Y-3.8741
X7.1009Y-3.3141
X7.1059Y-2.5562
X7.1413Y-4.5572
X7.1551Y-2.3092
X7.1571Y-3.0513
X7.1649Y-3.8013
X7.1669Y-1.5729
X7.1807Y-2.4381
X7.1807Y-4.6714
X7.1885Y-3.188
X7.1885Y-3.938
X7.1984Y-4.3889
X7.2181Y-1.688
X7.224Y-2.8909
X7.2285Y-2.4188
X7.2387Y-3.8407
X7.2427Y-3.1094
X7.2584Y-4.4184
X7.283Y-4.6714
X7.2929Y-3.1379
X7.2968Y-4.5375
X7.3027Y-3.8466
X7.3263Y-4.4863
X7.3382Y-2.5237
X7.3421Y-3.2737
X7.3441Y-4.0208
X7.3529Y-4.4351
X7.3657Y-1.7737
X7.4071Y-4.5828
X7.411Y-4.5316
X7.4405Y-4.4785
X7.4523Y-1.8997
X7.4553Y-4.0818
X7.4582Y-3.7442
X7.4582Y-4.5552
X7.4602Y-2.2639
X7.4602Y-2.3741
X7.4602Y-3.319
X7.4606Y-2.9922
X7.4632Y-2.6005
X7.4671Y-3.1222
X7.4691Y-3.8781
X7.4858Y-2.3446
X7.4878Y-3.0946
X7.4897Y-3.8426
X7.507Y-2.6443
X7.5074Y-2.4883
X7.5084Y-3.1222
X7.5094Y-2.3702
X7.5104Y-4.0359
X7.5114Y-3.3859
X7.5114Y-3.2895
X7.5143Y-1.9489
X7.5153Y-3.8781
X7.5193Y-4.1458
X7.5242Y-4.2117
X7.5458Y-2.4853
X7.5502Y-1.9239
X7.5517Y-2.6527
X7.5586Y-4.1477
X7.5627Y-3.3996
X7.5803Y-1.9912
X7.5882Y-1.817
X7.596Y-4.0611
X7.598Y-2.562
X7.6Y-3.3092
X7.6059Y-3.5031
X7.7673Y-3.1684
X7.7929Y-1.6418
X7.847Y-2.7432
X7.9011Y-2.5119
X7.9031Y-3.2442
X7.9051Y-4.0257
X7.9228Y-1.7462
X7.9326Y-4.1309
X7.9425Y-2.6309
X7.9602Y-1.8809
X7.9602Y-3.3809
X8.0114Y-3.4725
X8.0153Y-2.7285
X8.0183Y-1.9824
X8.0389Y-1.9076
X8.0409Y-2.6684
X8.0448Y-3.4155
X8.0527Y-4.5601
X8.0704Y-1.9607
X8.0744Y-2.0149
X8.0803Y-2.7285
X8.0862Y-4.6399
X8.1019Y-3.4548
X8.1118Y-4.2166
X8.1452Y-4.6989
X8.1708Y-4.5021
X8.1708Y-4.5759
X8.1708Y-4.6172
X8.1935Y-4.5375
X8.1974Y-3.7442
X8.1974Y-3.821
X8.2052Y-2.2324
X8.2063Y-2.3564
X8.2063Y-3.0257
X8.2063Y-3.13
X8.2181Y-3.8328
X8.2259Y-2.3367
X8.2319Y-3.0966
X8.2555Y-2.3741
X8.2555Y-3.8662
X8.2574Y-3.13
X8.2712Y-4.5883
X8.287Y-1.8809
X8.2919Y-2.6507
X8.2988Y-3.4509
X8.3165Y-4.2009
X8.3322Y-3.317
X8.3362Y-1.8159
X8.3362Y-2.5611
X8.348Y-4.062
X8.3519Y-3.317
X8.3539Y-2.5611
X8.3543Y-1.8159
X8.6413Y-3.9922
X8.6413Y-4.7521
X8.6472Y-2.504
X8.6531Y-1.7462
X8.6728Y-3.2442
X8.6866Y-4.0346
X8.6974Y-2.5533
X8.7161Y-3.3052
X8.7417Y-4.0316
X8.7759Y-3.2841
X8.785Y-2.5336
X8.7998Y-2.0562
X8.8145Y-4.0375
X8.8175Y-4.5798
X8.8185Y-2.567
X8.8185Y-3.3033
T2
X3.7259Y-3.134
X3.7259Y-3.2127
X3.7259Y-3.2127
X3.7259Y-3.2914
X3.8322Y-3.6851
X3.911Y-3.6851
X3.911Y-3.6851
X3.9897Y-3.6851
T3
X3.6291Y-1.6232
X3.6291Y-1.7232
X3.6291Y-1.8232
X3.6291Y-1.9232
X3.6291Y-2.0232
X3.6291Y-2.1232
X3.6291Y-2.2232
X3.6291Y-2.3232
X3.6291Y-2.4232
X3.6291Y-2.5232
X3.6291Y-2.6232
X3.6291Y-2.7232
X3.6803Y-1.6703
X3.6803Y-1.7703
X3.6803Y-1.8703
X3.6803Y-1.9703
X3.6803Y-2.0703
X3.6803Y-2.1703
X3.6803Y-2.2703
X3.6803Y-2.3703
X3.6803Y-2.4703
X3.6803Y-2.5703
X3.6803Y-2.6703
X3.6803Y-2.7703
X3.7547Y-2.937
X3.8547Y-2.937
X3.9547Y-2.937
X4.0547Y-2.937
X4.1547Y-2.937
X4.2291Y-1.6232
X4.2291Y-1.7232
X4.2291Y-1.8232
X4.2291Y-1.9232
X4.2291Y-2.0232
X4.2291Y-2.1232
X4.2291Y-2.2232
X4.2291Y-2.3232
X4.2291Y-2.4232
X4.2291Y-2.5232
X4.2291Y-2.6232
X4.2291Y-2.7232
X4.2803Y-1.6703
X4.2803Y-1.7703
X4.2803Y-1.8703
X4.2803Y-1.9703
X4.2803Y-2.0703
X4.2803Y-2.1703
X4.2803Y-2.2703
X4.2803Y-2.3703
X4.2803Y-2.4703
X4.2803Y-2.5703
X4.2803Y-2.6703
X4.2803Y-2.7703
T4
X3.8145Y-3.9155
X3.8145Y-4.4863
X3.913Y-3.9155
X4.0114Y-3.9155
X4.0114Y-4.4863
T5
X3.5567Y-3.2737
X3.5567Y-3.5296
T7
X3.6024Y-3.6811
X4.2126Y-3.6811
T8
X4.0551Y-4.685
X5.1339Y-3.7767
X5.1379Y-2.2696
X8.1171Y-3.938
X8.1191Y-2.4321
T6
G00X3.6925Y-4.1851
M15
G01X3.6925Y-4.2363
M16
G05
G00X4.1334Y-4.1851
M15
G01X4.1334Y-4.2363
M16
G05
M30
