G04 #@! TF.GenerationSoftware,KiCad,Pcbnew,8.99.0-3407-g6a48e2c35a*
G04 #@! TF.CreationDate,2025-03-01T11:14:55+00:00*
G04 #@! TF.ProjectId,DragonBoard,44726167-6f6e-4426-9f61-72642e6b6963,rev?*
G04 #@! TF.SameCoordinates,Original*
G04 #@! TF.FileFunction,Other,Comment*
%FSLAX46Y46*%
G04 Gerber Fmt 4.6, Leading zero omitted, Abs format (unit mm)*
G04 Created by KiCad (PCBNEW 8.99.0-3407-g6a48e2c35a) date 2025-03-01 11:14:55*
%MOMM*%
%LPD*%
G01*
G04 APERTURE LIST*
%ADD10C,0.100000*%
%ADD11C,0.150000*%
G04 APERTURE END LIST*
D10*
X138154128Y-134000000D02*
X93900000Y-146750000D01*
X225026621Y-43695600D02*
X225168321Y-43835582D01*
X149000000Y-35000000D02*
X170950000Y-35000000D01*
X224861871Y-43581466D02*
X225026621Y-43695600D01*
X225168321Y-43835582D02*
X225283881Y-43997807D01*
X88275257Y-114400000D02*
X88273857Y-38477435D01*
D11*
X225500000Y-119500000D02*
X187500000Y-134000000D01*
D10*
X92900000Y-146500000D02*
X93350000Y-146650000D01*
X82150000Y-127900000D02*
X82100000Y-127300000D01*
X93350000Y-146650000D02*
X93900000Y-146750000D01*
X82100000Y-127300000D02*
X82100000Y-126900000D01*
X82300000Y-128400000D02*
X82150000Y-127900000D01*
X149000000Y-35000000D02*
X89425853Y-37325405D01*
X138154128Y-134000000D02*
X187500000Y-134000000D01*
X92550000Y-146200000D02*
X92900000Y-146500000D01*
X224475441Y-43445146D02*
X224677111Y-43496776D01*
X224677111Y-43496776D02*
X224861871Y-43581466D01*
X225370281Y-44178672D02*
X225424381Y-44374571D01*
X225424381Y-44374571D02*
X225443181Y-44581902D01*
X225443181Y-44581902D02*
X225470181Y-119500000D01*
X170950000Y-35000000D02*
X224475441Y-43445146D01*
X92550000Y-146200000D02*
X82300000Y-128400000D01*
X225283881Y-43997807D02*
X225370281Y-44178672D01*
X89193680Y-37348815D02*
X89425853Y-37325405D01*
X88273857Y-38477435D02*
X88297257Y-38245261D01*
X88887292Y-37081089D02*
X89103536Y-37013959D01*
X88691608Y-37187304D02*
X88887292Y-37081089D01*
X88275257Y-114400000D02*
X88200000Y-115050000D01*
X88977436Y-37415945D02*
X89193680Y-37348815D01*
X88200000Y-115050000D02*
X88000000Y-115650000D01*
X49676679Y38227998D02*
X49676679Y38227998D01*
X89103536Y-37013959D02*
X89335709Y-36990549D01*
X88274233Y-37694158D02*
X88380446Y-37498471D01*
X82200000Y-126400000D02*
X88000000Y-115650000D01*
X88521115Y-37327975D02*
X88691608Y-37187304D01*
X88781752Y-37522160D02*
X88977436Y-37415945D01*
X88207113Y-37910405D02*
X88274233Y-37694158D01*
X88470590Y-37833327D02*
X88611259Y-37662831D01*
X88183713Y-38142579D02*
X88207113Y-37910405D01*
X88297257Y-38245261D02*
X88364377Y-38029014D01*
X88380446Y-37498471D02*
X88521115Y-37327975D01*
X82100000Y-126900000D02*
X82200000Y-126400000D01*
X88364377Y-38029014D02*
X88470590Y-37833327D01*
X88611259Y-37662831D02*
X88781752Y-37522160D01*
M02*
