G04 #@! TF.GenerationSoftware,KiCad,Pcbnew,8.99.0-3407-g6a48e2c35a*
G04 #@! TF.CreationDate,2025-03-01T11:14:55+00:00*
G04 #@! TF.ProjectId,DragonBoard,44726167-6f6e-4426-9f61-72642e6b6963,rev?*
G04 #@! TF.SameCoordinates,Original*
G04 #@! TF.FileFunction,Paste,Top*
G04 #@! TF.FilePolarity,Positive*
%FSLAX46Y46*%
G04 Gerber Fmt 4.6, Leading zero omitted, Abs format (unit mm)*
G04 Created by KiCad (PCBNEW 8.99.0-3407-g6a48e2c35a) date 2025-03-01 11:14:55*
%MOMM*%
%LPD*%
G01*
G04 APERTURE LIST*
G04 Aperture macros list*
%AMRoundRect*
0 Rectangle with rounded corners*
0 $1 Rounding radius*
0 $2 $3 $4 $5 $6 $7 $8 $9 X,Y pos of 4 corners*
0 Add a 4 corners polygon primitive as box body*
4,1,4,$2,$3,$4,$5,$6,$7,$8,$9,$2,$3,0*
0 Add four circle primitives for the rounded corners*
1,1,$1+$1,$2,$3*
1,1,$1+$1,$4,$5*
1,1,$1+$1,$6,$7*
1,1,$1+$1,$8,$9*
0 Add four rect primitives between the rounded corners*
20,1,$1+$1,$2,$3,$4,$5,0*
20,1,$1+$1,$4,$5,$6,$7,0*
20,1,$1+$1,$6,$7,$8,$9,0*
20,1,$1+$1,$8,$9,$2,$3,0*%
%AMRotRect*
0 Rectangle, with rotation*
0 The origin of the aperture is its center*
0 $1 length*
0 $2 width*
0 $3 Rotation angle, in degrees counterclockwise*
0 Add horizontal line*
21,1,$1,$2,0,0,$3*%
G04 Aperture macros list end*
%ADD10R,1.000000X0.600000*%
%ADD11R,0.950000X1.300000*%
%ADD12R,1.300000X0.950000*%
%ADD13RotRect,1.300000X0.950000X210.000000*%
%ADD14RotRect,1.300000X0.950000X285.000000*%
%ADD15RoundRect,0.155000X-0.155000X0.212500X-0.155000X-0.212500X0.155000X-0.212500X0.155000X0.212500X0*%
%ADD16R,1.600000X1.000000*%
%ADD17R,2.300000X2.000000*%
%ADD18RotRect,1.600000X1.000000X120.000000*%
%ADD19RotRect,2.300000X2.000000X300.000000*%
%ADD20RoundRect,0.155000X0.155000X-0.212500X0.155000X0.212500X-0.155000X0.212500X-0.155000X-0.212500X0*%
%ADD21R,0.800000X1.000000*%
%ADD22R,1.500000X0.700000*%
%ADD23RotRect,1.600000X1.000000X195.000000*%
%ADD24RotRect,2.300000X2.000000X15.000000*%
G04 APERTURE END LIST*
D10*
X102739100Y-71652600D03*
X102739100Y-70752600D03*
X100639100Y-71652600D03*
X100639100Y-70752600D03*
X98439100Y-71652600D03*
X98439100Y-70752600D03*
D11*
X128705000Y-44452000D03*
X128705000Y-48002000D03*
X131245000Y-44455000D03*
X131245000Y-48005000D03*
X150345000Y-41955000D03*
X150345000Y-45505000D03*
X169345000Y-44455000D03*
X169345000Y-48005000D03*
X188239100Y-45327600D03*
X188239100Y-48877600D03*
X207545000Y-49355000D03*
X207545000Y-52905000D03*
X128705000Y-82555000D03*
X128705000Y-86105000D03*
X128705000Y-101655000D03*
X128705000Y-105205000D03*
D12*
X105225000Y-97000000D03*
X108775000Y-97000000D03*
D13*
X95544195Y-124463500D03*
X92469805Y-126238500D03*
D10*
X96229100Y-71654900D03*
X96229100Y-70754900D03*
D11*
X128705000Y-63555000D03*
X128705000Y-67105000D03*
X131245000Y-63555000D03*
X131245000Y-67105000D03*
X150345000Y-61045000D03*
X150345000Y-64595000D03*
X169345000Y-63455000D03*
X169345000Y-67005000D03*
X188439100Y-64927600D03*
X188439100Y-68477600D03*
X207445000Y-68255000D03*
X207445000Y-71805000D03*
D14*
X108914596Y-127446482D03*
X109833404Y-130875518D03*
D11*
X150345000Y-80145000D03*
X150345000Y-83695000D03*
X168839100Y-80427600D03*
X168839100Y-83977600D03*
X188139100Y-82927600D03*
X188139100Y-86477600D03*
X207445000Y-87455000D03*
X207445000Y-91005000D03*
X131245000Y-120655000D03*
X131245000Y-124205000D03*
X150345000Y-118245000D03*
X150345000Y-121795000D03*
X207495000Y-106455000D03*
X207495000Y-110005000D03*
X131245000Y-101655000D03*
X131245000Y-105205000D03*
X150345000Y-99145000D03*
X150345000Y-102695000D03*
X168639100Y-99527600D03*
X168639100Y-103077600D03*
X188139100Y-102127600D03*
X188139100Y-105677600D03*
X131245000Y-82555000D03*
X131245000Y-86105000D03*
X169239100Y-118327600D03*
X169239100Y-121877600D03*
D15*
X165269703Y-73905140D03*
X165269703Y-75040140D03*
D16*
X180100000Y-117324999D03*
X180100000Y-119074999D03*
X175300000Y-119074999D03*
X175300000Y-117324999D03*
D17*
X170700000Y-126279999D03*
D16*
X180100000Y-60177640D03*
X180100000Y-61927640D03*
X175300000Y-61927640D03*
X175300000Y-60177640D03*
D17*
X170700000Y-69132640D03*
D16*
X218200000Y-65074999D03*
X218200000Y-66824999D03*
X213400000Y-66824999D03*
X213400000Y-65074999D03*
D17*
X208800000Y-74029999D03*
D15*
X184069196Y-116805140D03*
X184069196Y-117940140D03*
X195339120Y-41515140D03*
X195339120Y-42650140D03*
X222900721Y-81355140D03*
X222900721Y-82490140D03*
D16*
X180100000Y-79225000D03*
X180100000Y-80975000D03*
X175300000Y-80975000D03*
X175300000Y-79225000D03*
D17*
X170700000Y-88180000D03*
D15*
X119839120Y-116015140D03*
X119839120Y-117150140D03*
D16*
X218200000Y-84124999D03*
X218200000Y-85874999D03*
X213400000Y-85874999D03*
X213400000Y-84124999D03*
D17*
X208800000Y-93079999D03*
D15*
X128839120Y-76463494D03*
X128839120Y-77598494D03*
X165454658Y-114555140D03*
X165454658Y-115690140D03*
D16*
X218200000Y-103175000D03*
X218200000Y-104925000D03*
X213400000Y-104925000D03*
X213400000Y-103175000D03*
D17*
X208800000Y-112130000D03*
D16*
X122950000Y-81725000D03*
X122950000Y-83475000D03*
X118150000Y-83475000D03*
X118150000Y-81725000D03*
D17*
X113550000Y-90680000D03*
D15*
X221974393Y-100355140D03*
X221974393Y-101490140D03*
X106889364Y-129515140D03*
X106889364Y-130650140D03*
X183839120Y-95515140D03*
X183839120Y-96650140D03*
D16*
X199150000Y-46025000D03*
X199150000Y-47775000D03*
X194350000Y-47775000D03*
X194350000Y-46025000D03*
D17*
X189750000Y-54980000D03*
D16*
X199150000Y-84125000D03*
X199150000Y-85875000D03*
X194350000Y-85875000D03*
X194350000Y-84125000D03*
D17*
X189750000Y-93080000D03*
D15*
X143255833Y-113855140D03*
X143255833Y-114990140D03*
D18*
X103432116Y-132293601D03*
X101916571Y-133168601D03*
X99516571Y-129011679D03*
X101032116Y-128136679D03*
D19*
X90976858Y-128630462D03*
D15*
X164997376Y-54904941D03*
X164997376Y-56039941D03*
D16*
X199150000Y-103175000D03*
X199150000Y-104925000D03*
X194350000Y-104925000D03*
X194350000Y-103175000D03*
D17*
X189750000Y-112130000D03*
D15*
X202542030Y-102355140D03*
X202542030Y-103490140D03*
X201327253Y-62752461D03*
X201327253Y-63887461D03*
D16*
X122950000Y-100775000D03*
X122950000Y-102525000D03*
X118150000Y-102525000D03*
X118150000Y-100775000D03*
D17*
X113550000Y-109730000D03*
D15*
X144702222Y-76655140D03*
X144702222Y-77790140D03*
D16*
X122950000Y-62725000D03*
X122950000Y-64475000D03*
X118150000Y-64475000D03*
X118150000Y-62725000D03*
D17*
X113550000Y-71680000D03*
D15*
X145366286Y-57405140D03*
X145366286Y-58540140D03*
X173917436Y-38155140D03*
X173917436Y-39290140D03*
X137959998Y-37837120D03*
X137959998Y-38972120D03*
D16*
X142000000Y-60175000D03*
X142000000Y-61925000D03*
X137200000Y-61925000D03*
X137200000Y-60175000D03*
D17*
X132600000Y-69130000D03*
D15*
X122839120Y-39015140D03*
X122839120Y-40150140D03*
X165380369Y-93005140D03*
X165380369Y-94140140D03*
D16*
X161050002Y-38625002D03*
X161050004Y-40375000D03*
X156250000Y-40375000D03*
X156250005Y-38625001D03*
D17*
X151650002Y-47580001D03*
D16*
X180100000Y-41125000D03*
X180100000Y-42875000D03*
X175300000Y-42875000D03*
X175300000Y-41125000D03*
D17*
X170700000Y-50080000D03*
D20*
X152805145Y-37950140D03*
X152805145Y-36815140D03*
D15*
X183410472Y-58015140D03*
X183410472Y-59150140D03*
D21*
X91094100Y-72952600D03*
X88884100Y-72952600D03*
X91094100Y-80252600D03*
X88884100Y-80252600D03*
D22*
X91744100Y-74352600D03*
X91744100Y-77352600D03*
X91744100Y-78852600D03*
D16*
X199150000Y-65075000D03*
X199150000Y-66825000D03*
X194350000Y-66825000D03*
X194350000Y-65075000D03*
D17*
X189750000Y-74030000D03*
D16*
X161050000Y-114824999D03*
X161050000Y-116574999D03*
X156250000Y-116574999D03*
X156250000Y-114824999D03*
D17*
X151650000Y-123779999D03*
D16*
X142000002Y-41125002D03*
X142000004Y-42875000D03*
X137200000Y-42875000D03*
X137200005Y-41125001D03*
D17*
X132600002Y-50080001D03*
D15*
X183612382Y-76455140D03*
X183612382Y-77590140D03*
D16*
X122949997Y-43624998D03*
X122950000Y-45374996D03*
X118149997Y-45374997D03*
X118150000Y-43624998D03*
D17*
X113549999Y-52579998D03*
D16*
X161050000Y-57675000D03*
X161050000Y-59425000D03*
X156250000Y-59425000D03*
X156250000Y-57675000D03*
D17*
X151650000Y-66630000D03*
D16*
X161050000Y-95775000D03*
X161050000Y-97525000D03*
X156250000Y-97525000D03*
X156250000Y-95775000D03*
D17*
X151650000Y-104730000D03*
D16*
X142000000Y-98274999D03*
X142000000Y-100024999D03*
X137200000Y-100024999D03*
X137200000Y-98274999D03*
D17*
X132600000Y-107229999D03*
D16*
X142000000Y-117325000D03*
X142000000Y-119075000D03*
X137200000Y-119075000D03*
X137200000Y-117325000D03*
D17*
X132600000Y-126280000D03*
D15*
X145253684Y-95355140D03*
X145253684Y-96490140D03*
D16*
X180100000Y-98275000D03*
X180100000Y-100025000D03*
X175300000Y-100025000D03*
X175300000Y-98275000D03*
D17*
X170700000Y-107230000D03*
D15*
X126839120Y-98055140D03*
X126839120Y-99190140D03*
X203051709Y-81355140D03*
X203051709Y-82490140D03*
X220339120Y-62555140D03*
X220339120Y-63690140D03*
D10*
X104929100Y-71652600D03*
X104929100Y-70752600D03*
D15*
X127221645Y-60089896D03*
X127221645Y-61224896D03*
X213339120Y-43268011D03*
X213339120Y-44403011D03*
D16*
X161050000Y-76725000D03*
X161050000Y-78475000D03*
X156250000Y-78475000D03*
X156250000Y-76725000D03*
D17*
X151650000Y-85680000D03*
D16*
X142000000Y-79225000D03*
X142000000Y-80975000D03*
X137200000Y-80975000D03*
X137200000Y-79225000D03*
D17*
X132600000Y-88180000D03*
D16*
X218200000Y-46025000D03*
X218200000Y-47775000D03*
X213400000Y-47775000D03*
X213400000Y-46025000D03*
D17*
X208800000Y-54980000D03*
D23*
X118268248Y-121621059D03*
X118721184Y-123311426D03*
X114084737Y-124553759D03*
X113631807Y-122863389D03*
D24*
X111506272Y-132703823D03*
M02*
