G04 #@! TF.GenerationSoftware,KiCad,Pcbnew,8.99.0-3407-g6a48e2c35a*
G04 #@! TF.CreationDate,2025-03-01T14:59:17+00:00*
G04 #@! TF.ProjectId,DragonBoard,44726167-6f6e-4426-9f61-72642e6b6963,rev?*
G04 #@! TF.SameCoordinates,Original*
G04 #@! TF.FileFunction,Legend,Bot*
G04 #@! TF.FilePolarity,Positive*
%FSLAX46Y46*%
G04 Gerber Fmt 4.6, Leading zero omitted, Abs format (unit mm)*
G04 Created by KiCad (PCBNEW 8.99.0-3407-g6a48e2c35a) date 2025-03-01 14:59:17*
%MOMM*%
%LPD*%
G01*
G04 APERTURE LIST*
G04 Aperture macros list*
%AMRoundRect*
0 Rectangle with rounded corners*
0 $1 Rounding radius*
0 $2 $3 $4 $5 $6 $7 $8 $9 X,Y pos of 4 corners*
0 Add a 4 corners polygon primitive as box body*
4,1,4,$2,$3,$4,$5,$6,$7,$8,$9,$2,$3,0*
0 Add four circle primitives for the rounded corners*
1,1,$1+$1,$2,$3*
1,1,$1+$1,$4,$5*
1,1,$1+$1,$6,$7*
1,1,$1+$1,$8,$9*
0 Add four rect primitives between the rounded corners*
20,1,$1+$1,$2,$3,$4,$5,0*
20,1,$1+$1,$4,$5,$6,$7,0*
20,1,$1+$1,$6,$7,$8,$9,0*
20,1,$1+$1,$8,$9,$2,$3,0*%
%AMRotRect*
0 Rectangle, with rotation*
0 The origin of the aperture is its center*
0 $1 length*
0 $2 width*
0 $3 Rotation angle, in degrees counterclockwise*
0 Add horizontal line*
21,1,$1,$2,0,0,$3*%
G04 Aperture macros list end*
%ADD10C,0.150000*%
%ADD11C,0.120000*%
%ADD12C,0.400000*%
%ADD13C,0.500000*%
%ADD14C,1.000000*%
%ADD15C,3.500000*%
%ADD16C,0.300000*%
%ADD17C,3.000000*%
%ADD18C,0.800000*%
%ADD19C,1.524000*%
%ADD20RoundRect,0.160000X-0.197500X-0.160000X0.197500X-0.160000X0.197500X0.160000X-0.197500X0.160000X0*%
%ADD21RoundRect,0.150000X0.587500X0.150000X-0.587500X0.150000X-0.587500X-0.150000X0.587500X-0.150000X0*%
%ADD22C,4.700000*%
%ADD23R,0.950000X1.300000*%
%ADD24R,1.300000X0.950000*%
%ADD25RotRect,1.300000X0.950000X210.000000*%
%ADD26C,4.000000*%
%ADD27C,1.397000*%
%ADD28C,2.000000*%
%ADD29R,2.000000X3.200000*%
%ADD30RotRect,1.300000X0.950000X285.000000*%
%ADD31C,1.900000*%
%ADD32C,1.700000*%
%ADD33C,3.000000*%
%ADD34C,4.100000*%
%ADD35R,1.600000X1.000000*%
%ADD36R,2.300000X2.000000*%
%ADD37RotRect,1.600000X1.000000X120.000000*%
%ADD38RotRect,2.300000X2.000000X300.000000*%
%ADD39RoundRect,0.250000X0.625000X-0.350000X0.625000X0.350000X-0.625000X0.350000X-0.625000X-0.350000X0*%
%ADD40O,1.750000X1.200000*%
%ADD41C,0.900000*%
%ADD42RoundRect,0.250000X0.350000X0.625000X-0.350000X0.625000X-0.350000X-0.625000X0.350000X-0.625000X0*%
%ADD43O,1.200000X1.750000*%
%ADD44RotRect,1.600000X1.000000X195.000000*%
%ADD45RotRect,2.300000X2.000000X15.000000*%
%ADD46R,1.000000X0.600000*%
%ADD47RoundRect,0.160000X0.197500X0.160000X-0.197500X0.160000X-0.197500X-0.160000X0.197500X-0.160000X0*%
%ADD48RoundRect,0.150000X0.150000X-0.587500X0.150000X0.587500X-0.150000X0.587500X-0.150000X-0.587500X0*%
%ADD49R,0.800000X1.000000*%
%ADD50R,1.500000X0.700000*%
G04 APERTURE END LIST*
D10*
X97356476Y-92180795D02*
X97356476Y-91418891D01*
X97737429Y-91799843D02*
X96975524Y-91799843D01*
X95762871Y-67680753D02*
X95724776Y-67718849D01*
X95724776Y-67718849D02*
X95686680Y-67833134D01*
X95686680Y-67833134D02*
X95686680Y-67909325D01*
X95686680Y-67909325D02*
X95724776Y-68023611D01*
X95724776Y-68023611D02*
X95800966Y-68099801D01*
X95800966Y-68099801D02*
X95877156Y-68137896D01*
X95877156Y-68137896D02*
X96029537Y-68175992D01*
X96029537Y-68175992D02*
X96143823Y-68175992D01*
X96143823Y-68175992D02*
X96296204Y-68137896D01*
X96296204Y-68137896D02*
X96372395Y-68099801D01*
X96372395Y-68099801D02*
X96448585Y-68023611D01*
X96448585Y-68023611D02*
X96486680Y-67909325D01*
X96486680Y-67909325D02*
X96486680Y-67833134D01*
X96486680Y-67833134D02*
X96448585Y-67718849D01*
X96448585Y-67718849D02*
X96410490Y-67680753D01*
X95724776Y-67375992D02*
X95686680Y-67261706D01*
X95686680Y-67261706D02*
X95686680Y-67071230D01*
X95686680Y-67071230D02*
X95724776Y-66995039D01*
X95724776Y-66995039D02*
X95762871Y-66956944D01*
X95762871Y-66956944D02*
X95839061Y-66918849D01*
X95839061Y-66918849D02*
X95915252Y-66918849D01*
X95915252Y-66918849D02*
X95991442Y-66956944D01*
X95991442Y-66956944D02*
X96029537Y-66995039D01*
X96029537Y-66995039D02*
X96067633Y-67071230D01*
X96067633Y-67071230D02*
X96105728Y-67223611D01*
X96105728Y-67223611D02*
X96143823Y-67299801D01*
X96143823Y-67299801D02*
X96181918Y-67337896D01*
X96181918Y-67337896D02*
X96258109Y-67375992D01*
X96258109Y-67375992D02*
X96334299Y-67375992D01*
X96334299Y-67375992D02*
X96410490Y-67337896D01*
X96410490Y-67337896D02*
X96448585Y-67299801D01*
X96448585Y-67299801D02*
X96486680Y-67223611D01*
X96486680Y-67223611D02*
X96486680Y-67033134D01*
X96486680Y-67033134D02*
X96448585Y-66918849D01*
X99416476Y-92180795D02*
X99416476Y-91418891D01*
X95858168Y-81676506D02*
X96620073Y-81676506D01*
X95858168Y-79616506D02*
X96620073Y-79616506D01*
X96239120Y-79997459D02*
X96239120Y-79235554D01*
X101412986Y-92183591D02*
X101412986Y-91421687D01*
X101793939Y-91802639D02*
X101032034Y-91802639D01*
X102414920Y-68458467D02*
X102376824Y-68344181D01*
X102376824Y-68344181D02*
X102376824Y-68153705D01*
X102376824Y-68153705D02*
X102414920Y-68077514D01*
X102414920Y-68077514D02*
X102453015Y-68039419D01*
X102453015Y-68039419D02*
X102529205Y-68001324D01*
X102529205Y-68001324D02*
X102605396Y-68001324D01*
X102605396Y-68001324D02*
X102681586Y-68039419D01*
X102681586Y-68039419D02*
X102719681Y-68077514D01*
X102719681Y-68077514D02*
X102757777Y-68153705D01*
X102757777Y-68153705D02*
X102795872Y-68306086D01*
X102795872Y-68306086D02*
X102833967Y-68382276D01*
X102833967Y-68382276D02*
X102872062Y-68420371D01*
X102872062Y-68420371D02*
X102948253Y-68458467D01*
X102948253Y-68458467D02*
X103024443Y-68458467D01*
X103024443Y-68458467D02*
X103100634Y-68420371D01*
X103100634Y-68420371D02*
X103138729Y-68382276D01*
X103138729Y-68382276D02*
X103176824Y-68306086D01*
X103176824Y-68306086D02*
X103176824Y-68115609D01*
X103176824Y-68115609D02*
X103138729Y-68001324D01*
X102453015Y-67201323D02*
X102414920Y-67239419D01*
X102414920Y-67239419D02*
X102376824Y-67353704D01*
X102376824Y-67353704D02*
X102376824Y-67429895D01*
X102376824Y-67429895D02*
X102414920Y-67544181D01*
X102414920Y-67544181D02*
X102491110Y-67620371D01*
X102491110Y-67620371D02*
X102567300Y-67658466D01*
X102567300Y-67658466D02*
X102719681Y-67696562D01*
X102719681Y-67696562D02*
X102833967Y-67696562D01*
X102833967Y-67696562D02*
X102986348Y-67658466D01*
X102986348Y-67658466D02*
X103062539Y-67620371D01*
X103062539Y-67620371D02*
X103138729Y-67544181D01*
X103138729Y-67544181D02*
X103176824Y-67429895D01*
X103176824Y-67429895D02*
X103176824Y-67353704D01*
X103176824Y-67353704D02*
X103138729Y-67239419D01*
X103138729Y-67239419D02*
X103100634Y-67201323D01*
X102376824Y-66477514D02*
X102376824Y-66858466D01*
X102376824Y-66858466D02*
X103176824Y-66858466D01*
X103214920Y-65639419D02*
X102186348Y-66325133D01*
X102414920Y-65410848D02*
X102376824Y-65296562D01*
X102376824Y-65296562D02*
X102376824Y-65106086D01*
X102376824Y-65106086D02*
X102414920Y-65029895D01*
X102414920Y-65029895D02*
X102453015Y-64991800D01*
X102453015Y-64991800D02*
X102529205Y-64953705D01*
X102529205Y-64953705D02*
X102605396Y-64953705D01*
X102605396Y-64953705D02*
X102681586Y-64991800D01*
X102681586Y-64991800D02*
X102719681Y-65029895D01*
X102719681Y-65029895D02*
X102757777Y-65106086D01*
X102757777Y-65106086D02*
X102795872Y-65258467D01*
X102795872Y-65258467D02*
X102833967Y-65334657D01*
X102833967Y-65334657D02*
X102872062Y-65372752D01*
X102872062Y-65372752D02*
X102948253Y-65410848D01*
X102948253Y-65410848D02*
X103024443Y-65410848D01*
X103024443Y-65410848D02*
X103100634Y-65372752D01*
X103100634Y-65372752D02*
X103138729Y-65334657D01*
X103138729Y-65334657D02*
X103176824Y-65258467D01*
X103176824Y-65258467D02*
X103176824Y-65067990D01*
X103176824Y-65067990D02*
X103138729Y-64953705D01*
X102453015Y-64153704D02*
X102414920Y-64191800D01*
X102414920Y-64191800D02*
X102376824Y-64306085D01*
X102376824Y-64306085D02*
X102376824Y-64382276D01*
X102376824Y-64382276D02*
X102414920Y-64496562D01*
X102414920Y-64496562D02*
X102491110Y-64572752D01*
X102491110Y-64572752D02*
X102567300Y-64610847D01*
X102567300Y-64610847D02*
X102719681Y-64648943D01*
X102719681Y-64648943D02*
X102833967Y-64648943D01*
X102833967Y-64648943D02*
X102986348Y-64610847D01*
X102986348Y-64610847D02*
X103062539Y-64572752D01*
X103062539Y-64572752D02*
X103138729Y-64496562D01*
X103138729Y-64496562D02*
X103176824Y-64382276D01*
X103176824Y-64382276D02*
X103176824Y-64306085D01*
X103176824Y-64306085D02*
X103138729Y-64191800D01*
X103138729Y-64191800D02*
X103100634Y-64153704D01*
X102376824Y-63810847D02*
X103176824Y-63810847D01*
X102376824Y-63353704D02*
X102833967Y-63696562D01*
X103176824Y-63353704D02*
X102719681Y-63810847D01*
X95858168Y-83676506D02*
X96620073Y-83676506D01*
X96239120Y-84057459D02*
X96239120Y-83295554D01*
X100976824Y-68510847D02*
X100176824Y-68244180D01*
X100176824Y-68244180D02*
X100976824Y-67977514D01*
X100253015Y-67253704D02*
X100214920Y-67291800D01*
X100214920Y-67291800D02*
X100176824Y-67406085D01*
X100176824Y-67406085D02*
X100176824Y-67482276D01*
X100176824Y-67482276D02*
X100214920Y-67596562D01*
X100214920Y-67596562D02*
X100291110Y-67672752D01*
X100291110Y-67672752D02*
X100367300Y-67710847D01*
X100367300Y-67710847D02*
X100519681Y-67748943D01*
X100519681Y-67748943D02*
X100633967Y-67748943D01*
X100633967Y-67748943D02*
X100786348Y-67710847D01*
X100786348Y-67710847D02*
X100862539Y-67672752D01*
X100862539Y-67672752D02*
X100938729Y-67596562D01*
X100938729Y-67596562D02*
X100976824Y-67482276D01*
X100976824Y-67482276D02*
X100976824Y-67406085D01*
X100976824Y-67406085D02*
X100938729Y-67291800D01*
X100938729Y-67291800D02*
X100900634Y-67253704D01*
X100253015Y-66453704D02*
X100214920Y-66491800D01*
X100214920Y-66491800D02*
X100176824Y-66606085D01*
X100176824Y-66606085D02*
X100176824Y-66682276D01*
X100176824Y-66682276D02*
X100214920Y-66796562D01*
X100214920Y-66796562D02*
X100291110Y-66872752D01*
X100291110Y-66872752D02*
X100367300Y-66910847D01*
X100367300Y-66910847D02*
X100519681Y-66948943D01*
X100519681Y-66948943D02*
X100633967Y-66948943D01*
X100633967Y-66948943D02*
X100786348Y-66910847D01*
X100786348Y-66910847D02*
X100862539Y-66872752D01*
X100862539Y-66872752D02*
X100938729Y-66796562D01*
X100938729Y-66796562D02*
X100976824Y-66682276D01*
X100976824Y-66682276D02*
X100976824Y-66606085D01*
X100976824Y-66606085D02*
X100938729Y-66491800D01*
X100938729Y-66491800D02*
X100900634Y-66453704D01*
X95853015Y-68015609D02*
X95814920Y-68053705D01*
X95814920Y-68053705D02*
X95776824Y-68167990D01*
X95776824Y-68167990D02*
X95776824Y-68244181D01*
X95776824Y-68244181D02*
X95814920Y-68358467D01*
X95814920Y-68358467D02*
X95891110Y-68434657D01*
X95891110Y-68434657D02*
X95967300Y-68472752D01*
X95967300Y-68472752D02*
X96119681Y-68510848D01*
X96119681Y-68510848D02*
X96233967Y-68510848D01*
X96233967Y-68510848D02*
X96386348Y-68472752D01*
X96386348Y-68472752D02*
X96462539Y-68434657D01*
X96462539Y-68434657D02*
X96538729Y-68358467D01*
X96538729Y-68358467D02*
X96576824Y-68244181D01*
X96576824Y-68244181D02*
X96576824Y-68167990D01*
X96576824Y-68167990D02*
X96538729Y-68053705D01*
X96538729Y-68053705D02*
X96500634Y-68015609D01*
X95814920Y-67710848D02*
X95776824Y-67596562D01*
X95776824Y-67596562D02*
X95776824Y-67406086D01*
X95776824Y-67406086D02*
X95814920Y-67329895D01*
X95814920Y-67329895D02*
X95853015Y-67291800D01*
X95853015Y-67291800D02*
X95929205Y-67253705D01*
X95929205Y-67253705D02*
X96005396Y-67253705D01*
X96005396Y-67253705D02*
X96081586Y-67291800D01*
X96081586Y-67291800D02*
X96119681Y-67329895D01*
X96119681Y-67329895D02*
X96157777Y-67406086D01*
X96157777Y-67406086D02*
X96195872Y-67558467D01*
X96195872Y-67558467D02*
X96233967Y-67634657D01*
X96233967Y-67634657D02*
X96272062Y-67672752D01*
X96272062Y-67672752D02*
X96348253Y-67710848D01*
X96348253Y-67710848D02*
X96424443Y-67710848D01*
X96424443Y-67710848D02*
X96500634Y-67672752D01*
X96500634Y-67672752D02*
X96538729Y-67634657D01*
X96538729Y-67634657D02*
X96576824Y-67558467D01*
X96576824Y-67558467D02*
X96576824Y-67367990D01*
X96576824Y-67367990D02*
X96538729Y-67253705D01*
X104514920Y-68529895D02*
X104476824Y-68415609D01*
X104476824Y-68415609D02*
X104476824Y-68225133D01*
X104476824Y-68225133D02*
X104514920Y-68148942D01*
X104514920Y-68148942D02*
X104553015Y-68110847D01*
X104553015Y-68110847D02*
X104629205Y-68072752D01*
X104629205Y-68072752D02*
X104705396Y-68072752D01*
X104705396Y-68072752D02*
X104781586Y-68110847D01*
X104781586Y-68110847D02*
X104819681Y-68148942D01*
X104819681Y-68148942D02*
X104857777Y-68225133D01*
X104857777Y-68225133D02*
X104895872Y-68377514D01*
X104895872Y-68377514D02*
X104933967Y-68453704D01*
X104933967Y-68453704D02*
X104972062Y-68491799D01*
X104972062Y-68491799D02*
X105048253Y-68529895D01*
X105048253Y-68529895D02*
X105124443Y-68529895D01*
X105124443Y-68529895D02*
X105200634Y-68491799D01*
X105200634Y-68491799D02*
X105238729Y-68453704D01*
X105238729Y-68453704D02*
X105276824Y-68377514D01*
X105276824Y-68377514D02*
X105276824Y-68187037D01*
X105276824Y-68187037D02*
X105238729Y-68072752D01*
X104476824Y-67729894D02*
X105276824Y-67729894D01*
X105276824Y-67729894D02*
X105276824Y-67539418D01*
X105276824Y-67539418D02*
X105238729Y-67425132D01*
X105238729Y-67425132D02*
X105162539Y-67348942D01*
X105162539Y-67348942D02*
X105086348Y-67310847D01*
X105086348Y-67310847D02*
X104933967Y-67272751D01*
X104933967Y-67272751D02*
X104819681Y-67272751D01*
X104819681Y-67272751D02*
X104667300Y-67310847D01*
X104667300Y-67310847D02*
X104591110Y-67348942D01*
X104591110Y-67348942D02*
X104514920Y-67425132D01*
X104514920Y-67425132D02*
X104476824Y-67539418D01*
X104476824Y-67539418D02*
X104476824Y-67729894D01*
X104705396Y-66967990D02*
X104705396Y-66587037D01*
X104476824Y-67044180D02*
X105276824Y-66777513D01*
X105276824Y-66777513D02*
X104476824Y-66510847D01*
X105314920Y-65672752D02*
X104286348Y-66358466D01*
X104476824Y-65406085D02*
X105276824Y-65406085D01*
X105276824Y-65406085D02*
X104705396Y-65139419D01*
X104705396Y-65139419D02*
X105276824Y-64872752D01*
X105276824Y-64872752D02*
X104476824Y-64872752D01*
X105276824Y-64339418D02*
X105276824Y-64187037D01*
X105276824Y-64187037D02*
X105238729Y-64110847D01*
X105238729Y-64110847D02*
X105162539Y-64034656D01*
X105162539Y-64034656D02*
X105010158Y-63996561D01*
X105010158Y-63996561D02*
X104743491Y-63996561D01*
X104743491Y-63996561D02*
X104591110Y-64034656D01*
X104591110Y-64034656D02*
X104514920Y-64110847D01*
X104514920Y-64110847D02*
X104476824Y-64187037D01*
X104476824Y-64187037D02*
X104476824Y-64339418D01*
X104476824Y-64339418D02*
X104514920Y-64415609D01*
X104514920Y-64415609D02*
X104591110Y-64491799D01*
X104591110Y-64491799D02*
X104743491Y-64529895D01*
X104743491Y-64529895D02*
X105010158Y-64529895D01*
X105010158Y-64529895D02*
X105162539Y-64491799D01*
X105162539Y-64491799D02*
X105238729Y-64415609D01*
X105238729Y-64415609D02*
X105276824Y-64339418D01*
X104514920Y-63691800D02*
X104476824Y-63577514D01*
X104476824Y-63577514D02*
X104476824Y-63387038D01*
X104476824Y-63387038D02*
X104514920Y-63310847D01*
X104514920Y-63310847D02*
X104553015Y-63272752D01*
X104553015Y-63272752D02*
X104629205Y-63234657D01*
X104629205Y-63234657D02*
X104705396Y-63234657D01*
X104705396Y-63234657D02*
X104781586Y-63272752D01*
X104781586Y-63272752D02*
X104819681Y-63310847D01*
X104819681Y-63310847D02*
X104857777Y-63387038D01*
X104857777Y-63387038D02*
X104895872Y-63539419D01*
X104895872Y-63539419D02*
X104933967Y-63615609D01*
X104933967Y-63615609D02*
X104972062Y-63653704D01*
X104972062Y-63653704D02*
X105048253Y-63691800D01*
X105048253Y-63691800D02*
X105124443Y-63691800D01*
X105124443Y-63691800D02*
X105200634Y-63653704D01*
X105200634Y-63653704D02*
X105238729Y-63615609D01*
X105238729Y-63615609D02*
X105276824Y-63539419D01*
X105276824Y-63539419D02*
X105276824Y-63348942D01*
X105276824Y-63348942D02*
X105238729Y-63234657D01*
X104476824Y-62891799D02*
X105276824Y-62891799D01*
X98748585Y-67795039D02*
X98786680Y-67871229D01*
X98786680Y-67871229D02*
X98786680Y-67985515D01*
X98786680Y-67985515D02*
X98748585Y-68099801D01*
X98748585Y-68099801D02*
X98672395Y-68175991D01*
X98672395Y-68175991D02*
X98596204Y-68214086D01*
X98596204Y-68214086D02*
X98443823Y-68252182D01*
X98443823Y-68252182D02*
X98329537Y-68252182D01*
X98329537Y-68252182D02*
X98177156Y-68214086D01*
X98177156Y-68214086D02*
X98100966Y-68175991D01*
X98100966Y-68175991D02*
X98024776Y-68099801D01*
X98024776Y-68099801D02*
X97986680Y-67985515D01*
X97986680Y-67985515D02*
X97986680Y-67909324D01*
X97986680Y-67909324D02*
X98024776Y-67795039D01*
X98024776Y-67795039D02*
X98062871Y-67756943D01*
X98062871Y-67756943D02*
X98329537Y-67756943D01*
X98329537Y-67756943D02*
X98329537Y-67909324D01*
X97986680Y-67414086D02*
X98786680Y-67414086D01*
X98786680Y-67414086D02*
X97986680Y-66956943D01*
X97986680Y-66956943D02*
X98786680Y-66956943D01*
X97986680Y-66575991D02*
X98786680Y-66575991D01*
X98786680Y-66575991D02*
X98786680Y-66385515D01*
X98786680Y-66385515D02*
X98748585Y-66271229D01*
X98748585Y-66271229D02*
X98672395Y-66195039D01*
X98672395Y-66195039D02*
X98596204Y-66156944D01*
X98596204Y-66156944D02*
X98443823Y-66118848D01*
X98443823Y-66118848D02*
X98329537Y-66118848D01*
X98329537Y-66118848D02*
X98177156Y-66156944D01*
X98177156Y-66156944D02*
X98100966Y-66195039D01*
X98100966Y-66195039D02*
X98024776Y-66271229D01*
X98024776Y-66271229D02*
X97986680Y-66385515D01*
X97986680Y-66385515D02*
X97986680Y-66575991D01*
X115103286Y-40727459D02*
X115436619Y-40251268D01*
X115674714Y-40727459D02*
X115674714Y-39727459D01*
X115674714Y-39727459D02*
X115293762Y-39727459D01*
X115293762Y-39727459D02*
X115198524Y-39775078D01*
X115198524Y-39775078D02*
X115150905Y-39822697D01*
X115150905Y-39822697D02*
X115103286Y-39917935D01*
X115103286Y-39917935D02*
X115103286Y-40060792D01*
X115103286Y-40060792D02*
X115150905Y-40156030D01*
X115150905Y-40156030D02*
X115198524Y-40203649D01*
X115198524Y-40203649D02*
X115293762Y-40251268D01*
X115293762Y-40251268D02*
X115674714Y-40251268D01*
X114769952Y-39727459D02*
X114150905Y-39727459D01*
X114150905Y-39727459D02*
X114484238Y-40108411D01*
X114484238Y-40108411D02*
X114341381Y-40108411D01*
X114341381Y-40108411D02*
X114246143Y-40156030D01*
X114246143Y-40156030D02*
X114198524Y-40203649D01*
X114198524Y-40203649D02*
X114150905Y-40298887D01*
X114150905Y-40298887D02*
X114150905Y-40536982D01*
X114150905Y-40536982D02*
X114198524Y-40632220D01*
X114198524Y-40632220D02*
X114246143Y-40679840D01*
X114246143Y-40679840D02*
X114341381Y-40727459D01*
X114341381Y-40727459D02*
X114627095Y-40727459D01*
X114627095Y-40727459D02*
X114722333Y-40679840D01*
X114722333Y-40679840D02*
X114769952Y-40632220D01*
X119496858Y-38075543D02*
X119592096Y-38027924D01*
X119592096Y-38027924D02*
X119687334Y-37932686D01*
X119687334Y-37932686D02*
X119830191Y-37789828D01*
X119830191Y-37789828D02*
X119925429Y-37742209D01*
X119925429Y-37742209D02*
X120020667Y-37742209D01*
X119973048Y-37980305D02*
X120068286Y-37932686D01*
X120068286Y-37932686D02*
X120163524Y-37837447D01*
X120163524Y-37837447D02*
X120211143Y-37646971D01*
X120211143Y-37646971D02*
X120211143Y-37313638D01*
X120211143Y-37313638D02*
X120163524Y-37123162D01*
X120163524Y-37123162D02*
X120068286Y-37027924D01*
X120068286Y-37027924D02*
X119973048Y-36980305D01*
X119973048Y-36980305D02*
X119782572Y-36980305D01*
X119782572Y-36980305D02*
X119687334Y-37027924D01*
X119687334Y-37027924D02*
X119592096Y-37123162D01*
X119592096Y-37123162D02*
X119544477Y-37313638D01*
X119544477Y-37313638D02*
X119544477Y-37646971D01*
X119544477Y-37646971D02*
X119592096Y-37837447D01*
X119592096Y-37837447D02*
X119687334Y-37932686D01*
X119687334Y-37932686D02*
X119782572Y-37980305D01*
X119782572Y-37980305D02*
X119973048Y-37980305D01*
X119163524Y-37075543D02*
X119115905Y-37027924D01*
X119115905Y-37027924D02*
X119020667Y-36980305D01*
X119020667Y-36980305D02*
X118782572Y-36980305D01*
X118782572Y-36980305D02*
X118687334Y-37027924D01*
X118687334Y-37027924D02*
X118639715Y-37075543D01*
X118639715Y-37075543D02*
X118592096Y-37170781D01*
X118592096Y-37170781D02*
X118592096Y-37266019D01*
X118592096Y-37266019D02*
X118639715Y-37408876D01*
X118639715Y-37408876D02*
X119211143Y-37980305D01*
X119211143Y-37980305D02*
X118592096Y-37980305D01*
X90701415Y-85240735D02*
X90320462Y-84974068D01*
X90701415Y-84783592D02*
X89901415Y-84783592D01*
X89901415Y-84783592D02*
X89901415Y-85088354D01*
X89901415Y-85088354D02*
X89939510Y-85164544D01*
X89939510Y-85164544D02*
X89977605Y-85202639D01*
X89977605Y-85202639D02*
X90053796Y-85240735D01*
X90053796Y-85240735D02*
X90168081Y-85240735D01*
X90168081Y-85240735D02*
X90244272Y-85202639D01*
X90244272Y-85202639D02*
X90282367Y-85164544D01*
X90282367Y-85164544D02*
X90320462Y-85088354D01*
X90320462Y-85088354D02*
X90320462Y-84783592D01*
X90282367Y-85583592D02*
X90282367Y-85850258D01*
X90701415Y-85964544D02*
X90701415Y-85583592D01*
X90701415Y-85583592D02*
X89901415Y-85583592D01*
X89901415Y-85583592D02*
X89901415Y-85964544D01*
X90663320Y-86269306D02*
X90701415Y-86383592D01*
X90701415Y-86383592D02*
X90701415Y-86574068D01*
X90701415Y-86574068D02*
X90663320Y-86650259D01*
X90663320Y-86650259D02*
X90625224Y-86688354D01*
X90625224Y-86688354D02*
X90549034Y-86726449D01*
X90549034Y-86726449D02*
X90472843Y-86726449D01*
X90472843Y-86726449D02*
X90396653Y-86688354D01*
X90396653Y-86688354D02*
X90358558Y-86650259D01*
X90358558Y-86650259D02*
X90320462Y-86574068D01*
X90320462Y-86574068D02*
X90282367Y-86421687D01*
X90282367Y-86421687D02*
X90244272Y-86345497D01*
X90244272Y-86345497D02*
X90206177Y-86307402D01*
X90206177Y-86307402D02*
X90129986Y-86269306D01*
X90129986Y-86269306D02*
X90053796Y-86269306D01*
X90053796Y-86269306D02*
X89977605Y-86307402D01*
X89977605Y-86307402D02*
X89939510Y-86345497D01*
X89939510Y-86345497D02*
X89901415Y-86421687D01*
X89901415Y-86421687D02*
X89901415Y-86612164D01*
X89901415Y-86612164D02*
X89939510Y-86726449D01*
X90282367Y-87069307D02*
X90282367Y-87335973D01*
X90701415Y-87450259D02*
X90701415Y-87069307D01*
X90701415Y-87069307D02*
X89901415Y-87069307D01*
X89901415Y-87069307D02*
X89901415Y-87450259D01*
X89901415Y-87678831D02*
X89901415Y-88135974D01*
X90701415Y-87907402D02*
X89901415Y-87907402D01*
X111185952Y-45127783D02*
X111519285Y-44651592D01*
X111757380Y-45127783D02*
X111757380Y-44127783D01*
X111757380Y-44127783D02*
X111376428Y-44127783D01*
X111376428Y-44127783D02*
X111281190Y-44175402D01*
X111281190Y-44175402D02*
X111233571Y-44223021D01*
X111233571Y-44223021D02*
X111185952Y-44318259D01*
X111185952Y-44318259D02*
X111185952Y-44461116D01*
X111185952Y-44461116D02*
X111233571Y-44556354D01*
X111233571Y-44556354D02*
X111281190Y-44603973D01*
X111281190Y-44603973D02*
X111376428Y-44651592D01*
X111376428Y-44651592D02*
X111757380Y-44651592D01*
X110804999Y-44223021D02*
X110757380Y-44175402D01*
X110757380Y-44175402D02*
X110662142Y-44127783D01*
X110662142Y-44127783D02*
X110424047Y-44127783D01*
X110424047Y-44127783D02*
X110328809Y-44175402D01*
X110328809Y-44175402D02*
X110281190Y-44223021D01*
X110281190Y-44223021D02*
X110233571Y-44318259D01*
X110233571Y-44318259D02*
X110233571Y-44413497D01*
X110233571Y-44413497D02*
X110281190Y-44556354D01*
X110281190Y-44556354D02*
X110852618Y-45127783D01*
X110852618Y-45127783D02*
X110233571Y-45127783D01*
X111185952Y-41673869D02*
X111519285Y-41197678D01*
X111757380Y-41673869D02*
X111757380Y-40673869D01*
X111757380Y-40673869D02*
X111376428Y-40673869D01*
X111376428Y-40673869D02*
X111281190Y-40721488D01*
X111281190Y-40721488D02*
X111233571Y-40769107D01*
X111233571Y-40769107D02*
X111185952Y-40864345D01*
X111185952Y-40864345D02*
X111185952Y-41007202D01*
X111185952Y-41007202D02*
X111233571Y-41102440D01*
X111233571Y-41102440D02*
X111281190Y-41150059D01*
X111281190Y-41150059D02*
X111376428Y-41197678D01*
X111376428Y-41197678D02*
X111757380Y-41197678D01*
X110233571Y-41673869D02*
X110804999Y-41673869D01*
X110519285Y-41673869D02*
X110519285Y-40673869D01*
X110519285Y-40673869D02*
X110614523Y-40816726D01*
X110614523Y-40816726D02*
X110709761Y-40911964D01*
X110709761Y-40911964D02*
X110804999Y-40959583D01*
X114239177Y-46444901D02*
X114191558Y-46349663D01*
X114191558Y-46349663D02*
X114096320Y-46254425D01*
X114096320Y-46254425D02*
X113953462Y-46111568D01*
X113953462Y-46111568D02*
X113905843Y-46016330D01*
X113905843Y-46016330D02*
X113905843Y-45921092D01*
X114143939Y-45968711D02*
X114096320Y-45873473D01*
X114096320Y-45873473D02*
X114001081Y-45778235D01*
X114001081Y-45778235D02*
X113810605Y-45730616D01*
X113810605Y-45730616D02*
X113477272Y-45730616D01*
X113477272Y-45730616D02*
X113286796Y-45778235D01*
X113286796Y-45778235D02*
X113191558Y-45873473D01*
X113191558Y-45873473D02*
X113143939Y-45968711D01*
X113143939Y-45968711D02*
X113143939Y-46159187D01*
X113143939Y-46159187D02*
X113191558Y-46254425D01*
X113191558Y-46254425D02*
X113286796Y-46349663D01*
X113286796Y-46349663D02*
X113477272Y-46397282D01*
X113477272Y-46397282D02*
X113810605Y-46397282D01*
X113810605Y-46397282D02*
X114001081Y-46349663D01*
X114001081Y-46349663D02*
X114096320Y-46254425D01*
X114096320Y-46254425D02*
X114143939Y-46159187D01*
X114143939Y-46159187D02*
X114143939Y-45968711D01*
X114143939Y-47349663D02*
X114143939Y-46778235D01*
X114143939Y-47063949D02*
X113143939Y-47063949D01*
X113143939Y-47063949D02*
X113286796Y-46968711D01*
X113286796Y-46968711D02*
X113382034Y-46873473D01*
X113382034Y-46873473D02*
X113429653Y-46778235D01*
D11*
X114768999Y-39482640D02*
X115104241Y-39482640D01*
X114768999Y-38722640D02*
X115104241Y-38722640D01*
X120564120Y-38415486D02*
X120324120Y-38085486D01*
X120804120Y-38085486D01*
X120564120Y-38415486D01*
G36*
X120564120Y-38415486D02*
G01*
X120324120Y-38085486D01*
X120804120Y-38085486D01*
X120564120Y-38415486D01*
G37*
X119401620Y-41485486D02*
X120051620Y-41485486D01*
X119401620Y-41485486D02*
X118751620Y-41485486D01*
X119401620Y-38365486D02*
X120051620Y-38365486D01*
X119401620Y-38365486D02*
X118751620Y-38365486D01*
D10*
X90910000Y-37420000D02*
X108690000Y-37420000D01*
X90910000Y-39960000D02*
X93450000Y-39960000D01*
X90910000Y-70440000D02*
X90910000Y-37420000D01*
X90910000Y-70440000D02*
X90910000Y-39960000D01*
X93450000Y-39960000D02*
X93450000Y-70440000D01*
X93450000Y-70440000D02*
X90910000Y-70440000D01*
X106150000Y-39960000D02*
X108690000Y-39960000D01*
X106150000Y-70440000D02*
X106150000Y-39960000D01*
X108690000Y-37420000D02*
X108690000Y-70440000D01*
X108690000Y-39960000D02*
X108690000Y-70440000D01*
X108690000Y-70440000D02*
X106150000Y-70440000D01*
X127955000Y-43527000D02*
X127955000Y-48927000D01*
X127955000Y-48927000D02*
X129455000Y-48927000D01*
X128205000Y-46727000D02*
X128705000Y-45827000D01*
X128705000Y-45827000D02*
X129205000Y-46727000D01*
X129205000Y-45727000D02*
X128205000Y-45727000D01*
X129205000Y-46727000D02*
X128205000Y-46727000D01*
X129455000Y-43527000D02*
X127955000Y-43527000D01*
X129455000Y-48927000D02*
X129455000Y-43527000D01*
X130495000Y-43530000D02*
X130495000Y-48930000D01*
X130495000Y-48930000D02*
X131995000Y-48930000D01*
X130745000Y-46730000D02*
X131245000Y-45830000D01*
X131245000Y-45830000D02*
X131745000Y-46730000D01*
X131745000Y-45730000D02*
X130745000Y-45730000D01*
X131745000Y-46730000D02*
X130745000Y-46730000D01*
X131995000Y-43530000D02*
X130495000Y-43530000D01*
X131995000Y-48930000D02*
X131995000Y-43530000D01*
X149595000Y-41030000D02*
X149595000Y-46430000D01*
X149595000Y-46430000D02*
X151095000Y-46430000D01*
X149845000Y-44230000D02*
X150345000Y-43330000D01*
X150345000Y-43330000D02*
X150845000Y-44230000D01*
X150845000Y-43230000D02*
X149845000Y-43230000D01*
X150845000Y-44230000D02*
X149845000Y-44230000D01*
X151095000Y-41030000D02*
X149595000Y-41030000D01*
X151095000Y-46430000D02*
X151095000Y-41030000D01*
X168595000Y-43530000D02*
X168595000Y-48930000D01*
X168595000Y-48930000D02*
X170095000Y-48930000D01*
X168845000Y-46730000D02*
X169345000Y-45830000D01*
X169345000Y-45830000D02*
X169845000Y-46730000D01*
X169845000Y-45730000D02*
X168845000Y-45730000D01*
X169845000Y-46730000D02*
X168845000Y-46730000D01*
X170095000Y-43530000D02*
X168595000Y-43530000D01*
X170095000Y-48930000D02*
X170095000Y-43530000D01*
X187489100Y-44402600D02*
X187489100Y-49802600D01*
X187489100Y-49802600D02*
X188989100Y-49802600D01*
X187739100Y-47602600D02*
X188239100Y-46702600D01*
X188239100Y-46702600D02*
X188739100Y-47602600D01*
X188739100Y-46602600D02*
X187739100Y-46602600D01*
X188739100Y-47602600D02*
X187739100Y-47602600D01*
X188989100Y-44402600D02*
X187489100Y-44402600D01*
X188989100Y-49802600D02*
X188989100Y-44402600D01*
X206795000Y-48430000D02*
X206795000Y-53830000D01*
X206795000Y-53830000D02*
X208295000Y-53830000D01*
X207045000Y-51630000D02*
X207545000Y-50730000D01*
X207545000Y-50730000D02*
X208045000Y-51630000D01*
X208045000Y-50630000D02*
X207045000Y-50630000D01*
X208045000Y-51630000D02*
X207045000Y-51630000D01*
X208295000Y-48430000D02*
X206795000Y-48430000D01*
X208295000Y-53830000D02*
X208295000Y-48430000D01*
X127955000Y-81630000D02*
X127955000Y-87030000D01*
X127955000Y-87030000D02*
X129455000Y-87030000D01*
X128205000Y-84830000D02*
X128705000Y-83930000D01*
X128705000Y-83930000D02*
X129205000Y-84830000D01*
X129205000Y-83830000D02*
X128205000Y-83830000D01*
X129205000Y-84830000D02*
X128205000Y-84830000D01*
X129455000Y-81630000D02*
X127955000Y-81630000D01*
X129455000Y-87030000D02*
X129455000Y-81630000D01*
X127955000Y-100730000D02*
X127955000Y-106130000D01*
X127955000Y-106130000D02*
X129455000Y-106130000D01*
X128205000Y-103930000D02*
X128705000Y-103030000D01*
X128705000Y-103030000D02*
X129205000Y-103930000D01*
X129205000Y-102930000D02*
X128205000Y-102930000D01*
X129205000Y-103930000D02*
X128205000Y-103930000D01*
X129455000Y-100730000D02*
X127955000Y-100730000D01*
X129455000Y-106130000D02*
X129455000Y-100730000D01*
X104300000Y-96250000D02*
X104300000Y-97750000D01*
X104300000Y-97750000D02*
X109700000Y-97750000D01*
X106500000Y-96500000D02*
X106500000Y-97500000D01*
X106600000Y-97000000D02*
X107500000Y-96500000D01*
X107500000Y-96500000D02*
X107500000Y-97500000D01*
X107500000Y-97500000D02*
X106600000Y-97000000D01*
X109700000Y-96250000D02*
X104300000Y-96250000D01*
X109700000Y-97750000D02*
X109700000Y-96250000D01*
X91293731Y-126051481D02*
X92043731Y-127350519D01*
X92043731Y-127350519D02*
X96720269Y-124650519D01*
X93323987Y-125167987D02*
X94353410Y-125151000D01*
X93823987Y-126034013D02*
X93323987Y-125167987D01*
X94353410Y-125151000D02*
X93823987Y-126034013D01*
X94690013Y-125534013D02*
X94190013Y-124667987D01*
X95970269Y-123351481D02*
X91293731Y-126051481D01*
X96720269Y-124650519D02*
X95970269Y-123351481D01*
D11*
X94029400Y-73270000D02*
X94029400Y-74600000D01*
X95359400Y-73270000D02*
X94029400Y-73270000D01*
X96629400Y-73270000D02*
X96629400Y-75930000D01*
X96629400Y-73270000D02*
X106849400Y-73270000D01*
X96629400Y-75930000D02*
X106849400Y-75930000D01*
X106849400Y-73270000D02*
X106849400Y-75930000D01*
X93489121Y-104952640D02*
X93489121Y-100852640D01*
X93489121Y-113052640D02*
X93489121Y-108952640D01*
X95889121Y-113052640D02*
X93489121Y-113052640D01*
X99389121Y-106452640D02*
X99389121Y-107452640D01*
X99889121Y-106952640D02*
X98889121Y-106952640D01*
X100689121Y-113052640D02*
X98089121Y-113052640D01*
X105289121Y-100852640D02*
X93489121Y-100852640D01*
X105289121Y-104952640D02*
X105289121Y-100852640D01*
X105289121Y-108952640D02*
X105289121Y-113052640D01*
X105289121Y-113052640D02*
X102889121Y-113052640D01*
X102389121Y-106952640D02*
G75*
G02*
X96389121Y-106952640I-3000000J0D01*
G01*
X96389121Y-106952640D02*
G75*
G02*
X102389121Y-106952640I3000000J0D01*
G01*
D10*
X127955000Y-62630000D02*
X127955000Y-68030000D01*
X127955000Y-68030000D02*
X129455000Y-68030000D01*
X128205000Y-65830000D02*
X128705000Y-64930000D01*
X128705000Y-64930000D02*
X129205000Y-65830000D01*
X129205000Y-64830000D02*
X128205000Y-64830000D01*
X129205000Y-65830000D02*
X128205000Y-65830000D01*
X129455000Y-62630000D02*
X127955000Y-62630000D01*
X129455000Y-68030000D02*
X129455000Y-62630000D01*
X130495000Y-62630000D02*
X130495000Y-68030000D01*
X130495000Y-68030000D02*
X131995000Y-68030000D01*
X130745000Y-65830000D02*
X131245000Y-64930000D01*
X131245000Y-64930000D02*
X131745000Y-65830000D01*
X131745000Y-64830000D02*
X130745000Y-64830000D01*
X131745000Y-65830000D02*
X130745000Y-65830000D01*
X131995000Y-62630000D02*
X130495000Y-62630000D01*
X131995000Y-68030000D02*
X131995000Y-62630000D01*
X149595000Y-60120000D02*
X149595000Y-65520000D01*
X149595000Y-65520000D02*
X151095000Y-65520000D01*
X149845000Y-63320000D02*
X150345000Y-62420000D01*
X150345000Y-62420000D02*
X150845000Y-63320000D01*
X150845000Y-62320000D02*
X149845000Y-62320000D01*
X150845000Y-63320000D02*
X149845000Y-63320000D01*
X151095000Y-60120000D02*
X149595000Y-60120000D01*
X151095000Y-65520000D02*
X151095000Y-60120000D01*
X168595000Y-62530000D02*
X168595000Y-67930000D01*
X168595000Y-67930000D02*
X170095000Y-67930000D01*
X168845000Y-65730000D02*
X169345000Y-64830000D01*
X169345000Y-64830000D02*
X169845000Y-65730000D01*
X169845000Y-64730000D02*
X168845000Y-64730000D01*
X169845000Y-65730000D02*
X168845000Y-65730000D01*
X170095000Y-62530000D02*
X168595000Y-62530000D01*
X170095000Y-67930000D02*
X170095000Y-62530000D01*
X187689100Y-64002600D02*
X187689100Y-69402600D01*
X187689100Y-69402600D02*
X189189100Y-69402600D01*
X187939100Y-67202600D02*
X188439100Y-66302600D01*
X188439100Y-66302600D02*
X188939100Y-67202600D01*
X188939100Y-66202600D02*
X187939100Y-66202600D01*
X188939100Y-67202600D02*
X187939100Y-67202600D01*
X189189100Y-64002600D02*
X187689100Y-64002600D01*
X189189100Y-69402600D02*
X189189100Y-64002600D01*
X206695000Y-67330000D02*
X206695000Y-72730000D01*
X206695000Y-72730000D02*
X208195000Y-72730000D01*
X206945000Y-70530000D02*
X207445000Y-69630000D01*
X207445000Y-69630000D02*
X207945000Y-70530000D01*
X207945000Y-69530000D02*
X206945000Y-69530000D01*
X207945000Y-70530000D02*
X206945000Y-70530000D01*
X208195000Y-67330000D02*
X206695000Y-67330000D01*
X208195000Y-72730000D02*
X208195000Y-67330000D01*
X107950744Y-126747115D02*
X109348367Y-131963114D01*
X109020447Y-129773372D02*
X109270472Y-128774630D01*
X109270472Y-128774630D02*
X109986372Y-129514553D01*
X109348367Y-131963114D02*
X110797256Y-131574885D01*
X109399633Y-126358886D02*
X107950744Y-126747115D01*
X109727553Y-128548628D02*
X108761628Y-128807447D01*
X109986372Y-129514553D02*
X109020447Y-129773372D01*
X110797256Y-131574885D02*
X109399633Y-126358886D01*
X149595000Y-79220000D02*
X149595000Y-84620000D01*
X149595000Y-84620000D02*
X151095000Y-84620000D01*
X149845000Y-82420000D02*
X150345000Y-81520000D01*
X150345000Y-81520000D02*
X150845000Y-82420000D01*
X150845000Y-81420000D02*
X149845000Y-81420000D01*
X150845000Y-82420000D02*
X149845000Y-82420000D01*
X151095000Y-79220000D02*
X149595000Y-79220000D01*
X151095000Y-84620000D02*
X151095000Y-79220000D01*
X168089100Y-79502600D02*
X168089100Y-84902600D01*
X168089100Y-84902600D02*
X169589100Y-84902600D01*
X168339100Y-82702600D02*
X168839100Y-81802600D01*
X168839100Y-81802600D02*
X169339100Y-82702600D01*
X169339100Y-81702600D02*
X168339100Y-81702600D01*
X169339100Y-82702600D02*
X168339100Y-82702600D01*
X169589100Y-79502600D02*
X168089100Y-79502600D01*
X169589100Y-84902600D02*
X169589100Y-79502600D01*
X187389100Y-82002600D02*
X187389100Y-87402600D01*
X187389100Y-87402600D02*
X188889100Y-87402600D01*
X187639100Y-85202600D02*
X188139100Y-84302600D01*
X188139100Y-84302600D02*
X188639100Y-85202600D01*
X188639100Y-84202600D02*
X187639100Y-84202600D01*
X188639100Y-85202600D02*
X187639100Y-85202600D01*
X188889100Y-82002600D02*
X187389100Y-82002600D01*
X188889100Y-87402600D02*
X188889100Y-82002600D01*
X206695000Y-86530000D02*
X206695000Y-91930000D01*
X206695000Y-91930000D02*
X208195000Y-91930000D01*
X206945000Y-89730000D02*
X207445000Y-88830000D01*
X207445000Y-88830000D02*
X207945000Y-89730000D01*
X207945000Y-88730000D02*
X206945000Y-88730000D01*
X207945000Y-89730000D02*
X206945000Y-89730000D01*
X208195000Y-86530000D02*
X206695000Y-86530000D01*
X208195000Y-91930000D02*
X208195000Y-86530000D01*
X130495000Y-119730000D02*
X130495000Y-125130000D01*
X130495000Y-125130000D02*
X131995000Y-125130000D01*
X130745000Y-122930000D02*
X131245000Y-122030000D01*
X131245000Y-122030000D02*
X131745000Y-122930000D01*
X131745000Y-121930000D02*
X130745000Y-121930000D01*
X131745000Y-122930000D02*
X130745000Y-122930000D01*
X131995000Y-119730000D02*
X130495000Y-119730000D01*
X131995000Y-125130000D02*
X131995000Y-119730000D01*
X149595000Y-117320000D02*
X149595000Y-122720000D01*
X149595000Y-122720000D02*
X151095000Y-122720000D01*
X149845000Y-120520000D02*
X150345000Y-119620000D01*
X150345000Y-119620000D02*
X150845000Y-120520000D01*
X150845000Y-119520000D02*
X149845000Y-119520000D01*
X150845000Y-120520000D02*
X149845000Y-120520000D01*
X151095000Y-117320000D02*
X149595000Y-117320000D01*
X151095000Y-122720000D02*
X151095000Y-117320000D01*
X206745000Y-105530000D02*
X206745000Y-110930000D01*
X206745000Y-110930000D02*
X208245000Y-110930000D01*
X206995000Y-108730000D02*
X207495000Y-107830000D01*
X207495000Y-107830000D02*
X207995000Y-108730000D01*
X207995000Y-107730000D02*
X206995000Y-107730000D01*
X207995000Y-108730000D02*
X206995000Y-108730000D01*
X208245000Y-105530000D02*
X206745000Y-105530000D01*
X208245000Y-110930000D02*
X208245000Y-105530000D01*
X130495000Y-100730000D02*
X130495000Y-106130000D01*
X130495000Y-106130000D02*
X131995000Y-106130000D01*
X130745000Y-103930000D02*
X131245000Y-103030000D01*
X131245000Y-103030000D02*
X131745000Y-103930000D01*
X131745000Y-102930000D02*
X130745000Y-102930000D01*
X131745000Y-103930000D02*
X130745000Y-103930000D01*
X131995000Y-100730000D02*
X130495000Y-100730000D01*
X131995000Y-106130000D02*
X131995000Y-100730000D01*
X149595000Y-98220000D02*
X149595000Y-103620000D01*
X149595000Y-103620000D02*
X151095000Y-103620000D01*
X149845000Y-101420000D02*
X150345000Y-100520000D01*
X150345000Y-100520000D02*
X150845000Y-101420000D01*
X150845000Y-100420000D02*
X149845000Y-100420000D01*
X150845000Y-101420000D02*
X149845000Y-101420000D01*
X151095000Y-98220000D02*
X149595000Y-98220000D01*
X151095000Y-103620000D02*
X151095000Y-98220000D01*
X167889100Y-98602600D02*
X167889100Y-104002600D01*
X167889100Y-104002600D02*
X169389100Y-104002600D01*
X168139100Y-101802600D02*
X168639100Y-100902600D01*
X168639100Y-100902600D02*
X169139100Y-101802600D01*
X169139100Y-100802600D02*
X168139100Y-100802600D01*
X169139100Y-101802600D02*
X168139100Y-101802600D01*
X169389100Y-98602600D02*
X167889100Y-98602600D01*
X169389100Y-104002600D02*
X169389100Y-98602600D01*
X187389100Y-101202600D02*
X187389100Y-106602600D01*
X187389100Y-106602600D02*
X188889100Y-106602600D01*
X187639100Y-104402600D02*
X188139100Y-103502600D01*
X188139100Y-103502600D02*
X188639100Y-104402600D01*
X188639100Y-103402600D02*
X187639100Y-103402600D01*
X188639100Y-104402600D02*
X187639100Y-104402600D01*
X188889100Y-101202600D02*
X187389100Y-101202600D01*
X188889100Y-106602600D02*
X188889100Y-101202600D01*
X130495000Y-81630000D02*
X130495000Y-87030000D01*
X130495000Y-87030000D02*
X131995000Y-87030000D01*
X130745000Y-84830000D02*
X131245000Y-83930000D01*
X131245000Y-83930000D02*
X131745000Y-84830000D01*
X131745000Y-83830000D02*
X130745000Y-83830000D01*
X131745000Y-84830000D02*
X130745000Y-84830000D01*
X131995000Y-81630000D02*
X130495000Y-81630000D01*
X131995000Y-87030000D02*
X131995000Y-81630000D01*
X168489100Y-117402600D02*
X168489100Y-122802600D01*
X168489100Y-122802600D02*
X169989100Y-122802600D01*
X168739100Y-120602600D02*
X169239100Y-119702600D01*
X169239100Y-119702600D02*
X169739100Y-120602600D01*
X169739100Y-119602600D02*
X168739100Y-119602600D01*
X169739100Y-120602600D02*
X168739100Y-120602600D01*
X169989100Y-117402600D02*
X168489100Y-117402600D01*
X169989100Y-122802600D02*
X169989100Y-117402600D01*
X173100000Y-126699999D02*
X173100000Y-127699999D01*
X173100000Y-127699999D02*
X173300000Y-127699999D01*
X173100000Y-129949999D02*
X173100000Y-130299999D01*
X173100000Y-130299999D02*
X181500001Y-130299999D01*
D12*
X173300000Y-127599999D02*
X173300000Y-126899999D01*
D10*
X173300000Y-129949999D02*
X173100000Y-129949999D01*
D12*
X173300000Y-130099999D02*
X174700000Y-130099999D01*
D10*
X173320000Y-127699999D02*
X173320000Y-129949999D01*
D13*
X173400000Y-126999999D02*
X174800000Y-126999999D01*
D14*
X173800000Y-129699999D02*
X173800000Y-127199999D01*
D15*
X175100000Y-128499999D02*
X181800000Y-128499999D01*
D10*
X178100000Y-126699999D02*
X173100000Y-126699999D01*
D16*
X179070600Y-118349999D02*
X181120600Y-118349999D01*
X179070600Y-119799999D02*
X179070600Y-118349999D01*
X181120600Y-118349999D02*
X181120600Y-119799999D01*
X181120600Y-119799999D02*
X179070600Y-119799999D01*
D17*
X181870000Y-128799999D02*
X181870000Y-126559999D01*
D18*
X183000000Y-125299999D02*
X183000000Y-127099998D01*
D10*
X183370000Y-127399999D02*
X183370000Y-125159999D01*
D13*
X183400000Y-124999999D02*
X180700000Y-124999999D01*
D10*
X183400000Y-125159999D02*
X183600000Y-125159999D01*
D16*
X183500000Y-127500000D02*
X183500000Y-128399999D01*
D10*
X183600000Y-124799999D02*
X180320000Y-124799999D01*
X183600000Y-124799999D02*
X183600000Y-125159999D01*
X183600000Y-127399999D02*
X183400000Y-127399999D01*
X183600000Y-128399999D02*
X183600000Y-127399999D01*
X180316318Y-124821470D02*
G75*
G02*
X178100000Y-126699999I-2151317J291470D01*
G01*
D14*
X180716318Y-125221470D02*
G75*
G02*
X178500000Y-127099999I-2151317J291470D01*
G01*
D10*
X183600000Y-128399998D02*
G75*
G02*
X181500001Y-130300000I-1999999J99997D01*
G01*
X173100000Y-69552640D02*
X173100000Y-70552640D01*
X173100000Y-70552640D02*
X173300000Y-70552640D01*
X173100000Y-72802640D02*
X173100000Y-73152640D01*
X173100000Y-73152640D02*
X181500001Y-73152640D01*
D12*
X173300000Y-70452640D02*
X173300000Y-69752640D01*
D10*
X173300000Y-72802640D02*
X173100000Y-72802640D01*
D12*
X173300000Y-72952640D02*
X174700000Y-72952640D01*
D10*
X173320000Y-70552640D02*
X173320000Y-72802640D01*
D13*
X173400000Y-69852640D02*
X174800000Y-69852640D01*
D14*
X173800000Y-72552640D02*
X173800000Y-70052640D01*
D15*
X175100000Y-71352640D02*
X181800000Y-71352640D01*
D10*
X178100000Y-69552640D02*
X173100000Y-69552640D01*
D16*
X179070600Y-61202640D02*
X181120600Y-61202640D01*
X179070600Y-62652640D02*
X179070600Y-61202640D01*
X181120600Y-61202640D02*
X181120600Y-62652640D01*
X181120600Y-62652640D02*
X179070600Y-62652640D01*
D17*
X181870000Y-71652640D02*
X181870000Y-69412640D01*
D18*
X183000000Y-68152640D02*
X183000000Y-69952639D01*
D10*
X183370000Y-70252640D02*
X183370000Y-68012640D01*
D13*
X183400000Y-67852640D02*
X180700000Y-67852640D01*
D10*
X183400000Y-68012640D02*
X183600000Y-68012640D01*
D16*
X183500000Y-70352641D02*
X183500000Y-71252640D01*
D10*
X183600000Y-67652640D02*
X180320000Y-67652640D01*
X183600000Y-67652640D02*
X183600000Y-68012640D01*
X183600000Y-70252640D02*
X183400000Y-70252640D01*
X183600000Y-71252640D02*
X183600000Y-70252640D01*
X180316318Y-67674111D02*
G75*
G02*
X178100000Y-69552640I-2151317J291470D01*
G01*
D14*
X180716318Y-68074111D02*
G75*
G02*
X178500000Y-69952640I-2151317J291470D01*
G01*
D10*
X183600000Y-71252639D02*
G75*
G02*
X181500001Y-73152641I-1999999J99997D01*
G01*
X211200000Y-74449999D02*
X211200000Y-75449999D01*
X211200000Y-75449999D02*
X211400000Y-75449999D01*
X211200000Y-77699999D02*
X211200000Y-78049999D01*
X211200000Y-78049999D02*
X219600001Y-78049999D01*
D12*
X211400000Y-75349999D02*
X211400000Y-74649999D01*
D10*
X211400000Y-77699999D02*
X211200000Y-77699999D01*
D12*
X211400000Y-77849999D02*
X212800000Y-77849999D01*
D10*
X211420000Y-75449999D02*
X211420000Y-77699999D01*
D13*
X211500000Y-74749999D02*
X212900000Y-74749999D01*
D14*
X211900000Y-77449999D02*
X211900000Y-74949999D01*
D15*
X213200000Y-76249999D02*
X219900000Y-76249999D01*
D10*
X216200000Y-74449999D02*
X211200000Y-74449999D01*
D16*
X217170600Y-66099999D02*
X219220600Y-66099999D01*
X217170600Y-67549999D02*
X217170600Y-66099999D01*
X219220600Y-66099999D02*
X219220600Y-67549999D01*
X219220600Y-67549999D02*
X217170600Y-67549999D01*
D17*
X219970000Y-76549999D02*
X219970000Y-74309999D01*
D18*
X221100000Y-73049999D02*
X221100000Y-74849998D01*
D10*
X221470000Y-75149999D02*
X221470000Y-72909999D01*
D13*
X221500000Y-72749999D02*
X218800000Y-72749999D01*
D10*
X221500000Y-72909999D02*
X221700000Y-72909999D01*
D16*
X221600000Y-75250000D02*
X221600000Y-76149999D01*
D10*
X221700000Y-72549999D02*
X218420000Y-72549999D01*
X221700000Y-72549999D02*
X221700000Y-72909999D01*
X221700000Y-75149999D02*
X221500000Y-75149999D01*
X221700000Y-76149999D02*
X221700000Y-75149999D01*
X218416318Y-72571470D02*
G75*
G02*
X216200000Y-74449999I-2151317J291470D01*
G01*
D14*
X218816318Y-72971470D02*
G75*
G02*
X216600000Y-74849999I-2151317J291470D01*
G01*
D10*
X221700000Y-76149998D02*
G75*
G02*
X219600001Y-78050000I-1999999J99997D01*
G01*
X173100000Y-88600000D02*
X173100000Y-89600000D01*
X173100000Y-89600000D02*
X173300000Y-89600000D01*
X173100000Y-91850000D02*
X173100000Y-92200000D01*
X173100000Y-92200000D02*
X181500001Y-92200000D01*
D12*
X173300000Y-89500000D02*
X173300000Y-88800000D01*
D10*
X173300000Y-91850000D02*
X173100000Y-91850000D01*
D12*
X173300000Y-92000000D02*
X174700000Y-92000000D01*
D10*
X173320000Y-89600000D02*
X173320000Y-91850000D01*
D13*
X173400000Y-88900000D02*
X174800000Y-88900000D01*
D14*
X173800000Y-91600000D02*
X173800000Y-89100000D01*
D15*
X175100000Y-90400000D02*
X181800000Y-90400000D01*
D10*
X178100000Y-88600000D02*
X173100000Y-88600000D01*
D16*
X179070600Y-80250000D02*
X181120600Y-80250000D01*
X179070600Y-81700000D02*
X179070600Y-80250000D01*
X181120600Y-80250000D02*
X181120600Y-81700000D01*
X181120600Y-81700000D02*
X179070600Y-81700000D01*
D17*
X181870000Y-90700000D02*
X181870000Y-88460000D01*
D18*
X183000000Y-87200000D02*
X183000000Y-88999999D01*
D10*
X183370000Y-89300000D02*
X183370000Y-87060000D01*
D13*
X183400000Y-86900000D02*
X180700000Y-86900000D01*
D10*
X183400000Y-87060000D02*
X183600000Y-87060000D01*
D16*
X183500000Y-89400001D02*
X183500000Y-90300000D01*
D10*
X183600000Y-86700000D02*
X180320000Y-86700000D01*
X183600000Y-86700000D02*
X183600000Y-87060000D01*
X183600000Y-89300000D02*
X183400000Y-89300000D01*
X183600000Y-90300000D02*
X183600000Y-89300000D01*
X180316318Y-86721471D02*
G75*
G02*
X178100000Y-88600000I-2151317J291470D01*
G01*
D14*
X180716318Y-87121471D02*
G75*
G02*
X178500000Y-89000000I-2151317J291470D01*
G01*
D10*
X183600000Y-90299999D02*
G75*
G02*
X181500001Y-92200001I-1999999J99997D01*
G01*
X211200000Y-93499999D02*
X211200000Y-94499999D01*
X211200000Y-94499999D02*
X211400000Y-94499999D01*
X211200000Y-96749999D02*
X211200000Y-97099999D01*
X211200000Y-97099999D02*
X219600001Y-97099999D01*
D12*
X211400000Y-94399999D02*
X211400000Y-93699999D01*
D10*
X211400000Y-96749999D02*
X211200000Y-96749999D01*
D12*
X211400000Y-96899999D02*
X212800000Y-96899999D01*
D10*
X211420000Y-94499999D02*
X211420000Y-96749999D01*
D13*
X211500000Y-93799999D02*
X212900000Y-93799999D01*
D14*
X211900000Y-96499999D02*
X211900000Y-93999999D01*
D15*
X213200000Y-95299999D02*
X219900000Y-95299999D01*
D10*
X216200000Y-93499999D02*
X211200000Y-93499999D01*
D16*
X217170600Y-85149999D02*
X219220600Y-85149999D01*
X217170600Y-86599999D02*
X217170600Y-85149999D01*
X219220600Y-85149999D02*
X219220600Y-86599999D01*
X219220600Y-86599999D02*
X217170600Y-86599999D01*
D17*
X219970000Y-95599999D02*
X219970000Y-93359999D01*
D18*
X221100000Y-92099999D02*
X221100000Y-93899998D01*
D10*
X221470000Y-94199999D02*
X221470000Y-91959999D01*
D13*
X221500000Y-91799999D02*
X218800000Y-91799999D01*
D10*
X221500000Y-91959999D02*
X221700000Y-91959999D01*
D16*
X221600000Y-94300000D02*
X221600000Y-95199999D01*
D10*
X221700000Y-91599999D02*
X218420000Y-91599999D01*
X221700000Y-91599999D02*
X221700000Y-91959999D01*
X221700000Y-94199999D02*
X221500000Y-94199999D01*
X221700000Y-95199999D02*
X221700000Y-94199999D01*
X218416318Y-91621470D02*
G75*
G02*
X216200000Y-93499999I-2151317J291470D01*
G01*
D14*
X218816318Y-92021470D02*
G75*
G02*
X216600000Y-93899999I-2151317J291470D01*
G01*
D10*
X221700000Y-95199998D02*
G75*
G02*
X219600001Y-97100000I-1999999J99997D01*
G01*
X211200000Y-112550000D02*
X211200000Y-113550000D01*
X211200000Y-113550000D02*
X211400000Y-113550000D01*
X211200000Y-115800000D02*
X211200000Y-116150000D01*
X211200000Y-116150000D02*
X219600001Y-116150000D01*
D12*
X211400000Y-113450000D02*
X211400000Y-112750000D01*
D10*
X211400000Y-115800000D02*
X211200000Y-115800000D01*
D12*
X211400000Y-115950000D02*
X212800000Y-115950000D01*
D10*
X211420000Y-113550000D02*
X211420000Y-115800000D01*
D13*
X211500000Y-112850000D02*
X212900000Y-112850000D01*
D14*
X211900000Y-115550000D02*
X211900000Y-113050000D01*
D15*
X213200000Y-114350000D02*
X219900000Y-114350000D01*
D10*
X216200000Y-112550000D02*
X211200000Y-112550000D01*
D16*
X217170600Y-104200000D02*
X219220600Y-104200000D01*
X217170600Y-105650000D02*
X217170600Y-104200000D01*
X219220600Y-104200000D02*
X219220600Y-105650000D01*
X219220600Y-105650000D02*
X217170600Y-105650000D01*
D17*
X219970000Y-114650000D02*
X219970000Y-112410000D01*
D18*
X221100000Y-111150000D02*
X221100000Y-112949999D01*
D10*
X221470000Y-113250000D02*
X221470000Y-111010000D01*
D13*
X221500000Y-110850000D02*
X218800000Y-110850000D01*
D10*
X221500000Y-111010000D02*
X221700000Y-111010000D01*
D16*
X221600000Y-113350001D02*
X221600000Y-114250000D01*
D10*
X221700000Y-110650000D02*
X218420000Y-110650000D01*
X221700000Y-110650000D02*
X221700000Y-111010000D01*
X221700000Y-113250000D02*
X221500000Y-113250000D01*
X221700000Y-114250000D02*
X221700000Y-113250000D01*
X218416318Y-110671471D02*
G75*
G02*
X216200000Y-112550000I-2151317J291470D01*
G01*
D14*
X218816318Y-111071471D02*
G75*
G02*
X216600000Y-112950000I-2151317J291470D01*
G01*
D10*
X221700000Y-114249999D02*
G75*
G02*
X219600001Y-116150001I-1999999J99997D01*
G01*
X115950000Y-91100000D02*
X115950000Y-92100000D01*
X115950000Y-92100000D02*
X116150000Y-92100000D01*
X115950000Y-94350000D02*
X115950000Y-94700000D01*
X115950000Y-94700000D02*
X124350001Y-94700000D01*
D12*
X116150000Y-92000000D02*
X116150000Y-91300000D01*
D10*
X116150000Y-94350000D02*
X115950000Y-94350000D01*
D12*
X116150000Y-94500000D02*
X117550000Y-94500000D01*
D10*
X116170000Y-92100000D02*
X116170000Y-94350000D01*
D13*
X116250000Y-91400000D02*
X117650000Y-91400000D01*
D14*
X116650000Y-94100000D02*
X116650000Y-91600000D01*
D15*
X117950000Y-92900000D02*
X124650000Y-92900000D01*
D10*
X120950000Y-91100000D02*
X115950000Y-91100000D01*
D16*
X121920600Y-82750000D02*
X123970600Y-82750000D01*
X121920600Y-84200000D02*
X121920600Y-82750000D01*
X123970600Y-82750000D02*
X123970600Y-84200000D01*
X123970600Y-84200000D02*
X121920600Y-84200000D01*
D17*
X124720000Y-93200000D02*
X124720000Y-90960000D01*
D18*
X125850000Y-89700000D02*
X125850000Y-91499999D01*
D10*
X126220000Y-91800000D02*
X126220000Y-89560000D01*
D13*
X126250000Y-89400000D02*
X123550000Y-89400000D01*
D10*
X126250000Y-89560000D02*
X126450000Y-89560000D01*
D16*
X126350000Y-91900001D02*
X126350000Y-92800000D01*
D10*
X126450000Y-89200000D02*
X123170000Y-89200000D01*
X126450000Y-89200000D02*
X126450000Y-89560000D01*
X126450000Y-91800000D02*
X126250000Y-91800000D01*
X126450000Y-92800000D02*
X126450000Y-91800000D01*
X123166318Y-89221471D02*
G75*
G02*
X120950000Y-91100000I-2151317J291470D01*
G01*
D14*
X123566318Y-89621471D02*
G75*
G02*
X121350000Y-91500000I-2151317J291470D01*
G01*
D10*
X126450000Y-92799999D02*
G75*
G02*
X124350001Y-94700001I-1999999J99997D01*
G01*
X192150000Y-55400000D02*
X192150000Y-56400000D01*
X192150000Y-56400000D02*
X192350000Y-56400000D01*
X192150000Y-58650000D02*
X192150000Y-59000000D01*
X192150000Y-59000000D02*
X200550001Y-59000000D01*
D12*
X192350000Y-56300000D02*
X192350000Y-55600000D01*
D10*
X192350000Y-58650000D02*
X192150000Y-58650000D01*
D12*
X192350000Y-58800000D02*
X193750000Y-58800000D01*
D10*
X192370000Y-56400000D02*
X192370000Y-58650000D01*
D13*
X192450000Y-55700000D02*
X193850000Y-55700000D01*
D14*
X192850000Y-58400000D02*
X192850000Y-55900000D01*
D15*
X194150000Y-57200000D02*
X200850000Y-57200000D01*
D10*
X197150000Y-55400000D02*
X192150000Y-55400000D01*
D16*
X198120600Y-47050000D02*
X200170600Y-47050000D01*
X198120600Y-48500000D02*
X198120600Y-47050000D01*
X200170600Y-47050000D02*
X200170600Y-48500000D01*
X200170600Y-48500000D02*
X198120600Y-48500000D01*
D17*
X200920000Y-57500000D02*
X200920000Y-55260000D01*
D18*
X202050000Y-54000000D02*
X202050000Y-55799999D01*
D10*
X202420000Y-56100000D02*
X202420000Y-53860000D01*
D13*
X202450000Y-53700000D02*
X199750000Y-53700000D01*
D10*
X202450000Y-53860000D02*
X202650000Y-53860000D01*
D16*
X202550000Y-56200001D02*
X202550000Y-57100000D01*
D10*
X202650000Y-53500000D02*
X199370000Y-53500000D01*
X202650000Y-53500000D02*
X202650000Y-53860000D01*
X202650000Y-56100000D02*
X202450000Y-56100000D01*
X202650000Y-57100000D02*
X202650000Y-56100000D01*
X199366318Y-53521471D02*
G75*
G02*
X197150000Y-55400000I-2151317J291470D01*
G01*
D14*
X199766318Y-53921471D02*
G75*
G02*
X197550000Y-55800000I-2151317J291470D01*
G01*
D10*
X202650000Y-57099999D02*
G75*
G02*
X200550001Y-59000001I-1999999J99997D01*
G01*
X192150000Y-93500000D02*
X192150000Y-94500000D01*
X192150000Y-94500000D02*
X192350000Y-94500000D01*
X192150000Y-96750000D02*
X192150000Y-97100000D01*
X192150000Y-97100000D02*
X200550001Y-97100000D01*
D12*
X192350000Y-94400000D02*
X192350000Y-93700000D01*
D10*
X192350000Y-96750000D02*
X192150000Y-96750000D01*
D12*
X192350000Y-96900000D02*
X193750000Y-96900000D01*
D10*
X192370000Y-94500000D02*
X192370000Y-96750000D01*
D13*
X192450000Y-93800000D02*
X193850000Y-93800000D01*
D14*
X192850000Y-96500000D02*
X192850000Y-94000000D01*
D15*
X194150000Y-95300000D02*
X200850000Y-95300000D01*
D10*
X197150000Y-93500000D02*
X192150000Y-93500000D01*
D16*
X198120600Y-85150000D02*
X200170600Y-85150000D01*
X198120600Y-86600000D02*
X198120600Y-85150000D01*
X200170600Y-85150000D02*
X200170600Y-86600000D01*
X200170600Y-86600000D02*
X198120600Y-86600000D01*
D17*
X200920000Y-95600000D02*
X200920000Y-93360000D01*
D18*
X202050000Y-92100000D02*
X202050000Y-93899999D01*
D10*
X202420000Y-94200000D02*
X202420000Y-91960000D01*
D13*
X202450000Y-91800000D02*
X199750000Y-91800000D01*
D10*
X202450000Y-91960000D02*
X202650000Y-91960000D01*
D16*
X202550000Y-94300001D02*
X202550000Y-95200000D01*
D10*
X202650000Y-91600000D02*
X199370000Y-91600000D01*
X202650000Y-91600000D02*
X202650000Y-91960000D01*
X202650000Y-94200000D02*
X202450000Y-94200000D01*
X202650000Y-95200000D02*
X202650000Y-94200000D01*
X199366318Y-91621471D02*
G75*
G02*
X197150000Y-93500000I-2151317J291470D01*
G01*
D14*
X199766318Y-92021471D02*
G75*
G02*
X197550000Y-93900000I-2151317J291470D01*
G01*
D10*
X202650000Y-95199999D02*
G75*
G02*
X200550001Y-97100001I-1999999J99997D01*
G01*
X88695436Y-132718923D02*
X92895437Y-139993537D01*
D12*
X88968641Y-132792128D02*
X89668641Y-134004564D01*
D10*
X88998545Y-132543923D02*
X88695436Y-132718923D01*
X89098545Y-132717128D02*
X88998545Y-132543923D01*
D14*
X89565052Y-133025141D02*
X91730115Y-131775141D01*
D10*
X90947102Y-131418923D02*
X91047102Y-131592128D01*
X91057102Y-131609449D02*
X89108545Y-132734449D01*
D12*
X91133705Y-131542128D02*
X91739923Y-131192128D01*
D15*
X91254282Y-133550974D02*
X94604282Y-139353344D01*
D13*
X91703320Y-131328731D02*
X92403320Y-132541166D01*
D10*
X91813128Y-130918923D02*
X90947102Y-131418923D01*
X94313128Y-135249050D02*
X91813128Y-130918923D01*
D17*
X94379474Y-139563966D02*
X96319371Y-138443966D01*
D10*
X95590885Y-140862190D02*
X96456910Y-140362190D01*
D16*
X96320307Y-140325588D02*
X95540885Y-140775587D01*
D10*
X96341910Y-140163004D02*
X98281807Y-139043004D01*
X96456910Y-140362190D02*
X96356910Y-140188985D01*
D18*
X97975563Y-138792575D02*
X96416718Y-139692574D01*
D10*
X98296807Y-139068985D02*
X98396807Y-139242190D01*
D13*
X98435371Y-138988985D02*
X97085371Y-136650716D01*
D10*
X98708576Y-139062190D02*
X97068576Y-136221627D01*
X98708576Y-139062190D02*
X98396807Y-139242190D01*
D16*
X100774003Y-132639614D02*
X102029740Y-131914614D01*
X101799003Y-134414966D02*
X100774003Y-132639614D01*
X102029740Y-131914614D02*
X103054740Y-133689966D01*
X103054740Y-133689966D02*
X101799003Y-134414966D01*
D10*
X95590885Y-140862190D02*
G75*
G02*
X92895436Y-139993537I-913398J1782051D01*
G01*
D14*
X96901731Y-136775584D02*
G75*
G02*
X94166718Y-135795460I-823239J2008828D01*
G01*
D10*
X97048141Y-136229173D02*
G75*
G02*
X94313129Y-135249050I-823238J2008830D01*
G01*
X192150000Y-112550000D02*
X192150000Y-113550000D01*
X192150000Y-113550000D02*
X192350000Y-113550000D01*
X192150000Y-115800000D02*
X192150000Y-116150000D01*
X192150000Y-116150000D02*
X200550001Y-116150000D01*
D12*
X192350000Y-113450000D02*
X192350000Y-112750000D01*
D10*
X192350000Y-115800000D02*
X192150000Y-115800000D01*
D12*
X192350000Y-115950000D02*
X193750000Y-115950000D01*
D10*
X192370000Y-113550000D02*
X192370000Y-115800000D01*
D13*
X192450000Y-112850000D02*
X193850000Y-112850000D01*
D14*
X192850000Y-115550000D02*
X192850000Y-113050000D01*
D15*
X194150000Y-114350000D02*
X200850000Y-114350000D01*
D10*
X197150000Y-112550000D02*
X192150000Y-112550000D01*
D16*
X198120600Y-104200000D02*
X200170600Y-104200000D01*
X198120600Y-105650000D02*
X198120600Y-104200000D01*
X200170600Y-104200000D02*
X200170600Y-105650000D01*
X200170600Y-105650000D02*
X198120600Y-105650000D01*
D17*
X200920000Y-114650000D02*
X200920000Y-112410000D01*
D18*
X202050000Y-111150000D02*
X202050000Y-112949999D01*
D10*
X202420000Y-113250000D02*
X202420000Y-111010000D01*
D13*
X202450000Y-110850000D02*
X199750000Y-110850000D01*
D10*
X202450000Y-111010000D02*
X202650000Y-111010000D01*
D16*
X202550000Y-113350001D02*
X202550000Y-114250000D01*
D10*
X202650000Y-110650000D02*
X199370000Y-110650000D01*
X202650000Y-110650000D02*
X202650000Y-111010000D01*
X202650000Y-113250000D02*
X202450000Y-113250000D01*
X202650000Y-114250000D02*
X202650000Y-113250000D01*
X199366318Y-110671471D02*
G75*
G02*
X197150000Y-112550000I-2151317J291470D01*
G01*
D14*
X199766318Y-111071471D02*
G75*
G02*
X197550000Y-112950000I-2151317J291470D01*
G01*
D10*
X202650000Y-114249999D02*
G75*
G02*
X200550001Y-116150001I-1999999J99997D01*
G01*
D11*
X93179100Y-77542600D02*
X100999100Y-77542600D01*
X93179100Y-78462600D02*
X93179100Y-77542600D01*
X93179100Y-82742600D02*
X94779100Y-82742600D01*
X93179100Y-83662600D02*
X93179100Y-82742600D01*
X94779100Y-77542600D02*
X94779100Y-78462600D01*
X94779100Y-78462600D02*
X93179100Y-78462600D01*
X94779100Y-78742600D02*
X93564100Y-78742600D01*
X94779100Y-78742600D02*
X94779100Y-78462600D01*
X94779100Y-82742600D02*
X94779100Y-82462600D01*
X94779100Y-83662600D02*
X94779100Y-82742600D01*
X96639100Y-80102600D02*
X96639100Y-81102600D01*
X96639100Y-81102600D02*
X100999100Y-81102600D01*
X97139100Y-78302600D02*
X98739100Y-78302600D01*
X97139100Y-79302600D02*
X97139100Y-78302600D01*
X97139100Y-81902600D02*
X97139100Y-82902600D01*
X97139100Y-82902600D02*
X98739100Y-82902600D01*
X98739100Y-78302600D02*
X98739100Y-79302600D01*
X98739100Y-79302600D02*
X97139100Y-79302600D01*
X98739100Y-81902600D02*
X97139100Y-81902600D01*
X98739100Y-81902600D02*
X100999100Y-81902600D01*
X98739100Y-82402600D02*
X100999100Y-82402600D01*
X98739100Y-82902600D02*
X98739100Y-81902600D01*
X100999100Y-77542600D02*
X100999100Y-83662600D01*
X100999100Y-80102600D02*
X96639100Y-80102600D01*
X100999100Y-83662600D02*
X93179100Y-83662600D01*
D10*
X115950000Y-110150000D02*
X115950000Y-111150000D01*
X115950000Y-111150000D02*
X116150000Y-111150000D01*
X115950000Y-113400000D02*
X115950000Y-113750000D01*
X115950000Y-113750000D02*
X124350001Y-113750000D01*
D12*
X116150000Y-111050000D02*
X116150000Y-110350000D01*
D10*
X116150000Y-113400000D02*
X115950000Y-113400000D01*
D12*
X116150000Y-113550000D02*
X117550000Y-113550000D01*
D10*
X116170000Y-111150000D02*
X116170000Y-113400000D01*
D13*
X116250000Y-110450000D02*
X117650000Y-110450000D01*
D14*
X116650000Y-113150000D02*
X116650000Y-110650000D01*
D15*
X117950000Y-111950000D02*
X124650000Y-111950000D01*
D10*
X120950000Y-110150000D02*
X115950000Y-110150000D01*
D16*
X121920600Y-101800000D02*
X123970600Y-101800000D01*
X121920600Y-103250000D02*
X121920600Y-101800000D01*
X123970600Y-101800000D02*
X123970600Y-103250000D01*
X123970600Y-103250000D02*
X121920600Y-103250000D01*
D17*
X124720000Y-112250000D02*
X124720000Y-110010000D01*
D18*
X125850000Y-108750000D02*
X125850000Y-110549999D01*
D10*
X126220000Y-110850000D02*
X126220000Y-108610000D01*
D13*
X126250000Y-108450000D02*
X123550000Y-108450000D01*
D10*
X126250000Y-108610000D02*
X126450000Y-108610000D01*
D16*
X126350000Y-110950001D02*
X126350000Y-111850000D01*
D10*
X126450000Y-108250000D02*
X123170000Y-108250000D01*
X126450000Y-108250000D02*
X126450000Y-108610000D01*
X126450000Y-110850000D02*
X126250000Y-110850000D01*
X126450000Y-111850000D02*
X126450000Y-110850000D01*
X123166318Y-108271471D02*
G75*
G02*
X120950000Y-110150000I-2151317J291470D01*
G01*
D14*
X123566318Y-108671471D02*
G75*
G02*
X121350000Y-110550000I-2151317J291470D01*
G01*
D10*
X126450000Y-111849999D02*
G75*
G02*
X124350001Y-113750001I-1999999J99997D01*
G01*
X115950000Y-72100000D02*
X115950000Y-73100000D01*
X115950000Y-73100000D02*
X116150000Y-73100000D01*
X115950000Y-75350000D02*
X115950000Y-75700000D01*
X115950000Y-75700000D02*
X124350001Y-75700000D01*
D12*
X116150000Y-73000000D02*
X116150000Y-72300000D01*
D10*
X116150000Y-75350000D02*
X115950000Y-75350000D01*
D12*
X116150000Y-75500000D02*
X117550000Y-75500000D01*
D10*
X116170000Y-73100000D02*
X116170000Y-75350000D01*
D13*
X116250000Y-72400000D02*
X117650000Y-72400000D01*
D14*
X116650000Y-75100000D02*
X116650000Y-72600000D01*
D15*
X117950000Y-73900000D02*
X124650000Y-73900000D01*
D10*
X120950000Y-72100000D02*
X115950000Y-72100000D01*
D16*
X121920600Y-63750000D02*
X123970600Y-63750000D01*
X121920600Y-65200000D02*
X121920600Y-63750000D01*
X123970600Y-63750000D02*
X123970600Y-65200000D01*
X123970600Y-65200000D02*
X121920600Y-65200000D01*
D17*
X124720000Y-74200000D02*
X124720000Y-71960000D01*
D18*
X125850000Y-70700000D02*
X125850000Y-72499999D01*
D10*
X126220000Y-72800000D02*
X126220000Y-70560000D01*
D13*
X126250000Y-70400000D02*
X123550000Y-70400000D01*
D10*
X126250000Y-70560000D02*
X126450000Y-70560000D01*
D16*
X126350000Y-72900001D02*
X126350000Y-73800000D01*
D10*
X126450000Y-70200000D02*
X123170000Y-70200000D01*
X126450000Y-70200000D02*
X126450000Y-70560000D01*
X126450000Y-72800000D02*
X126250000Y-72800000D01*
X126450000Y-73800000D02*
X126450000Y-72800000D01*
X123166318Y-70221471D02*
G75*
G02*
X120950000Y-72100000I-2151317J291470D01*
G01*
D14*
X123566318Y-70621471D02*
G75*
G02*
X121350000Y-72500000I-2151317J291470D01*
G01*
D10*
X126450000Y-73799999D02*
G75*
G02*
X124350001Y-75700001I-1999999J99997D01*
G01*
X135000000Y-69550000D02*
X135000000Y-70550000D01*
X135000000Y-70550000D02*
X135200000Y-70550000D01*
X135000000Y-72800000D02*
X135000000Y-73150000D01*
X135000000Y-73150000D02*
X143400001Y-73150000D01*
D12*
X135200000Y-70450000D02*
X135200000Y-69750000D01*
D10*
X135200000Y-72800000D02*
X135000000Y-72800000D01*
D12*
X135200000Y-72950000D02*
X136600000Y-72950000D01*
D10*
X135220000Y-70550000D02*
X135220000Y-72800000D01*
D13*
X135300000Y-69850000D02*
X136700000Y-69850000D01*
D14*
X135700000Y-72550000D02*
X135700000Y-70050000D01*
D15*
X137000000Y-71350000D02*
X143700000Y-71350000D01*
D10*
X140000000Y-69550000D02*
X135000000Y-69550000D01*
D16*
X140970600Y-61200000D02*
X143020600Y-61200000D01*
X140970600Y-62650000D02*
X140970600Y-61200000D01*
X143020600Y-61200000D02*
X143020600Y-62650000D01*
X143020600Y-62650000D02*
X140970600Y-62650000D01*
D17*
X143770000Y-71650000D02*
X143770000Y-69410000D01*
D18*
X144900000Y-68150000D02*
X144900000Y-69949999D01*
D10*
X145270000Y-70250000D02*
X145270000Y-68010000D01*
D13*
X145300000Y-67850000D02*
X142600000Y-67850000D01*
D10*
X145300000Y-68010000D02*
X145500000Y-68010000D01*
D16*
X145400000Y-70350001D02*
X145400000Y-71250000D01*
D10*
X145500000Y-67650000D02*
X142220000Y-67650000D01*
X145500000Y-67650000D02*
X145500000Y-68010000D01*
X145500000Y-70250000D02*
X145300000Y-70250000D01*
X145500000Y-71250000D02*
X145500000Y-70250000D01*
X142216318Y-67671471D02*
G75*
G02*
X140000000Y-69550000I-2151317J291470D01*
G01*
D14*
X142616318Y-68071471D02*
G75*
G02*
X140400000Y-69950000I-2151317J291470D01*
G01*
D10*
X145500000Y-71249999D02*
G75*
G02*
X143400001Y-73150001I-1999999J99997D01*
G01*
X154050002Y-49000000D02*
X154250004Y-49000000D01*
X154050002Y-51250000D02*
X154050002Y-51600000D01*
X154050002Y-51600000D02*
X162450003Y-51600002D01*
X154050004Y-48000000D02*
X154050002Y-49000000D01*
D12*
X154250000Y-51400001D02*
X155649999Y-51400000D01*
D10*
X154250002Y-51249999D02*
X154050002Y-51250000D01*
D12*
X154250004Y-48899999D02*
X154250002Y-48199998D01*
D10*
X154270002Y-49000000D02*
X154270002Y-51250000D01*
D13*
X154350000Y-48300001D02*
X155750003Y-48299999D01*
D14*
X154750003Y-50999998D02*
X154750002Y-48500000D01*
D15*
X156050000Y-49800000D02*
X162750002Y-49800000D01*
D10*
X159050003Y-48000001D02*
X154050004Y-48000000D01*
D16*
X160020602Y-39650000D02*
X162070602Y-39650000D01*
X160020602Y-41100002D02*
X160020602Y-39650000D01*
X162070602Y-39650000D02*
X162070602Y-41100002D01*
X162070602Y-41100002D02*
X160020602Y-41100002D01*
D17*
X162820004Y-50100000D02*
X162820004Y-47860000D01*
D18*
X163950003Y-46599999D02*
X163950002Y-48400001D01*
D10*
X164320002Y-48700001D02*
X164320002Y-46460000D01*
D13*
X164350002Y-46300000D02*
X161650002Y-46300000D01*
D10*
X164350003Y-46460001D02*
X164550002Y-46460000D01*
D16*
X164450002Y-48800001D02*
X164450002Y-49700000D01*
D10*
X164550002Y-48700000D02*
X164350002Y-48700000D01*
X164550004Y-46100001D02*
X161270000Y-46100001D01*
X164550004Y-46100001D02*
X164550002Y-46460000D01*
X164550004Y-49700000D02*
X164550002Y-48700000D01*
X161266320Y-46121471D02*
G75*
G02*
X159050003Y-48000001I-2151325J291478D01*
G01*
D14*
X161666319Y-46521471D02*
G75*
G02*
X159450000Y-48399999I-2151317J291471D01*
G01*
D10*
X164550004Y-49700001D02*
G75*
G02*
X162450003Y-51600003I-1999999J99997D01*
G01*
X88639120Y-83402640D02*
X89239120Y-83402640D01*
X88639120Y-89402640D02*
X88639120Y-83402640D01*
X88639120Y-89402640D02*
X89239120Y-89402640D01*
X92139120Y-83402640D02*
X91439120Y-83402640D01*
X92139120Y-83402640D02*
X92139120Y-89302640D01*
X92139120Y-83402640D02*
X92139120Y-89402640D01*
X92139120Y-89402640D02*
X91439120Y-89402640D01*
X173100000Y-50500000D02*
X173100000Y-51500000D01*
X173100000Y-51500000D02*
X173300000Y-51500000D01*
X173100000Y-53750000D02*
X173100000Y-54100000D01*
X173100000Y-54100000D02*
X181500001Y-54100000D01*
D12*
X173300000Y-51400000D02*
X173300000Y-50700000D01*
D10*
X173300000Y-53750000D02*
X173100000Y-53750000D01*
D12*
X173300000Y-53900000D02*
X174700000Y-53900000D01*
D10*
X173320000Y-51500000D02*
X173320000Y-53750000D01*
D13*
X173400000Y-50800000D02*
X174800000Y-50800000D01*
D14*
X173800000Y-53500000D02*
X173800000Y-51000000D01*
D15*
X175100000Y-52300000D02*
X181800000Y-52300000D01*
D10*
X178100000Y-50500000D02*
X173100000Y-50500000D01*
D16*
X179070600Y-42150000D02*
X181120600Y-42150000D01*
X179070600Y-43600000D02*
X179070600Y-42150000D01*
X181120600Y-42150000D02*
X181120600Y-43600000D01*
X181120600Y-43600000D02*
X179070600Y-43600000D01*
D17*
X181870000Y-52600000D02*
X181870000Y-50360000D01*
D18*
X183000000Y-49100000D02*
X183000000Y-50899999D01*
D10*
X183370000Y-51200000D02*
X183370000Y-48960000D01*
D13*
X183400000Y-48800000D02*
X180700000Y-48800000D01*
D10*
X183400000Y-48960000D02*
X183600000Y-48960000D01*
D16*
X183500000Y-51300001D02*
X183500000Y-52200000D01*
D10*
X183600000Y-48600000D02*
X180320000Y-48600000D01*
X183600000Y-48600000D02*
X183600000Y-48960000D01*
X183600000Y-51200000D02*
X183400000Y-51200000D01*
X183600000Y-52200000D02*
X183600000Y-51200000D01*
X180316318Y-48621471D02*
G75*
G02*
X178100000Y-50500000I-2151317J291470D01*
G01*
D14*
X180716318Y-49021471D02*
G75*
G02*
X178500000Y-50900000I-2151317J291470D01*
G01*
D10*
X183600000Y-52199999D02*
G75*
G02*
X181500001Y-54100001I-1999999J99997D01*
G01*
X192150000Y-74450000D02*
X192150000Y-75450000D01*
X192150000Y-75450000D02*
X192350000Y-75450000D01*
X192150000Y-77700000D02*
X192150000Y-78050000D01*
X192150000Y-78050000D02*
X200550001Y-78050000D01*
D12*
X192350000Y-75350000D02*
X192350000Y-74650000D01*
D10*
X192350000Y-77700000D02*
X192150000Y-77700000D01*
D12*
X192350000Y-77850000D02*
X193750000Y-77850000D01*
D10*
X192370000Y-75450000D02*
X192370000Y-77700000D01*
D13*
X192450000Y-74750000D02*
X193850000Y-74750000D01*
D14*
X192850000Y-77450000D02*
X192850000Y-74950000D01*
D15*
X194150000Y-76250000D02*
X200850000Y-76250000D01*
D10*
X197150000Y-74450000D02*
X192150000Y-74450000D01*
D16*
X198120600Y-66100000D02*
X200170600Y-66100000D01*
X198120600Y-67550000D02*
X198120600Y-66100000D01*
X200170600Y-66100000D02*
X200170600Y-67550000D01*
X200170600Y-67550000D02*
X198120600Y-67550000D01*
D17*
X200920000Y-76550000D02*
X200920000Y-74310000D01*
D18*
X202050000Y-73050000D02*
X202050000Y-74849999D01*
D10*
X202420000Y-75150000D02*
X202420000Y-72910000D01*
D13*
X202450000Y-72750000D02*
X199750000Y-72750000D01*
D10*
X202450000Y-72910000D02*
X202650000Y-72910000D01*
D16*
X202550000Y-75250001D02*
X202550000Y-76150000D01*
D10*
X202650000Y-72550000D02*
X199370000Y-72550000D01*
X202650000Y-72550000D02*
X202650000Y-72910000D01*
X202650000Y-75150000D02*
X202450000Y-75150000D01*
X202650000Y-76150000D02*
X202650000Y-75150000D01*
X199366318Y-72571471D02*
G75*
G02*
X197150000Y-74450000I-2151317J291470D01*
G01*
D14*
X199766318Y-72971471D02*
G75*
G02*
X197550000Y-74850000I-2151317J291470D01*
G01*
D10*
X202650000Y-76149999D02*
G75*
G02*
X200550001Y-78050001I-1999999J99997D01*
G01*
X154050000Y-124199999D02*
X154050000Y-125199999D01*
X154050000Y-125199999D02*
X154250000Y-125199999D01*
X154050000Y-127449999D02*
X154050000Y-127799999D01*
X154050000Y-127799999D02*
X162450001Y-127799999D01*
D12*
X154250000Y-125099999D02*
X154250000Y-124399999D01*
D10*
X154250000Y-127449999D02*
X154050000Y-127449999D01*
D12*
X154250000Y-127599999D02*
X155650000Y-127599999D01*
D10*
X154270000Y-125199999D02*
X154270000Y-127449999D01*
D13*
X154350000Y-124499999D02*
X155750000Y-124499999D01*
D14*
X154750000Y-127199999D02*
X154750000Y-124699999D01*
D15*
X156050000Y-125999999D02*
X162750000Y-125999999D01*
D10*
X159050000Y-124199999D02*
X154050000Y-124199999D01*
D16*
X160020600Y-115849999D02*
X162070600Y-115849999D01*
X160020600Y-117299999D02*
X160020600Y-115849999D01*
X162070600Y-115849999D02*
X162070600Y-117299999D01*
X162070600Y-117299999D02*
X160020600Y-117299999D01*
D17*
X162820000Y-126299999D02*
X162820000Y-124059999D01*
D18*
X163950000Y-122799999D02*
X163950000Y-124599998D01*
D10*
X164320000Y-124899999D02*
X164320000Y-122659999D01*
D13*
X164350000Y-122499999D02*
X161650000Y-122499999D01*
D10*
X164350000Y-122659999D02*
X164550000Y-122659999D01*
D16*
X164450000Y-125000000D02*
X164450000Y-125899999D01*
D10*
X164550000Y-122299999D02*
X161270000Y-122299999D01*
X164550000Y-122299999D02*
X164550000Y-122659999D01*
X164550000Y-124899999D02*
X164350000Y-124899999D01*
X164550000Y-125899999D02*
X164550000Y-124899999D01*
X161266318Y-122321470D02*
G75*
G02*
X159050000Y-124199999I-2151317J291470D01*
G01*
D14*
X161666318Y-122721470D02*
G75*
G02*
X159450000Y-124599999I-2151317J291470D01*
G01*
D10*
X164550000Y-125899998D02*
G75*
G02*
X162450001Y-127800000I-1999999J99997D01*
G01*
X135000002Y-51500000D02*
X135200004Y-51500000D01*
X135000002Y-53750000D02*
X135000002Y-54100000D01*
X135000002Y-54100000D02*
X143400003Y-54100002D01*
X135000004Y-50500000D02*
X135000002Y-51500000D01*
D12*
X135200000Y-53900001D02*
X136599999Y-53900000D01*
D10*
X135200002Y-53749999D02*
X135000002Y-53750000D01*
D12*
X135200004Y-51399999D02*
X135200002Y-50699998D01*
D10*
X135220002Y-51500000D02*
X135220002Y-53750000D01*
D13*
X135300000Y-50800001D02*
X136700003Y-50799999D01*
D14*
X135700003Y-53499998D02*
X135700002Y-51000000D01*
D15*
X137000000Y-52300000D02*
X143700002Y-52300000D01*
D10*
X140000003Y-50500001D02*
X135000004Y-50500000D01*
D16*
X140970602Y-42150000D02*
X143020602Y-42150000D01*
X140970602Y-43600002D02*
X140970602Y-42150000D01*
X143020602Y-42150000D02*
X143020602Y-43600002D01*
X143020602Y-43600002D02*
X140970602Y-43600002D01*
D17*
X143770004Y-52600000D02*
X143770004Y-50360000D01*
D18*
X144900003Y-49099999D02*
X144900002Y-50900001D01*
D10*
X145270002Y-51200001D02*
X145270002Y-48960000D01*
D13*
X145300002Y-48800000D02*
X142600002Y-48800000D01*
D10*
X145300003Y-48960001D02*
X145500002Y-48960000D01*
D16*
X145400002Y-51300001D02*
X145400002Y-52200000D01*
D10*
X145500002Y-51200000D02*
X145300002Y-51200000D01*
X145500004Y-48600001D02*
X142220000Y-48600001D01*
X145500004Y-48600001D02*
X145500002Y-48960000D01*
X145500004Y-52200000D02*
X145500002Y-51200000D01*
X142216320Y-48621471D02*
G75*
G02*
X140000003Y-50500001I-2151325J291478D01*
G01*
D14*
X142616319Y-49021471D02*
G75*
G02*
X140400000Y-50899999I-2151317J291471D01*
G01*
D10*
X145500004Y-52200001D02*
G75*
G02*
X143400003Y-54100003I-1999999J99997D01*
G01*
X115949999Y-52999997D02*
X115949999Y-53999997D01*
X115949999Y-53999997D02*
X116150001Y-53999997D01*
X115949999Y-56249997D02*
X115949999Y-56599997D01*
X115949999Y-56599997D02*
X124350001Y-56599998D01*
D12*
X116149998Y-56399998D02*
X117549994Y-56400000D01*
D10*
X116149999Y-56249996D02*
X115949999Y-56249997D01*
D12*
X116150001Y-53899998D02*
X116149999Y-53199995D01*
D10*
X116169999Y-53999997D02*
X116169999Y-56249997D01*
D13*
X116249998Y-53299997D02*
X117649999Y-53299997D01*
D14*
X116650000Y-55999997D02*
X116649999Y-53499997D01*
D15*
X117949997Y-54799997D02*
X124649999Y-54799997D01*
D10*
X120949999Y-52999997D02*
X115949999Y-52999997D01*
D16*
X121920599Y-44649997D02*
X123970599Y-44649997D01*
X121920599Y-46099997D02*
X121920599Y-44649997D01*
X123970599Y-44649997D02*
X123970600Y-46099998D01*
X123970600Y-46099998D02*
X121920599Y-46099997D01*
D17*
X124720004Y-55099998D02*
X124720001Y-52859997D01*
D18*
X125850001Y-51599995D02*
X125849999Y-53399998D01*
D10*
X126219999Y-53699998D02*
X126219999Y-51459997D01*
X126249998Y-51460000D02*
X126449999Y-51459997D01*
D13*
X126249999Y-51299997D02*
X123549999Y-51299997D01*
D16*
X126349999Y-53799998D02*
X126349999Y-54699997D01*
D10*
X126449999Y-53699997D02*
X126249999Y-53699997D01*
X126449999Y-54699997D02*
X126449999Y-53699997D01*
X126450003Y-51099996D02*
X123169998Y-51099997D01*
X126450003Y-51099996D02*
X126449999Y-51459997D01*
X123166317Y-51121468D02*
G75*
G02*
X120949999Y-52999997I-2151317J291470D01*
G01*
D14*
X123566316Y-51521468D02*
G75*
G02*
X121349997Y-53399996I-2151319J291473D01*
G01*
D10*
X126450000Y-54699996D02*
G75*
G02*
X124350001Y-56599998I-1999997J99995D01*
G01*
X154050000Y-67050000D02*
X154050000Y-68050000D01*
X154050000Y-68050000D02*
X154250000Y-68050000D01*
X154050000Y-70300000D02*
X154050000Y-70650000D01*
X154050000Y-70650000D02*
X162450001Y-70650000D01*
D12*
X154250000Y-67950000D02*
X154250000Y-67250000D01*
D10*
X154250000Y-70300000D02*
X154050000Y-70300000D01*
D12*
X154250000Y-70450000D02*
X155650000Y-70450000D01*
D10*
X154270000Y-68050000D02*
X154270000Y-70300000D01*
D13*
X154350000Y-67350000D02*
X155750000Y-67350000D01*
D14*
X154750000Y-70050000D02*
X154750000Y-67550000D01*
D15*
X156050000Y-68850000D02*
X162750000Y-68850000D01*
D10*
X159050000Y-67050000D02*
X154050000Y-67050000D01*
D16*
X160020600Y-58700000D02*
X162070600Y-58700000D01*
X160020600Y-60150000D02*
X160020600Y-58700000D01*
X162070600Y-58700000D02*
X162070600Y-60150000D01*
X162070600Y-60150000D02*
X160020600Y-60150000D01*
D17*
X162820000Y-69150000D02*
X162820000Y-66910000D01*
D18*
X163950000Y-65650000D02*
X163950000Y-67449999D01*
D10*
X164320000Y-67750000D02*
X164320000Y-65510000D01*
D13*
X164350000Y-65350000D02*
X161650000Y-65350000D01*
D10*
X164350000Y-65510000D02*
X164550000Y-65510000D01*
D16*
X164450000Y-67850001D02*
X164450000Y-68750000D01*
D10*
X164550000Y-65150000D02*
X161270000Y-65150000D01*
X164550000Y-65150000D02*
X164550000Y-65510000D01*
X164550000Y-67750000D02*
X164350000Y-67750000D01*
X164550000Y-68750000D02*
X164550000Y-67750000D01*
X161266318Y-65171471D02*
G75*
G02*
X159050000Y-67050000I-2151317J291470D01*
G01*
D14*
X161666318Y-65571471D02*
G75*
G02*
X159450000Y-67450000I-2151317J291470D01*
G01*
D10*
X164550000Y-68749999D02*
G75*
G02*
X162450001Y-70650001I-1999999J99997D01*
G01*
X154050000Y-105150000D02*
X154050000Y-106150000D01*
X154050000Y-106150000D02*
X154250000Y-106150000D01*
X154050000Y-108400000D02*
X154050000Y-108750000D01*
X154050000Y-108750000D02*
X162450001Y-108750000D01*
D12*
X154250000Y-106050000D02*
X154250000Y-105350000D01*
D10*
X154250000Y-108400000D02*
X154050000Y-108400000D01*
D12*
X154250000Y-108550000D02*
X155650000Y-108550000D01*
D10*
X154270000Y-106150000D02*
X154270000Y-108400000D01*
D13*
X154350000Y-105450000D02*
X155750000Y-105450000D01*
D14*
X154750000Y-108150000D02*
X154750000Y-105650000D01*
D15*
X156050000Y-106950000D02*
X162750000Y-106950000D01*
D10*
X159050000Y-105150000D02*
X154050000Y-105150000D01*
D16*
X160020600Y-96800000D02*
X162070600Y-96800000D01*
X160020600Y-98250000D02*
X160020600Y-96800000D01*
X162070600Y-96800000D02*
X162070600Y-98250000D01*
X162070600Y-98250000D02*
X160020600Y-98250000D01*
D17*
X162820000Y-107250000D02*
X162820000Y-105010000D01*
D18*
X163950000Y-103750000D02*
X163950000Y-105549999D01*
D10*
X164320000Y-105850000D02*
X164320000Y-103610000D01*
D13*
X164350000Y-103450000D02*
X161650000Y-103450000D01*
D10*
X164350000Y-103610000D02*
X164550000Y-103610000D01*
D16*
X164450000Y-105950001D02*
X164450000Y-106850000D01*
D10*
X164550000Y-103250000D02*
X161270000Y-103250000D01*
X164550000Y-103250000D02*
X164550000Y-103610000D01*
X164550000Y-105850000D02*
X164350000Y-105850000D01*
X164550000Y-106850000D02*
X164550000Y-105850000D01*
X161266318Y-103271471D02*
G75*
G02*
X159050000Y-105150000I-2151317J291470D01*
G01*
D14*
X161666318Y-103671471D02*
G75*
G02*
X159450000Y-105550000I-2151317J291470D01*
G01*
D10*
X164550000Y-106849999D02*
G75*
G02*
X162450001Y-108750001I-1999999J99997D01*
G01*
X135000000Y-107649999D02*
X135000000Y-108649999D01*
X135000000Y-108649999D02*
X135200000Y-108649999D01*
X135000000Y-110899999D02*
X135000000Y-111249999D01*
X135000000Y-111249999D02*
X143400001Y-111249999D01*
D12*
X135200000Y-108549999D02*
X135200000Y-107849999D01*
D10*
X135200000Y-110899999D02*
X135000000Y-110899999D01*
D12*
X135200000Y-111049999D02*
X136600000Y-111049999D01*
D10*
X135220000Y-108649999D02*
X135220000Y-110899999D01*
D13*
X135300000Y-107949999D02*
X136700000Y-107949999D01*
D14*
X135700000Y-110649999D02*
X135700000Y-108149999D01*
D15*
X137000000Y-109449999D02*
X143700000Y-109449999D01*
D10*
X140000000Y-107649999D02*
X135000000Y-107649999D01*
D16*
X140970600Y-99299999D02*
X143020600Y-99299999D01*
X140970600Y-100749999D02*
X140970600Y-99299999D01*
X143020600Y-99299999D02*
X143020600Y-100749999D01*
X143020600Y-100749999D02*
X140970600Y-100749999D01*
D17*
X143770000Y-109749999D02*
X143770000Y-107509999D01*
D18*
X144900000Y-106249999D02*
X144900000Y-108049998D01*
D10*
X145270000Y-108349999D02*
X145270000Y-106109999D01*
D13*
X145300000Y-105949999D02*
X142600000Y-105949999D01*
D10*
X145300000Y-106109999D02*
X145500000Y-106109999D01*
D16*
X145400000Y-108450000D02*
X145400000Y-109349999D01*
D10*
X145500000Y-105749999D02*
X142220000Y-105749999D01*
X145500000Y-105749999D02*
X145500000Y-106109999D01*
X145500000Y-108349999D02*
X145300000Y-108349999D01*
X145500000Y-109349999D02*
X145500000Y-108349999D01*
X142216318Y-105771470D02*
G75*
G02*
X140000000Y-107649999I-2151317J291470D01*
G01*
D14*
X142616318Y-106171470D02*
G75*
G02*
X140400000Y-108049999I-2151317J291470D01*
G01*
D10*
X145500000Y-109349998D02*
G75*
G02*
X143400001Y-111250000I-1999999J99997D01*
G01*
D11*
X95279100Y-87242600D02*
X101399100Y-87242600D01*
X95279100Y-93462600D02*
X96199100Y-93462600D01*
X95279100Y-95062600D02*
X95279100Y-87242600D01*
X96039100Y-89502600D02*
X97039100Y-89502600D01*
X96039100Y-91102600D02*
X96039100Y-89502600D01*
X96199100Y-93462600D02*
X96199100Y-95062600D01*
X96199100Y-95062600D02*
X95279100Y-95062600D01*
X96479100Y-93462600D02*
X96199100Y-93462600D01*
X96479100Y-93462600D02*
X96479100Y-94677600D01*
X97039100Y-89502600D02*
X97039100Y-91102600D01*
X97039100Y-91102600D02*
X96039100Y-91102600D01*
X97839100Y-87242600D02*
X97839100Y-91602600D01*
X97839100Y-91602600D02*
X98839100Y-91602600D01*
X98839100Y-91602600D02*
X98839100Y-87242600D01*
X99639100Y-89502600D02*
X99639100Y-87242600D01*
X99639100Y-89502600D02*
X99639100Y-91102600D01*
X99639100Y-91102600D02*
X100639100Y-91102600D01*
X100139100Y-89502600D02*
X100139100Y-87242600D01*
X100479100Y-93462600D02*
X100199100Y-93462600D01*
X100479100Y-95062600D02*
X100479100Y-93462600D01*
X100639100Y-89502600D02*
X99639100Y-89502600D01*
X100639100Y-91102600D02*
X100639100Y-89502600D01*
X101399100Y-87242600D02*
X101399100Y-95062600D01*
X101399100Y-93462600D02*
X100479100Y-93462600D01*
X101399100Y-95062600D02*
X100479100Y-95062600D01*
D10*
X135000000Y-126700000D02*
X135000000Y-127700000D01*
X135000000Y-127700000D02*
X135200000Y-127700000D01*
X135000000Y-129950000D02*
X135000000Y-130300000D01*
X135000000Y-130300000D02*
X143400001Y-130300000D01*
D12*
X135200000Y-127600000D02*
X135200000Y-126900000D01*
D10*
X135200000Y-129950000D02*
X135000000Y-129950000D01*
D12*
X135200000Y-130100000D02*
X136600000Y-130100000D01*
D10*
X135220000Y-127700000D02*
X135220000Y-129950000D01*
D13*
X135300000Y-127000000D02*
X136700000Y-127000000D01*
D14*
X135700000Y-129700000D02*
X135700000Y-127200000D01*
D15*
X137000000Y-128500000D02*
X143700000Y-128500000D01*
D10*
X140000000Y-126700000D02*
X135000000Y-126700000D01*
D16*
X140970600Y-118350000D02*
X143020600Y-118350000D01*
X140970600Y-119800000D02*
X140970600Y-118350000D01*
X143020600Y-118350000D02*
X143020600Y-119800000D01*
X143020600Y-119800000D02*
X140970600Y-119800000D01*
D17*
X143770000Y-128800000D02*
X143770000Y-126560000D01*
D18*
X144900000Y-125300000D02*
X144900000Y-127099999D01*
D10*
X145270000Y-127400000D02*
X145270000Y-125160000D01*
D13*
X145300000Y-125000000D02*
X142600000Y-125000000D01*
D10*
X145300000Y-125160000D02*
X145500000Y-125160000D01*
D16*
X145400000Y-127500001D02*
X145400000Y-128400000D01*
D10*
X145500000Y-124800000D02*
X142220000Y-124800000D01*
X145500000Y-124800000D02*
X145500000Y-125160000D01*
X145500000Y-127400000D02*
X145300000Y-127400000D01*
X145500000Y-128400000D02*
X145500000Y-127400000D01*
X142216318Y-124821471D02*
G75*
G02*
X140000000Y-126700000I-2151317J291470D01*
G01*
D14*
X142616318Y-125221471D02*
G75*
G02*
X140400000Y-127100000I-2151317J291470D01*
G01*
D10*
X145500000Y-128399999D02*
G75*
G02*
X143400001Y-130300001I-1999999J99997D01*
G01*
X173100000Y-107650000D02*
X173100000Y-108650000D01*
X173100000Y-108650000D02*
X173300000Y-108650000D01*
X173100000Y-110900000D02*
X173100000Y-111250000D01*
X173100000Y-111250000D02*
X181500001Y-111250000D01*
D12*
X173300000Y-108550000D02*
X173300000Y-107850000D01*
D10*
X173300000Y-110900000D02*
X173100000Y-110900000D01*
D12*
X173300000Y-111050000D02*
X174700000Y-111050000D01*
D10*
X173320000Y-108650000D02*
X173320000Y-110900000D01*
D13*
X173400000Y-107950000D02*
X174800000Y-107950000D01*
D14*
X173800000Y-110650000D02*
X173800000Y-108150000D01*
D15*
X175100000Y-109450000D02*
X181800000Y-109450000D01*
D10*
X178100000Y-107650000D02*
X173100000Y-107650000D01*
D16*
X179070600Y-99300000D02*
X181120600Y-99300000D01*
X179070600Y-100750000D02*
X179070600Y-99300000D01*
X181120600Y-99300000D02*
X181120600Y-100750000D01*
X181120600Y-100750000D02*
X179070600Y-100750000D01*
D17*
X181870000Y-109750000D02*
X181870000Y-107510000D01*
D18*
X183000000Y-106250000D02*
X183000000Y-108049999D01*
D10*
X183370000Y-108350000D02*
X183370000Y-106110000D01*
D13*
X183400000Y-105950000D02*
X180700000Y-105950000D01*
D10*
X183400000Y-106110000D02*
X183600000Y-106110000D01*
D16*
X183500000Y-108450001D02*
X183500000Y-109350000D01*
D10*
X183600000Y-105750000D02*
X180320000Y-105750000D01*
X183600000Y-105750000D02*
X183600000Y-106110000D01*
X183600000Y-108350000D02*
X183400000Y-108350000D01*
X183600000Y-109350000D02*
X183600000Y-108350000D01*
X180316318Y-105771471D02*
G75*
G02*
X178100000Y-107650000I-2151317J291470D01*
G01*
D14*
X180716318Y-106171471D02*
G75*
G02*
X178500000Y-108050000I-2151317J291470D01*
G01*
D10*
X183600000Y-109349999D02*
G75*
G02*
X181500001Y-111250001I-1999999J99997D01*
G01*
X154050000Y-86100000D02*
X154050000Y-87100000D01*
X154050000Y-87100000D02*
X154250000Y-87100000D01*
X154050000Y-89350000D02*
X154050000Y-89700000D01*
X154050000Y-89700000D02*
X162450001Y-89700000D01*
D12*
X154250000Y-87000000D02*
X154250000Y-86300000D01*
D10*
X154250000Y-89350000D02*
X154050000Y-89350000D01*
D12*
X154250000Y-89500000D02*
X155650000Y-89500000D01*
D10*
X154270000Y-87100000D02*
X154270000Y-89350000D01*
D13*
X154350000Y-86400000D02*
X155750000Y-86400000D01*
D14*
X154750000Y-89100000D02*
X154750000Y-86600000D01*
D15*
X156050000Y-87900000D02*
X162750000Y-87900000D01*
D10*
X159050000Y-86100000D02*
X154050000Y-86100000D01*
D16*
X160020600Y-77750000D02*
X162070600Y-77750000D01*
X160020600Y-79200000D02*
X160020600Y-77750000D01*
X162070600Y-77750000D02*
X162070600Y-79200000D01*
X162070600Y-79200000D02*
X160020600Y-79200000D01*
D17*
X162820000Y-88200000D02*
X162820000Y-85960000D01*
D18*
X163950000Y-84700000D02*
X163950000Y-86499999D01*
D10*
X164320000Y-86800000D02*
X164320000Y-84560000D01*
D13*
X164350000Y-84400000D02*
X161650000Y-84400000D01*
D10*
X164350000Y-84560000D02*
X164550000Y-84560000D01*
D16*
X164450000Y-86900001D02*
X164450000Y-87800000D01*
D10*
X164550000Y-84200000D02*
X161270000Y-84200000D01*
X164550000Y-84200000D02*
X164550000Y-84560000D01*
X164550000Y-86800000D02*
X164350000Y-86800000D01*
X164550000Y-87800000D02*
X164550000Y-86800000D01*
X161266318Y-84221471D02*
G75*
G02*
X159050000Y-86100000I-2151317J291470D01*
G01*
D14*
X161666318Y-84621471D02*
G75*
G02*
X159450000Y-86500000I-2151317J291470D01*
G01*
D10*
X164550000Y-87799999D02*
G75*
G02*
X162450001Y-89700001I-1999999J99997D01*
G01*
X135000000Y-88600000D02*
X135000000Y-89600000D01*
X135000000Y-89600000D02*
X135200000Y-89600000D01*
X135000000Y-91850000D02*
X135000000Y-92200000D01*
X135000000Y-92200000D02*
X143400001Y-92200000D01*
D12*
X135200000Y-89500000D02*
X135200000Y-88800000D01*
D10*
X135200000Y-91850000D02*
X135000000Y-91850000D01*
D12*
X135200000Y-92000000D02*
X136600000Y-92000000D01*
D10*
X135220000Y-89600000D02*
X135220000Y-91850000D01*
D13*
X135300000Y-88900000D02*
X136700000Y-88900000D01*
D14*
X135700000Y-91600000D02*
X135700000Y-89100000D01*
D15*
X137000000Y-90400000D02*
X143700000Y-90400000D01*
D10*
X140000000Y-88600000D02*
X135000000Y-88600000D01*
D16*
X140970600Y-80250000D02*
X143020600Y-80250000D01*
X140970600Y-81700000D02*
X140970600Y-80250000D01*
X143020600Y-80250000D02*
X143020600Y-81700000D01*
X143020600Y-81700000D02*
X140970600Y-81700000D01*
D17*
X143770000Y-90700000D02*
X143770000Y-88460000D01*
D18*
X144900000Y-87200000D02*
X144900000Y-88999999D01*
D10*
X145270000Y-89300000D02*
X145270000Y-87060000D01*
D13*
X145300000Y-86900000D02*
X142600000Y-86900000D01*
D10*
X145300000Y-87060000D02*
X145500000Y-87060000D01*
D16*
X145400000Y-89400001D02*
X145400000Y-90300000D01*
D10*
X145500000Y-86700000D02*
X142220000Y-86700000D01*
X145500000Y-86700000D02*
X145500000Y-87060000D01*
X145500000Y-89300000D02*
X145300000Y-89300000D01*
X145500000Y-90300000D02*
X145500000Y-89300000D01*
X142216318Y-86721471D02*
G75*
G02*
X140000000Y-88600000I-2151317J291470D01*
G01*
D14*
X142616318Y-87121471D02*
G75*
G02*
X140400000Y-89000000I-2151317J291470D01*
G01*
D10*
X145500000Y-90299999D02*
G75*
G02*
X143400001Y-92200001I-1999999J99997D01*
G01*
X211200000Y-55400000D02*
X211200000Y-56400000D01*
X211200000Y-56400000D02*
X211400000Y-56400000D01*
X211200000Y-58650000D02*
X211200000Y-59000000D01*
X211200000Y-59000000D02*
X219600001Y-59000000D01*
D12*
X211400000Y-56300000D02*
X211400000Y-55600000D01*
D10*
X211400000Y-58650000D02*
X211200000Y-58650000D01*
D12*
X211400000Y-58800000D02*
X212800000Y-58800000D01*
D10*
X211420000Y-56400000D02*
X211420000Y-58650000D01*
D13*
X211500000Y-55700000D02*
X212900000Y-55700000D01*
D14*
X211900000Y-58400000D02*
X211900000Y-55900000D01*
D15*
X213200000Y-57200000D02*
X219900000Y-57200000D01*
D10*
X216200000Y-55400000D02*
X211200000Y-55400000D01*
D16*
X217170600Y-47050000D02*
X219220600Y-47050000D01*
X217170600Y-48500000D02*
X217170600Y-47050000D01*
X219220600Y-47050000D02*
X219220600Y-48500000D01*
X219220600Y-48500000D02*
X217170600Y-48500000D01*
D17*
X219970000Y-57500000D02*
X219970000Y-55260000D01*
D18*
X221100000Y-54000000D02*
X221100000Y-55799999D01*
D10*
X221470000Y-56100000D02*
X221470000Y-53860000D01*
D13*
X221500000Y-53700000D02*
X218800000Y-53700000D01*
D10*
X221500000Y-53860000D02*
X221700000Y-53860000D01*
D16*
X221600000Y-56200001D02*
X221600000Y-57100000D01*
D10*
X221700000Y-53500000D02*
X218420000Y-53500000D01*
X221700000Y-53500000D02*
X221700000Y-53860000D01*
X221700000Y-56100000D02*
X221500000Y-56100000D01*
X221700000Y-57100000D02*
X221700000Y-56100000D01*
X218416318Y-53521471D02*
G75*
G02*
X216200000Y-55400000I-2151317J291470D01*
G01*
D14*
X218816318Y-53921471D02*
G75*
G02*
X216600000Y-55800000I-2151317J291470D01*
G01*
D10*
X221700000Y-57099999D02*
G75*
G02*
X219600001Y-59000001I-1999999J99997D01*
G01*
X113933197Y-132488345D02*
X114192016Y-133454271D01*
X114192016Y-133454271D02*
X114385203Y-133402507D01*
D13*
X114300620Y-132700477D02*
X115652917Y-132338130D01*
D12*
X114359322Y-133305915D02*
X114178146Y-132629765D01*
D10*
X114404520Y-133397331D02*
X114986863Y-135570664D01*
X114774359Y-135627604D02*
X114864946Y-135965678D01*
X114864946Y-135965678D02*
X122978725Y-133791599D01*
X114967544Y-135575839D02*
X114774359Y-135627604D01*
D12*
X115006368Y-135720730D02*
X116358659Y-135358387D01*
D14*
X115385804Y-135204949D02*
X114738755Y-132790135D01*
D15*
X116330921Y-133709374D02*
X122802626Y-131975286D01*
D16*
X117539215Y-122877559D02*
X119519363Y-122346980D01*
X117914503Y-124278152D02*
X117539215Y-122877559D01*
D10*
X118762826Y-131194250D02*
X113933197Y-132488345D01*
D16*
X119519363Y-122346980D02*
X119894652Y-123747574D01*
X119894652Y-123747574D02*
X117914503Y-124278152D01*
D17*
X122947892Y-132246946D02*
X122368134Y-130083272D01*
D18*
X123133518Y-128573738D02*
X123599391Y-130312408D01*
D13*
X123442241Y-128180435D02*
X120834241Y-128879246D01*
D10*
X123483652Y-128334986D02*
X123676837Y-128283219D01*
X123583666Y-127935484D02*
X120415425Y-128784413D01*
X123583666Y-127935484D02*
X123676837Y-128283219D01*
X124034429Y-130506423D02*
X123454674Y-128342748D01*
D16*
X124185880Y-130569369D02*
X124418818Y-131438701D01*
D10*
X124256592Y-130446893D02*
X124063407Y-130498657D01*
X124515411Y-131412819D02*
X124256592Y-130446893D01*
X120417426Y-128806105D02*
G75*
G02*
X118762826Y-131194249I-2153462J-275255D01*
G01*
D14*
X120907323Y-129088948D02*
G75*
G02*
X119252722Y-131477092I-2153451J-275262D01*
G01*
D10*
X124515412Y-131412818D02*
G75*
G02*
X122978725Y-133791598I-1957730J-421049D01*
G01*
X99750100Y-70059600D02*
X99750100Y-72345600D01*
X99750100Y-72345600D02*
X101528100Y-72345600D01*
X101528100Y-70059600D02*
X99750100Y-70059600D01*
X101528100Y-72345600D02*
X101528100Y-70059600D01*
X97550100Y-70059600D02*
X97550100Y-72345600D01*
X97550100Y-72345600D02*
X99328100Y-72345600D01*
X99328100Y-70059600D02*
X97550100Y-70059600D01*
X99328100Y-72345600D02*
X99328100Y-70059600D01*
X95340100Y-70059600D02*
X95340100Y-72345600D01*
X95340100Y-72345600D02*
X97118100Y-72345600D01*
X97118100Y-70059600D02*
X95340100Y-70059600D01*
X97118100Y-72345600D02*
X97118100Y-70059600D01*
X101850100Y-70059600D02*
X101850100Y-72345600D01*
X101850100Y-72345600D02*
X103628100Y-72345600D01*
X103628100Y-70059600D02*
X101850100Y-70059600D01*
X103628100Y-72345600D02*
X103628100Y-70059600D01*
X104040100Y-70059600D02*
X104040100Y-72345600D01*
X104040100Y-72345600D02*
X105818100Y-72345600D01*
X105818100Y-70059600D02*
X104040100Y-70059600D01*
X105818100Y-72345600D02*
X105818100Y-70059600D01*
D11*
X110851665Y-43122964D02*
X111186907Y-43122964D01*
X110851665Y-43882964D02*
X111186907Y-43882964D01*
X111186907Y-42009050D02*
X110851665Y-42009050D01*
X111186907Y-42769050D02*
X110851665Y-42769050D01*
X109729120Y-46540140D02*
X109729120Y-45890140D01*
X109729120Y-46540140D02*
X109729120Y-47190140D01*
X112849120Y-46540140D02*
X112849120Y-45890140D01*
X112849120Y-46540140D02*
X112849120Y-47190140D01*
X113129120Y-47942640D02*
X112799120Y-47702640D01*
X113129120Y-47462640D01*
X113129120Y-47942640D01*
G36*
X113129120Y-47942640D02*
G01*
X112799120Y-47702640D01*
X113129120Y-47462640D01*
X113129120Y-47942640D01*
G37*
X87084100Y-77802600D02*
X87084100Y-76902600D01*
X87294100Y-76702600D02*
X87084100Y-76902600D01*
X87294100Y-76702600D02*
X88584100Y-76702600D01*
X87294100Y-78002600D02*
X87084100Y-77802600D01*
X88584100Y-78002600D02*
X87294100Y-78002600D01*
X88584100Y-79452600D02*
X88584100Y-73752600D01*
X89594100Y-73152600D02*
X90384100Y-73152600D01*
X90384100Y-80052600D02*
X89594100Y-80052600D01*
X91434100Y-75202600D02*
X91434100Y-75002600D01*
X91434100Y-78202600D02*
X91434100Y-76502600D01*
D19*
X108718815Y-42425745D03*
X108718815Y-44965745D03*
X108718815Y-47505745D03*
X108718815Y-50045745D03*
X108718815Y-52585745D03*
X108718815Y-55125745D03*
X108718815Y-57665745D03*
X108718815Y-60205745D03*
X108718815Y-62745745D03*
X108718815Y-65285745D03*
X108718815Y-67825745D03*
X108718815Y-70365745D03*
X93478815Y-70365745D03*
X93478815Y-67825745D03*
X93478815Y-65285745D03*
X93478815Y-62745745D03*
X93478815Y-60205745D03*
X93478815Y-57665745D03*
X93478815Y-55125745D03*
X93478815Y-52585745D03*
X93478815Y-50045745D03*
X93478815Y-47505745D03*
X93478815Y-44965745D03*
X93478815Y-42425745D03*
%LPC*%
D10*
G36*
X216759392Y-120208400D02*
G01*
X217200494Y-120221223D01*
X217367068Y-120217071D01*
X217457316Y-120215727D01*
X217566910Y-120226483D01*
X217640864Y-120254318D01*
X217678559Y-120284335D01*
X217699924Y-120319598D01*
X217707176Y-120362029D01*
X217696715Y-120414877D01*
X217665992Y-120455811D01*
X217610334Y-120487570D01*
X217555225Y-120516074D01*
X217529001Y-120547653D01*
X217517292Y-120594435D01*
X217511782Y-120698962D01*
X217520697Y-121288930D01*
X217540480Y-121688390D01*
X217554970Y-121768844D01*
X217569789Y-121806359D01*
X217594796Y-121830734D01*
X217641353Y-121849468D01*
X217694373Y-121870328D01*
X217726105Y-121893920D01*
X217745248Y-121925665D01*
X217752239Y-121970979D01*
X217745699Y-122015041D01*
X217726563Y-122052427D01*
X217693621Y-122084918D01*
X217628687Y-122116755D01*
X217542068Y-122128271D01*
X217448767Y-122122043D01*
X217256426Y-122112640D01*
X217158118Y-122112640D01*
X216867225Y-122118379D01*
X216725198Y-122122531D01*
X216559845Y-122128271D01*
X216377209Y-122114287D01*
X216208746Y-122073316D01*
X216074359Y-122016988D01*
X215957622Y-121944460D01*
X215856477Y-121855469D01*
X215769598Y-121748840D01*
X215701863Y-121627028D01*
X215647476Y-121478829D01*
X215613373Y-121322215D01*
X215606914Y-121233121D01*
X216316335Y-121233121D01*
X216327653Y-121420892D01*
X216357838Y-121562275D01*
X216402490Y-121666933D01*
X216459181Y-121742769D01*
X216527771Y-121795425D01*
X216610447Y-121827685D01*
X216711398Y-121839088D01*
X216787887Y-121829017D01*
X216831688Y-121803917D01*
X216857119Y-121760412D01*
X216867347Y-121683627D01*
X216867347Y-120620560D01*
X216860059Y-120566093D01*
X216841946Y-120535319D01*
X216810283Y-120517658D01*
X216752431Y-120510406D01*
X216636618Y-120523942D01*
X216543853Y-120561982D01*
X216468822Y-120623814D01*
X216408903Y-120712884D01*
X216360988Y-120839774D01*
X216328511Y-121009558D01*
X216316335Y-121233121D01*
X215606914Y-121233121D01*
X215602169Y-121167664D01*
X215610427Y-121013426D01*
X215634192Y-120874897D01*
X215672341Y-120750127D01*
X215724290Y-120637413D01*
X215801679Y-120519506D01*
X215894730Y-120421160D01*
X216004588Y-120340569D01*
X216133397Y-120277032D01*
X216257371Y-120239992D01*
X216419836Y-120214929D01*
X216629454Y-120205591D01*
X216759392Y-120208400D01*
G37*
G36*
X214850145Y-120752695D02*
G01*
X214784202Y-120759657D01*
X214759165Y-120774189D01*
X214746195Y-120806928D01*
X214730100Y-120905958D01*
X214715487Y-120950378D01*
X214691632Y-120962011D01*
X214668828Y-120954037D01*
X214643027Y-120924398D01*
X214580743Y-120846490D01*
X214512892Y-120794051D01*
X214438226Y-120763190D01*
X214354210Y-120752695D01*
X214273683Y-120762152D01*
X214205858Y-120789278D01*
X214147825Y-120834150D01*
X214113343Y-120878421D01*
X214084200Y-120936610D01*
X214065284Y-120999105D01*
X214059287Y-121057022D01*
X214066626Y-121121412D01*
X214089695Y-121189768D01*
X214125231Y-121252681D01*
X214168464Y-121301753D01*
X214231698Y-121348298D01*
X214303222Y-121376169D01*
X214385595Y-121385773D01*
X214452651Y-121379136D01*
X214504175Y-121360982D01*
X214553701Y-121327876D01*
X214628739Y-121260965D01*
X214656990Y-121239422D01*
X214679420Y-121233487D01*
X214707885Y-121243294D01*
X214725826Y-121275253D01*
X214733315Y-121328825D01*
X214736939Y-121455504D01*
X214732258Y-121646648D01*
X214722040Y-121738337D01*
X214709954Y-121774399D01*
X214696517Y-121793536D01*
X214674713Y-121807032D01*
X214625076Y-121824921D01*
X214550815Y-121859744D01*
X214511997Y-121903445D01*
X214499290Y-121958156D01*
X214509411Y-122012384D01*
X214539957Y-122059272D01*
X214586077Y-122094481D01*
X214647180Y-122116181D01*
X214794159Y-122135811D01*
X215033205Y-122143903D01*
X215260992Y-122131471D01*
X215402012Y-122101160D01*
X215468624Y-122066201D01*
X215504609Y-122021510D01*
X215516684Y-121964384D01*
X215508286Y-121919480D01*
X215481984Y-121876479D01*
X215433031Y-121833592D01*
X215379542Y-121787430D01*
X215359636Y-121730644D01*
X215344616Y-121579613D01*
X215337776Y-121269025D01*
X215341755Y-121212924D01*
X215350965Y-121182685D01*
X215369322Y-121160467D01*
X215403600Y-121141041D01*
X215462346Y-121107941D01*
X215493093Y-121070257D01*
X215503006Y-121026247D01*
X215495876Y-120984656D01*
X215474163Y-120946791D01*
X215434985Y-120911087D01*
X215354376Y-120867833D01*
X215209182Y-120816809D01*
X215004599Y-120767756D01*
X214850145Y-120752695D01*
G37*
G36*
X213401823Y-120751643D02*
G01*
X213573869Y-120795385D01*
X213743237Y-120869443D01*
X213826548Y-120925040D01*
X213887462Y-120986191D01*
X213928201Y-121055174D01*
X213940707Y-121120281D01*
X213929543Y-121180996D01*
X213897232Y-121227626D01*
X213848388Y-121257946D01*
X213785124Y-121268536D01*
X213723817Y-121259238D01*
X213661753Y-121230073D01*
X213596859Y-121176882D01*
X213527815Y-121092926D01*
X213480855Y-121033900D01*
X213449046Y-121003533D01*
X213415610Y-120985396D01*
X213378094Y-120979353D01*
X213338264Y-120986478D01*
X213307274Y-121007117D01*
X213282961Y-121043466D01*
X213262364Y-121118006D01*
X213253530Y-121253027D01*
X213259526Y-121302734D01*
X213272825Y-121323979D01*
X213299610Y-121333928D01*
X213369912Y-121338878D01*
X213550390Y-121352173D01*
X213696231Y-121387553D01*
X213813789Y-121441854D01*
X213908101Y-121513878D01*
X213973813Y-121593355D01*
X214011540Y-121677361D01*
X214024116Y-121768623D01*
X214013512Y-121856281D01*
X213981374Y-121940815D01*
X213930639Y-122015647D01*
X213865236Y-122074293D01*
X213787216Y-122115746D01*
X213691388Y-122142199D01*
X213573488Y-122151718D01*
X213460261Y-122140378D01*
X213356880Y-122107028D01*
X213260979Y-122051212D01*
X213217908Y-122024605D01*
X213190882Y-122017873D01*
X213169230Y-122024924D01*
X213140690Y-122051945D01*
X213078311Y-122106874D01*
X213002996Y-122140060D01*
X212910735Y-122151718D01*
X212800881Y-122136705D01*
X212694336Y-122090780D01*
X212617270Y-122035685D01*
X212557071Y-121970002D01*
X212516163Y-121896357D01*
X212503826Y-121830417D01*
X212516059Y-121787272D01*
X212550843Y-121768746D01*
X212606653Y-121754335D01*
X212634008Y-121717332D01*
X212647701Y-121661889D01*
X213245348Y-121661889D01*
X213254479Y-121754779D01*
X213276745Y-121808738D01*
X213308181Y-121837297D01*
X213350738Y-121846903D01*
X213395798Y-121836937D01*
X213431216Y-121806970D01*
X213453485Y-121762303D01*
X213461625Y-121701090D01*
X213450689Y-121637088D01*
X213418394Y-121583487D01*
X213370490Y-121546210D01*
X213316544Y-121534272D01*
X213280447Y-121542152D01*
X213260247Y-121560773D01*
X213250058Y-121592589D01*
X213245348Y-121661889D01*
X212647701Y-121661889D01*
X212653997Y-121636397D01*
X212663683Y-121442926D01*
X212660997Y-121238250D01*
X212670934Y-121100350D01*
X212696168Y-121008051D01*
X212743170Y-120930468D01*
X212819632Y-120858697D01*
X212935971Y-120792269D01*
X213069683Y-120751359D01*
X213224953Y-120737064D01*
X213401823Y-120751643D01*
G37*
G36*
X210999918Y-120671953D02*
G01*
X211032996Y-120693100D01*
X211135330Y-120761916D01*
X211232449Y-120800255D01*
X211326942Y-120812535D01*
X211497057Y-120787988D01*
X211626005Y-120766972D01*
X211735438Y-120760511D01*
X211868118Y-120769527D01*
X211993099Y-120796112D01*
X212111763Y-120840106D01*
X212225267Y-120902050D01*
X212305945Y-120967287D01*
X212365341Y-121043100D01*
X212403271Y-121128621D01*
X212415655Y-121216879D01*
X212406955Y-121299536D01*
X212381155Y-121376205D01*
X212337509Y-121448613D01*
X212273750Y-121517908D01*
X212241055Y-121553491D01*
X212233938Y-121571397D01*
X212239792Y-121584035D01*
X212264591Y-121601073D01*
X212336799Y-121648235D01*
X212396604Y-121711715D01*
X212437461Y-121784696D01*
X212449849Y-121850933D01*
X212438902Y-121914015D01*
X212404104Y-121978259D01*
X212339207Y-122046205D01*
X212312187Y-122073706D01*
X212306356Y-122087605D01*
X212313612Y-122101825D01*
X212344946Y-122119845D01*
X212386709Y-122146036D01*
X212421272Y-122186401D01*
X212443727Y-122235300D01*
X212451192Y-122288250D01*
X212438501Y-122364188D01*
X212398680Y-122439803D01*
X212337962Y-122504961D01*
X212257752Y-122557406D01*
X212128014Y-122607309D01*
X211965801Y-122640004D01*
X211764137Y-122651928D01*
X211603998Y-122644907D01*
X211463178Y-122624948D01*
X211339399Y-122593432D01*
X211190202Y-122531556D01*
X211073421Y-122454354D01*
X210983781Y-122362256D01*
X210929397Y-122275794D01*
X211457979Y-122275794D01*
X211465627Y-122313306D01*
X211488976Y-122345548D01*
X211532350Y-122374101D01*
X211614746Y-122399587D01*
X211739591Y-122409639D01*
X211830729Y-122403409D01*
X211904445Y-122386225D01*
X211963928Y-122359691D01*
X212013608Y-122321029D01*
X212040902Y-122278422D01*
X212049901Y-122229876D01*
X212041892Y-122202351D01*
X212019615Y-122193850D01*
X212000076Y-122196415D01*
X211921674Y-122207406D01*
X211787462Y-122214245D01*
X211616004Y-122202032D01*
X211553844Y-122196537D01*
X211515721Y-122202502D01*
X211485456Y-122219618D01*
X211464692Y-122245585D01*
X211457979Y-122275794D01*
X210929397Y-122275794D01*
X210925660Y-122269852D01*
X210892587Y-122179183D01*
X210881810Y-122088215D01*
X210892352Y-122004039D01*
X210923942Y-121925549D01*
X210973822Y-121857984D01*
X211038125Y-121807824D01*
X211100425Y-121779249D01*
X211182669Y-121760198D01*
X211290062Y-121753114D01*
X211411337Y-121759662D01*
X211621255Y-121784866D01*
X211781967Y-121800009D01*
X211856503Y-121792775D01*
X211907263Y-121773997D01*
X211942036Y-121742440D01*
X211952937Y-121703288D01*
X211944864Y-121663910D01*
X211923251Y-121642132D01*
X211884427Y-121634046D01*
X211830205Y-121638198D01*
X211740934Y-121643693D01*
X211559639Y-121629727D01*
X211398750Y-121589471D01*
X211298429Y-121547017D01*
X211214100Y-121496171D01*
X211143760Y-121437186D01*
X211082466Y-121357669D01*
X211045930Y-121267723D01*
X211044327Y-121254492D01*
X211556286Y-121254492D01*
X211567414Y-121336896D01*
X211597685Y-121395909D01*
X211645952Y-121435014D01*
X211709549Y-121448299D01*
X211752392Y-121439665D01*
X211790394Y-121413075D01*
X211825320Y-121363547D01*
X211857287Y-121270296D01*
X211869528Y-121136401D01*
X211858720Y-121060416D01*
X211828983Y-121005120D01*
X211782156Y-120968338D01*
X211721883Y-120955905D01*
X211674045Y-120965716D01*
X211634038Y-120991500D01*
X211599884Y-121036017D01*
X211568554Y-121122815D01*
X211556286Y-121254492D01*
X211044327Y-121254492D01*
X211033362Y-121164000D01*
X211037514Y-121112099D01*
X211040201Y-121080225D01*
X211034619Y-121065668D01*
X211010159Y-121039925D01*
X210965023Y-120991647D01*
X210925163Y-120926352D01*
X210898017Y-120856134D01*
X210889992Y-120798979D01*
X210896859Y-120749128D01*
X210916859Y-120706656D01*
X210947298Y-120675949D01*
X210979995Y-120666722D01*
X210999918Y-120671953D01*
G37*
G36*
X210146111Y-120751315D02*
G01*
X210305455Y-120792651D01*
X210449937Y-120860250D01*
X210582002Y-120955051D01*
X210669835Y-121043639D01*
X210736763Y-121139870D01*
X210784531Y-121244845D01*
X210813740Y-121360271D01*
X210823802Y-121488355D01*
X210810749Y-121631535D01*
X210773219Y-121756333D01*
X210712037Y-121866294D01*
X210625843Y-121963896D01*
X210519178Y-122044376D01*
X210397129Y-122102678D01*
X210256793Y-122138984D01*
X210094371Y-122151718D01*
X209929325Y-122138943D01*
X209776308Y-122101423D01*
X209633033Y-122039374D01*
X209497685Y-121951683D01*
X209395218Y-121859868D01*
X209319250Y-121764087D01*
X209267144Y-121664820D01*
X209850983Y-121664820D01*
X209859960Y-121736615D01*
X209882853Y-121780936D01*
X209917790Y-121806463D01*
X209968708Y-121815640D01*
X210023435Y-121804167D01*
X210067381Y-121769746D01*
X210103041Y-121705975D01*
X210141379Y-121592155D01*
X210175948Y-121455382D01*
X210200015Y-121320798D01*
X210206600Y-121232144D01*
X210197198Y-121164966D01*
X210171429Y-121116373D01*
X210130778Y-121084070D01*
X210078129Y-121073142D01*
X210031344Y-121083935D01*
X209991157Y-121113514D01*
X209955763Y-121166809D01*
X209917411Y-121265666D01*
X209881635Y-121404091D01*
X209858121Y-121546836D01*
X209850983Y-121664820D01*
X209267144Y-121664820D01*
X209266463Y-121663523D01*
X209234934Y-121556700D01*
X209224256Y-121441582D01*
X209233633Y-121329455D01*
X209261785Y-121220336D01*
X209309496Y-121112831D01*
X209370949Y-121018034D01*
X209443563Y-120936933D01*
X209527972Y-120868344D01*
X209625467Y-120811429D01*
X209730472Y-120770600D01*
X209844336Y-120745632D01*
X209968708Y-120737064D01*
X210146111Y-120751315D01*
G37*
G36*
X207469004Y-121253637D02*
G01*
X207449831Y-121735773D01*
X207443630Y-121785741D01*
X207433223Y-121815030D01*
X207349814Y-121914070D01*
X207333994Y-121940500D01*
X207328198Y-121978428D01*
X207339768Y-122032942D01*
X207374172Y-122075180D01*
X207437863Y-122107755D01*
X207568413Y-122132736D01*
X207825355Y-122143903D01*
X208000480Y-122133749D01*
X208093167Y-122110563D01*
X208140685Y-122080938D01*
X208167173Y-122043572D01*
X208176210Y-121996014D01*
X208167661Y-121953882D01*
X208112218Y-121889035D01*
X208088601Y-121843330D01*
X208068021Y-121731830D01*
X208058729Y-121507650D01*
X208064713Y-121381329D01*
X208080187Y-121291463D01*
X208102082Y-121229579D01*
X208130859Y-121191054D01*
X208171938Y-121167656D01*
X208229699Y-121159115D01*
X208286114Y-121166367D01*
X208325480Y-121185808D01*
X208352431Y-121216635D01*
X208375399Y-121286767D01*
X208385648Y-121427783D01*
X208385648Y-121699014D01*
X208382515Y-121772848D01*
X208375634Y-121808801D01*
X208308345Y-121924206D01*
X208296701Y-121951295D01*
X208292713Y-121982458D01*
X208304006Y-122030746D01*
X208338998Y-122071010D01*
X208406408Y-122105068D01*
X208535820Y-122132385D01*
X208758484Y-122143903D01*
X208928125Y-122133531D01*
X209034991Y-122107913D01*
X209098011Y-122073219D01*
X209131296Y-122031942D01*
X209142190Y-121981970D01*
X209138790Y-121950273D01*
X209130100Y-121929824D01*
X209073680Y-121879754D01*
X209044912Y-121851843D01*
X209029960Y-121821746D01*
X209012375Y-121657371D01*
X209002849Y-121329108D01*
X209007360Y-121243369D01*
X209016771Y-121206621D01*
X209039339Y-121178803D01*
X209097982Y-121135912D01*
X209144430Y-121091678D01*
X209158554Y-121041879D01*
X209146574Y-120991482D01*
X209109706Y-120950654D01*
X209047301Y-120916210D01*
X208911503Y-120862482D01*
X208658223Y-120784569D01*
X208545141Y-120758792D01*
X208490672Y-120752695D01*
X208451458Y-120760534D01*
X208418987Y-120784081D01*
X208397092Y-120818318D01*
X208389800Y-120858208D01*
X208391143Y-120893013D01*
X208392487Y-120911820D01*
X208386028Y-120948206D01*
X208369596Y-120967185D01*
X208341806Y-120973857D01*
X208312976Y-120963612D01*
X208275250Y-120923665D01*
X208209355Y-120848972D01*
X208131706Y-120796404D01*
X208040013Y-120764069D01*
X207930501Y-120752695D01*
X207817980Y-120763301D01*
X207719807Y-120793843D01*
X207633136Y-120843798D01*
X207558245Y-120915920D01*
X207511747Y-120996694D01*
X207485464Y-121095070D01*
X207469004Y-121253637D01*
G37*
G36*
X207148292Y-120239469D02*
G01*
X207209130Y-120268362D01*
X207250934Y-120313913D01*
X207264451Y-120369845D01*
X207254946Y-120415053D01*
X207226011Y-120453001D01*
X207172005Y-120485616D01*
X207106896Y-120526031D01*
X207074796Y-120570857D01*
X207060700Y-120635790D01*
X207054036Y-120781760D01*
X207061162Y-121200757D01*
X207080048Y-121516321D01*
X207112532Y-121764960D01*
X207134045Y-121815837D01*
X207165777Y-121848857D01*
X207252972Y-121918344D01*
X207266332Y-121943957D01*
X207271290Y-121980626D01*
X207259253Y-122036417D01*
X207222075Y-122084918D01*
X207165361Y-122116729D01*
X207087009Y-122128271D01*
X206973436Y-122121799D01*
X206692190Y-122113983D01*
X206509130Y-122112640D01*
X206287968Y-122121188D01*
X206039207Y-122128271D01*
X205887928Y-122118394D01*
X205759028Y-122090529D01*
X205648994Y-122046548D01*
X205554944Y-121987209D01*
X205474762Y-121912116D01*
X205410131Y-121825669D01*
X205365530Y-121737244D01*
X205339139Y-121645700D01*
X205334887Y-121599485D01*
X206079873Y-121599485D01*
X206089714Y-121693212D01*
X206115592Y-121758103D01*
X206154898Y-121802026D01*
X206209171Y-121829162D01*
X206283694Y-121839088D01*
X206331143Y-121832050D01*
X206363801Y-121812994D01*
X206385665Y-121781813D01*
X206402828Y-121709437D01*
X206410944Y-121546240D01*
X206410944Y-121416303D01*
X206404321Y-121355662D01*
X206388840Y-121324590D01*
X206360688Y-121306988D01*
X206308240Y-121299799D01*
X206226765Y-121311546D01*
X206166342Y-121344143D01*
X206121548Y-121398130D01*
X206091453Y-121479714D01*
X206079873Y-121599485D01*
X205334887Y-121599485D01*
X205330292Y-121549538D01*
X205341470Y-121440778D01*
X205373412Y-121348466D01*
X205425547Y-121269147D01*
X205491036Y-121202813D01*
X205559167Y-121152367D01*
X205630466Y-121116129D01*
X205674073Y-121089077D01*
X205685421Y-121062273D01*
X205675964Y-121034009D01*
X205639137Y-120995595D01*
X205579298Y-120933703D01*
X205531548Y-120851247D01*
X205505187Y-120770647D01*
X206145452Y-120770647D01*
X206151755Y-120858265D01*
X206168242Y-120920906D01*
X206192347Y-120964698D01*
X206227806Y-120997892D01*
X206275145Y-121018670D01*
X206338282Y-121026247D01*
X206373503Y-121019226D01*
X206394702Y-121000113D01*
X206406010Y-120968428D01*
X206410944Y-120907301D01*
X206410944Y-120622880D01*
X206405590Y-120559699D01*
X206393481Y-120528236D01*
X206370506Y-120509701D01*
X206330100Y-120502591D01*
X206275043Y-120510584D01*
X206230485Y-120533514D01*
X206193812Y-120572322D01*
X206168458Y-120621260D01*
X206151679Y-120685939D01*
X206145452Y-120770647D01*
X205505187Y-120770647D01*
X205501416Y-120759117D01*
X205491492Y-120665379D01*
X205500412Y-120571849D01*
X205525997Y-120491103D01*
X205567716Y-120420592D01*
X205626681Y-120358609D01*
X205716014Y-120298856D01*
X205821464Y-120258714D01*
X205942288Y-120237370D01*
X206115655Y-120229039D01*
X206286503Y-120232947D01*
X206689503Y-120244670D01*
X206948645Y-120235755D01*
X207067958Y-120229039D01*
X207148292Y-120239469D01*
G37*
G36*
X204577374Y-120751315D02*
G01*
X204736718Y-120792651D01*
X204881200Y-120860250D01*
X205013265Y-120955051D01*
X205101098Y-121043639D01*
X205168026Y-121139870D01*
X205215795Y-121244845D01*
X205245003Y-121360271D01*
X205255065Y-121488355D01*
X205242012Y-121631535D01*
X205204482Y-121756333D01*
X205143300Y-121866294D01*
X205057106Y-121963896D01*
X204950441Y-122044376D01*
X204828392Y-122102678D01*
X204688056Y-122138984D01*
X204525634Y-122151718D01*
X204360588Y-122138943D01*
X204207571Y-122101423D01*
X204064296Y-122039374D01*
X203928949Y-121951683D01*
X203826481Y-121859868D01*
X203750513Y-121764087D01*
X203698407Y-121664820D01*
X204282246Y-121664820D01*
X204291223Y-121736615D01*
X204314116Y-121780936D01*
X204349053Y-121806463D01*
X204399971Y-121815640D01*
X204454698Y-121804167D01*
X204498644Y-121769746D01*
X204534304Y-121705975D01*
X204572642Y-121592155D01*
X204607211Y-121455382D01*
X204631278Y-121320798D01*
X204637863Y-121232144D01*
X204628461Y-121164966D01*
X204602692Y-121116373D01*
X204562041Y-121084070D01*
X204509392Y-121073142D01*
X204462607Y-121083935D01*
X204422420Y-121113514D01*
X204387026Y-121166809D01*
X204348674Y-121265666D01*
X204312898Y-121404091D01*
X204289384Y-121546836D01*
X204282246Y-121664820D01*
X203698407Y-121664820D01*
X203697726Y-121663523D01*
X203666197Y-121556700D01*
X203655519Y-121441582D01*
X203664896Y-121329455D01*
X203693049Y-121220336D01*
X203740759Y-121112831D01*
X203802212Y-121018034D01*
X203874827Y-120936933D01*
X203959235Y-120868344D01*
X204056730Y-120811429D01*
X204161735Y-120770600D01*
X204275599Y-120745632D01*
X204399971Y-120737064D01*
X204577374Y-120751315D01*
G37*
G36*
X202957999Y-120751643D02*
G01*
X203130045Y-120795385D01*
X203299413Y-120869443D01*
X203382724Y-120925040D01*
X203443638Y-120986191D01*
X203484377Y-121055174D01*
X203496883Y-121120281D01*
X203485719Y-121180996D01*
X203453408Y-121227626D01*
X203404564Y-121257946D01*
X203341300Y-121268536D01*
X203279993Y-121259238D01*
X203217929Y-121230073D01*
X203153035Y-121176882D01*
X203083990Y-121092926D01*
X203037030Y-121033900D01*
X203005222Y-121003533D01*
X202971785Y-120985396D01*
X202934270Y-120979353D01*
X202894440Y-120986478D01*
X202863450Y-121007117D01*
X202839137Y-121043466D01*
X202818540Y-121118006D01*
X202809706Y-121253027D01*
X202815702Y-121302734D01*
X202829001Y-121323979D01*
X202855786Y-121333928D01*
X202926087Y-121338878D01*
X203106566Y-121352173D01*
X203252407Y-121387553D01*
X203369965Y-121441854D01*
X203464277Y-121513878D01*
X203529989Y-121593355D01*
X203567716Y-121677361D01*
X203580292Y-121768623D01*
X203569688Y-121856281D01*
X203537549Y-121940815D01*
X203486814Y-122015647D01*
X203421412Y-122074293D01*
X203343392Y-122115746D01*
X203247564Y-122142199D01*
X203129664Y-122151718D01*
X203016437Y-122140378D01*
X202913055Y-122107028D01*
X202817155Y-122051212D01*
X202774084Y-122024605D01*
X202747057Y-122017873D01*
X202725406Y-122024924D01*
X202696865Y-122051945D01*
X202634487Y-122106874D01*
X202559172Y-122140060D01*
X202466911Y-122151718D01*
X202357057Y-122136705D01*
X202250512Y-122090780D01*
X202173446Y-122035685D01*
X202113247Y-121970002D01*
X202072339Y-121896357D01*
X202060002Y-121830417D01*
X202072235Y-121787272D01*
X202107019Y-121768746D01*
X202162829Y-121754335D01*
X202190184Y-121717332D01*
X202203877Y-121661889D01*
X202801524Y-121661889D01*
X202810655Y-121754779D01*
X202832921Y-121808738D01*
X202864357Y-121837297D01*
X202906914Y-121846903D01*
X202951974Y-121836937D01*
X202987392Y-121806970D01*
X203009661Y-121762303D01*
X203017801Y-121701090D01*
X203006865Y-121637088D01*
X202974570Y-121583487D01*
X202926666Y-121546210D01*
X202872720Y-121534272D01*
X202836623Y-121542152D01*
X202816422Y-121560773D01*
X202806234Y-121592589D01*
X202801524Y-121661889D01*
X202203877Y-121661889D01*
X202210173Y-121636397D01*
X202219859Y-121442926D01*
X202217173Y-121238250D01*
X202227110Y-121100350D01*
X202252344Y-121008051D01*
X202299346Y-120930468D01*
X202375808Y-120858697D01*
X202492147Y-120792269D01*
X202625859Y-120751359D01*
X202781129Y-120737064D01*
X202957999Y-120751643D01*
G37*
G36*
X201336677Y-120752695D02*
G01*
X201270734Y-120759657D01*
X201245697Y-120774189D01*
X201232727Y-120806928D01*
X201216632Y-120905958D01*
X201202019Y-120950378D01*
X201178163Y-120962011D01*
X201155359Y-120954037D01*
X201129559Y-120924398D01*
X201067275Y-120846490D01*
X200999424Y-120794051D01*
X200924757Y-120763190D01*
X200840742Y-120752695D01*
X200760215Y-120762152D01*
X200692389Y-120789278D01*
X200634357Y-120834150D01*
X200599874Y-120878421D01*
X200570732Y-120936610D01*
X200551815Y-120999105D01*
X200545819Y-121057022D01*
X200553158Y-121121412D01*
X200576227Y-121189768D01*
X200611763Y-121252681D01*
X200654995Y-121301753D01*
X200718230Y-121348298D01*
X200789754Y-121376169D01*
X200872127Y-121385773D01*
X200939182Y-121379136D01*
X200990707Y-121360982D01*
X201040233Y-121327876D01*
X201115271Y-121260965D01*
X201143522Y-121239422D01*
X201165951Y-121233487D01*
X201194416Y-121243294D01*
X201212357Y-121275253D01*
X201219847Y-121328825D01*
X201223471Y-121455504D01*
X201218790Y-121646648D01*
X201208572Y-121738337D01*
X201196486Y-121774399D01*
X201183048Y-121793536D01*
X201161245Y-121807032D01*
X201111607Y-121824921D01*
X201037347Y-121859744D01*
X200998529Y-121903445D01*
X200985822Y-121958156D01*
X200995942Y-122012384D01*
X201026489Y-122059272D01*
X201072608Y-122094481D01*
X201133711Y-122116181D01*
X201280690Y-122135811D01*
X201519737Y-122143903D01*
X201747524Y-122131471D01*
X201888544Y-122101160D01*
X201955156Y-122066201D01*
X201991141Y-122021510D01*
X202003216Y-121964384D01*
X201994818Y-121919480D01*
X201968516Y-121876479D01*
X201919563Y-121833592D01*
X201866073Y-121787430D01*
X201846168Y-121730644D01*
X201831148Y-121579613D01*
X201824308Y-121269025D01*
X201828287Y-121212924D01*
X201837497Y-121182685D01*
X201855854Y-121160467D01*
X201890131Y-121141041D01*
X201948878Y-121107941D01*
X201979624Y-121070257D01*
X201989538Y-121026247D01*
X201982407Y-120984656D01*
X201960694Y-120946791D01*
X201921517Y-120911087D01*
X201840908Y-120867833D01*
X201695714Y-120816809D01*
X201491131Y-120767756D01*
X201336677Y-120752695D01*
G37*
G36*
X199158200Y-120262861D02*
G01*
X199481775Y-120342245D01*
X199582995Y-120380061D01*
X199642441Y-120419458D01*
X199673075Y-120459696D01*
X199682665Y-120502591D01*
X199673689Y-120541103D01*
X199646267Y-120571788D01*
X199593760Y-120596136D01*
X199539197Y-120617125D01*
X199510351Y-120637779D01*
X199493533Y-120665821D01*
X199487270Y-120707633D01*
X199494049Y-120780584D01*
X199508495Y-120810897D01*
X199527082Y-120819007D01*
X199558101Y-120808627D01*
X199644930Y-120769281D01*
X199739694Y-120745299D01*
X199844109Y-120737064D01*
X199935088Y-120744998D01*
X200028613Y-120769396D01*
X200125965Y-120811802D01*
X200231793Y-120880438D01*
X200321121Y-120965710D01*
X200395365Y-121069112D01*
X200455578Y-121193188D01*
X200490798Y-121317913D01*
X200502466Y-121445124D01*
X200493547Y-121553907D01*
X200466486Y-121662657D01*
X200420156Y-121772653D01*
X200348635Y-121889896D01*
X200258101Y-121992472D01*
X200167768Y-122063689D01*
X200074598Y-122112819D01*
X199977308Y-122141931D01*
X199874151Y-122151718D01*
X199763317Y-122139292D01*
X199659968Y-122102263D01*
X199561642Y-122039122D01*
X199515237Y-122006460D01*
X199491667Y-121999067D01*
X199471053Y-122005167D01*
X199455878Y-122024624D01*
X199446360Y-122065134D01*
X199438452Y-122110483D01*
X199428041Y-122129736D01*
X199409396Y-122139527D01*
X199368690Y-122143903D01*
X199170842Y-122131449D01*
X198971429Y-122093711D01*
X198858606Y-122054821D01*
X198792793Y-122013500D01*
X198759087Y-121970880D01*
X198748558Y-121925061D01*
X198753179Y-121889095D01*
X198766265Y-121860215D01*
X198789130Y-121834109D01*
X198833676Y-121799032D01*
X198867195Y-121768999D01*
X198882159Y-121742001D01*
X198890707Y-121606935D01*
X198890707Y-121379056D01*
X199484584Y-121379056D01*
X199496520Y-121594068D01*
X199524273Y-121713058D01*
X199558166Y-121772805D01*
X199599340Y-121804965D01*
X199650058Y-121815640D01*
X199699824Y-121808099D01*
X199741319Y-121786136D01*
X199776698Y-121748351D01*
X199811033Y-121681891D01*
X199834171Y-121590691D01*
X199842888Y-121467472D01*
X199834160Y-121331109D01*
X199810237Y-121221972D01*
X199773645Y-121135058D01*
X199733757Y-121081273D01*
X199688784Y-121051686D01*
X199636503Y-121041879D01*
X199575430Y-121057551D01*
X199531845Y-121098177D01*
X199509074Y-121148247D01*
X199491723Y-121236165D01*
X199484584Y-121379056D01*
X198890707Y-121379056D01*
X198890707Y-120360563D01*
X198898832Y-120308354D01*
X198920595Y-120274086D01*
X198956422Y-120252762D01*
X199012096Y-120244670D01*
X199158200Y-120262861D01*
G37*
G36*
X196625965Y-121546607D02*
G01*
X196789852Y-121913215D01*
X196832271Y-121998761D01*
X196859217Y-122040344D01*
X196888482Y-122065798D01*
X196919057Y-122073561D01*
X196948550Y-122066971D01*
X196975355Y-122046205D01*
X197044842Y-121924817D01*
X197134479Y-121739192D01*
X197314730Y-121331795D01*
X197355824Y-121265346D01*
X197389102Y-121249485D01*
X197410086Y-121255818D01*
X197424897Y-121275965D01*
X197433066Y-121318240D01*
X197442591Y-121617559D01*
X197438307Y-121748626D01*
X197429036Y-121810267D01*
X197404856Y-121852643D01*
X197320348Y-121901492D01*
X197285404Y-121934104D01*
X197273209Y-121986000D01*
X197284088Y-122034003D01*
X197317696Y-122074107D01*
X197382191Y-122108212D01*
X197492685Y-122133589D01*
X197669249Y-122143903D01*
X197815236Y-122134355D01*
X197908139Y-122110628D01*
X197963786Y-122078115D01*
X197993770Y-122038739D01*
X198003739Y-121990274D01*
X197998720Y-121954087D01*
X197985909Y-121932388D01*
X197896394Y-121879754D01*
X197858679Y-121855197D01*
X197837166Y-121825044D01*
X197824666Y-121781627D01*
X197811154Y-121687901D01*
X197787951Y-121327765D01*
X197776960Y-120898753D01*
X197787615Y-120693837D01*
X197810787Y-120596868D01*
X197837898Y-120556935D01*
X197896394Y-120522008D01*
X197954973Y-120483791D01*
X197985732Y-120442927D01*
X197995557Y-120397566D01*
X197986533Y-120350906D01*
X197958432Y-120307318D01*
X197916173Y-120273015D01*
X197860247Y-120249677D01*
X197699168Y-120218780D01*
X197528565Y-120205591D01*
X197365890Y-120214413D01*
X197279803Y-120234534D01*
X197246511Y-120251610D01*
X197222406Y-120272514D01*
X197163055Y-120369234D01*
X196878757Y-120894845D01*
X196815620Y-120999136D01*
X196795894Y-121012670D01*
X196768847Y-121017455D01*
X196744705Y-121012658D01*
X196722685Y-120997793D01*
X196673959Y-120922322D01*
X196481374Y-120545211D01*
X196434967Y-120450201D01*
X196361926Y-120326873D01*
X196301000Y-120265553D01*
X196240767Y-120235871D01*
X196143807Y-120214239D01*
X195995574Y-120205591D01*
X195825360Y-120216803D01*
X195716921Y-120244681D01*
X195651860Y-120282935D01*
X195616729Y-120329348D01*
X195605030Y-120386575D01*
X195609249Y-120424899D01*
X195620540Y-120452399D01*
X195641147Y-120477003D01*
X195683066Y-120511994D01*
X195732550Y-120568268D01*
X195760735Y-120648159D01*
X195783546Y-120847493D01*
X195792120Y-121108801D01*
X195783339Y-121448056D01*
X195759392Y-121722095D01*
X195747864Y-121779974D01*
X195734845Y-121808313D01*
X195710506Y-121832204D01*
X195647773Y-121877189D01*
X195609330Y-121917542D01*
X195596848Y-121968414D01*
X195609984Y-122025529D01*
X195650072Y-122071301D01*
X195726541Y-122107999D01*
X195793784Y-122126292D01*
X195865271Y-122137064D01*
X196088509Y-122143903D01*
X196305225Y-122134177D01*
X196433868Y-122110930D01*
X196510331Y-122076336D01*
X196549655Y-122033789D01*
X196562340Y-121981481D01*
X196557893Y-121949604D01*
X196545487Y-121925427D01*
X196459758Y-121847148D01*
X196432923Y-121810568D01*
X196412741Y-121738337D01*
X196403755Y-121642691D01*
X196399796Y-121460633D01*
X196402985Y-121361319D01*
X196409566Y-121319461D01*
X196424734Y-121294689D01*
X196449133Y-121286854D01*
X196482288Y-121297890D01*
X196520208Y-121338512D01*
X196557710Y-121404015D01*
X196625965Y-121546607D01*
G37*
G36*
X194143359Y-121006097D02*
G01*
X193618603Y-121667018D01*
X193546918Y-121747985D01*
X193517847Y-121766668D01*
X193474256Y-121784621D01*
X193405248Y-121813458D01*
X193366544Y-121841652D01*
X193343173Y-121878266D01*
X193334915Y-121927381D01*
X193343406Y-121975452D01*
X193369842Y-122021659D01*
X193409348Y-122059667D01*
X193459113Y-122086383D01*
X193547048Y-122112235D01*
X193664765Y-122130836D01*
X193800193Y-122140165D01*
X194006949Y-122143903D01*
X194226368Y-122136137D01*
X194357560Y-122117524D01*
X194421480Y-122094486D01*
X194467591Y-122062570D01*
X194498351Y-122020959D01*
X194508136Y-121975619D01*
X194494435Y-121920624D01*
X194451715Y-121875602D01*
X194408616Y-121839835D01*
X194398837Y-121817838D01*
X194408889Y-121772694D01*
X194451100Y-121687037D01*
X194548802Y-121537936D01*
X194567438Y-121517876D01*
X194579332Y-121513145D01*
X194609374Y-121534028D01*
X194729786Y-121694374D01*
X194772960Y-121768758D01*
X194781688Y-121797078D01*
X194772165Y-121818114D01*
X194727099Y-121860459D01*
X194684781Y-121909080D01*
X194671046Y-121968048D01*
X194682851Y-122025446D01*
X194717362Y-122068337D01*
X194780344Y-122099817D01*
X194927637Y-122132075D01*
X195113491Y-122143903D01*
X195319959Y-122133663D01*
X195450669Y-122108487D01*
X195495695Y-122087445D01*
X195533345Y-122053533D01*
X195558879Y-122011280D01*
X195566928Y-121968658D01*
X195556254Y-121914974D01*
X195525407Y-121875480D01*
X195477886Y-121850333D01*
X195407438Y-121839088D01*
X195324472Y-121823193D01*
X195256496Y-121782545D01*
X195185665Y-121707782D01*
X195038753Y-121520961D01*
X194815271Y-121262552D01*
X194797563Y-121231900D01*
X194815027Y-121203323D01*
X195176750Y-120742803D01*
X195284095Y-120613233D01*
X195314356Y-120593132D01*
X195366161Y-120572810D01*
X195440847Y-120544724D01*
X195474116Y-120524450D01*
X195510144Y-120476537D01*
X195521865Y-120421136D01*
X195511312Y-120367504D01*
X195479468Y-120322408D01*
X195420949Y-120283468D01*
X195324762Y-120251875D01*
X195112366Y-120217793D01*
X194860822Y-120205591D01*
X194610008Y-120216471D01*
X194490550Y-120240152D01*
X194451233Y-120260556D01*
X194420452Y-120291809D01*
X194400318Y-120330351D01*
X194393708Y-120371799D01*
X194407042Y-120432316D01*
X194445976Y-120475480D01*
X194482490Y-120502224D01*
X194487986Y-120524084D01*
X194478593Y-120563234D01*
X194438893Y-120637291D01*
X194389959Y-120702285D01*
X194367696Y-120714960D01*
X194346131Y-120702222D01*
X194290637Y-120633138D01*
X194242995Y-120556798D01*
X194233484Y-120528114D01*
X194240323Y-120508330D01*
X194291981Y-120467298D01*
X194323455Y-120428924D01*
X194334601Y-120372776D01*
X194323354Y-120320048D01*
X194289524Y-120277768D01*
X194226524Y-120243571D01*
X194101554Y-120216059D01*
X193877134Y-120204248D01*
X193710451Y-120212560D01*
X193604071Y-120233069D01*
X193533182Y-120267488D01*
X193494385Y-120315049D01*
X193481094Y-120379248D01*
X193488292Y-120424554D01*
X193508973Y-120460487D01*
X193544475Y-120489402D01*
X193579887Y-120499951D01*
X193674657Y-120510406D01*
X193740126Y-120527092D01*
X193812776Y-120570857D01*
X193884368Y-120636091D01*
X193980327Y-120746101D01*
X194143237Y-120946746D01*
X194160334Y-120978131D01*
X194143359Y-121006097D01*
G37*
D20*
X115534120Y-39102640D03*
X114339120Y-39102640D03*
D21*
X118464120Y-39925486D03*
X120339120Y-40875486D03*
X120339120Y-38975486D03*
D22*
X103000000Y-119000000D03*
D19*
X92180000Y-41230000D03*
X108718815Y-42425745D03*
X92180000Y-43770000D03*
X108718815Y-44965745D03*
X92180000Y-46310000D03*
X108718815Y-47505745D03*
X92180000Y-48850000D03*
X108718815Y-50045745D03*
X92180000Y-51390000D03*
X108718815Y-52585745D03*
X92180000Y-53930000D03*
X108718815Y-55125745D03*
X92180000Y-56470000D03*
X108718815Y-57665745D03*
X92180000Y-59010000D03*
X108718815Y-60205745D03*
X92180000Y-61550000D03*
X108718815Y-62745745D03*
X92180000Y-64090000D03*
X108718815Y-65285745D03*
X92180000Y-66630000D03*
X108718815Y-67825745D03*
X92180000Y-69170000D03*
X108718815Y-70365745D03*
X93478815Y-70365745D03*
X107420000Y-69170000D03*
X93478815Y-67825745D03*
X107420000Y-66630000D03*
X93478815Y-65285745D03*
X107420000Y-64090000D03*
X93478815Y-62745745D03*
X107420000Y-61550000D03*
X93478815Y-60205745D03*
X107420000Y-59010000D03*
X93478815Y-57665745D03*
X107420000Y-56470000D03*
X93478815Y-55125745D03*
X107420000Y-53930000D03*
X93478815Y-52585745D03*
X107420000Y-51390000D03*
X93478815Y-50045745D03*
X107420000Y-48850000D03*
X93478815Y-47505745D03*
X107420000Y-46310000D03*
X93478815Y-44965745D03*
X107420000Y-43770000D03*
X93478815Y-42425745D03*
X107420000Y-41230000D03*
D23*
X128705000Y-44452000D03*
X128705000Y-48002000D03*
X131245000Y-44455000D03*
X131245000Y-48005000D03*
X150345000Y-41955000D03*
X150345000Y-45505000D03*
X169345000Y-44455000D03*
X169345000Y-48005000D03*
X188239100Y-45327600D03*
X188239100Y-48877600D03*
X207545000Y-49355000D03*
X207545000Y-52905000D03*
X128705000Y-82555000D03*
X128705000Y-86105000D03*
X128705000Y-101655000D03*
X128705000Y-105205000D03*
D24*
X105225000Y-97000000D03*
X108775000Y-97000000D03*
D25*
X95544195Y-124463500D03*
X92469805Y-126238500D03*
D26*
X91500000Y-93500000D03*
D27*
X95369400Y-74600000D03*
X97909400Y-74600000D03*
X100449400Y-74600000D03*
X102989400Y-74600000D03*
X105529400Y-74600000D03*
D26*
X107000000Y-93500000D03*
D28*
X101889121Y-99452640D03*
X96889121Y-99452640D03*
X99389121Y-99452640D03*
D29*
X104989121Y-106952640D03*
X93789121Y-106952640D03*
D28*
X96889121Y-113952640D03*
X101889121Y-113952640D03*
D22*
X206225000Y-61775000D03*
D23*
X128705000Y-63555000D03*
X128705000Y-67105000D03*
X131245000Y-63555000D03*
X131245000Y-67105000D03*
X150345000Y-61045000D03*
X150345000Y-64595000D03*
X169345000Y-63455000D03*
X169345000Y-67005000D03*
X188439100Y-64927600D03*
X188439100Y-68477600D03*
X207445000Y-68255000D03*
X207445000Y-71805000D03*
D30*
X108914596Y-127446482D03*
X109833404Y-130875518D03*
D22*
X206175000Y-100025000D03*
D23*
X150345000Y-80145000D03*
X150345000Y-83695000D03*
X168839100Y-80427600D03*
X168839100Y-83977600D03*
X188139100Y-82927600D03*
X188139100Y-86477600D03*
X207445000Y-87455000D03*
X207445000Y-91005000D03*
X131245000Y-120655000D03*
X131245000Y-124205000D03*
X150345000Y-118245000D03*
X150345000Y-121795000D03*
X207495000Y-106455000D03*
X207495000Y-110005000D03*
X131245000Y-101655000D03*
X131245000Y-105205000D03*
X150345000Y-99145000D03*
X150345000Y-102695000D03*
X168639100Y-99527600D03*
X168639100Y-103077600D03*
X188139100Y-102127600D03*
X188139100Y-105677600D03*
X131245000Y-82555000D03*
X131245000Y-86105000D03*
X169239100Y-118327600D03*
X169239100Y-121877600D03*
D22*
X130502100Y-57648600D03*
X130400100Y-95927600D03*
D31*
X182780000Y-123699999D03*
D32*
X182200000Y-123699999D03*
D33*
X181510000Y-126239999D03*
X180240000Y-128779999D03*
D34*
X177700000Y-123699999D03*
D33*
X175160000Y-128779999D03*
X173890000Y-126240000D03*
D32*
X173200000Y-123699999D03*
D31*
X172620000Y-123699999D03*
D35*
X180100000Y-119074999D03*
X180100000Y-117324999D03*
X175300000Y-117324999D03*
X175300000Y-119074999D03*
D36*
X184700000Y-126279999D03*
X172000000Y-128819999D03*
D31*
X182780000Y-66552640D03*
D32*
X182200000Y-66552640D03*
D33*
X181510000Y-69092640D03*
X180240000Y-71632640D03*
D34*
X177700000Y-66552640D03*
D33*
X175160000Y-71632640D03*
X173890000Y-69092641D03*
D32*
X173200000Y-66552640D03*
D31*
X172620000Y-66552640D03*
D35*
X180100000Y-61927640D03*
X180100000Y-60177640D03*
X175300000Y-60177640D03*
X175300000Y-61927640D03*
D36*
X184700000Y-69132640D03*
X172000000Y-71672640D03*
D31*
X220880000Y-71449999D03*
D32*
X220300000Y-71449999D03*
D33*
X219610000Y-73989999D03*
X218340000Y-76529999D03*
D34*
X215800000Y-71449999D03*
D33*
X213260000Y-76529999D03*
X211990000Y-73990000D03*
D32*
X211300000Y-71449999D03*
D31*
X210720000Y-71449999D03*
D35*
X218200000Y-66824999D03*
X218200000Y-65074999D03*
X213400000Y-65074999D03*
X213400000Y-66824999D03*
D36*
X222800000Y-74029999D03*
X210100000Y-76569999D03*
D31*
X182780000Y-85600000D03*
D32*
X182200000Y-85600000D03*
D33*
X181510000Y-88140000D03*
X180240000Y-90680000D03*
D34*
X177700000Y-85600000D03*
D33*
X175160000Y-90680000D03*
X173890000Y-88140001D03*
D32*
X173200000Y-85600000D03*
D31*
X172620000Y-85600000D03*
D35*
X180100000Y-80975000D03*
X180100000Y-79225000D03*
X175300000Y-79225000D03*
X175300000Y-80975000D03*
D36*
X184700000Y-88180000D03*
X172000000Y-90720000D03*
D31*
X220880000Y-90499999D03*
D32*
X220300000Y-90499999D03*
D33*
X219610000Y-93039999D03*
X218340000Y-95579999D03*
D34*
X215800000Y-90499999D03*
D33*
X213260000Y-95579999D03*
X211990000Y-93040000D03*
D32*
X211300000Y-90499999D03*
D31*
X210720000Y-90499999D03*
D35*
X218200000Y-85874999D03*
X218200000Y-84124999D03*
X213400000Y-84124999D03*
X213400000Y-85874999D03*
D36*
X222800000Y-93079999D03*
X210100000Y-95619999D03*
D31*
X220880000Y-109550000D03*
D32*
X220300000Y-109550000D03*
D33*
X219610000Y-112090000D03*
X218340000Y-114630000D03*
D34*
X215800000Y-109550000D03*
D33*
X213260000Y-114630000D03*
X211990000Y-112090001D03*
D32*
X211300000Y-109550000D03*
D31*
X210720000Y-109550000D03*
D35*
X218200000Y-104925000D03*
X218200000Y-103175000D03*
X213400000Y-103175000D03*
X213400000Y-104925000D03*
D36*
X222800000Y-112130000D03*
X210100000Y-114670000D03*
D31*
X125630000Y-88100000D03*
D32*
X125050000Y-88100000D03*
D33*
X124360000Y-90640000D03*
X123090000Y-93180000D03*
D34*
X120550000Y-88100000D03*
D33*
X118010000Y-93180000D03*
X116740000Y-90640001D03*
D32*
X116050000Y-88100000D03*
D31*
X115470000Y-88100000D03*
D35*
X122950000Y-83475000D03*
X122950000Y-81725000D03*
X118150000Y-81725000D03*
X118150000Y-83475000D03*
D36*
X127550000Y-90680000D03*
X114850000Y-93220000D03*
D31*
X201830000Y-52400000D03*
D32*
X201250000Y-52400000D03*
D33*
X200560000Y-54940000D03*
X199290000Y-57480000D03*
D34*
X196750000Y-52400000D03*
D33*
X194210000Y-57480000D03*
X192940000Y-54940001D03*
D32*
X192250000Y-52400000D03*
D31*
X191670000Y-52400000D03*
D35*
X199150000Y-47775000D03*
X199150000Y-46025000D03*
X194350000Y-46025000D03*
X194350000Y-47775000D03*
D36*
X203750000Y-54980000D03*
X191050000Y-57520000D03*
D31*
X201830000Y-90500000D03*
D32*
X201250000Y-90500000D03*
D33*
X200560000Y-93040000D03*
X199290000Y-95580000D03*
D34*
X196750000Y-90500000D03*
D33*
X194210000Y-95580000D03*
X192940000Y-93040001D03*
D32*
X192250000Y-90500000D03*
D31*
X191670000Y-90500000D03*
D35*
X199150000Y-85875000D03*
X199150000Y-84125000D03*
X194350000Y-84125000D03*
X194350000Y-85875000D03*
D36*
X203750000Y-93080000D03*
X191050000Y-95620000D03*
D31*
X99251204Y-137802049D03*
D32*
X98961204Y-137299754D03*
D33*
X96416499Y-137972197D03*
X93581795Y-138142345D03*
D34*
X96711204Y-133402640D03*
D33*
X91041795Y-133742935D03*
X92606499Y-131373084D03*
D32*
X94461204Y-129505526D03*
D31*
X94171204Y-129003231D03*
D37*
X101916571Y-133168601D03*
X103432116Y-132293601D03*
X101032116Y-128136679D03*
X99516571Y-129011679D03*
D38*
X97976858Y-140754818D03*
X89427154Y-131026295D03*
D31*
X201830000Y-109550000D03*
D32*
X201250000Y-109550000D03*
D33*
X200560000Y-112090000D03*
X199290000Y-114630000D03*
D34*
X196750000Y-109550000D03*
D33*
X194210000Y-114630000D03*
X192940000Y-112090001D03*
D32*
X192250000Y-109550000D03*
D31*
X191670000Y-109550000D03*
D35*
X199150000Y-104925000D03*
X199150000Y-103175000D03*
X194350000Y-103175000D03*
X194350000Y-104925000D03*
D36*
X203750000Y-112130000D03*
X191050000Y-114670000D03*
D39*
X94639100Y-81602600D03*
X94639100Y-81602600D03*
D40*
X94639100Y-83602600D03*
X94639100Y-79602600D03*
D31*
X125630000Y-107150000D03*
D32*
X125050000Y-107150000D03*
D33*
X124360000Y-109690000D03*
X123090000Y-112230000D03*
D34*
X120550000Y-107150000D03*
D33*
X118010000Y-112230000D03*
X116740000Y-109690001D03*
D32*
X116050000Y-107150000D03*
D31*
X115470000Y-107150000D03*
D35*
X122950000Y-102525000D03*
X122950000Y-100775000D03*
X118150000Y-100775000D03*
X118150000Y-102525000D03*
D36*
X127550000Y-109730000D03*
X114850000Y-112270000D03*
D31*
X125630000Y-69100000D03*
D32*
X125050000Y-69100000D03*
D33*
X124360000Y-71640000D03*
X123090000Y-74180000D03*
D34*
X120550000Y-69100000D03*
D33*
X118010000Y-74180000D03*
X116740000Y-71640001D03*
D32*
X116050000Y-69100000D03*
D31*
X115470000Y-69100000D03*
D35*
X122950000Y-64475000D03*
X122950000Y-62725000D03*
X118150000Y-62725000D03*
X118150000Y-64475000D03*
D36*
X127550000Y-71680000D03*
X114850000Y-74220000D03*
D31*
X144680000Y-66550000D03*
D32*
X144100000Y-66550000D03*
D33*
X143410000Y-69090000D03*
X142140000Y-71630000D03*
D34*
X139600000Y-66550000D03*
D33*
X137060000Y-71630000D03*
X135790000Y-69090001D03*
D32*
X135100000Y-66550000D03*
D31*
X134520000Y-66550000D03*
D35*
X142000000Y-61925000D03*
X142000000Y-60175000D03*
X137200000Y-60175000D03*
X137200000Y-61925000D03*
D36*
X146600000Y-69130000D03*
X133900000Y-71670000D03*
D31*
X163730002Y-45000000D03*
D32*
X163150002Y-45000000D03*
D33*
X162460002Y-47540000D03*
X161190003Y-50079998D03*
D34*
X158650002Y-45000000D03*
D33*
X156109999Y-50080000D03*
X154840001Y-47539999D03*
D32*
X154150002Y-45000000D03*
D31*
X153570002Y-45000000D03*
D35*
X161050004Y-40375000D03*
X161050002Y-38625002D03*
X156250005Y-38625001D03*
X156250000Y-40375000D03*
D36*
X165650004Y-47579999D03*
X152950004Y-50120000D03*
D28*
X90339120Y-83152640D03*
X90339120Y-89652640D03*
D31*
X182780000Y-47500000D03*
D32*
X182200000Y-47500000D03*
D33*
X181510000Y-50040000D03*
X180240000Y-52580000D03*
D34*
X177700000Y-47500000D03*
D33*
X175160000Y-52580000D03*
X173890000Y-50040001D03*
D32*
X173200000Y-47500000D03*
D31*
X172620000Y-47500000D03*
D35*
X180100000Y-42875000D03*
X180100000Y-41125000D03*
X175300000Y-41125000D03*
X175300000Y-42875000D03*
D36*
X184700000Y-50080000D03*
X172000000Y-52620000D03*
D41*
X89984100Y-75102600D03*
X89984100Y-78102600D03*
D31*
X201830000Y-71450000D03*
D32*
X201250000Y-71450000D03*
D33*
X200560000Y-73990000D03*
X199290000Y-76530000D03*
D34*
X196750000Y-71450000D03*
D33*
X194210000Y-76530000D03*
X192940000Y-73990001D03*
D32*
X192250000Y-71450000D03*
D31*
X191670000Y-71450000D03*
D35*
X199150000Y-66825000D03*
X199150000Y-65075000D03*
X194350000Y-65075000D03*
X194350000Y-66825000D03*
D36*
X203750000Y-74030000D03*
X191050000Y-76570000D03*
D31*
X163730000Y-121199999D03*
D32*
X163150000Y-121199999D03*
D33*
X162460000Y-123739999D03*
X161190000Y-126279999D03*
D34*
X158650000Y-121199999D03*
D33*
X156110000Y-126279999D03*
X154840000Y-123740000D03*
D32*
X154150000Y-121199999D03*
D31*
X153570000Y-121199999D03*
D35*
X161050000Y-116574999D03*
X161050000Y-114824999D03*
X156250000Y-114824999D03*
X156250000Y-116574999D03*
D36*
X165650000Y-123779999D03*
X152950000Y-126319999D03*
D31*
X144680002Y-47500000D03*
D32*
X144100002Y-47500000D03*
D33*
X143410002Y-50040000D03*
X142140003Y-52579998D03*
D34*
X139600002Y-47500000D03*
D33*
X137059999Y-52580000D03*
X135790001Y-50039999D03*
D32*
X135100002Y-47500000D03*
D31*
X134520002Y-47500000D03*
D35*
X142000004Y-42875000D03*
X142000002Y-41125002D03*
X137200005Y-41125001D03*
X137200000Y-42875000D03*
D36*
X146600004Y-50079999D03*
X133900004Y-52620000D03*
D31*
X125629999Y-49999997D03*
D32*
X125049999Y-49999997D03*
D33*
X124359999Y-52539997D03*
X123090001Y-55079997D03*
D34*
X120549999Y-49999997D03*
D33*
X118009998Y-55079997D03*
X116739999Y-52539996D03*
D32*
X116049999Y-49999997D03*
D31*
X115469999Y-49999997D03*
D35*
X122950000Y-45374996D03*
X122949997Y-43624998D03*
X118150000Y-43624998D03*
X118149997Y-45374997D03*
D36*
X127550001Y-52579996D03*
X114850000Y-55120000D03*
D31*
X163730000Y-64050000D03*
D32*
X163150000Y-64050000D03*
D33*
X162460000Y-66590000D03*
X161190000Y-69130000D03*
D34*
X158650000Y-64050000D03*
D33*
X156110000Y-69130000D03*
X154840000Y-66590001D03*
D32*
X154150000Y-64050000D03*
D31*
X153570000Y-64050000D03*
D35*
X161050000Y-59425000D03*
X161050000Y-57675000D03*
X156250000Y-57675000D03*
X156250000Y-59425000D03*
D36*
X165650000Y-66630000D03*
X152950000Y-69170000D03*
D31*
X163730000Y-102150000D03*
D32*
X163150000Y-102150000D03*
D33*
X162460000Y-104690000D03*
X161190000Y-107230000D03*
D34*
X158650000Y-102150000D03*
D33*
X156110000Y-107230000D03*
X154840000Y-104690001D03*
D32*
X154150000Y-102150000D03*
D31*
X153570000Y-102150000D03*
D35*
X161050000Y-97525000D03*
X161050000Y-95775000D03*
X156250000Y-95775000D03*
X156250000Y-97525000D03*
D36*
X165650000Y-104730000D03*
X152950000Y-107270000D03*
D31*
X144680000Y-104649999D03*
D32*
X144100000Y-104649999D03*
D33*
X143410000Y-107189999D03*
X142140000Y-109729999D03*
D34*
X139600000Y-104649999D03*
D33*
X137060000Y-109729999D03*
X135790000Y-107190000D03*
D32*
X135100000Y-104649999D03*
D31*
X134520000Y-104649999D03*
D35*
X142000000Y-100024999D03*
X142000000Y-98274999D03*
X137200000Y-98274999D03*
X137200000Y-100024999D03*
D36*
X146600000Y-107229999D03*
X133900000Y-109769999D03*
D42*
X99339100Y-93602600D03*
X99339100Y-93602600D03*
D43*
X101339100Y-93602600D03*
X97339100Y-93602600D03*
D31*
X144680000Y-123700000D03*
D32*
X144100000Y-123700000D03*
D33*
X143410000Y-126240000D03*
X142140000Y-128780000D03*
D34*
X139600000Y-123700000D03*
D33*
X137060000Y-128780000D03*
X135790000Y-126240001D03*
D32*
X135100000Y-123700000D03*
D31*
X134520000Y-123700000D03*
D35*
X142000000Y-119075000D03*
X142000000Y-117325000D03*
X137200000Y-117325000D03*
X137200000Y-119075000D03*
D36*
X146600000Y-126280000D03*
X133900000Y-128820000D03*
D31*
X182780000Y-104650000D03*
D32*
X182200000Y-104650000D03*
D33*
X181510000Y-107190000D03*
X180240000Y-109730000D03*
D34*
X177700000Y-104650000D03*
D33*
X175160000Y-109730000D03*
X173890000Y-107190001D03*
D32*
X173200000Y-104650000D03*
D31*
X172620000Y-104650000D03*
D35*
X180100000Y-100025000D03*
X180100000Y-98275000D03*
X175300000Y-98275000D03*
X175300000Y-100025000D03*
D36*
X184700000Y-107230000D03*
X172000000Y-109770000D03*
D31*
X163730000Y-83100000D03*
D32*
X163150000Y-83100000D03*
D33*
X162460000Y-85640000D03*
X161190000Y-88180000D03*
D34*
X158650000Y-83100000D03*
D33*
X156110000Y-88180000D03*
X154840000Y-85640001D03*
D32*
X154150000Y-83100000D03*
D31*
X153570000Y-83100000D03*
D35*
X161050000Y-78475000D03*
X161050000Y-76725000D03*
X156250000Y-76725000D03*
X156250000Y-78475000D03*
D36*
X165650000Y-85680000D03*
X152950000Y-88220000D03*
D31*
X144680000Y-85600000D03*
D32*
X144100000Y-85600000D03*
D33*
X143410000Y-88140000D03*
X142140000Y-90680000D03*
D34*
X139600000Y-85600000D03*
D33*
X137060000Y-90680000D03*
X135790000Y-88140001D03*
D32*
X135100000Y-85600000D03*
D31*
X134520000Y-85600000D03*
D35*
X142000000Y-80975000D03*
X142000000Y-79225000D03*
X137200000Y-79225000D03*
X137200000Y-80975000D03*
D36*
X146600000Y-88180000D03*
X133900000Y-90720000D03*
D31*
X220880000Y-52400000D03*
D32*
X220300000Y-52400000D03*
D33*
X219610000Y-54940000D03*
X218340000Y-57480000D03*
D34*
X215800000Y-52400000D03*
D33*
X213260000Y-57480000D03*
X211990000Y-54940001D03*
D32*
X211300000Y-52400000D03*
D31*
X210720000Y-52400000D03*
D35*
X218200000Y-47775000D03*
X218200000Y-46025000D03*
X213400000Y-46025000D03*
X213400000Y-47775000D03*
D36*
X222800000Y-54980000D03*
X210100000Y-57520000D03*
D31*
X122506902Y-127085199D03*
D32*
X121946665Y-127235314D03*
D33*
X121937577Y-129867351D03*
X121368253Y-132649502D03*
D34*
X117599999Y-128400000D03*
D33*
X116461347Y-133964304D03*
X114577222Y-131839551D03*
D32*
X113253333Y-129564686D03*
D31*
X112693096Y-129714801D03*
D44*
X118721184Y-123311426D03*
X118268248Y-121621059D03*
X113631807Y-122863389D03*
X114084737Y-124553759D03*
D45*
X125029235Y-129080354D03*
X113419377Y-134820811D03*
D46*
X100639100Y-71652600D03*
X100639100Y-70752600D03*
X98439100Y-71652600D03*
X98439100Y-70752600D03*
X96229100Y-71652600D03*
X96229100Y-70752600D03*
X102739100Y-71652600D03*
X102739100Y-70752600D03*
X104929100Y-71652600D03*
X104929100Y-70752600D03*
D20*
X110421786Y-43502964D03*
X111616786Y-43502964D03*
D47*
X111616786Y-42389050D03*
X110421786Y-42389050D03*
D48*
X112239120Y-47477640D03*
X110339120Y-47477640D03*
X111289120Y-45602640D03*
D49*
X88884100Y-80252600D03*
X91094100Y-80252600D03*
D41*
X89984100Y-78102600D03*
X89984100Y-75102600D03*
D49*
X88884100Y-72952600D03*
X91094100Y-72952600D03*
D50*
X91744100Y-74352600D03*
X91744100Y-75852600D03*
X91744100Y-78852600D03*
%LPD*%
M02*
