G04 #@! TF.GenerationSoftware,KiCad,Pcbnew,8.99.0-3407-g6a48e2c35a*
G04 #@! TF.CreationDate,2025-02-22T10:59:18+00:00*
G04 #@! TF.ProjectId,DragonBoard,44726167-6f6e-4426-9f61-72642e6b6963,rev?*
G04 #@! TF.SameCoordinates,Original*
G04 #@! TF.FileFunction,Profile,NP*
%FSLAX46Y46*%
G04 Gerber Fmt 4.6, Leading zero omitted, Abs format (unit mm)*
G04 Created by KiCad (PCBNEW 8.99.0-3407-g6a48e2c35a) date 2025-02-22 10:59:18*
%MOMM*%
%LPD*%
G01*
G04 APERTURE LIST*
G04 #@! TA.AperFunction,Profile*
%ADD10C,0.100000*%
G04 #@! TD*
G04 APERTURE END LIST*
D10*
X89193680Y-37348815D02*
X89425853Y-37325405D01*
X88977436Y-37415945D02*
X89193680Y-37348815D01*
X88200000Y-115050000D02*
X88000000Y-115650000D01*
X82100000Y-126900000D02*
X82200000Y-126400000D01*
X88275257Y-114400000D02*
X88200000Y-115050000D01*
X88470590Y-37833327D02*
X88611259Y-37662831D01*
X88273857Y-38477435D02*
X88297257Y-38245261D01*
X88364377Y-38029014D02*
X88470590Y-37833327D01*
X82200000Y-126400000D02*
X88000000Y-115650000D01*
X88781752Y-37522160D02*
X88977436Y-37415945D01*
X88611259Y-37662831D02*
X88781752Y-37522160D01*
X88297257Y-38245261D02*
X88364377Y-38029014D01*
X225283881Y-43997807D02*
X225370281Y-44178672D01*
X92550000Y-146200000D02*
X82300000Y-128400000D01*
X170950000Y-35000000D02*
X224475441Y-43445146D01*
X225424381Y-44374571D02*
X225443181Y-44581902D01*
X225370281Y-44178672D02*
X225424381Y-44374571D01*
X224677111Y-43496776D02*
X224861871Y-43581466D01*
X224475441Y-43445146D02*
X224677111Y-43496776D01*
X92550000Y-146200000D02*
X92900000Y-146500000D01*
X138154128Y-134000000D02*
X187500000Y-134000000D01*
X82300000Y-128400000D02*
X82150000Y-127900000D01*
X82100000Y-127300000D02*
X82100000Y-126900000D01*
X93350000Y-146650000D02*
X93900000Y-146750000D01*
X82150000Y-127900000D02*
X82100000Y-127300000D01*
X92900000Y-146500000D02*
X93350000Y-146650000D01*
X224386395Y-119928646D02*
X187500000Y-134000000D01*
X225168321Y-43835582D02*
X225283881Y-43997807D01*
X224861871Y-43581466D02*
X225026621Y-43695600D01*
X149000000Y-35000000D02*
X170950000Y-35000000D01*
X225026621Y-43695600D02*
X225168321Y-43835582D01*
X138154128Y-134000000D02*
X93900000Y-146750000D01*
X225443181Y-44581902D02*
X225470181Y-118350000D01*
X109439120Y-78002640D02*
X109139120Y-77802640D01*
X109439120Y-85202640D02*
X109539120Y-84902640D01*
X225470181Y-118350000D02*
G75*
G02*
X224386374Y-119928595I-1750381J40400D01*
G01*
X101039120Y-78002640D02*
X100998835Y-78163780D01*
X109239120Y-85402640D02*
X109439120Y-85202640D01*
X101039120Y-85202640D02*
X101239120Y-85402640D01*
X88275257Y-114400000D02*
X88273857Y-38477435D01*
X109139120Y-77802640D02*
X101339120Y-77802640D01*
X100939120Y-78648851D02*
X100939120Y-84902640D01*
X101339120Y-77802640D02*
X101039120Y-78002640D01*
X109539120Y-84902640D02*
X109539120Y-78648851D01*
X149000000Y-35000000D02*
X89425853Y-37325405D01*
X101239120Y-85402640D02*
X109239120Y-85402640D01*
X100939120Y-84902640D02*
X101039120Y-85202640D01*
X109479405Y-78163780D02*
X109439120Y-78002640D01*
X109479405Y-78163780D02*
G75*
G02*
X109539131Y-78648851I-1939505J-485020D01*
G01*
X100939120Y-78648851D02*
G75*
G02*
X100998847Y-78163783I2000780J-149D01*
G01*
M02*
