G04 #@! TF.GenerationSoftware,KiCad,Pcbnew,8.99.0-3407-g6a48e2c35a*
G04 #@! TF.CreationDate,2025-03-01T11:14:55+00:00*
G04 #@! TF.ProjectId,DragonBoard,44726167-6f6e-4426-9f61-72642e6b6963,rev?*
G04 #@! TF.SameCoordinates,Original*
G04 #@! TF.FileFunction,Other,User*
%FSLAX46Y46*%
G04 Gerber Fmt 4.6, Leading zero omitted, Abs format (unit mm)*
G04 Created by KiCad (PCBNEW 8.99.0-3407-g6a48e2c35a) date 2025-03-01 11:14:55*
%MOMM*%
%LPD*%
G01*
G04 APERTURE LIST*
%ADD10C,0.050000*%
G04 APERTURE END LIST*
D10*
X92639100Y-77102600D02*
X92639100Y-84002600D01*
X92639100Y-84002600D02*
X101239100Y-84002600D01*
X101239100Y-77102600D02*
X92639100Y-77102600D01*
X101239100Y-84002600D02*
X101239100Y-77102600D01*
X94839100Y-87002600D02*
X94839100Y-95602600D01*
X94839100Y-95602600D02*
X101739100Y-95602600D01*
X101739100Y-87002600D02*
X94839100Y-87002600D01*
X101739100Y-95602600D02*
X101739100Y-87002600D01*
X109919286Y-43032964D02*
X109919286Y-43972964D01*
X109919286Y-43972964D02*
X112119286Y-43972964D01*
X112119286Y-43032964D02*
X109919286Y-43032964D01*
X112119286Y-43972964D02*
X112119286Y-43032964D01*
X109919286Y-41919050D02*
X109919286Y-42859050D01*
X109919286Y-42859050D02*
X112119286Y-42859050D01*
X112119286Y-41919050D02*
X109919286Y-41919050D01*
X112119286Y-42859050D02*
X112119286Y-41919050D01*
X109589120Y-44620140D02*
X112989120Y-44620140D01*
X109589120Y-48460140D02*
X109589120Y-44620140D01*
X112989120Y-44620140D02*
X112989120Y-48460140D01*
X112989120Y-48460140D02*
X109589120Y-48460140D01*
X86914100Y-74952600D02*
X86914100Y-78252600D01*
X86914100Y-78252600D02*
X88214100Y-78252600D01*
X88214100Y-72202600D02*
X88214100Y-74952600D01*
X88214100Y-74952600D02*
X86914100Y-74952600D01*
X88214100Y-78252600D02*
X88214100Y-81002600D01*
X88214100Y-81002600D02*
X92764100Y-81002600D01*
X92764100Y-72202600D02*
X88214100Y-72202600D01*
X92764100Y-81002600D02*
X92764100Y-72202600D01*
X113836620Y-38632640D02*
X113836620Y-39572640D01*
X113836620Y-39572640D02*
X116036620Y-39572640D01*
X116036620Y-38632640D02*
X113836620Y-38632640D01*
X116036620Y-39572640D02*
X116036620Y-38632640D01*
X117481620Y-38225486D02*
X121321620Y-38225486D01*
X117481620Y-41625486D02*
X117481620Y-38225486D01*
X121321620Y-38225486D02*
X121321620Y-41625486D01*
X121321620Y-41625486D02*
X117481620Y-41625486D01*
M02*
