M48
; DRILL file {KiCad 8.99.0-3407-g6a48e2c35a} date 2025-03-01T14:51:36+0000
; FORMAT={-:-/ absolute / inch / decimal}
; #@! TF.CreationDate,2025-03-01T14:51:36+00:00
; #@! TF.GenerationSoftware,Kicad,Pcbnew,8.99.0-3407-g6a48e2c35a
; #@! TF.FileFunction,NonPlated,1,2,NPTH
FMAT,2
INCH
; #@! TA.AperFunction,NonPlated,NPTH,ComponentDrill
T1C0.0354
; #@! TA.AperFunction,NonPlated,NPTH,ComponentDrill
T2C0.0669
; #@! TA.AperFunction,NonPlated,NPTH,ComponentDrill
T3C0.0748
; #@! TA.AperFunction,NonPlated,NPTH,ComponentDrill
T4C0.1181
; #@! TA.AperFunction,NonPlated,NPTH,ComponentDrill
T5C0.1614
%
G90
G05
T1
X3.5427Y-2.9568
X3.5427Y-2.9568
X3.5427Y-3.0749
X3.5427Y-3.0749
T2
X3.7189Y-5.0986
X3.8961Y-5.4055
X4.4588Y-5.101
X4.5689Y-1.9685
X4.5689Y-2.7205
X4.5689Y-3.4685
X4.5689Y-4.2185
X4.801Y-5.0093
X4.9232Y-1.9685
X4.9232Y-2.7205
X4.9232Y-3.4685
X4.9232Y-4.2185
X5.3189Y-2.6201
X5.3189Y-3.3701
X5.3189Y-4.1201
X5.3189Y-4.8701
X5.3189Y-1.8701
X5.6732Y-2.6201
X5.6732Y-3.3701
X5.6732Y-4.1201
X5.6732Y-4.8701
X5.6732Y-1.8701
X6.0689Y-2.5217
X6.0689Y-3.2717
X6.0689Y-4.0217
X6.0689Y-4.7717
X6.0689Y-1.7717
X6.4232Y-2.5217
X6.4232Y-3.2717
X6.4232Y-4.0217
X6.4232Y-4.7717
X6.4232Y-1.7717
X6.8189Y-1.8701
X6.8189Y-2.6202
X6.8189Y-3.3701
X6.8189Y-4.1201
X6.8189Y-4.8701
X7.1732Y-1.8701
X7.1732Y-2.6202
X7.1732Y-3.3701
X7.1732Y-4.1201
X7.1732Y-4.8701
X7.5689Y-2.063
X7.5689Y-2.813
X7.5689Y-3.563
X7.5689Y-4.313
X7.9232Y-2.063
X7.9232Y-2.813
X7.9232Y-3.563
X7.9232Y-4.313
X8.3189Y-2.063
X8.3189Y-2.813
X8.3189Y-3.563
X8.3189Y-4.313
X8.6732Y-2.063
X8.6732Y-2.813
X8.6732Y-3.563
X8.6732Y-4.313
T3
X3.7075Y-5.0789
X3.9075Y-5.4253
X4.4367Y-5.1069
X4.5461Y-1.9685
X4.5461Y-2.7205
X4.5461Y-3.4685
X4.5461Y-4.2185
X4.8231Y-5.0034
X4.9461Y-1.9685
X4.9461Y-2.7205
X4.9461Y-3.4685
X4.9461Y-4.2185
X5.2961Y-2.6201
X5.2961Y-3.3701
X5.2961Y-4.1201
X5.2961Y-4.8701
X5.2961Y-1.8701
X5.6961Y-2.6201
X5.6961Y-3.3701
X5.6961Y-4.1201
X5.6961Y-4.8701
X5.6961Y-1.8701
X6.0461Y-2.5217
X6.0461Y-3.2717
X6.0461Y-4.0217
X6.0461Y-4.7717
X6.0461Y-1.7717
X6.4461Y-2.5217
X6.4461Y-3.2717
X6.4461Y-4.0217
X6.4461Y-4.7717
X6.4461Y-1.7717
X6.7961Y-1.8701
X6.7961Y-2.6202
X6.7961Y-3.3701
X6.7961Y-4.1201
X6.7961Y-4.8701
X7.1961Y-1.8701
X7.1961Y-2.6202
X7.1961Y-3.3701
X7.1961Y-4.1201
X7.1961Y-4.8701
X7.5461Y-2.063
X7.5461Y-2.813
X7.5461Y-3.563
X7.5461Y-4.313
X7.9461Y-2.063
X7.9461Y-2.813
X7.9461Y-3.563
X7.9461Y-4.313
X8.2961Y-2.063
X8.2961Y-2.813
X8.2961Y-3.563
X8.2961Y-4.313
X8.6961Y-2.063
X8.6961Y-2.813
X8.6961Y-3.563
X8.6961Y-4.313
T4
X3.5843Y-5.2655
X3.6459Y-5.1722
X3.6843Y-5.4387
X3.7959Y-5.432
X4.5109Y-5.1905
X4.5851Y-5.2742
X4.5961Y-2.0685
X4.5961Y-2.8205
X4.5961Y-3.5685
X4.5961Y-4.3185
X4.6461Y-2.1685
X4.6461Y-2.9205
X4.6461Y-3.6685
X4.6461Y-4.4185
X4.7783Y-5.2224
X4.8007Y-5.1129
X4.8461Y-2.9205
X4.8461Y-3.6685
X4.8461Y-4.4185
X4.8461Y-2.1685
X4.8961Y-2.0685
X4.8961Y-2.8205
X4.8961Y-3.5685
X4.8961Y-4.3185
X5.3461Y-2.7201
X5.3461Y-3.4701
X5.3461Y-4.2201
X5.3461Y-4.9701
X5.3461Y-1.9701
X5.3961Y-2.0701
X5.3961Y-2.8201
X5.3961Y-3.5701
X5.3961Y-4.3201
X5.3961Y-5.0701
X5.5961Y-2.8201
X5.5961Y-3.5701
X5.5961Y-4.3201
X5.5961Y-5.0701
X5.5961Y-2.0701
X5.6461Y-2.7201
X5.6461Y-3.4701
X5.6461Y-4.2201
X5.6461Y-4.9701
X5.6461Y-1.9701
X6.0961Y-2.6217
X6.0961Y-3.3717
X6.0961Y-4.1217
X6.0961Y-4.8717
X6.0961Y-1.8717
X6.1461Y-1.9717
X6.1461Y-2.7217
X6.1461Y-3.4717
X6.1461Y-4.2217
X6.1461Y-4.9717
X6.3461Y-2.7217
X6.3461Y-3.4717
X6.3461Y-4.2217
X6.3461Y-4.9717
X6.3461Y-1.9717
X6.3961Y-2.6217
X6.3961Y-3.3717
X6.3961Y-4.1217
X6.3961Y-4.8717
X6.3961Y-1.8717
X6.8461Y-1.9701
X6.8461Y-2.7202
X6.8461Y-3.4701
X6.8461Y-4.2201
X6.8461Y-4.9701
X6.8961Y-2.0701
X6.8961Y-2.8202
X6.8961Y-3.5701
X6.8961Y-4.3201
X6.8961Y-5.0701
X7.0961Y-2.0701
X7.0961Y-2.8202
X7.0961Y-3.5701
X7.0961Y-4.3201
X7.0961Y-5.0701
X7.1461Y-1.9701
X7.1461Y-2.7202
X7.1461Y-3.4701
X7.1461Y-4.2201
X7.1461Y-4.9701
X7.5961Y-2.163
X7.5961Y-2.913
X7.5961Y-3.663
X7.5961Y-4.413
X7.6461Y-2.263
X7.6461Y-3.013
X7.6461Y-3.763
X7.6461Y-4.513
X7.8461Y-2.263
X7.8461Y-3.013
X7.8461Y-3.763
X7.8461Y-4.513
X7.8961Y-2.163
X7.8961Y-2.913
X7.8961Y-3.663
X7.8961Y-4.413
X8.3461Y-2.163
X8.3461Y-2.913
X8.3461Y-3.663
X8.3461Y-4.413
X8.3961Y-2.263
X8.3961Y-3.013
X8.3961Y-3.763
X8.3961Y-4.513
X8.5961Y-2.263
X8.5961Y-3.013
X8.5961Y-3.763
X8.5961Y-4.513
X8.6461Y-2.163
X8.6461Y-2.913
X8.6461Y-3.663
X8.6461Y-4.413
T5
X3.8075Y-5.2521
X4.6299Y-5.0551
X4.7461Y-1.9685
X4.7461Y-2.7205
X4.7461Y-3.4685
X4.7461Y-4.2185
X5.4961Y-2.6201
X5.4961Y-3.3701
X5.4961Y-4.1201
X5.4961Y-4.8701
X5.4961Y-1.8701
X6.2461Y-2.5217
X6.2461Y-3.2717
X6.2461Y-4.0217
X6.2461Y-4.7717
X6.2461Y-1.7717
X6.9961Y-1.8701
X6.9961Y-2.6202
X6.9961Y-3.3701
X6.9961Y-4.1201
X6.9961Y-4.8701
X7.7461Y-2.063
X7.7461Y-2.813
X7.7461Y-3.563
X7.7461Y-4.313
X8.4961Y-2.063
X8.4961Y-2.813
X8.4961Y-3.563
X8.4961Y-4.313
M30
