G04 #@! TF.GenerationSoftware,KiCad,Pcbnew,8.99.0-3407-g6a48e2c35a*
G04 #@! TF.CreationDate,2025-03-01T14:51:43+00:00*
G04 #@! TF.ProjectId,DragonBoard,44726167-6f6e-4426-9f61-72642e6b6963,rev?*
G04 #@! TF.SameCoordinates,Original*
G04 #@! TF.FileFunction,OtherDrawing,Comment*
%FSLAX46Y46*%
G04 Gerber Fmt 4.6, Leading zero omitted, Abs format (unit mm)*
G04 Created by KiCad (PCBNEW 8.99.0-3407-g6a48e2c35a) date 2025-03-01 14:51:43*
%MOMM*%
%LPD*%
G01*
G04 APERTURE LIST*
%ADD10C,0.150000*%
%ADD11C,0.120000*%
%ADD12C,0.000000*%
%ADD13C,4.700000*%
%ADD14C,4.000000*%
G04 APERTURE END LIST*
D10*
X168175000Y-114174999D02*
X187225000Y-114174999D01*
X168175000Y-133224999D02*
X168175000Y-114174999D01*
X170700000Y-116699999D02*
X170700000Y-117699999D01*
X170700000Y-130699999D02*
X170700000Y-129699999D01*
X170700000Y-130699999D02*
X171700000Y-130699999D01*
X171700000Y-116699999D02*
X170700000Y-116699999D01*
D11*
X176000000Y-116299999D02*
X176300000Y-115999999D01*
X176000000Y-116899999D02*
X176900000Y-115999999D01*
X176000000Y-117499999D02*
X177500000Y-115999999D01*
X176000000Y-118099999D02*
X178100000Y-115999999D01*
X176000000Y-118699999D02*
X178700000Y-115999999D01*
X176000000Y-119299999D02*
X179300000Y-115999999D01*
X176000000Y-119899999D02*
X179400000Y-116499999D01*
X176100000Y-120399999D02*
X179400000Y-117099999D01*
X176700000Y-120399999D02*
X179400000Y-117699999D01*
X177300000Y-120399999D02*
X179400000Y-118299999D01*
X177900000Y-120399999D02*
X179400000Y-118899999D01*
X178500000Y-120399999D02*
X179400000Y-119499999D01*
D10*
X184700000Y-116699999D02*
X183700000Y-116699999D01*
X184700000Y-117699999D02*
X184700000Y-116699999D01*
X184700000Y-129699999D02*
X184700000Y-130699999D01*
X184700000Y-130699999D02*
X183700000Y-130699999D01*
X187225000Y-114174999D02*
X187225000Y-133224999D01*
X187225000Y-133224999D02*
X168175000Y-133224999D01*
X168175000Y-57027640D02*
X187225000Y-57027640D01*
X168175000Y-76077640D02*
X168175000Y-57027640D01*
X170700000Y-59552640D02*
X170700000Y-60552640D01*
X170700000Y-73552640D02*
X170700000Y-72552640D01*
X170700000Y-73552640D02*
X171700000Y-73552640D01*
X171700000Y-59552640D02*
X170700000Y-59552640D01*
D11*
X176000000Y-59152640D02*
X176300000Y-58852640D01*
X176000000Y-59752640D02*
X176900000Y-58852640D01*
X176000000Y-60352640D02*
X177500000Y-58852640D01*
X176000000Y-60952640D02*
X178100000Y-58852640D01*
X176000000Y-61552640D02*
X178700000Y-58852640D01*
X176000000Y-62152640D02*
X179300000Y-58852640D01*
X176000000Y-62752640D02*
X179400000Y-59352640D01*
X176100000Y-63252640D02*
X179400000Y-59952640D01*
X176700000Y-63252640D02*
X179400000Y-60552640D01*
X177300000Y-63252640D02*
X179400000Y-61152640D01*
X177900000Y-63252640D02*
X179400000Y-61752640D01*
X178500000Y-63252640D02*
X179400000Y-62352640D01*
D10*
X184700000Y-59552640D02*
X183700000Y-59552640D01*
X184700000Y-60552640D02*
X184700000Y-59552640D01*
X184700000Y-72552640D02*
X184700000Y-73552640D01*
X184700000Y-73552640D02*
X183700000Y-73552640D01*
X187225000Y-57027640D02*
X187225000Y-76077640D01*
X187225000Y-76077640D02*
X168175000Y-76077640D01*
X206275000Y-61924999D02*
X225325000Y-61924999D01*
X206275000Y-80974999D02*
X206275000Y-61924999D01*
X208800000Y-64449999D02*
X208800000Y-65449999D01*
X208800000Y-78449999D02*
X208800000Y-77449999D01*
X208800000Y-78449999D02*
X209800000Y-78449999D01*
X209800000Y-64449999D02*
X208800000Y-64449999D01*
D11*
X214100000Y-64049999D02*
X214400000Y-63749999D01*
X214100000Y-64649999D02*
X215000000Y-63749999D01*
X214100000Y-65249999D02*
X215600000Y-63749999D01*
X214100000Y-65849999D02*
X216200000Y-63749999D01*
X214100000Y-66449999D02*
X216800000Y-63749999D01*
X214100000Y-67049999D02*
X217400000Y-63749999D01*
X214100000Y-67649999D02*
X217500000Y-64249999D01*
X214200000Y-68149999D02*
X217500000Y-64849999D01*
X214800000Y-68149999D02*
X217500000Y-65449999D01*
X215400000Y-68149999D02*
X217500000Y-66049999D01*
X216000000Y-68149999D02*
X217500000Y-66649999D01*
X216600000Y-68149999D02*
X217500000Y-67249999D01*
D10*
X222800000Y-64449999D02*
X221800000Y-64449999D01*
X222800000Y-65449999D02*
X222800000Y-64449999D01*
X222800000Y-77449999D02*
X222800000Y-78449999D01*
X222800000Y-78449999D02*
X221800000Y-78449999D01*
X225325000Y-61924999D02*
X225325000Y-80974999D01*
X225325000Y-80974999D02*
X206275000Y-80974999D01*
X168175000Y-76075000D02*
X187225000Y-76075000D01*
X168175000Y-95125000D02*
X168175000Y-76075000D01*
X170700000Y-78600000D02*
X170700000Y-79600000D01*
X170700000Y-92600000D02*
X170700000Y-91600000D01*
X170700000Y-92600000D02*
X171700000Y-92600000D01*
X171700000Y-78600000D02*
X170700000Y-78600000D01*
D11*
X176000000Y-78200000D02*
X176300000Y-77900000D01*
X176000000Y-78800000D02*
X176900000Y-77900000D01*
X176000000Y-79400000D02*
X177500000Y-77900000D01*
X176000000Y-80000000D02*
X178100000Y-77900000D01*
X176000000Y-80600000D02*
X178700000Y-77900000D01*
X176000000Y-81200000D02*
X179300000Y-77900000D01*
X176000000Y-81800000D02*
X179400000Y-78400000D01*
X176100000Y-82300000D02*
X179400000Y-79000000D01*
X176700000Y-82300000D02*
X179400000Y-79600000D01*
X177300000Y-82300000D02*
X179400000Y-80200000D01*
X177900000Y-82300000D02*
X179400000Y-80800000D01*
X178500000Y-82300000D02*
X179400000Y-81400000D01*
D10*
X184700000Y-78600000D02*
X183700000Y-78600000D01*
X184700000Y-79600000D02*
X184700000Y-78600000D01*
X184700000Y-91600000D02*
X184700000Y-92600000D01*
X184700000Y-92600000D02*
X183700000Y-92600000D01*
X187225000Y-76075000D02*
X187225000Y-95125000D01*
X187225000Y-95125000D02*
X168175000Y-95125000D01*
X206275000Y-80974999D02*
X225325000Y-80974999D01*
X206275000Y-100024999D02*
X206275000Y-80974999D01*
X208800000Y-83499999D02*
X208800000Y-84499999D01*
X208800000Y-97499999D02*
X208800000Y-96499999D01*
X208800000Y-97499999D02*
X209800000Y-97499999D01*
X209800000Y-83499999D02*
X208800000Y-83499999D01*
D11*
X214100000Y-83099999D02*
X214400000Y-82799999D01*
X214100000Y-83699999D02*
X215000000Y-82799999D01*
X214100000Y-84299999D02*
X215600000Y-82799999D01*
X214100000Y-84899999D02*
X216200000Y-82799999D01*
X214100000Y-85499999D02*
X216800000Y-82799999D01*
X214100000Y-86099999D02*
X217400000Y-82799999D01*
X214100000Y-86699999D02*
X217500000Y-83299999D01*
X214200000Y-87199999D02*
X217500000Y-83899999D01*
X214800000Y-87199999D02*
X217500000Y-84499999D01*
X215400000Y-87199999D02*
X217500000Y-85099999D01*
X216000000Y-87199999D02*
X217500000Y-85699999D01*
X216600000Y-87199999D02*
X217500000Y-86299999D01*
D10*
X222800000Y-83499999D02*
X221800000Y-83499999D01*
X222800000Y-84499999D02*
X222800000Y-83499999D01*
X222800000Y-96499999D02*
X222800000Y-97499999D01*
X222800000Y-97499999D02*
X221800000Y-97499999D01*
X225325000Y-80974999D02*
X225325000Y-100024999D01*
X225325000Y-100024999D02*
X206275000Y-100024999D01*
X206275000Y-100025000D02*
X225325000Y-100025000D01*
X206275000Y-119075000D02*
X206275000Y-100025000D01*
X208800000Y-102550000D02*
X208800000Y-103550000D01*
X208800000Y-116550000D02*
X208800000Y-115550000D01*
X208800000Y-116550000D02*
X209800000Y-116550000D01*
X209800000Y-102550000D02*
X208800000Y-102550000D01*
D11*
X214100000Y-102150000D02*
X214400000Y-101850000D01*
X214100000Y-102750000D02*
X215000000Y-101850000D01*
X214100000Y-103350000D02*
X215600000Y-101850000D01*
X214100000Y-103950000D02*
X216200000Y-101850000D01*
X214100000Y-104550000D02*
X216800000Y-101850000D01*
X214100000Y-105150000D02*
X217400000Y-101850000D01*
X214100000Y-105750000D02*
X217500000Y-102350000D01*
X214200000Y-106250000D02*
X217500000Y-102950000D01*
X214800000Y-106250000D02*
X217500000Y-103550000D01*
X215400000Y-106250000D02*
X217500000Y-104150000D01*
X216000000Y-106250000D02*
X217500000Y-104750000D01*
X216600000Y-106250000D02*
X217500000Y-105350000D01*
D10*
X222800000Y-102550000D02*
X221800000Y-102550000D01*
X222800000Y-103550000D02*
X222800000Y-102550000D01*
X222800000Y-115550000D02*
X222800000Y-116550000D01*
X222800000Y-116550000D02*
X221800000Y-116550000D01*
X225325000Y-100025000D02*
X225325000Y-119075000D01*
X225325000Y-119075000D02*
X206275000Y-119075000D01*
X111025000Y-78575000D02*
X130075000Y-78575000D01*
X111025000Y-97625000D02*
X111025000Y-78575000D01*
X113550000Y-81100000D02*
X113550000Y-82100000D01*
X113550000Y-95100000D02*
X113550000Y-94100000D01*
X113550000Y-95100000D02*
X114550000Y-95100000D01*
X114550000Y-81100000D02*
X113550000Y-81100000D01*
D11*
X118850000Y-80700000D02*
X119150000Y-80400000D01*
X118850000Y-81300000D02*
X119750000Y-80400000D01*
X118850000Y-81900000D02*
X120350000Y-80400000D01*
X118850000Y-82500000D02*
X120950000Y-80400000D01*
X118850000Y-83100000D02*
X121550000Y-80400000D01*
X118850000Y-83700000D02*
X122150000Y-80400000D01*
X118850000Y-84300000D02*
X122250000Y-80900000D01*
X118950000Y-84800000D02*
X122250000Y-81500000D01*
X119550000Y-84800000D02*
X122250000Y-82100000D01*
X120150000Y-84800000D02*
X122250000Y-82700000D01*
X120750000Y-84800000D02*
X122250000Y-83300000D01*
X121350000Y-84800000D02*
X122250000Y-83900000D01*
D10*
X127550000Y-81100000D02*
X126550000Y-81100000D01*
X127550000Y-82100000D02*
X127550000Y-81100000D01*
X127550000Y-94100000D02*
X127550000Y-95100000D01*
X127550000Y-95100000D02*
X126550000Y-95100000D01*
X130075000Y-78575000D02*
X130075000Y-97625000D01*
X130075000Y-97625000D02*
X111025000Y-97625000D01*
X187225000Y-42875000D02*
X206275000Y-42875000D01*
X187225000Y-61925000D02*
X187225000Y-42875000D01*
X189750000Y-45400000D02*
X189750000Y-46400000D01*
X189750000Y-59400000D02*
X189750000Y-58400000D01*
X189750000Y-59400000D02*
X190750000Y-59400000D01*
X190750000Y-45400000D02*
X189750000Y-45400000D01*
D11*
X195050000Y-45000000D02*
X195350000Y-44700000D01*
X195050000Y-45600000D02*
X195950000Y-44700000D01*
X195050000Y-46200000D02*
X196550000Y-44700000D01*
X195050000Y-46800000D02*
X197150000Y-44700000D01*
X195050000Y-47400000D02*
X197750000Y-44700000D01*
X195050000Y-48000000D02*
X198350000Y-44700000D01*
X195050000Y-48600000D02*
X198450000Y-45200000D01*
X195150000Y-49100000D02*
X198450000Y-45800000D01*
X195750000Y-49100000D02*
X198450000Y-46400000D01*
X196350000Y-49100000D02*
X198450000Y-47000000D01*
X196950000Y-49100000D02*
X198450000Y-47600000D01*
X197550000Y-49100000D02*
X198450000Y-48200000D01*
D10*
X203750000Y-45400000D02*
X202750000Y-45400000D01*
X203750000Y-46400000D02*
X203750000Y-45400000D01*
X203750000Y-58400000D02*
X203750000Y-59400000D01*
X203750000Y-59400000D02*
X202750000Y-59400000D01*
X206275000Y-42875000D02*
X206275000Y-61925000D01*
X206275000Y-61925000D02*
X187225000Y-61925000D01*
X187225000Y-80975000D02*
X206275000Y-80975000D01*
X187225000Y-100025000D02*
X187225000Y-80975000D01*
X189750000Y-83500000D02*
X189750000Y-84500000D01*
X189750000Y-97500000D02*
X189750000Y-96500000D01*
X189750000Y-97500000D02*
X190750000Y-97500000D01*
X190750000Y-83500000D02*
X189750000Y-83500000D01*
D11*
X195050000Y-83100000D02*
X195350000Y-82800000D01*
X195050000Y-83700000D02*
X195950000Y-82800000D01*
X195050000Y-84300000D02*
X196550000Y-82800000D01*
X195050000Y-84900000D02*
X197150000Y-82800000D01*
X195050000Y-85500000D02*
X197750000Y-82800000D01*
X195050000Y-86100000D02*
X198350000Y-82800000D01*
X195050000Y-86700000D02*
X198450000Y-83300000D01*
X195150000Y-87200000D02*
X198450000Y-83900000D01*
X195750000Y-87200000D02*
X198450000Y-84500000D01*
X196350000Y-87200000D02*
X198450000Y-85100000D01*
X196950000Y-87200000D02*
X198450000Y-85700000D01*
X197550000Y-87200000D02*
X198450000Y-86300000D01*
D10*
X203750000Y-83500000D02*
X202750000Y-83500000D01*
X203750000Y-84500000D02*
X203750000Y-83500000D01*
X203750000Y-96500000D02*
X203750000Y-97500000D01*
X203750000Y-97500000D02*
X202750000Y-97500000D01*
X206275000Y-80975000D02*
X206275000Y-100025000D01*
X206275000Y-100025000D02*
X187225000Y-100025000D01*
X83699812Y-129916248D02*
X100197596Y-120391248D01*
X87149026Y-130840462D02*
X87649026Y-131706488D01*
X87149026Y-130840462D02*
X88015052Y-130340462D01*
X93224812Y-146414032D02*
X83699812Y-129916248D01*
X94149026Y-142964818D02*
X93649026Y-142098792D01*
X95015052Y-142464818D02*
X94149026Y-142964818D01*
D11*
X98769088Y-130366999D02*
X103276972Y-131574883D01*
X99069088Y-130886615D02*
X102757356Y-131874883D01*
X99152101Y-130030397D02*
X103796587Y-131274883D01*
D10*
X99273382Y-123840462D02*
X98407356Y-124340462D01*
D11*
X99369088Y-131406230D02*
X102237741Y-132174883D01*
X99669088Y-131925845D02*
X101718126Y-132474883D01*
X99671716Y-129730397D02*
X104179600Y-130938280D01*
D10*
X99773382Y-124706488D02*
X99273382Y-123840462D01*
D11*
X99969088Y-132445460D02*
X101198511Y-132774883D01*
X100191331Y-129430397D02*
X103879599Y-130418665D01*
D10*
X100197596Y-120391248D02*
X109722596Y-136889032D01*
D11*
X100710946Y-129130397D02*
X103579600Y-129899050D01*
X101230562Y-128830396D02*
X103279600Y-129379435D01*
X101750177Y-128530397D02*
X102979600Y-128859819D01*
X102269792Y-128230397D02*
X102679599Y-128340204D01*
D10*
X105407356Y-136464818D02*
X106273382Y-135964818D01*
X106273382Y-135964818D02*
X105773382Y-135098792D01*
X109722596Y-136889032D02*
X93224812Y-146414032D01*
X187225000Y-100025000D02*
X206275000Y-100025000D01*
X187225000Y-119075000D02*
X187225000Y-100025000D01*
X189750000Y-102550000D02*
X189750000Y-103550000D01*
X189750000Y-116550000D02*
X189750000Y-115550000D01*
X189750000Y-116550000D02*
X190750000Y-116550000D01*
X190750000Y-102550000D02*
X189750000Y-102550000D01*
D11*
X195050000Y-102150000D02*
X195350000Y-101850000D01*
X195050000Y-102750000D02*
X195950000Y-101850000D01*
X195050000Y-103350000D02*
X196550000Y-101850000D01*
X195050000Y-103950000D02*
X197150000Y-101850000D01*
X195050000Y-104550000D02*
X197750000Y-101850000D01*
X195050000Y-105150000D02*
X198350000Y-101850000D01*
X195050000Y-105750000D02*
X198450000Y-102350000D01*
X195150000Y-106250000D02*
X198450000Y-102950000D01*
X195750000Y-106250000D02*
X198450000Y-103550000D01*
X196350000Y-106250000D02*
X198450000Y-104150000D01*
X196950000Y-106250000D02*
X198450000Y-104750000D01*
X197550000Y-106250000D02*
X198450000Y-105350000D01*
D10*
X203750000Y-102550000D02*
X202750000Y-102550000D01*
X203750000Y-103550000D02*
X203750000Y-102550000D01*
X203750000Y-115550000D02*
X203750000Y-116550000D01*
X203750000Y-116550000D02*
X202750000Y-116550000D01*
X206275000Y-100025000D02*
X206275000Y-119075000D01*
X206275000Y-119075000D02*
X187225000Y-119075000D01*
X111025000Y-97625000D02*
X130075000Y-97625000D01*
X111025000Y-116675000D02*
X111025000Y-97625000D01*
X113550000Y-100150000D02*
X113550000Y-101150000D01*
X113550000Y-114150000D02*
X113550000Y-113150000D01*
X113550000Y-114150000D02*
X114550000Y-114150000D01*
X114550000Y-100150000D02*
X113550000Y-100150000D01*
D11*
X118850000Y-99750000D02*
X119150000Y-99450000D01*
X118850000Y-100350000D02*
X119750000Y-99450000D01*
X118850000Y-100950000D02*
X120350000Y-99450000D01*
X118850000Y-101550000D02*
X120950000Y-99450000D01*
X118850000Y-102150000D02*
X121550000Y-99450000D01*
X118850000Y-102750000D02*
X122150000Y-99450000D01*
X118850000Y-103350000D02*
X122250000Y-99950000D01*
X118950000Y-103850000D02*
X122250000Y-100550000D01*
X119550000Y-103850000D02*
X122250000Y-101150000D01*
X120150000Y-103850000D02*
X122250000Y-101750000D01*
X120750000Y-103850000D02*
X122250000Y-102350000D01*
X121350000Y-103850000D02*
X122250000Y-102950000D01*
D10*
X127550000Y-100150000D02*
X126550000Y-100150000D01*
X127550000Y-101150000D02*
X127550000Y-100150000D01*
X127550000Y-113150000D02*
X127550000Y-114150000D01*
X127550000Y-114150000D02*
X126550000Y-114150000D01*
X130075000Y-97625000D02*
X130075000Y-116675000D01*
X130075000Y-116675000D02*
X111025000Y-116675000D01*
X111025000Y-59575000D02*
X130075000Y-59575000D01*
X111025000Y-78625000D02*
X111025000Y-59575000D01*
X113550000Y-62100000D02*
X113550000Y-63100000D01*
X113550000Y-76100000D02*
X113550000Y-75100000D01*
X113550000Y-76100000D02*
X114550000Y-76100000D01*
X114550000Y-62100000D02*
X113550000Y-62100000D01*
D11*
X118850000Y-61700000D02*
X119150000Y-61400000D01*
X118850000Y-62300000D02*
X119750000Y-61400000D01*
X118850000Y-62900000D02*
X120350000Y-61400000D01*
X118850000Y-63500000D02*
X120950000Y-61400000D01*
X118850000Y-64100000D02*
X121550000Y-61400000D01*
X118850000Y-64700000D02*
X122150000Y-61400000D01*
X118850000Y-65300000D02*
X122250000Y-61900000D01*
X118950000Y-65800000D02*
X122250000Y-62500000D01*
X119550000Y-65800000D02*
X122250000Y-63100000D01*
X120150000Y-65800000D02*
X122250000Y-63700000D01*
X120750000Y-65800000D02*
X122250000Y-64300000D01*
X121350000Y-65800000D02*
X122250000Y-64900000D01*
D10*
X127550000Y-62100000D02*
X126550000Y-62100000D01*
X127550000Y-63100000D02*
X127550000Y-62100000D01*
X127550000Y-75100000D02*
X127550000Y-76100000D01*
X127550000Y-76100000D02*
X126550000Y-76100000D01*
X130075000Y-59575000D02*
X130075000Y-78625000D01*
X130075000Y-78625000D02*
X111025000Y-78625000D01*
X130075000Y-57025000D02*
X149125000Y-57025000D01*
X130075000Y-76075000D02*
X130075000Y-57025000D01*
X132600000Y-59550000D02*
X132600000Y-60550000D01*
X132600000Y-73550000D02*
X132600000Y-72550000D01*
X132600000Y-73550000D02*
X133600000Y-73550000D01*
X133600000Y-59550000D02*
X132600000Y-59550000D01*
D11*
X137900000Y-59150000D02*
X138200000Y-58850000D01*
X137900000Y-59750000D02*
X138800000Y-58850000D01*
X137900000Y-60350000D02*
X139400000Y-58850000D01*
X137900000Y-60950000D02*
X140000000Y-58850000D01*
X137900000Y-61550000D02*
X140600000Y-58850000D01*
X137900000Y-62150000D02*
X141200000Y-58850000D01*
X137900000Y-62750000D02*
X141300000Y-59350000D01*
X138000000Y-63250000D02*
X141300000Y-59950000D01*
X138600000Y-63250000D02*
X141300000Y-60550000D01*
X139200000Y-63250000D02*
X141300000Y-61150000D01*
X139800000Y-63250000D02*
X141300000Y-61750000D01*
X140400000Y-63250000D02*
X141300000Y-62350000D01*
D10*
X146600000Y-59550000D02*
X145600000Y-59550000D01*
X146600000Y-60550000D02*
X146600000Y-59550000D01*
X146600000Y-72550000D02*
X146600000Y-73550000D01*
X146600000Y-73550000D02*
X145600000Y-73550000D01*
X149125000Y-57025000D02*
X149125000Y-76075000D01*
X149125000Y-76075000D02*
X130075000Y-76075000D01*
D12*
G36*
X201594075Y-125080214D02*
G01*
X201589988Y-125084300D01*
X201585902Y-125080214D01*
X201589988Y-125076128D01*
X201594075Y-125080214D01*
G37*
G36*
X202999737Y-123421205D02*
G01*
X202995651Y-123425291D01*
X202991565Y-123421205D01*
X202995651Y-123417119D01*
X202999737Y-123421205D01*
G37*
G36*
X203931398Y-123298618D02*
G01*
X203927311Y-123302704D01*
X203923225Y-123298618D01*
X203927311Y-123294532D01*
X203931398Y-123298618D01*
G37*
G36*
X204010398Y-125078852D02*
G01*
X204009276Y-125083711D01*
X204004950Y-125084300D01*
X203998223Y-125081310D01*
X203999502Y-125078852D01*
X204009200Y-125077874D01*
X204010398Y-125078852D01*
G37*
G36*
X204008387Y-123873794D02*
G01*
X204016613Y-123892951D01*
X204017433Y-123921173D01*
X204015475Y-123934197D01*
X204009734Y-123952417D01*
X204003000Y-123961361D01*
X203997927Y-123958798D01*
X203996777Y-123949925D01*
X203991140Y-123934345D01*
X203977533Y-123915594D01*
X203960912Y-123899284D01*
X203946235Y-123891027D01*
X203944585Y-123890832D01*
X203941735Y-123888158D01*
X203949769Y-123882226D01*
X203964165Y-123875237D01*
X203980398Y-123869392D01*
X203993782Y-123866894D01*
X204008387Y-123873794D01*
G37*
G36*
X203530947Y-123892069D02*
G01*
X203510176Y-123910987D01*
X203483172Y-123935613D01*
X203455766Y-123960629D01*
X203455662Y-123960725D01*
X203430904Y-123982579D01*
X203411990Y-123995801D01*
X203393019Y-124003124D01*
X203368086Y-124007279D01*
X203351241Y-124009052D01*
X203312766Y-124014326D01*
X203274209Y-124023152D01*
X203230252Y-124036927D01*
X203191790Y-124050873D01*
X203185121Y-124051254D01*
X203189739Y-124042599D01*
X203204049Y-124026172D01*
X203222073Y-124008539D01*
X203249126Y-123984264D01*
X203281336Y-123956744D01*
X203310291Y-123933004D01*
X203387929Y-123870690D01*
X203473740Y-123868371D01*
X203559551Y-123866052D01*
X203530947Y-123892069D01*
G37*
G36*
X203195456Y-124284717D02*
G01*
X203177405Y-124321161D01*
X203160098Y-124360157D01*
X203147146Y-124393547D01*
X203146680Y-124394917D01*
X203137063Y-124421228D01*
X203127173Y-124439061D01*
X203112933Y-124453123D01*
X203090270Y-124468119D01*
X203075964Y-124476586D01*
X203042593Y-124498930D01*
X203009009Y-124525941D01*
X202985198Y-124548949D01*
X202948201Y-124589867D01*
X202953399Y-124512228D01*
X202957451Y-124470311D01*
X202963649Y-124427235D01*
X202970846Y-124390604D01*
X202973037Y-124381974D01*
X202981766Y-124352977D01*
X202990979Y-124334266D01*
X203004873Y-124320213D01*
X203027643Y-124305186D01*
X203032427Y-124302293D01*
X203069714Y-124282319D01*
X203114474Y-124261974D01*
X203159980Y-124244073D01*
X203199504Y-124231429D01*
X203205451Y-124229932D01*
X203227285Y-124224742D01*
X203195456Y-124284717D01*
G37*
G36*
X203116193Y-124486954D02*
G01*
X203115301Y-124506271D01*
X203112317Y-124533387D01*
X203112309Y-124533446D01*
X203109244Y-124577357D01*
X203110714Y-124621610D01*
X203112374Y-124635499D01*
X203119661Y-124683646D01*
X203084168Y-124730740D01*
X203063188Y-124760365D01*
X203043823Y-124790716D01*
X203031650Y-124812566D01*
X203021087Y-124832920D01*
X203013470Y-124845420D01*
X203011555Y-124847299D01*
X203005763Y-124841101D01*
X203000393Y-124832179D01*
X202991732Y-124810868D01*
X202981676Y-124778439D01*
X202971506Y-124739902D01*
X202962501Y-124700264D01*
X202955941Y-124664533D01*
X202954145Y-124651215D01*
X202948762Y-124603636D01*
X202985622Y-124566776D01*
X203006372Y-124548333D01*
X203032816Y-124527959D01*
X203061021Y-124508306D01*
X203087054Y-124492030D01*
X203106979Y-124481784D01*
X203114799Y-124479615D01*
X203116193Y-124486954D01*
G37*
G36*
X202543637Y-123653983D02*
G01*
X202525472Y-123665785D01*
X202498282Y-123682725D01*
X202464588Y-123703215D01*
X202452164Y-123710669D01*
X202364652Y-123765552D01*
X202290571Y-123817895D01*
X202227632Y-123869634D01*
X202173546Y-123922707D01*
X202126024Y-123979051D01*
X202110620Y-123999762D01*
X202095011Y-124017859D01*
X202075143Y-124036217D01*
X202054321Y-124052452D01*
X202035847Y-124064178D01*
X202023027Y-124069013D01*
X202019042Y-124065862D01*
X202024375Y-124055596D01*
X202038924Y-124036112D01*
X202060514Y-124009915D01*
X202086969Y-123979510D01*
X202116115Y-123947401D01*
X202145776Y-123916093D01*
X202171577Y-123890220D01*
X202238275Y-123832213D01*
X202317577Y-123774810D01*
X202405855Y-123720494D01*
X202470571Y-123685876D01*
X202502656Y-123670003D01*
X202528564Y-123657690D01*
X202545351Y-123650302D01*
X202550252Y-123648908D01*
X202543637Y-123653983D01*
G37*
G36*
X203345186Y-124074121D02*
G01*
X203319879Y-124102902D01*
X203295029Y-124132924D01*
X203276481Y-124157063D01*
X203259591Y-124178069D01*
X203244342Y-124192859D01*
X203237500Y-124196958D01*
X203221880Y-124201230D01*
X203197995Y-124207546D01*
X203187910Y-124210170D01*
X203151224Y-124222614D01*
X203108254Y-124241541D01*
X203065801Y-124263643D01*
X203030668Y-124285610D01*
X203026298Y-124288803D01*
X203009912Y-124299961D01*
X203000568Y-124304100D01*
X202999737Y-124303398D01*
X203004139Y-124289456D01*
X203015936Y-124265720D01*
X203033017Y-124235691D01*
X203053269Y-124202871D01*
X203074582Y-124170761D01*
X203094844Y-124142863D01*
X203101865Y-124134052D01*
X203125010Y-124107036D01*
X203143889Y-124089224D01*
X203164075Y-124076772D01*
X203191143Y-124065833D01*
X203210189Y-124059334D01*
X203249943Y-124047922D01*
X203293021Y-124038373D01*
X203330291Y-124032703D01*
X203331248Y-124032612D01*
X203387929Y-124027330D01*
X203345186Y-124074121D01*
G37*
G36*
X203257278Y-124925616D02*
G01*
X203274030Y-124938106D01*
X203296105Y-124955612D01*
X203369660Y-125005646D01*
X203454372Y-125046294D01*
X203547551Y-125076852D01*
X203646507Y-125096617D01*
X203748547Y-125104886D01*
X203850983Y-125100955D01*
X203851838Y-125100868D01*
X203890570Y-125096796D01*
X203926279Y-125092826D01*
X203953837Y-125089539D01*
X203964088Y-125088170D01*
X203982521Y-125086094D01*
X203986954Y-125087076D01*
X203979322Y-125090532D01*
X203961559Y-125095877D01*
X203935600Y-125102527D01*
X203903378Y-125109897D01*
X203868240Y-125117129D01*
X203801049Y-125127553D01*
X203726820Y-125134572D01*
X203650561Y-125138025D01*
X203577279Y-125137754D01*
X203511982Y-125133598D01*
X203480604Y-125129487D01*
X203388589Y-125110772D01*
X203309497Y-125086734D01*
X203272606Y-125071899D01*
X203230835Y-125053513D01*
X203234042Y-125013743D01*
X203237870Y-124974468D01*
X203242143Y-124944208D01*
X203246425Y-124925593D01*
X203249483Y-124920851D01*
X203257278Y-124925616D01*
G37*
G36*
X203293805Y-123225321D02*
G01*
X203272505Y-123251270D01*
X203252487Y-123278680D01*
X203246147Y-123288403D01*
X203231500Y-123307197D01*
X203217165Y-123318016D01*
X203212821Y-123319049D01*
X203196517Y-123324767D01*
X203184294Y-123334648D01*
X203166157Y-123349331D01*
X203146251Y-123360156D01*
X203129496Y-123370893D01*
X203122211Y-123383076D01*
X203122202Y-123383377D01*
X203120441Y-123388857D01*
X203114499Y-123397193D01*
X203103269Y-123409416D01*
X203085640Y-123426557D01*
X203060505Y-123449644D01*
X203026756Y-123479708D01*
X202983283Y-123517779D01*
X202928977Y-123564888D01*
X202898690Y-123591053D01*
X202867919Y-123616534D01*
X202831129Y-123645326D01*
X202791130Y-123675410D01*
X202750733Y-123704769D01*
X202712746Y-123731386D01*
X202679980Y-123753242D01*
X202655246Y-123768319D01*
X202644327Y-123773717D01*
X202642638Y-123770190D01*
X202649558Y-123756403D01*
X202663655Y-123734994D01*
X202670368Y-123725718D01*
X202691930Y-123698568D01*
X202713021Y-123675351D01*
X202729588Y-123660472D01*
X202731628Y-123659110D01*
X202767554Y-123635524D01*
X202813709Y-123602909D01*
X202867956Y-123562926D01*
X202928162Y-123517238D01*
X202992192Y-123467508D01*
X203057911Y-123415397D01*
X203123184Y-123362568D01*
X203185877Y-123310683D01*
X203243854Y-123261406D01*
X203257170Y-123249855D01*
X203283314Y-123227564D01*
X203298263Y-123215974D01*
X203301775Y-123215246D01*
X203293805Y-123225321D01*
G37*
G36*
X204075306Y-124259967D02*
G01*
X204115207Y-124262545D01*
X204143528Y-124266856D01*
X204145718Y-124267427D01*
X204193000Y-124288557D01*
X204232398Y-124321878D01*
X204262519Y-124364582D01*
X204281974Y-124413863D01*
X204289372Y-124466913D01*
X204283322Y-124520922D01*
X204278885Y-124536270D01*
X204262439Y-124570053D01*
X204235460Y-124608289D01*
X204201384Y-124646942D01*
X204163645Y-124681975D01*
X204138732Y-124700926D01*
X204103740Y-124725001D01*
X204127897Y-124679078D01*
X204146651Y-124633013D01*
X204151038Y-124592033D01*
X204141217Y-124553731D01*
X204136828Y-124544791D01*
X204120537Y-124520158D01*
X204100384Y-124502885D01*
X204073447Y-124491868D01*
X204036804Y-124486004D01*
X203987532Y-124484190D01*
X203976346Y-124484213D01*
X203888542Y-124489682D01*
X203807226Y-124505637D01*
X203729263Y-124533206D01*
X203651521Y-124573518D01*
X203570865Y-124627700D01*
X203564383Y-124632524D01*
X203543201Y-124647641D01*
X203530218Y-124653703D01*
X203520951Y-124651963D01*
X203514061Y-124646584D01*
X203497220Y-124624056D01*
X203481516Y-124590243D01*
X203468773Y-124550192D01*
X203460817Y-124508949D01*
X203459549Y-124495883D01*
X203455885Y-124442762D01*
X203519977Y-124404666D01*
X203600485Y-124359659D01*
X203674785Y-124324658D01*
X203747777Y-124297678D01*
X203824360Y-124276734D01*
X203849491Y-124271179D01*
X203884124Y-124265900D01*
X203928234Y-124262086D01*
X203977608Y-124259791D01*
X204028036Y-124259066D01*
X204075306Y-124259967D01*
G37*
G36*
X202559492Y-123878663D02*
G01*
X202543632Y-123889205D01*
X202518905Y-123904728D01*
X202492230Y-123920965D01*
X202410558Y-123973359D01*
X202344849Y-124022732D01*
X202296050Y-124068084D01*
X202280222Y-124086283D01*
X202259189Y-124112306D01*
X202234787Y-124143666D01*
X202208852Y-124177877D01*
X202183222Y-124212452D01*
X202159732Y-124244906D01*
X202140220Y-124272750D01*
X202126522Y-124293500D01*
X202120474Y-124304668D01*
X202120458Y-124305814D01*
X202127783Y-124302562D01*
X202143498Y-124290463D01*
X202164292Y-124272081D01*
X202165612Y-124270850D01*
X202185957Y-124252596D01*
X202200729Y-124240824D01*
X202206967Y-124237875D01*
X202207009Y-124238105D01*
X202202741Y-124247200D01*
X202191370Y-124266224D01*
X202175051Y-124291632D01*
X202168684Y-124301205D01*
X202124045Y-124358787D01*
X202073547Y-124405295D01*
X202012417Y-124444992D01*
X202000197Y-124451595D01*
X201976184Y-124463464D01*
X201943930Y-124478297D01*
X201905996Y-124495039D01*
X201864945Y-124512633D01*
X201823340Y-124530020D01*
X201783743Y-124546146D01*
X201748718Y-124559951D01*
X201720826Y-124570381D01*
X201702630Y-124576377D01*
X201696693Y-124576883D01*
X201696766Y-124576742D01*
X201704862Y-124570477D01*
X201724499Y-124557539D01*
X201753132Y-124539541D01*
X201788216Y-124518098D01*
X201807543Y-124506491D01*
X201857251Y-124475648D01*
X201900640Y-124445684D01*
X201940242Y-124414251D01*
X201978587Y-124379001D01*
X202018206Y-124337588D01*
X202061628Y-124287663D01*
X202111384Y-124226880D01*
X202118480Y-124218020D01*
X202167697Y-124157619D01*
X202210062Y-124108526D01*
X202247847Y-124068488D01*
X202283325Y-124035253D01*
X202318768Y-124006567D01*
X202356447Y-123980176D01*
X202362004Y-123976554D01*
X202387960Y-123960820D01*
X202420451Y-123942653D01*
X202456103Y-123923753D01*
X202491538Y-123905823D01*
X202523382Y-123890565D01*
X202548258Y-123879679D01*
X202562792Y-123874869D01*
X202563887Y-123874777D01*
X202559492Y-123878663D01*
G37*
G36*
X205708515Y-123570455D02*
G01*
X205716137Y-123575113D01*
X205732376Y-123589993D01*
X205754179Y-123615878D01*
X205779136Y-123649508D01*
X205804833Y-123687620D01*
X205828861Y-123726955D01*
X205830370Y-123729587D01*
X205837823Y-123745424D01*
X205848802Y-123772315D01*
X205862338Y-123807518D01*
X205877461Y-123848292D01*
X205893200Y-123891895D01*
X205908586Y-123935585D01*
X205922647Y-123976620D01*
X205934413Y-124012258D01*
X205942915Y-124039757D01*
X205947181Y-124056376D01*
X205947296Y-124059994D01*
X205941858Y-124054837D01*
X205928880Y-124039437D01*
X205910677Y-124016593D01*
X205900708Y-124003732D01*
X205870148Y-123965724D01*
X205847234Y-123941819D01*
X205831262Y-123932068D01*
X205821530Y-123936520D01*
X205817331Y-123955229D01*
X205817963Y-123988245D01*
X205819819Y-124009622D01*
X205826755Y-124092839D01*
X205832199Y-124187177D01*
X205836025Y-124287610D01*
X205838104Y-124389109D01*
X205838308Y-124486647D01*
X205836510Y-124575197D01*
X205835075Y-124609556D01*
X205832193Y-124660780D01*
X205828975Y-124706930D01*
X205825657Y-124745328D01*
X205822477Y-124773297D01*
X205819670Y-124788163D01*
X205819162Y-124789351D01*
X205813474Y-124796433D01*
X205811467Y-124788985D01*
X205811312Y-124783491D01*
X205808001Y-124748832D01*
X205799462Y-124702479D01*
X205786695Y-124647848D01*
X205770697Y-124588358D01*
X205752467Y-124527426D01*
X205733004Y-124468470D01*
X205713306Y-124414908D01*
X205694370Y-124370158D01*
X205685070Y-124351342D01*
X205670904Y-124323867D01*
X205663576Y-124305311D01*
X205662093Y-124290245D01*
X205665459Y-124273242D01*
X205668718Y-124262092D01*
X205684831Y-124194356D01*
X205696701Y-124114364D01*
X205704173Y-124025686D01*
X205707092Y-123931893D01*
X205705303Y-123836553D01*
X205698652Y-123743236D01*
X205693228Y-123696753D01*
X205686721Y-123644696D01*
X205683441Y-123607143D01*
X205683683Y-123582519D01*
X205687744Y-123569247D01*
X205695923Y-123565751D01*
X205708515Y-123570455D01*
G37*
G36*
X204886187Y-123857778D02*
G01*
X204894199Y-123861717D01*
X204911467Y-123874523D01*
X204934787Y-123896919D01*
X204960723Y-123925188D01*
X204985835Y-123955613D01*
X205003979Y-123980412D01*
X205012844Y-123999129D01*
X205017617Y-124019986D01*
X205017705Y-124037502D01*
X205012517Y-124046193D01*
X205011103Y-124046398D01*
X205008003Y-124053807D01*
X205006952Y-124073181D01*
X205008079Y-124098816D01*
X205009733Y-124142380D01*
X205006715Y-124172061D01*
X204999163Y-124187190D01*
X204989648Y-124188253D01*
X204980412Y-124190363D01*
X204977372Y-124202823D01*
X204980822Y-124220737D01*
X204986935Y-124233393D01*
X204992557Y-124250790D01*
X204989317Y-124265172D01*
X204979139Y-124271199D01*
X204973695Y-124270129D01*
X204963563Y-124271137D01*
X204961470Y-124281220D01*
X204968016Y-124294901D01*
X204970672Y-124297848D01*
X204975756Y-124308642D01*
X204973898Y-124327027D01*
X204969777Y-124342387D01*
X204957976Y-124376554D01*
X204942482Y-124413667D01*
X204924502Y-124451691D01*
X204905247Y-124488590D01*
X204885924Y-124522328D01*
X204867743Y-124550869D01*
X204851912Y-124572179D01*
X204839641Y-124584222D01*
X204832139Y-124584961D01*
X204830368Y-124577126D01*
X204825263Y-124572468D01*
X204821426Y-124573997D01*
X204815899Y-124585365D01*
X204816219Y-124599063D01*
X204815370Y-124611884D01*
X204807321Y-124628730D01*
X204790515Y-124652194D01*
X204767712Y-124679830D01*
X204745176Y-124705797D01*
X204726658Y-124726301D01*
X204714622Y-124738660D01*
X204711470Y-124741057D01*
X204710144Y-124734202D01*
X204712531Y-124718583D01*
X204718171Y-124694386D01*
X204724652Y-124667638D01*
X204724686Y-124667505D01*
X204742786Y-124586479D01*
X204759203Y-124497411D01*
X204773571Y-124403632D01*
X204785521Y-124308478D01*
X204794687Y-124215282D01*
X204800701Y-124127376D01*
X204803196Y-124048095D01*
X204801806Y-123980772D01*
X204801268Y-123972324D01*
X204795788Y-123894165D01*
X204821878Y-123872212D01*
X204844904Y-123855767D01*
X204864217Y-123851264D01*
X204886187Y-123857778D01*
G37*
G36*
X202039015Y-124521143D02*
G01*
X202028678Y-124528410D01*
X202027038Y-124528573D01*
X202015714Y-124532551D01*
X201993278Y-124543414D01*
X201962588Y-124559559D01*
X201926499Y-124579380D01*
X201887868Y-124601275D01*
X201849550Y-124623639D01*
X201814401Y-124644867D01*
X201785278Y-124663355D01*
X201776114Y-124669515D01*
X201726930Y-124707161D01*
X201678650Y-124752307D01*
X201629554Y-124806868D01*
X201577922Y-124872757D01*
X201522034Y-124951889D01*
X201520740Y-124953799D01*
X201466513Y-125031043D01*
X201416471Y-125095554D01*
X201368228Y-125149566D01*
X201319398Y-125195312D01*
X201267596Y-125235024D01*
X201210434Y-125270936D01*
X201145528Y-125305281D01*
X201144838Y-125305621D01*
X201111568Y-125321776D01*
X201083793Y-125334830D01*
X201064711Y-125343310D01*
X201057707Y-125345819D01*
X201061454Y-125341258D01*
X201075867Y-125328911D01*
X201098522Y-125310784D01*
X201120869Y-125293533D01*
X201158743Y-125262986D01*
X201199953Y-125227054D01*
X201237379Y-125192019D01*
X201248237Y-125181162D01*
X201271280Y-125156519D01*
X201297481Y-125126825D01*
X201324867Y-125094529D01*
X201351465Y-125062083D01*
X201375302Y-125031938D01*
X201394408Y-125006544D01*
X201406808Y-124988352D01*
X201410531Y-124979814D01*
X201410414Y-124979640D01*
X201402194Y-124981751D01*
X201382791Y-124990209D01*
X201355304Y-125003417D01*
X201322836Y-125019778D01*
X201288488Y-125037695D01*
X201255360Y-125055572D01*
X201226554Y-125071810D01*
X201205170Y-125084814D01*
X201201797Y-125087064D01*
X201175035Y-125106952D01*
X201144610Y-125131839D01*
X201124795Y-125149341D01*
X201084570Y-125186456D01*
X201100278Y-125158334D01*
X201113090Y-125139797D01*
X201133933Y-125114240D01*
X201159143Y-125086060D01*
X201170195Y-125074455D01*
X201191955Y-125052810D01*
X201212054Y-125035159D01*
X201233684Y-125019442D01*
X201260032Y-125003597D01*
X201294288Y-124985565D01*
X201339641Y-124963285D01*
X201349989Y-124958299D01*
X201400887Y-124933273D01*
X201438927Y-124913149D01*
X201466349Y-124896571D01*
X201485395Y-124882185D01*
X201498304Y-124868634D01*
X201498397Y-124868514D01*
X201510565Y-124851253D01*
X201515609Y-124840717D01*
X201514742Y-124839187D01*
X201505208Y-124843030D01*
X201485102Y-124853272D01*
X201457966Y-124868070D01*
X201443313Y-124876347D01*
X201414271Y-124892274D01*
X201397783Y-124899644D01*
X201393980Y-124898291D01*
X201402994Y-124888047D01*
X201424956Y-124868745D01*
X201459998Y-124840219D01*
X201490808Y-124815902D01*
X201588396Y-124742338D01*
X201678608Y-124680507D01*
X201763845Y-124629043D01*
X201846510Y-124586581D01*
X201929005Y-124551755D01*
X201996592Y-124528445D01*
X202020350Y-124521878D01*
X202035595Y-124519391D01*
X202039015Y-124521143D01*
G37*
G36*
X202939686Y-124880072D02*
G01*
X202954088Y-124891488D01*
X202973816Y-124912825D01*
X202975358Y-124914555D01*
X202998780Y-124938701D01*
X203027545Y-124965269D01*
X203058132Y-124991349D01*
X203087023Y-125014034D01*
X203110699Y-125030415D01*
X203123568Y-125037042D01*
X203126461Y-125044967D01*
X203121784Y-125065013D01*
X203109293Y-125098191D01*
X203108083Y-125101117D01*
X203075911Y-125197337D01*
X203059917Y-125291779D01*
X203060074Y-125384171D01*
X203076354Y-125474242D01*
X203108727Y-125561720D01*
X203157166Y-125646335D01*
X203166405Y-125659588D01*
X203221208Y-125726407D01*
X203284947Y-125785035D01*
X203360119Y-125837496D01*
X203439836Y-125881221D01*
X203546888Y-125926567D01*
X203660798Y-125960864D01*
X203779177Y-125984070D01*
X203899635Y-125996144D01*
X204019784Y-125997043D01*
X204137235Y-125986725D01*
X204249599Y-125965150D01*
X204354486Y-125932274D01*
X204429918Y-125898581D01*
X204457935Y-125883372D01*
X204474790Y-125871227D01*
X204484186Y-125858416D01*
X204489826Y-125841207D01*
X204490738Y-125837316D01*
X204496530Y-125816053D01*
X204504638Y-125806313D01*
X204520622Y-125803602D01*
X204532602Y-125803477D01*
X204554195Y-125801806D01*
X204571011Y-125794697D01*
X204589036Y-125779007D01*
X204598737Y-125768744D01*
X204622524Y-125740999D01*
X204646315Y-125710330D01*
X204655594Y-125697235D01*
X204674678Y-125668823D01*
X204685454Y-125651585D01*
X204688813Y-125643185D01*
X204685647Y-125641288D01*
X204676849Y-125643556D01*
X204675987Y-125643830D01*
X204656537Y-125645073D01*
X204632358Y-125640715D01*
X204629770Y-125639905D01*
X204598378Y-125634639D01*
X204576704Y-125638914D01*
X204560566Y-125643734D01*
X204556481Y-125641370D01*
X204559900Y-125633499D01*
X204582725Y-125605542D01*
X204621739Y-125575998D01*
X204676978Y-125544841D01*
X204680657Y-125542996D01*
X204729102Y-125516357D01*
X204765296Y-125489372D01*
X204792870Y-125457988D01*
X204815455Y-125418147D01*
X204834859Y-125370783D01*
X204845561Y-125341733D01*
X204845995Y-125374423D01*
X204843266Y-125412897D01*
X204835290Y-125458283D01*
X204823684Y-125503460D01*
X204810064Y-125541307D01*
X204806305Y-125549241D01*
X204797013Y-125572444D01*
X204786704Y-125605993D01*
X204777075Y-125644115D01*
X204773527Y-125660672D01*
X204757745Y-125722867D01*
X204738585Y-125769215D01*
X204715978Y-125799873D01*
X204712433Y-125803007D01*
X204706186Y-125806660D01*
X204705293Y-125801022D01*
X204709739Y-125783430D01*
X204712253Y-125774950D01*
X204718127Y-125746463D01*
X204719410Y-125719669D01*
X204718492Y-125711970D01*
X204713416Y-125686588D01*
X204693279Y-125726644D01*
X204676825Y-125755053D01*
X204654879Y-125787517D01*
X204637182Y-125810737D01*
X204617782Y-125835852D01*
X204607656Y-125853705D01*
X204604784Y-125868846D01*
X204606092Y-125880727D01*
X204605658Y-125905291D01*
X204592788Y-125920536D01*
X204566695Y-125927100D01*
X204548420Y-125927323D01*
X204521799Y-125929144D01*
X204493873Y-125937907D01*
X204460940Y-125954239D01*
X204354568Y-126004441D01*
X204238090Y-126044454D01*
X204114577Y-126073765D01*
X203987098Y-126091857D01*
X203858724Y-126098216D01*
X203732526Y-126092325D01*
X203678051Y-126085657D01*
X203558856Y-126063910D01*
X203451730Y-126035264D01*
X203353523Y-125998786D01*
X203298032Y-125972983D01*
X203215550Y-125927521D01*
X203145542Y-125879282D01*
X203084143Y-125825112D01*
X203027486Y-125761853D01*
X203006633Y-125735091D01*
X202943854Y-125638982D01*
X202895392Y-125537115D01*
X202861478Y-125431047D01*
X202842344Y-125322337D01*
X202838222Y-125212541D01*
X202849343Y-125103218D01*
X202875940Y-124995925D01*
X202890559Y-124954962D01*
X202906046Y-124916023D01*
X202917904Y-124891273D01*
X202928371Y-124879645D01*
X202939686Y-124880072D01*
G37*
G36*
X203100893Y-123449672D02*
G01*
X203096123Y-123458630D01*
X203088639Y-123470240D01*
X203077252Y-123484702D01*
X203057070Y-123507462D01*
X203029560Y-123537059D01*
X202996191Y-123572031D01*
X202958432Y-123610916D01*
X202917752Y-123652252D01*
X202875620Y-123694577D01*
X202833504Y-123736429D01*
X202792873Y-123776348D01*
X202755197Y-123812870D01*
X202721943Y-123844534D01*
X202694580Y-123869878D01*
X202674578Y-123887441D01*
X202663405Y-123895760D01*
X202661651Y-123895208D01*
X202661203Y-123888994D01*
X202651822Y-123894961D01*
X202637118Y-123909092D01*
X202620973Y-123924545D01*
X202595142Y-123948080D01*
X202562411Y-123977212D01*
X202525564Y-124009456D01*
X202498316Y-124032974D01*
X202407660Y-124117460D01*
X202332080Y-124202789D01*
X202270321Y-124290562D01*
X202221134Y-124382379D01*
X202216256Y-124393203D01*
X202204527Y-124423254D01*
X202196265Y-124451257D01*
X202192281Y-124473452D01*
X202193386Y-124486079D01*
X202195884Y-124487639D01*
X202203459Y-124481220D01*
X202216801Y-124464386D01*
X202233137Y-124440662D01*
X202234523Y-124438521D01*
X202257661Y-124407451D01*
X202289024Y-124371843D01*
X202324767Y-124335481D01*
X202361044Y-124302149D01*
X202394009Y-124275631D01*
X202412319Y-124263565D01*
X202439924Y-124247817D01*
X202407046Y-124283996D01*
X202347480Y-124352999D01*
X202292726Y-124424200D01*
X202240183Y-124501329D01*
X202187249Y-124588119D01*
X202153382Y-124647895D01*
X202113464Y-124718961D01*
X202078565Y-124777943D01*
X202046538Y-124827446D01*
X202015237Y-124870075D01*
X201982516Y-124908436D01*
X201946227Y-124945134D01*
X201904223Y-124982775D01*
X201854358Y-125023965D01*
X201822903Y-125048998D01*
X201772843Y-125089359D01*
X201732296Y-125124591D01*
X201698050Y-125158218D01*
X201666892Y-125193762D01*
X201635610Y-125234749D01*
X201600990Y-125284701D01*
X201582092Y-125313129D01*
X201531801Y-125384026D01*
X201476931Y-125451812D01*
X201419929Y-125513927D01*
X201363239Y-125567806D01*
X201309307Y-125610889D01*
X201278960Y-125630685D01*
X201245470Y-125649877D01*
X201224506Y-125660532D01*
X201214866Y-125662982D01*
X201215345Y-125657557D01*
X201223678Y-125645913D01*
X201235585Y-125631083D01*
X201254365Y-125607766D01*
X201276614Y-125580186D01*
X201284584Y-125570317D01*
X201305856Y-125542816D01*
X201333159Y-125505809D01*
X201363509Y-125463429D01*
X201393925Y-125419804D01*
X201405377Y-125403026D01*
X201433859Y-125361733D01*
X201462380Y-125321657D01*
X201488333Y-125286376D01*
X201509112Y-125259466D01*
X201516373Y-125250701D01*
X201533206Y-125233650D01*
X201560694Y-125208705D01*
X201596482Y-125177870D01*
X201638220Y-125143149D01*
X201683554Y-125106548D01*
X201710219Y-125085520D01*
X201771658Y-125037144D01*
X201824484Y-124994805D01*
X201867919Y-124959160D01*
X201901186Y-124930867D01*
X201923507Y-124910583D01*
X201934105Y-124898965D01*
X201933951Y-124896334D01*
X201925212Y-124900680D01*
X201907517Y-124911929D01*
X201890345Y-124923699D01*
X201848343Y-124950841D01*
X201795351Y-124981284D01*
X201735710Y-125012660D01*
X201673763Y-125042606D01*
X201663541Y-125047281D01*
X201633591Y-125060273D01*
X201616551Y-125066104D01*
X201612607Y-125064493D01*
X201621946Y-125055164D01*
X201644754Y-125037836D01*
X201681217Y-125012232D01*
X201691883Y-125004919D01*
X201737589Y-124970865D01*
X201771131Y-124938316D01*
X201795749Y-124903305D01*
X201814683Y-124861868D01*
X201819246Y-124849050D01*
X201837315Y-124811644D01*
X201865630Y-124771114D01*
X201900224Y-124732405D01*
X201937128Y-124700465D01*
X201940253Y-124698215D01*
X201965922Y-124680047D01*
X201940396Y-124712595D01*
X201909894Y-124754305D01*
X201890064Y-124787769D01*
X201881208Y-124812204D01*
X201883625Y-124826826D01*
X201895031Y-124830954D01*
X201907669Y-124827713D01*
X201922039Y-124817296D01*
X201938803Y-124798663D01*
X201958625Y-124770772D01*
X201982167Y-124732584D01*
X202010093Y-124683057D01*
X202043065Y-124621152D01*
X202081747Y-124545827D01*
X202100966Y-124507728D01*
X202129995Y-124450635D01*
X202158920Y-124395034D01*
X202186302Y-124343598D01*
X202210700Y-124298999D01*
X202230676Y-124263909D01*
X202244041Y-124242123D01*
X202301141Y-124167930D01*
X202373127Y-124095015D01*
X202458537Y-124024776D01*
X202505422Y-123991370D01*
X202560839Y-123953033D01*
X202603905Y-123921611D01*
X202636311Y-123895660D01*
X202659750Y-123873735D01*
X202675916Y-123854390D01*
X202686001Y-123837252D01*
X202702146Y-123813331D01*
X202731706Y-123781041D01*
X202774288Y-123740761D01*
X202829496Y-123692865D01*
X202883115Y-123648816D01*
X202919997Y-123617754D01*
X202962452Y-123579881D01*
X203004867Y-123540303D01*
X203037105Y-123508721D01*
X203067519Y-123478206D01*
X203087610Y-123458699D01*
X203098395Y-123449441D01*
X203100893Y-123449672D01*
G37*
G36*
X202975910Y-123429048D02*
G01*
X202961749Y-123438918D01*
X202938519Y-123453220D01*
X202923108Y-123462181D01*
X202872326Y-123492340D01*
X202831287Y-123520079D01*
X202796658Y-123548563D01*
X202765105Y-123580957D01*
X202733296Y-123620426D01*
X202697897Y-123670136D01*
X202686558Y-123686810D01*
X202634418Y-123755397D01*
X202579637Y-123811180D01*
X202523877Y-123852494D01*
X202517562Y-123856194D01*
X202489190Y-123871579D01*
X202462631Y-123884651D01*
X202441467Y-123893798D01*
X202429277Y-123897409D01*
X202427665Y-123896685D01*
X202433620Y-123891005D01*
X202449158Y-123878359D01*
X202468802Y-123863109D01*
X202489648Y-123846631D01*
X202503628Y-123834453D01*
X202507621Y-123829463D01*
X202498997Y-123829520D01*
X202479364Y-123832120D01*
X202463115Y-123834877D01*
X202446360Y-123838557D01*
X202431534Y-123844066D01*
X202416134Y-123853249D01*
X202397658Y-123867952D01*
X202373605Y-123890019D01*
X202341474Y-123921296D01*
X202328269Y-123934352D01*
X202290516Y-123970396D01*
X202250557Y-124006264D01*
X202212442Y-124038458D01*
X202180222Y-124063484D01*
X202171547Y-124069591D01*
X202139974Y-124090231D01*
X202117276Y-124103504D01*
X202104555Y-124108971D01*
X202102911Y-124106190D01*
X202113447Y-124094721D01*
X202117062Y-124091392D01*
X202130681Y-124077454D01*
X202131924Y-124071324D01*
X202120405Y-124073100D01*
X202095739Y-124082880D01*
X202057541Y-124100763D01*
X202033344Y-124112724D01*
X201971321Y-124144664D01*
X201920993Y-124172911D01*
X201878852Y-124199773D01*
X201841392Y-124227559D01*
X201805104Y-124258576D01*
X201788930Y-124273535D01*
X201757721Y-124305483D01*
X201735695Y-124333066D01*
X201723025Y-124354954D01*
X201719880Y-124369817D01*
X201726432Y-124376325D01*
X201742850Y-124373148D01*
X201769306Y-124358957D01*
X201778776Y-124352663D01*
X201799000Y-124336939D01*
X201824723Y-124314367D01*
X201853429Y-124287480D01*
X201882603Y-124258806D01*
X201909729Y-124230878D01*
X201932291Y-124206224D01*
X201947773Y-124187376D01*
X201953660Y-124176863D01*
X201953663Y-124176752D01*
X201960205Y-124169671D01*
X201976531Y-124158883D01*
X201997695Y-124147027D01*
X202018748Y-124136741D01*
X202034742Y-124130663D01*
X202040459Y-124130470D01*
X202038891Y-124139805D01*
X202027896Y-124158934D01*
X202009165Y-124185669D01*
X201984385Y-124217820D01*
X201955247Y-124253198D01*
X201923440Y-124289614D01*
X201890652Y-124324880D01*
X201889523Y-124326051D01*
X201837112Y-124379237D01*
X201791998Y-124422111D01*
X201751081Y-124456978D01*
X201711266Y-124486139D01*
X201669452Y-124511898D01*
X201622544Y-124536557D01*
X201578042Y-124557601D01*
X201526712Y-124581252D01*
X201487726Y-124599800D01*
X201458465Y-124614717D01*
X201436310Y-124627478D01*
X201418643Y-124639557D01*
X201402845Y-124652427D01*
X201391806Y-124662407D01*
X201371245Y-124684452D01*
X201365193Y-124699038D01*
X201373670Y-124706266D01*
X201396696Y-124706238D01*
X201399979Y-124705816D01*
X201427680Y-124699422D01*
X201465590Y-124687178D01*
X201509414Y-124670765D01*
X201554855Y-124651865D01*
X201597615Y-124632159D01*
X201626764Y-124617077D01*
X201671713Y-124592194D01*
X201635518Y-124629606D01*
X201596923Y-124662778D01*
X201547590Y-124692995D01*
X201485759Y-124721157D01*
X201409671Y-124748164D01*
X201393849Y-124753119D01*
X201313447Y-124780079D01*
X201246443Y-124807739D01*
X201189911Y-124837530D01*
X201140921Y-124870885D01*
X201122291Y-124885961D01*
X201099256Y-124904904D01*
X201082728Y-124917324D01*
X201075050Y-124921521D01*
X201075201Y-124920107D01*
X201082861Y-124909022D01*
X201098088Y-124888412D01*
X201118381Y-124861627D01*
X201133113Y-124842481D01*
X201158501Y-124811001D01*
X201184424Y-124782053D01*
X201213188Y-124753552D01*
X201247097Y-124723410D01*
X201288454Y-124689540D01*
X201339565Y-124649857D01*
X201377644Y-124621057D01*
X201437830Y-124573987D01*
X201487361Y-124530529D01*
X201530096Y-124486780D01*
X201569895Y-124438837D01*
X201604175Y-124392052D01*
X201653897Y-124329457D01*
X201712157Y-124269741D01*
X201773552Y-124218224D01*
X201798546Y-124200596D01*
X201819559Y-124187865D01*
X201852240Y-124169539D01*
X201893590Y-124147232D01*
X201940608Y-124122558D01*
X201990293Y-124097130D01*
X202000904Y-124091786D01*
X202102503Y-124038842D01*
X202188626Y-123989797D01*
X202259614Y-123944440D01*
X202315810Y-123902558D01*
X202337931Y-123883352D01*
X202374544Y-123849591D01*
X202339811Y-123854730D01*
X202318712Y-123857126D01*
X202306389Y-123857121D01*
X202305079Y-123856363D01*
X202312099Y-123851931D01*
X202330715Y-123843321D01*
X202357261Y-123832203D01*
X202364329Y-123829377D01*
X202407729Y-123808772D01*
X202441550Y-123785821D01*
X202450972Y-123777000D01*
X202466193Y-123761387D01*
X202471673Y-123757404D01*
X202468590Y-123764515D01*
X202465086Y-123770578D01*
X202458142Y-123783327D01*
X202457386Y-123790169D01*
X202465022Y-123791234D01*
X202483256Y-123786650D01*
X202514291Y-123776548D01*
X202522100Y-123773919D01*
X202548043Y-123764638D01*
X202567443Y-123755346D01*
X202584104Y-123743041D01*
X202601832Y-123724720D01*
X202624432Y-123697380D01*
X202633451Y-123686065D01*
X202655833Y-123657348D01*
X202673884Y-123633152D01*
X202685461Y-123616418D01*
X202688615Y-123610438D01*
X202682694Y-123610257D01*
X202666860Y-123617150D01*
X202652408Y-123625084D01*
X202631876Y-123636532D01*
X202618527Y-123642853D01*
X202615632Y-123643227D01*
X202621903Y-123636147D01*
X202638849Y-123621891D01*
X202663671Y-123602534D01*
X202693570Y-123580151D01*
X202725747Y-123556820D01*
X202757402Y-123534613D01*
X202785736Y-123515608D01*
X202799512Y-123506891D01*
X202830519Y-123489161D01*
X202866026Y-123470812D01*
X202902290Y-123453551D01*
X202935569Y-123439084D01*
X202962121Y-123429116D01*
X202978203Y-123425352D01*
X202978387Y-123425352D01*
X202975910Y-123429048D01*
G37*
G36*
X203937622Y-123318068D02*
G01*
X203939155Y-123336794D01*
X203937425Y-123362780D01*
X203932879Y-123391753D01*
X203925963Y-123419440D01*
X203919138Y-123437550D01*
X203899917Y-123467603D01*
X203868405Y-123503657D01*
X203826658Y-123543885D01*
X203776734Y-123586463D01*
X203720690Y-123629565D01*
X203660586Y-123671365D01*
X203641872Y-123683505D01*
X203617951Y-123698758D01*
X203623484Y-123680525D01*
X203631983Y-123651766D01*
X203635848Y-123636057D01*
X203635504Y-123630906D01*
X203631506Y-123633689D01*
X203624427Y-123646275D01*
X203616395Y-123667730D01*
X203614112Y-123675292D01*
X203609156Y-123689449D01*
X203601633Y-123702011D01*
X203589208Y-123715149D01*
X203569546Y-123731033D01*
X203540314Y-123751833D01*
X203508631Y-123773361D01*
X203465516Y-123802404D01*
X203434224Y-123823388D01*
X203412979Y-123837326D01*
X203400009Y-123845234D01*
X203393540Y-123848123D01*
X203391797Y-123847009D01*
X203393009Y-123842906D01*
X203394807Y-123838426D01*
X203401415Y-123816356D01*
X203405504Y-123793516D01*
X203406664Y-123774528D01*
X203404486Y-123764014D01*
X203401433Y-123763679D01*
X203395000Y-123775141D01*
X203392038Y-123795183D01*
X203392015Y-123797088D01*
X203389683Y-123825012D01*
X203381049Y-123848114D01*
X203363660Y-123870303D01*
X203335061Y-123895489D01*
X203325535Y-123902972D01*
X203296023Y-123926644D01*
X203260259Y-123956554D01*
X203223997Y-123987849D01*
X203207226Y-124002727D01*
X203140936Y-124062221D01*
X203151934Y-124015490D01*
X203159012Y-123980333D01*
X203162458Y-123951926D01*
X203162138Y-123933059D01*
X203157915Y-123926524D01*
X203156212Y-123927157D01*
X203152039Y-123936888D01*
X203147689Y-123958369D01*
X203144073Y-123987044D01*
X203143943Y-123988428D01*
X203139463Y-124027265D01*
X203132929Y-124056495D01*
X203122005Y-124081723D01*
X203104361Y-124108553D01*
X203082000Y-124137220D01*
X203057263Y-124170520D01*
X203032616Y-124207914D01*
X203014165Y-124239899D01*
X203000240Y-124265291D01*
X202988614Y-124283724D01*
X202981641Y-124291492D01*
X202981349Y-124291542D01*
X202977687Y-124284255D01*
X202975496Y-124265793D01*
X202975220Y-124254961D01*
X202972973Y-124228466D01*
X202967165Y-124201711D01*
X202959197Y-124178543D01*
X202950470Y-124162809D01*
X202942383Y-124158353D01*
X202940489Y-124159585D01*
X202937785Y-124173487D01*
X202944487Y-124199548D01*
X202945761Y-124203024D01*
X202962061Y-124254727D01*
X202968507Y-124300052D01*
X202965548Y-124345315D01*
X202958246Y-124379842D01*
X202949489Y-124420404D01*
X202941860Y-124466730D01*
X202937345Y-124505438D01*
X202931916Y-124570539D01*
X202906474Y-124522996D01*
X202884792Y-124483873D01*
X202868822Y-124458533D01*
X202857682Y-124445802D01*
X202850489Y-124444507D01*
X202848828Y-124446393D01*
X202850181Y-124457531D01*
X202859871Y-124475678D01*
X202867140Y-124485813D01*
X202901560Y-124535180D01*
X202924589Y-124582287D01*
X202938922Y-124633167D01*
X202942697Y-124655069D01*
X202950009Y-124695536D01*
X202959779Y-124738395D01*
X202969649Y-124773569D01*
X202978424Y-124801657D01*
X202984783Y-124823900D01*
X202987339Y-124835413D01*
X202992402Y-124846522D01*
X203004638Y-124864384D01*
X203010759Y-124872189D01*
X203022388Y-124885239D01*
X203026788Y-124887508D01*
X203025289Y-124883262D01*
X203021646Y-124867616D01*
X203026860Y-124848216D01*
X203033661Y-124834227D01*
X203047265Y-124811024D01*
X203064788Y-124784551D01*
X203083604Y-124758349D01*
X203101091Y-124735956D01*
X203114621Y-124720911D01*
X203120947Y-124716540D01*
X203127333Y-124723477D01*
X203135549Y-124740764D01*
X203137936Y-124747186D01*
X203152723Y-124780650D01*
X203174298Y-124819248D01*
X203198470Y-124856008D01*
X203218529Y-124881265D01*
X203232243Y-124901368D01*
X203233023Y-124919549D01*
X203232503Y-124921323D01*
X203228711Y-124938887D01*
X203224618Y-124966417D01*
X203221493Y-124994227D01*
X203216308Y-125048780D01*
X203175445Y-125024841D01*
X203147598Y-125007097D01*
X203118338Y-124986137D01*
X203090651Y-124964417D01*
X203067527Y-124944393D01*
X203051950Y-124928521D01*
X203046909Y-124919258D01*
X203046932Y-124919172D01*
X203044199Y-124914982D01*
X203041570Y-124916165D01*
X203032850Y-124912847D01*
X203017558Y-124899559D01*
X203000505Y-124880906D01*
X202979204Y-124854221D01*
X202968552Y-124837891D01*
X202968815Y-124832415D01*
X202976483Y-124835821D01*
X202982066Y-124836795D01*
X202980004Y-124832084D01*
X202970509Y-124825950D01*
X202966991Y-124826903D01*
X202958392Y-124823335D01*
X202944626Y-124807885D01*
X202927610Y-124783400D01*
X202909259Y-124752729D01*
X202891489Y-124718718D01*
X202885209Y-124705340D01*
X202858579Y-124637473D01*
X202842258Y-124571644D01*
X202834799Y-124501032D01*
X202833944Y-124463193D01*
X202838658Y-124381009D01*
X202853902Y-124305023D01*
X202881031Y-124229971D01*
X202908369Y-124174143D01*
X202939622Y-124121326D01*
X202975957Y-124070822D01*
X203018610Y-124021600D01*
X203068818Y-123972627D01*
X203127816Y-123922872D01*
X203196841Y-123871301D01*
X203277130Y-123816885D01*
X203369918Y-123758589D01*
X203476442Y-123695382D01*
X203494171Y-123685132D01*
X203574592Y-123638433D01*
X203642050Y-123598445D01*
X203698015Y-123564218D01*
X203704326Y-123560177D01*
X203794753Y-123560177D01*
X203798262Y-123557617D01*
X203799260Y-123556051D01*
X203807310Y-123538575D01*
X203812299Y-123523361D01*
X203814696Y-123511062D01*
X203811187Y-123513622D01*
X203810190Y-123515188D01*
X203802139Y-123532664D01*
X203797150Y-123547878D01*
X203794753Y-123560177D01*
X203704326Y-123560177D01*
X203743963Y-123534799D01*
X203781364Y-123509237D01*
X203811693Y-123486580D01*
X203836421Y-123465875D01*
X203843641Y-123459275D01*
X203871334Y-123429264D01*
X203895466Y-123395630D01*
X203897118Y-123392601D01*
X203915053Y-123392601D01*
X203918043Y-123399328D01*
X203920501Y-123398050D01*
X203921479Y-123388351D01*
X203920501Y-123387153D01*
X203915643Y-123388275D01*
X203915053Y-123392601D01*
X203897118Y-123392601D01*
X203913420Y-123362704D01*
X203922579Y-123334819D01*
X203923225Y-123327493D01*
X203926998Y-123314074D01*
X203932380Y-123310877D01*
X203937622Y-123318068D01*
G37*
G36*
X205021567Y-122287375D02*
G01*
X204995263Y-122346787D01*
X204978085Y-122403431D01*
X204970801Y-122454120D01*
X204972866Y-122489645D01*
X204980607Y-122511542D01*
X204992144Y-122518260D01*
X205012030Y-122520470D01*
X205022421Y-122522720D01*
X205032232Y-122522989D01*
X205039778Y-122515474D01*
X205047273Y-122497014D01*
X205052578Y-122479673D01*
X205062222Y-122454400D01*
X205076812Y-122425008D01*
X205094079Y-122395121D01*
X205111755Y-122368362D01*
X205127570Y-122348354D01*
X205139255Y-122338722D01*
X205141081Y-122338354D01*
X205142489Y-122345000D01*
X205137901Y-122361976D01*
X205132815Y-122374976D01*
X205114424Y-122423439D01*
X205104702Y-122465409D01*
X205102508Y-122507469D01*
X205104573Y-122537928D01*
X205107950Y-122567070D01*
X205111028Y-122581892D01*
X205114523Y-122584385D01*
X205118771Y-122577399D01*
X205126286Y-122564791D01*
X205136363Y-122560330D01*
X205152960Y-122563872D01*
X205179783Y-122575154D01*
X205195057Y-122583412D01*
X205209456Y-122594906D01*
X205225094Y-122612078D01*
X205244086Y-122637366D01*
X205268549Y-122673212D01*
X205280589Y-122691432D01*
X205315748Y-122747546D01*
X205349921Y-122806875D01*
X205381437Y-122866134D01*
X205408624Y-122922038D01*
X205429813Y-122971302D01*
X205443330Y-123010642D01*
X205443735Y-123012139D01*
X205450975Y-123036974D01*
X205455386Y-123047288D01*
X205457049Y-123044642D01*
X205456046Y-123030599D01*
X205452459Y-123006719D01*
X205446370Y-122974565D01*
X205440269Y-122946215D01*
X205432477Y-122910397D01*
X205426603Y-122880966D01*
X205423274Y-122861240D01*
X205422937Y-122854558D01*
X205429056Y-122859207D01*
X205443140Y-122874979D01*
X205463541Y-122899780D01*
X205488610Y-122931513D01*
X205516700Y-122968085D01*
X205546161Y-123007400D01*
X205575346Y-123047363D01*
X205582521Y-123057372D01*
X205684054Y-123207859D01*
X205771489Y-123355770D01*
X205846161Y-123503907D01*
X205909406Y-123655072D01*
X205962561Y-123812068D01*
X205991409Y-123914998D01*
X206001271Y-123955297D01*
X206011269Y-124000126D01*
X206020714Y-124045914D01*
X206028920Y-124089091D01*
X206035199Y-124126085D01*
X206038864Y-124153325D01*
X206039498Y-124164899D01*
X206036428Y-124165876D01*
X206028034Y-124151878D01*
X206014501Y-124123317D01*
X205996015Y-124080605D01*
X205972760Y-124024156D01*
X205945199Y-123955082D01*
X205912728Y-123873923D01*
X205884520Y-123806410D01*
X205859623Y-123750698D01*
X205837086Y-123704940D01*
X205815955Y-123667293D01*
X205795279Y-123635911D01*
X205774106Y-123608950D01*
X205756831Y-123590005D01*
X205727165Y-123561415D01*
X205704943Y-123545665D01*
X205688233Y-123542205D01*
X205675102Y-123550486D01*
X205666328Y-123564295D01*
X205659432Y-123587159D01*
X205656552Y-123621394D01*
X205657697Y-123668236D01*
X205662877Y-123728925D01*
X205667980Y-123772931D01*
X205674453Y-123827145D01*
X205678418Y-123867013D01*
X205679885Y-123894340D01*
X205678865Y-123910928D01*
X205675369Y-123918582D01*
X205669409Y-123919106D01*
X205668872Y-123918911D01*
X205655859Y-123919124D01*
X205651213Y-123929942D01*
X205656111Y-123947293D01*
X205659168Y-123952487D01*
X205669410Y-123973284D01*
X205671564Y-123989639D01*
X205665198Y-123997242D01*
X205663671Y-123997363D01*
X205659441Y-124002845D01*
X205663035Y-124011982D01*
X205665389Y-124027862D01*
X205663728Y-124056612D01*
X205658626Y-124095411D01*
X205650656Y-124141441D01*
X205640393Y-124191884D01*
X205628409Y-124243920D01*
X205615279Y-124294732D01*
X205601576Y-124341499D01*
X205587873Y-124381403D01*
X205587839Y-124381492D01*
X205577910Y-124406482D01*
X205570685Y-124419648D01*
X205565086Y-124420074D01*
X205560033Y-124406842D01*
X205554448Y-124379035D01*
X205549378Y-124348779D01*
X205540958Y-124304135D01*
X205531165Y-124263112D01*
X205520867Y-124228434D01*
X205510929Y-124202824D01*
X205502222Y-124189004D01*
X205497978Y-124187494D01*
X205492459Y-124196547D01*
X205486224Y-124217928D01*
X205480331Y-124247714D01*
X205478529Y-124259522D01*
X205471435Y-124310013D01*
X205466169Y-124346507D01*
X205462086Y-124371163D01*
X205458540Y-124386139D01*
X205454889Y-124393595D01*
X205450486Y-124395690D01*
X205444686Y-124394584D01*
X205438711Y-124392871D01*
X205423764Y-124391572D01*
X205418936Y-124400152D01*
X205418785Y-124404100D01*
X205424634Y-124422772D01*
X205431044Y-124430504D01*
X205442395Y-124447629D01*
X205437545Y-124466395D01*
X205430523Y-124474806D01*
X205422098Y-124487663D01*
X205422074Y-124494594D01*
X205421153Y-124506278D01*
X205412107Y-124527534D01*
X205396707Y-124555783D01*
X205376725Y-124588448D01*
X205353933Y-124622952D01*
X205330105Y-124656716D01*
X205307011Y-124687162D01*
X205286424Y-124711715D01*
X205270116Y-124727794D01*
X205259860Y-124732824D01*
X205258678Y-124732267D01*
X205247162Y-124728896D01*
X205240313Y-124740059D01*
X205238991Y-124754024D01*
X205231850Y-124771828D01*
X205210750Y-124796666D01*
X205192411Y-124813956D01*
X205163565Y-124838708D01*
X205145211Y-124852021D01*
X205136588Y-124854312D01*
X205136938Y-124845999D01*
X205137649Y-124844039D01*
X205136535Y-124830700D01*
X205132948Y-124826991D01*
X205119455Y-124826375D01*
X205107389Y-124837713D01*
X205100534Y-124856786D01*
X205100059Y-124863644D01*
X205094434Y-124887261D01*
X205079647Y-124900431D01*
X205059595Y-124900546D01*
X205045454Y-124900289D01*
X205036157Y-124913013D01*
X205035037Y-124915825D01*
X205022232Y-124934249D01*
X205003229Y-124948814D01*
X204986654Y-124956418D01*
X204978967Y-124955202D01*
X204975039Y-124945119D01*
X204965850Y-124931439D01*
X204951300Y-124929269D01*
X204935130Y-124936542D01*
X204921080Y-124951193D01*
X204912890Y-124971155D01*
X204912093Y-124979899D01*
X204909680Y-124991859D01*
X204900719Y-125003836D01*
X204882620Y-125018330D01*
X204852797Y-125037839D01*
X204850873Y-125039041D01*
X204815343Y-125062851D01*
X204778447Y-125090241D01*
X204747545Y-125115716D01*
X204744631Y-125118345D01*
X204723129Y-125137647D01*
X204707215Y-125151266D01*
X204699815Y-125156716D01*
X204699613Y-125156629D01*
X204703595Y-125139656D01*
X204714914Y-125110386D01*
X204732674Y-125070644D01*
X204755978Y-125022254D01*
X204783928Y-124967038D01*
X204815630Y-124906822D01*
X204850185Y-124843427D01*
X204877682Y-124794458D01*
X204948653Y-124666337D01*
X205009684Y-124548568D01*
X205061570Y-124439180D01*
X205105107Y-124336199D01*
X205141089Y-124237652D01*
X205170310Y-124141565D01*
X205193566Y-124045966D01*
X205206957Y-123976932D01*
X205218124Y-123892087D01*
X205224460Y-123795370D01*
X205225924Y-123690539D01*
X205222473Y-123581350D01*
X205214068Y-123471560D01*
X205212667Y-123457981D01*
X205204815Y-123382470D01*
X205198936Y-123321868D01*
X205194955Y-123274867D01*
X205192796Y-123240160D01*
X205192383Y-123216439D01*
X205193642Y-123202398D01*
X205196497Y-123196728D01*
X205197567Y-123196462D01*
X205205957Y-123201891D01*
X205206301Y-123203976D01*
X205211462Y-123213267D01*
X205225081Y-123230839D01*
X205244364Y-123253119D01*
X205247163Y-123256200D01*
X205270544Y-123283027D01*
X205283243Y-123302239D01*
X205286423Y-123317485D01*
X205281246Y-123332413D01*
X205274704Y-123342605D01*
X205266104Y-123355653D01*
X205267873Y-123357754D01*
X205278219Y-123352614D01*
X205292814Y-123337887D01*
X205297671Y-123325197D01*
X205304733Y-123310771D01*
X205314326Y-123309132D01*
X205330724Y-123306712D01*
X205353962Y-123297899D01*
X205377565Y-123285778D01*
X205395057Y-123273436D01*
X205399155Y-123268719D01*
X205397929Y-123265807D01*
X205386843Y-123271851D01*
X205385632Y-123272688D01*
X205367146Y-123283990D01*
X205359409Y-123283450D01*
X205361470Y-123270200D01*
X205367027Y-123255754D01*
X205376955Y-123213014D01*
X205376020Y-123161406D01*
X205369558Y-123126997D01*
X205469413Y-123126997D01*
X205470296Y-123140954D01*
X205472855Y-123142183D01*
X205473180Y-123141454D01*
X205474797Y-123125230D01*
X205473483Y-123116937D01*
X205470882Y-123113604D01*
X205469467Y-123124459D01*
X205469413Y-123126997D01*
X205369558Y-123126997D01*
X205365128Y-123103404D01*
X205355617Y-123073876D01*
X205460938Y-123073876D01*
X205462222Y-123085477D01*
X205465060Y-123084091D01*
X205466139Y-123067359D01*
X205465060Y-123063660D01*
X205462077Y-123062633D01*
X205460938Y-123073876D01*
X205355617Y-123073876D01*
X205345184Y-123041483D01*
X205317092Y-122978119D01*
X205281758Y-122915788D01*
X205240086Y-122856964D01*
X205207333Y-122818885D01*
X205177932Y-122790149D01*
X205145151Y-122762348D01*
X205112251Y-122737817D01*
X205082491Y-122718892D01*
X205059130Y-122707909D01*
X205049955Y-122706098D01*
X205043969Y-122709841D01*
X205041234Y-122723005D01*
X205041338Y-122748453D01*
X205041996Y-122761262D01*
X205045227Y-122816443D01*
X205054255Y-122776960D01*
X205063283Y-122737476D01*
X205100059Y-122763665D01*
X205154061Y-122806610D01*
X205198812Y-122853261D01*
X205239580Y-122908733D01*
X205270264Y-122959547D01*
X205293049Y-123008717D01*
X205309947Y-123061705D01*
X205322971Y-123123979D01*
X205326227Y-123144015D01*
X205332564Y-123190435D01*
X205334797Y-123222778D01*
X205332842Y-123242812D01*
X205326616Y-123252301D01*
X205320996Y-123253670D01*
X205307168Y-123247398D01*
X205286935Y-123230516D01*
X205263088Y-123205927D01*
X205238420Y-123176531D01*
X205215723Y-123145230D01*
X205213765Y-123142254D01*
X205196081Y-123115848D01*
X205184825Y-123101650D01*
X205177981Y-123097875D01*
X205173533Y-123102736D01*
X205172379Y-123105572D01*
X205169418Y-123122228D01*
X205167085Y-123153109D01*
X205165396Y-123196107D01*
X205164367Y-123249112D01*
X205164013Y-123310018D01*
X205164349Y-123376714D01*
X205165391Y-123447093D01*
X205167155Y-123519046D01*
X205168946Y-123572396D01*
X205171307Y-123683802D01*
X205169273Y-123781200D01*
X205162648Y-123866378D01*
X205151236Y-123941123D01*
X205134843Y-124007225D01*
X205115449Y-124061329D01*
X205104102Y-124088519D01*
X205056126Y-124013895D01*
X205008433Y-123944721D01*
X204964436Y-123891295D01*
X204924171Y-123853652D01*
X204887676Y-123831830D01*
X204858840Y-123825742D01*
X204831832Y-123830089D01*
X204809661Y-123844874D01*
X204788665Y-123872711D01*
X204785391Y-123878174D01*
X204770569Y-123900274D01*
X204758426Y-123909679D01*
X204748359Y-123909760D01*
X204735544Y-123911221D01*
X204732403Y-123921831D01*
X204739436Y-123937211D01*
X204744557Y-123943075D01*
X204755037Y-123959842D01*
X204755227Y-123975254D01*
X204747197Y-123982863D01*
X204742009Y-123990739D01*
X204745153Y-123997846D01*
X204749833Y-124010640D01*
X204755325Y-124033372D01*
X204760779Y-124061163D01*
X204765342Y-124089136D01*
X204768163Y-124112413D01*
X204768389Y-124126115D01*
X204767821Y-124127632D01*
X204761372Y-124123251D01*
X204745379Y-124108899D01*
X204721685Y-124086331D01*
X204692135Y-124057301D01*
X204659081Y-124024085D01*
X204622533Y-123987892D01*
X204586909Y-123954258D01*
X204554911Y-123925614D01*
X204529241Y-123904393D01*
X204514782Y-123894221D01*
X204467597Y-123874734D01*
X204421143Y-123871143D01*
X204376893Y-123883018D01*
X204336318Y-123909927D01*
X204300890Y-123951439D01*
X204296549Y-123958191D01*
X204270814Y-123999590D01*
X204255157Y-123963744D01*
X204245440Y-123937623D01*
X204239466Y-123914197D01*
X204238683Y-123907466D01*
X204234846Y-123892824D01*
X204228286Y-123888866D01*
X204216883Y-123884842D01*
X204199669Y-123872561D01*
X204192813Y-123866507D01*
X204157934Y-123842245D01*
X204117614Y-123830815D01*
X204069141Y-123831596D01*
X204051842Y-123834256D01*
X204020737Y-123841567D01*
X203980534Y-123853379D01*
X203936136Y-123867997D01*
X203892445Y-123883724D01*
X203854366Y-123898867D01*
X203826799Y-123911730D01*
X203825156Y-123912631D01*
X203812359Y-123920189D01*
X203812659Y-123922878D01*
X203827484Y-123922316D01*
X203833328Y-123921880D01*
X203861932Y-123919725D01*
X203864459Y-123964270D01*
X203862856Y-124001974D01*
X203854978Y-124038969D01*
X203842387Y-124069871D01*
X203828552Y-124087833D01*
X203820863Y-124092854D01*
X203820962Y-124086761D01*
X203824895Y-124075686D01*
X203832722Y-124044686D01*
X203833110Y-124016179D01*
X203826742Y-123994024D01*
X203814297Y-123982079D01*
X203808193Y-123981018D01*
X203797162Y-123976756D01*
X203797683Y-123968760D01*
X203799045Y-123958240D01*
X203790378Y-123959464D01*
X203771364Y-123972580D01*
X203748318Y-123991886D01*
X203726553Y-124011774D01*
X203714412Y-124027057D01*
X203708913Y-124043531D01*
X203707072Y-124066994D01*
X203706901Y-124072360D01*
X203700553Y-124117039D01*
X203688836Y-124144176D01*
X203672126Y-124170566D01*
X203676027Y-124129975D01*
X203676717Y-124099605D01*
X203671303Y-124083378D01*
X203659349Y-124081315D01*
X203640419Y-124093439D01*
X203614076Y-124119775D01*
X203601711Y-124133888D01*
X203580208Y-124161685D01*
X203570093Y-124182036D01*
X203569282Y-124195006D01*
X203569005Y-124217431D01*
X203564684Y-124234365D01*
X203556501Y-124254796D01*
X203555983Y-124231641D01*
X203553303Y-124215426D01*
X203545940Y-124213019D01*
X203533366Y-124224775D01*
X203515050Y-124251049D01*
X203506462Y-124264935D01*
X203471748Y-124333406D01*
X203448654Y-124403422D01*
X203437538Y-124472362D01*
X203438760Y-124537601D01*
X203452677Y-124596518D01*
X203459072Y-124611904D01*
X203493647Y-124667923D01*
X203540325Y-124715182D01*
X203597200Y-124753338D01*
X203662367Y-124782054D01*
X203733921Y-124800987D01*
X203809956Y-124809798D01*
X203888567Y-124808147D01*
X203967847Y-124795694D01*
X204045892Y-124772098D01*
X204120796Y-124737019D01*
X204130041Y-124731693D01*
X204180801Y-124697056D01*
X204227079Y-124656580D01*
X204265191Y-124613895D01*
X204291454Y-124572632D01*
X204291495Y-124572547D01*
X204307338Y-124526739D01*
X204314442Y-124476271D01*
X204312353Y-124427491D01*
X204304177Y-124395033D01*
X204287047Y-124364383D01*
X204260051Y-124331442D01*
X204227912Y-124301286D01*
X204197003Y-124279886D01*
X204172485Y-124266347D01*
X204212665Y-124271492D01*
X204279809Y-124287850D01*
X204339890Y-124317744D01*
X204391492Y-124359373D01*
X204433199Y-124410936D01*
X204463595Y-124470630D01*
X204481265Y-124536654D01*
X204484792Y-124607206D01*
X204484113Y-124616920D01*
X204469492Y-124698038D01*
X204440093Y-124772743D01*
X204396323Y-124840674D01*
X204338586Y-124901471D01*
X204267288Y-124954772D01*
X204182836Y-125000216D01*
X204085634Y-125037443D01*
X203980432Y-125065171D01*
X203928500Y-125073335D01*
X203866478Y-125078495D01*
X203799164Y-125080653D01*
X203731356Y-125079810D01*
X203667852Y-125075968D01*
X203613448Y-125069128D01*
X203593130Y-125065052D01*
X203492819Y-125035179D01*
X203403641Y-124995264D01*
X203326316Y-124945809D01*
X203261565Y-124887315D01*
X203210108Y-124820285D01*
X203189814Y-124784175D01*
X203160078Y-124711141D01*
X203144556Y-124637888D01*
X203143159Y-124562188D01*
X203155799Y-124481816D01*
X203175238Y-124414770D01*
X203203702Y-124342472D01*
X203239751Y-124271803D01*
X203284353Y-124201640D01*
X203338475Y-124130858D01*
X203403083Y-124058334D01*
X203479146Y-123982945D01*
X203567631Y-123903565D01*
X203669505Y-123819072D01*
X203727596Y-123773129D01*
X203752748Y-123753033D01*
X204094847Y-123753033D01*
X204095594Y-123756326D01*
X204109443Y-123758564D01*
X204133185Y-123759772D01*
X204163615Y-123759976D01*
X204197523Y-123759203D01*
X204231703Y-123757479D01*
X204262948Y-123754830D01*
X204287127Y-123751456D01*
X204338184Y-123740098D01*
X204397563Y-123723829D01*
X204460409Y-123704247D01*
X204521870Y-123682950D01*
X204577092Y-123661536D01*
X204621220Y-123641603D01*
X204621970Y-123641223D01*
X204703785Y-123598862D01*
X204771315Y-123562023D01*
X204825453Y-123530151D01*
X204867089Y-123502693D01*
X204897114Y-123479097D01*
X204916418Y-123458809D01*
X204917037Y-123457981D01*
X204949408Y-123407697D01*
X204979459Y-123349195D01*
X205004798Y-123288025D01*
X205023034Y-123229737D01*
X205029947Y-123196008D01*
X205031981Y-123179924D01*
X205031103Y-123176151D01*
X205026646Y-123185675D01*
X205017940Y-123209483D01*
X205014847Y-123218282D01*
X205002796Y-123249931D01*
X204985935Y-123290583D01*
X204966667Y-123334576D01*
X204950619Y-123369472D01*
X204926721Y-123417331D01*
X204905134Y-123452849D01*
X204883002Y-123479196D01*
X204857470Y-123499537D01*
X204825682Y-123517040D01*
X204811844Y-123523395D01*
X204789074Y-123534636D01*
X204757824Y-123551551D01*
X204723492Y-123571180D01*
X204709709Y-123579368D01*
X204648659Y-123613354D01*
X204588772Y-123641589D01*
X204533699Y-123662526D01*
X204487096Y-123674621D01*
X204483039Y-123675285D01*
X204460397Y-123679216D01*
X204452304Y-123682352D01*
X204457066Y-123685700D01*
X204462607Y-123687446D01*
X204483039Y-123693353D01*
X204461085Y-123694168D01*
X204444069Y-123696406D01*
X204415695Y-123701794D01*
X204380441Y-123709432D01*
X204354843Y-123715451D01*
X204307658Y-123725299D01*
X204254608Y-123733886D01*
X204204775Y-123739813D01*
X204188830Y-123741059D01*
X204152829Y-123743906D01*
X204122227Y-123747395D01*
X204101205Y-123750996D01*
X204094847Y-123753033D01*
X203752748Y-123753033D01*
X203814604Y-123703611D01*
X203889609Y-123640170D01*
X203952182Y-123583215D01*
X204001893Y-123533157D01*
X204038313Y-123490406D01*
X204061014Y-123455373D01*
X204061750Y-123453895D01*
X204079108Y-123404475D01*
X204085694Y-123352251D01*
X204081065Y-123302930D01*
X204075031Y-123282748D01*
X204061156Y-123258238D01*
X204315503Y-123258238D01*
X204317439Y-123276834D01*
X204322560Y-123282748D01*
X204323676Y-123282273D01*
X204328822Y-123286204D01*
X204331553Y-123304117D01*
X204331848Y-123315683D01*
X204332656Y-123335894D01*
X204336785Y-123351185D01*
X204346795Y-123366016D01*
X204365247Y-123384844D01*
X204378840Y-123397522D01*
X204406943Y-123423019D01*
X204423675Y-123437098D01*
X204429231Y-123439889D01*
X204423805Y-123431523D01*
X204417077Y-123423248D01*
X204401803Y-123406236D01*
X204390581Y-123395266D01*
X204386144Y-123387655D01*
X204390943Y-123377325D01*
X204406716Y-123361102D01*
X204411884Y-123356379D01*
X204430194Y-123336048D01*
X204444953Y-123312893D01*
X204454721Y-123290538D01*
X204458057Y-123272610D01*
X204453518Y-123262731D01*
X204449480Y-123261842D01*
X204439476Y-123268428D01*
X204438090Y-123274426D01*
X204433690Y-123294402D01*
X204422329Y-123317451D01*
X204406768Y-123340117D01*
X204389769Y-123358949D01*
X204374091Y-123370491D01*
X204362495Y-123371291D01*
X204361388Y-123370383D01*
X204357565Y-123358158D01*
X204356414Y-123336179D01*
X204357702Y-123310777D01*
X204361193Y-123288283D01*
X204364826Y-123277650D01*
X204369051Y-123265342D01*
X204361907Y-123261853D01*
X204361027Y-123261842D01*
X204347783Y-123255346D01*
X204340021Y-123245497D01*
X204328905Y-123231144D01*
X204320416Y-123232386D01*
X204315898Y-123248523D01*
X204315503Y-123258238D01*
X204061156Y-123258238D01*
X204057044Y-123250974D01*
X204028273Y-123217036D01*
X203992968Y-123185187D01*
X203955379Y-123159678D01*
X203948242Y-123155855D01*
X203921184Y-123144185D01*
X203887779Y-123132806D01*
X203852399Y-123122838D01*
X203819417Y-123115400D01*
X203793205Y-123111612D01*
X203778607Y-123112397D01*
X203777659Y-123116651D01*
X203791808Y-123122281D01*
X203815843Y-123127994D01*
X203877574Y-123145238D01*
X203934672Y-123170027D01*
X203983604Y-123200421D01*
X204020837Y-123234479D01*
X204029316Y-123245284D01*
X204046649Y-123269626D01*
X204019670Y-123281306D01*
X203992691Y-123292986D01*
X204022930Y-123288670D01*
X204043170Y-123287028D01*
X204053162Y-123291849D01*
X204058617Y-123306069D01*
X204058897Y-123307174D01*
X204063249Y-123332166D01*
X204065434Y-123358358D01*
X204064042Y-123378082D01*
X204055358Y-123389430D01*
X204037640Y-123397763D01*
X204009036Y-123408803D01*
X204036410Y-123403961D01*
X204054535Y-123401649D01*
X204060523Y-123405416D01*
X204058192Y-123417802D01*
X204058033Y-123418334D01*
X204049469Y-123439973D01*
X204035517Y-123462821D01*
X204014011Y-123489841D01*
X203982788Y-123523998D01*
X203974789Y-123532361D01*
X203922891Y-123586309D01*
X203880153Y-123583651D01*
X203857264Y-123582482D01*
X203849476Y-123583028D01*
X203855607Y-123585617D01*
X203864390Y-123588006D01*
X203883843Y-123593896D01*
X203895150Y-123598866D01*
X203895567Y-123599220D01*
X203891362Y-123605651D01*
X203876662Y-123619618D01*
X203854019Y-123638810D01*
X203835902Y-123653263D01*
X203806414Y-123675989D01*
X203785301Y-123690529D01*
X203768070Y-123698775D01*
X203750226Y-123702619D01*
X203727274Y-123703951D01*
X203714828Y-123704221D01*
X203686109Y-123704897D01*
X203672647Y-123705742D01*
X203673357Y-123707133D01*
X203687150Y-123709445D01*
X203696096Y-123710714D01*
X203719570Y-123714671D01*
X203735391Y-123718603D01*
X203738645Y-123720162D01*
X203734168Y-123726409D01*
X203718998Y-123740504D01*
X203695459Y-123760412D01*
X203665877Y-123784097D01*
X203663152Y-123786224D01*
X203583585Y-123848213D01*
X203500062Y-123851568D01*
X203461558Y-123852689D01*
X203437587Y-123852233D01*
X203426401Y-123850055D01*
X203426249Y-123846011D01*
X203426752Y-123845519D01*
X203437067Y-123837712D01*
X203458207Y-123822882D01*
X203487337Y-123802981D01*
X203521623Y-123779962D01*
X203530947Y-123773763D01*
X203577105Y-123743125D01*
X203612602Y-123719475D01*
X203640395Y-123700762D01*
X203663444Y-123684941D01*
X203684707Y-123669961D01*
X203707144Y-123653776D01*
X203733712Y-123634336D01*
X203755690Y-123618182D01*
X203813914Y-123572705D01*
X203863200Y-123528764D01*
X203901931Y-123487987D01*
X203928490Y-123452002D01*
X203937009Y-123435593D01*
X203942981Y-123413033D01*
X203996777Y-123413033D01*
X204000864Y-123417119D01*
X204004950Y-123413033D01*
X204000864Y-123408946D01*
X203996777Y-123413033D01*
X203942981Y-123413033D01*
X203945767Y-123402508D01*
X203949200Y-123362036D01*
X203947146Y-123321886D01*
X203940060Y-123291312D01*
X203916600Y-123249928D01*
X203882479Y-123214250D01*
X203843355Y-123189867D01*
X203811748Y-123178861D01*
X203768351Y-123167302D01*
X203717653Y-123156130D01*
X203664141Y-123146283D01*
X203612302Y-123138698D01*
X203583841Y-123135620D01*
X203526408Y-123130451D01*
X203500067Y-123218621D01*
X203486747Y-123264558D01*
X203478506Y-123297531D01*
X203475191Y-123320059D01*
X203476651Y-123334665D01*
X203482731Y-123343868D01*
X203492128Y-123349661D01*
X203501657Y-123355081D01*
X203501577Y-123360154D01*
X203489955Y-123367287D01*
X203470829Y-123376193D01*
X203444076Y-123386583D01*
X203427984Y-123388244D01*
X203422203Y-123385195D01*
X203407010Y-123377564D01*
X203396510Y-123375985D01*
X203385446Y-123375100D01*
X203386432Y-123370625D01*
X203397874Y-123360592D01*
X203407709Y-123349501D01*
X203414239Y-123333331D01*
X203418679Y-123307958D01*
X203421307Y-123281182D01*
X203423610Y-123248344D01*
X203423439Y-123227511D01*
X203420158Y-123214449D01*
X203413130Y-123204923D01*
X203409319Y-123201325D01*
X203394642Y-123185729D01*
X203393369Y-123178337D01*
X203404495Y-123179640D01*
X203427015Y-123190125D01*
X203429513Y-123191506D01*
X203467011Y-123212463D01*
X203464246Y-123174345D01*
X203461481Y-123136226D01*
X203506430Y-123122811D01*
X203535114Y-123113446D01*
X203560063Y-123103938D01*
X203570665Y-123099040D01*
X203589952Y-123088684D01*
X203562493Y-123072293D01*
X203555223Y-123067268D01*
X204230373Y-123067268D01*
X204231774Y-123075794D01*
X204237315Y-123093678D01*
X204238968Y-123098393D01*
X204245597Y-123114790D01*
X204248859Y-123116335D01*
X204249662Y-123108609D01*
X204252433Y-123093800D01*
X204260131Y-123092615D01*
X204273450Y-123105435D01*
X204292944Y-123132431D01*
X204308439Y-123153852D01*
X204324009Y-123169537D01*
X204344103Y-123182780D01*
X204373168Y-123196872D01*
X204389816Y-123204135D01*
X204422364Y-123217870D01*
X204444157Y-123224859D01*
X204456831Y-123223324D01*
X204462024Y-123211487D01*
X204461373Y-123187571D01*
X204456515Y-123149796D01*
X204454286Y-123134116D01*
X204447262Y-123093285D01*
X204439880Y-123068104D01*
X204431852Y-123057879D01*
X204423966Y-123060758D01*
X204422898Y-123070514D01*
X204424222Y-123092381D01*
X204427640Y-123122349D01*
X204429509Y-123135578D01*
X204433720Y-123167582D01*
X204436035Y-123193008D01*
X204436132Y-123207873D01*
X204435483Y-123209966D01*
X204426263Y-123209234D01*
X204409491Y-123201622D01*
X204406781Y-123200064D01*
X204393359Y-123190514D01*
X204385216Y-123178477D01*
X204380250Y-123159174D01*
X204376780Y-123131845D01*
X204373402Y-123103614D01*
X204370151Y-123082251D01*
X204367828Y-123072670D01*
X204358789Y-123071467D01*
X204339319Y-123074280D01*
X204325754Y-123077404D01*
X204297953Y-123082930D01*
X204277011Y-123081878D01*
X204259456Y-123076087D01*
X204241145Y-123069300D01*
X204230953Y-123067014D01*
X204230373Y-123067268D01*
X203555223Y-123067268D01*
X203538362Y-123055614D01*
X203513129Y-123034912D01*
X203507972Y-123030156D01*
X203492040Y-123016019D01*
X203485551Y-123013404D01*
X203486706Y-123020755D01*
X203495318Y-123037965D01*
X203509152Y-123059520D01*
X203512177Y-123063708D01*
X203523527Y-123082087D01*
X203527814Y-123095445D01*
X203527295Y-123097691D01*
X203517328Y-123103789D01*
X203496853Y-123111283D01*
X203481894Y-123115532D01*
X203458838Y-123122257D01*
X203444028Y-123128141D01*
X203441050Y-123130639D01*
X203443099Y-123140917D01*
X203448104Y-123159852D01*
X203448808Y-123162326D01*
X203452743Y-123180448D01*
X203449944Y-123186019D01*
X203446765Y-123185227D01*
X203379634Y-123161788D01*
X203314317Y-123150303D01*
X203246505Y-123149235D01*
X203193260Y-123153853D01*
X203154426Y-123161943D01*
X203130372Y-123173247D01*
X203121470Y-123187508D01*
X203128092Y-123204468D01*
X203144799Y-123219794D01*
X203167273Y-123236317D01*
X203138477Y-123229927D01*
X203113784Y-123222962D01*
X203093498Y-123214868D01*
X203092807Y-123214505D01*
X203072272Y-123208978D01*
X203059452Y-123209784D01*
X203046348Y-123208027D01*
X203023922Y-123200300D01*
X202996123Y-123188511D01*
X202966902Y-123174565D01*
X202940208Y-123160371D01*
X202919992Y-123147834D01*
X202910202Y-123138863D01*
X202909840Y-123137557D01*
X202915792Y-123125056D01*
X202930839Y-123107025D01*
X202950772Y-123087423D01*
X202971381Y-123070214D01*
X202988457Y-123059358D01*
X202994880Y-123057531D01*
X203010479Y-123054026D01*
X203035515Y-123044768D01*
X203064973Y-123031645D01*
X203069434Y-123029474D01*
X203106843Y-123010731D01*
X203130340Y-122998006D01*
X203140884Y-122990543D01*
X203139436Y-122987582D01*
X203126958Y-122988366D01*
X203120281Y-122989366D01*
X203097650Y-122990423D01*
X203089130Y-122984475D01*
X203094407Y-122972206D01*
X203103610Y-122963421D01*
X203236614Y-122963421D01*
X203236739Y-122966022D01*
X203251941Y-122976388D01*
X203255537Y-122981098D01*
X203262473Y-122986543D01*
X203274984Y-122983759D01*
X203293809Y-122973904D01*
X203312160Y-122962451D01*
X203322082Y-122954486D01*
X203322690Y-122952791D01*
X203313724Y-122952209D01*
X203293400Y-122953616D01*
X203272160Y-122955977D01*
X203249164Y-122959704D01*
X203236614Y-122963421D01*
X203103610Y-122963421D01*
X203113169Y-122954297D01*
X203145101Y-122931432D01*
X203147659Y-122929768D01*
X203245231Y-122859667D01*
X203328094Y-122784762D01*
X203397515Y-122703701D01*
X203454762Y-122615132D01*
X203470600Y-122585216D01*
X203485602Y-122556635D01*
X203494377Y-122542871D01*
X203496931Y-122543986D01*
X203493266Y-122560047D01*
X203483386Y-122591118D01*
X203472824Y-122621696D01*
X203454923Y-122670557D01*
X203439394Y-122707275D01*
X203424155Y-122735433D01*
X203407120Y-122758614D01*
X203386205Y-122780400D01*
X203374001Y-122791570D01*
X203353307Y-122810419D01*
X203344490Y-122819806D01*
X203346873Y-122820738D01*
X203358174Y-122815102D01*
X203386222Y-122796719D01*
X203424326Y-122766918D01*
X203471626Y-122726449D01*
X203527262Y-122676059D01*
X203590376Y-122616498D01*
X203628168Y-122579903D01*
X203745819Y-122465027D01*
X203719058Y-122515939D01*
X203704278Y-122540162D01*
X203681325Y-122573098D01*
X203652821Y-122611188D01*
X203621390Y-122650871D01*
X203605492Y-122670083D01*
X203574281Y-122707204D01*
X203544905Y-122742150D01*
X203519794Y-122772029D01*
X203501379Y-122793948D01*
X203494782Y-122801805D01*
X203470875Y-122830296D01*
X203511127Y-122809054D01*
X203539330Y-122795230D01*
X203575260Y-122779051D01*
X203611349Y-122763922D01*
X203612834Y-122763329D01*
X203650642Y-122746878D01*
X203693838Y-122726003D01*
X203733892Y-122704851D01*
X203738838Y-122702061D01*
X203767534Y-122686256D01*
X203790478Y-122674650D01*
X203804333Y-122668881D01*
X203806803Y-122668693D01*
X203802730Y-122675171D01*
X203788045Y-122688835D01*
X203765546Y-122707523D01*
X203738032Y-122729079D01*
X203708300Y-122751341D01*
X203679150Y-122772152D01*
X203653379Y-122789353D01*
X203639731Y-122797594D01*
X203616858Y-122811478D01*
X203601132Y-122822889D01*
X203596327Y-122828542D01*
X203602467Y-122837095D01*
X203617260Y-122848710D01*
X203617529Y-122848887D01*
X203631965Y-122857754D01*
X203636223Y-122857125D01*
X203633873Y-122847473D01*
X203632540Y-122840296D01*
X203636109Y-122836280D01*
X203647479Y-122835076D01*
X203669551Y-122836333D01*
X203701457Y-122839330D01*
X203731162Y-122841840D01*
X203756909Y-122842587D01*
X203782704Y-122841197D01*
X203812552Y-122837294D01*
X203850460Y-122830500D01*
X203898537Y-122820831D01*
X203941483Y-122812258D01*
X203978511Y-122805377D01*
X204006804Y-122800672D01*
X204023546Y-122798625D01*
X204026844Y-122798837D01*
X204022104Y-122803851D01*
X204006072Y-122813130D01*
X203987058Y-122822402D01*
X203954497Y-122838588D01*
X203920969Y-122857188D01*
X203906853Y-122865793D01*
X203882957Y-122878745D01*
X203862137Y-122886109D01*
X203853759Y-122886800D01*
X203843516Y-122885969D01*
X203842824Y-122889003D01*
X203853066Y-122897546D01*
X203875625Y-122913240D01*
X203876560Y-122913875D01*
X203907107Y-122934605D01*
X203902021Y-122914343D01*
X203901211Y-122900874D01*
X203908743Y-122894608D01*
X203926644Y-122895301D01*
X203956944Y-122902708D01*
X203968918Y-122906252D01*
X204000688Y-122914270D01*
X204030762Y-122917519D01*
X204063520Y-122915802D01*
X204103341Y-122908922D01*
X204148776Y-122898168D01*
X204192356Y-122887679D01*
X204225080Y-122880965D01*
X204245866Y-122878137D01*
X204253631Y-122879302D01*
X204247292Y-122884571D01*
X204237480Y-122889223D01*
X204218280Y-122900018D01*
X204192529Y-122917588D01*
X204167623Y-122936687D01*
X204142472Y-122956131D01*
X204125298Y-122966078D01*
X204112238Y-122968298D01*
X204103329Y-122966149D01*
X204085826Y-122961056D01*
X204080549Y-122963735D01*
X204087665Y-122974981D01*
X204107340Y-122995586D01*
X204110103Y-122998286D01*
X204129470Y-123016654D01*
X204139685Y-123024350D01*
X204143016Y-123022397D01*
X204141883Y-123012588D01*
X204139810Y-122996898D01*
X204144228Y-122993484D01*
X204158307Y-123000977D01*
X204162557Y-123003661D01*
X204180830Y-123011733D01*
X204207859Y-123019840D01*
X204225606Y-123023815D01*
X204248526Y-123027519D01*
X204276765Y-123031086D01*
X204307012Y-123034247D01*
X204335956Y-123036734D01*
X204360288Y-123038280D01*
X204376695Y-123038616D01*
X204381868Y-123037475D01*
X204379107Y-123036236D01*
X204367566Y-123024953D01*
X204360090Y-123002008D01*
X204360058Y-123001819D01*
X204350324Y-122951100D01*
X204337346Y-122894732D01*
X204322012Y-122835638D01*
X204305211Y-122776744D01*
X204288846Y-122724238D01*
X204343691Y-122724238D01*
X204344521Y-122732808D01*
X204349182Y-122753180D01*
X204356763Y-122781514D01*
X204359814Y-122792177D01*
X204369436Y-122828157D01*
X204380368Y-122873542D01*
X204391047Y-122921647D01*
X204397528Y-122953332D01*
X204407545Y-123000252D01*
X204416181Y-123031353D01*
X204423578Y-123047089D01*
X204427200Y-123049358D01*
X204437134Y-123043291D01*
X204438069Y-123039143D01*
X204435882Y-123024418D01*
X204429909Y-122998598D01*
X204421812Y-122967634D01*
X204544332Y-122967634D01*
X204547322Y-122974361D01*
X204549780Y-122973082D01*
X204550758Y-122963383D01*
X204549780Y-122962185D01*
X204544922Y-122963307D01*
X204544332Y-122967634D01*
X204421812Y-122967634D01*
X204420983Y-122964464D01*
X204409938Y-122924797D01*
X204397608Y-122882377D01*
X204384826Y-122839985D01*
X204372424Y-122800403D01*
X204361238Y-122766411D01*
X204354307Y-122746977D01*
X204458934Y-122746977D01*
X204460611Y-122753809D01*
X204467972Y-122772127D01*
X204479660Y-122798665D01*
X204486892Y-122814400D01*
X204502533Y-122849439D01*
X204516572Y-122883444D01*
X204526603Y-122910510D01*
X204528534Y-122916608D01*
X204535422Y-122936560D01*
X204541067Y-122947027D01*
X204542722Y-122947451D01*
X204542150Y-122938373D01*
X204536848Y-122918396D01*
X204528098Y-122892234D01*
X204516832Y-122863316D01*
X204503210Y-122831533D01*
X204488929Y-122800449D01*
X204475685Y-122773623D01*
X204465173Y-122754618D01*
X204459090Y-122746996D01*
X204458934Y-122746977D01*
X204354307Y-122746977D01*
X204352100Y-122740790D01*
X204345844Y-122726321D01*
X204344275Y-122724803D01*
X204439407Y-122724803D01*
X204441396Y-122729370D01*
X204449625Y-122738143D01*
X204454355Y-122736343D01*
X204454435Y-122735201D01*
X204448630Y-122728289D01*
X204445000Y-122725766D01*
X204439407Y-122724803D01*
X204344275Y-122724803D01*
X204343691Y-122724238D01*
X204288846Y-122724238D01*
X204287829Y-122720976D01*
X204284129Y-122710201D01*
X204331848Y-122710201D01*
X204335934Y-122714287D01*
X204340021Y-122710201D01*
X204335934Y-122706115D01*
X204331848Y-122710201D01*
X204284129Y-122710201D01*
X204272902Y-122677511D01*
X204401314Y-122677511D01*
X204416882Y-122695899D01*
X204431373Y-122711342D01*
X204437683Y-122713571D01*
X204438090Y-122711468D01*
X204432579Y-122704794D01*
X204419702Y-122693080D01*
X204401314Y-122677511D01*
X204272902Y-122677511D01*
X204270754Y-122671257D01*
X204262068Y-122648970D01*
X204381418Y-122648970D01*
X204383448Y-122653202D01*
X204388013Y-122659123D01*
X204399941Y-122671829D01*
X204405266Y-122671774D01*
X204405400Y-122670340D01*
X204399815Y-122663518D01*
X204391098Y-122656038D01*
X204381418Y-122648970D01*
X204262068Y-122648970D01*
X204254875Y-122630512D01*
X204241078Y-122601668D01*
X204236312Y-122594076D01*
X204214442Y-122562588D01*
X204199685Y-122539663D01*
X204193323Y-122527318D01*
X204193170Y-122526321D01*
X204199965Y-122520726D01*
X204216822Y-122511550D01*
X204224774Y-122507758D01*
X204244865Y-122496735D01*
X204254960Y-122483788D01*
X204259664Y-122462323D01*
X204260316Y-122456851D01*
X204260731Y-122413636D01*
X204254284Y-122366610D01*
X204245414Y-122334268D01*
X204245972Y-122328528D01*
X204254280Y-122332829D01*
X204267749Y-122344551D01*
X204283789Y-122361076D01*
X204299813Y-122379784D01*
X204313230Y-122398055D01*
X204319902Y-122409634D01*
X204330448Y-122437263D01*
X204337554Y-122465256D01*
X204337603Y-122465553D01*
X204344952Y-122484945D01*
X204358962Y-122505818D01*
X204376033Y-122524319D01*
X204392567Y-122536593D01*
X204404964Y-122538789D01*
X204405667Y-122538414D01*
X204413759Y-122526374D01*
X204420794Y-122504817D01*
X204425230Y-122480566D01*
X204425524Y-122460443D01*
X204424381Y-122455687D01*
X204421690Y-122445438D01*
X204427981Y-122448149D01*
X204431878Y-122451232D01*
X204444844Y-122468940D01*
X204456797Y-122497431D01*
X204465959Y-122531164D01*
X204470553Y-122564593D01*
X204470780Y-122572588D01*
X204471573Y-122592685D01*
X204476299Y-122605575D01*
X204488477Y-122615916D01*
X204511623Y-122628369D01*
X204513685Y-122629409D01*
X204566294Y-122659503D01*
X204626520Y-122700025D01*
X204691602Y-122748776D01*
X204758777Y-122803561D01*
X204825282Y-122862180D01*
X204888355Y-122922436D01*
X204911033Y-122945498D01*
X204946749Y-122982515D01*
X204933325Y-123042851D01*
X204917229Y-123100150D01*
X204894045Y-123156152D01*
X204861860Y-123214878D01*
X204823633Y-123273358D01*
X204801813Y-123306213D01*
X204782885Y-123337234D01*
X204769381Y-123362135D01*
X204764683Y-123373096D01*
X204758800Y-123386670D01*
X204749564Y-123398606D01*
X204735012Y-123409917D01*
X204713177Y-123421615D01*
X204682097Y-123434713D01*
X204639806Y-123450225D01*
X204584340Y-123469162D01*
X204567415Y-123474807D01*
X204518999Y-123490635D01*
X204483318Y-123501501D01*
X204457732Y-123507990D01*
X204439600Y-123510686D01*
X204426284Y-123510173D01*
X204417659Y-123507963D01*
X204392960Y-123501031D01*
X204363908Y-123494941D01*
X204359156Y-123494154D01*
X204338028Y-123490148D01*
X204329641Y-123484609D01*
X204330548Y-123473772D01*
X204333193Y-123465808D01*
X204336577Y-123439812D01*
X204331024Y-123423827D01*
X204320833Y-123404860D01*
X204315321Y-123425344D01*
X204297355Y-123469014D01*
X204267979Y-123504434D01*
X204237745Y-123527171D01*
X204211054Y-123545059D01*
X204196718Y-123556406D01*
X204195082Y-123560586D01*
X204206491Y-123556977D01*
X204226533Y-123547405D01*
X204282648Y-123527010D01*
X204339532Y-123522025D01*
X204387676Y-123530407D01*
X204431485Y-123543792D01*
X204377418Y-123579568D01*
X204351173Y-123597598D01*
X204330381Y-123613115D01*
X204318794Y-123623286D01*
X204317858Y-123624517D01*
X204316585Y-123629579D01*
X204324150Y-123624954D01*
X204385194Y-123583298D01*
X204448755Y-123547682D01*
X204519290Y-123515892D01*
X204601255Y-123485710D01*
X204610074Y-123482754D01*
X204649903Y-123469074D01*
X204685406Y-123456086D01*
X204712976Y-123445164D01*
X204729008Y-123437682D01*
X204729968Y-123437092D01*
X204746433Y-123427715D01*
X204754613Y-123428593D01*
X204756316Y-123441758D01*
X204754022Y-123464110D01*
X204752476Y-123484903D01*
X204754424Y-123491404D01*
X204758734Y-123485000D01*
X204764277Y-123467076D01*
X204768709Y-123446103D01*
X204777039Y-123414645D01*
X204791887Y-123380701D01*
X204815009Y-123340660D01*
X204834481Y-123310877D01*
X204883520Y-123230007D01*
X204919066Y-123151195D01*
X204942604Y-123069951D01*
X204955616Y-122981780D01*
X204958588Y-122934944D01*
X204959941Y-122883782D01*
X204958982Y-122842358D01*
X204955248Y-122804172D01*
X204948271Y-122762720D01*
X204945128Y-122746977D01*
X204927539Y-122661166D01*
X204878953Y-122611912D01*
X204856746Y-122588375D01*
X204839869Y-122568539D01*
X204831048Y-122555683D01*
X204830368Y-122553461D01*
X204837257Y-122544614D01*
X204853867Y-122536074D01*
X204854252Y-122535939D01*
X204871962Y-122527287D01*
X204883897Y-122513803D01*
X204891649Y-122492094D01*
X204896811Y-122458769D01*
X204898478Y-122441753D01*
X204911090Y-122376287D01*
X204935954Y-122319140D01*
X204972041Y-122271997D01*
X205018319Y-122236541D01*
X205026934Y-122231895D01*
X205058161Y-122215964D01*
X205021567Y-122287375D01*
G37*
D10*
X149125002Y-35475000D02*
X168175002Y-35475000D01*
X149125002Y-54525000D02*
X149125002Y-35475000D01*
X151650000Y-38000000D02*
X151650003Y-39000000D01*
X151650002Y-52000002D02*
X151650002Y-50999998D01*
X151650002Y-52000002D02*
X152650002Y-51999999D01*
X152650004Y-38000000D02*
X151650000Y-38000000D01*
D11*
X156950001Y-39399998D02*
X159050002Y-37300000D01*
X156950002Y-37600000D02*
X157250000Y-37300000D01*
X156950002Y-38200000D02*
X157850002Y-37300000D01*
X156950002Y-38800000D02*
X158450000Y-37300000D01*
X156950003Y-39999999D02*
X159650000Y-37299999D01*
X156950004Y-40600002D02*
X160250002Y-37300000D01*
X156950004Y-41200001D02*
X160350002Y-37800000D01*
X157050003Y-41699998D02*
X160350003Y-38399998D01*
X157650003Y-41699998D02*
X160350000Y-39000002D01*
X158250002Y-41700000D02*
X160350002Y-39600000D01*
X158850003Y-41699999D02*
X160350001Y-40200001D01*
X159450002Y-41700002D02*
X160350002Y-40800000D01*
D10*
X165650001Y-51000000D02*
X165650004Y-52000000D01*
X165650002Y-37999998D02*
X164650002Y-38000001D01*
X165650002Y-39000002D02*
X165650002Y-37999998D01*
X165650004Y-52000000D02*
X164650000Y-52000000D01*
X168175002Y-35475000D02*
X168175002Y-54525000D01*
X168175002Y-54525000D02*
X149125002Y-54525000D01*
X168175000Y-37975000D02*
X187225000Y-37975000D01*
X168175000Y-57025000D02*
X168175000Y-37975000D01*
X170700000Y-40500000D02*
X170700000Y-41500000D01*
X170700000Y-54500000D02*
X170700000Y-53500000D01*
X170700000Y-54500000D02*
X171700000Y-54500000D01*
X171700000Y-40500000D02*
X170700000Y-40500000D01*
D11*
X176000000Y-40100000D02*
X176300000Y-39800000D01*
X176000000Y-40700000D02*
X176900000Y-39800000D01*
X176000000Y-41300000D02*
X177500000Y-39800000D01*
X176000000Y-41900000D02*
X178100000Y-39800000D01*
X176000000Y-42500000D02*
X178700000Y-39800000D01*
X176000000Y-43100000D02*
X179300000Y-39800000D01*
X176000000Y-43700000D02*
X179400000Y-40300000D01*
X176100000Y-44200000D02*
X179400000Y-40900000D01*
X176700000Y-44200000D02*
X179400000Y-41500000D01*
X177300000Y-44200000D02*
X179400000Y-42100000D01*
X177900000Y-44200000D02*
X179400000Y-42700000D01*
X178500000Y-44200000D02*
X179400000Y-43300000D01*
D10*
X184700000Y-40500000D02*
X183700000Y-40500000D01*
X184700000Y-41500000D02*
X184700000Y-40500000D01*
X184700000Y-53500000D02*
X184700000Y-54500000D01*
X184700000Y-54500000D02*
X183700000Y-54500000D01*
X187225000Y-37975000D02*
X187225000Y-57025000D01*
X187225000Y-57025000D02*
X168175000Y-57025000D01*
X187225000Y-61925000D02*
X206275000Y-61925000D01*
X187225000Y-80975000D02*
X187225000Y-61925000D01*
X189750000Y-64450000D02*
X189750000Y-65450000D01*
X189750000Y-78450000D02*
X189750000Y-77450000D01*
X189750000Y-78450000D02*
X190750000Y-78450000D01*
X190750000Y-64450000D02*
X189750000Y-64450000D01*
D11*
X195050000Y-64050000D02*
X195350000Y-63750000D01*
X195050000Y-64650000D02*
X195950000Y-63750000D01*
X195050000Y-65250000D02*
X196550000Y-63750000D01*
X195050000Y-65850000D02*
X197150000Y-63750000D01*
X195050000Y-66450000D02*
X197750000Y-63750000D01*
X195050000Y-67050000D02*
X198350000Y-63750000D01*
X195050000Y-67650000D02*
X198450000Y-64250000D01*
X195150000Y-68150000D02*
X198450000Y-64850000D01*
X195750000Y-68150000D02*
X198450000Y-65450000D01*
X196350000Y-68150000D02*
X198450000Y-66050000D01*
X196950000Y-68150000D02*
X198450000Y-66650000D01*
X197550000Y-68150000D02*
X198450000Y-67250000D01*
D10*
X203750000Y-64450000D02*
X202750000Y-64450000D01*
X203750000Y-65450000D02*
X203750000Y-64450000D01*
X203750000Y-77450000D02*
X203750000Y-78450000D01*
X203750000Y-78450000D02*
X202750000Y-78450000D01*
X206275000Y-61925000D02*
X206275000Y-80975000D01*
X206275000Y-80975000D02*
X187225000Y-80975000D01*
X149125000Y-111674999D02*
X168175000Y-111674999D01*
X149125000Y-130724999D02*
X149125000Y-111674999D01*
X151650000Y-114199999D02*
X151650000Y-115199999D01*
X151650000Y-128199999D02*
X151650000Y-127199999D01*
X151650000Y-128199999D02*
X152650000Y-128199999D01*
X152650000Y-114199999D02*
X151650000Y-114199999D01*
D11*
X156950000Y-113799999D02*
X157250000Y-113499999D01*
X156950000Y-114399999D02*
X157850000Y-113499999D01*
X156950000Y-114999999D02*
X158450000Y-113499999D01*
X156950000Y-115599999D02*
X159050000Y-113499999D01*
X156950000Y-116199999D02*
X159650000Y-113499999D01*
X156950000Y-116799999D02*
X160250000Y-113499999D01*
X156950000Y-117399999D02*
X160350000Y-113999999D01*
X157050000Y-117899999D02*
X160350000Y-114599999D01*
X157650000Y-117899999D02*
X160350000Y-115199999D01*
X158250000Y-117899999D02*
X160350000Y-115799999D01*
X158850000Y-117899999D02*
X160350000Y-116399999D01*
X159450000Y-117899999D02*
X160350000Y-116999999D01*
D10*
X165650000Y-114199999D02*
X164650000Y-114199999D01*
X165650000Y-115199999D02*
X165650000Y-114199999D01*
X165650000Y-127199999D02*
X165650000Y-128199999D01*
X165650000Y-128199999D02*
X164650000Y-128199999D01*
X168175000Y-111674999D02*
X168175000Y-130724999D01*
X168175000Y-130724999D02*
X149125000Y-130724999D01*
X130075002Y-37975000D02*
X149125002Y-37975000D01*
X130075002Y-57025000D02*
X130075002Y-37975000D01*
X132600000Y-40500000D02*
X132600003Y-41500000D01*
X132600002Y-54500002D02*
X132600002Y-53499998D01*
X132600002Y-54500002D02*
X133600002Y-54499999D01*
X133600004Y-40500000D02*
X132600000Y-40500000D01*
D11*
X137900001Y-41899998D02*
X140000002Y-39800000D01*
X137900002Y-40100000D02*
X138200000Y-39800000D01*
X137900002Y-40700000D02*
X138800002Y-39800000D01*
X137900002Y-41300000D02*
X139400000Y-39800000D01*
X137900003Y-42499999D02*
X140600000Y-39799999D01*
X137900004Y-43100002D02*
X141200002Y-39800000D01*
X137900004Y-43700001D02*
X141300002Y-40300000D01*
X138000003Y-44199998D02*
X141300003Y-40899998D01*
X138600003Y-44199998D02*
X141300000Y-41500002D01*
X139200002Y-44200000D02*
X141300002Y-42100000D01*
X139800003Y-44199999D02*
X141300001Y-42700001D01*
X140400002Y-44200002D02*
X141300002Y-43300000D01*
D10*
X146600001Y-53500000D02*
X146600004Y-54500000D01*
X146600002Y-40499998D02*
X145600002Y-40500001D01*
X146600002Y-41500002D02*
X146600002Y-40499998D01*
X146600004Y-54500000D02*
X145600000Y-54500000D01*
X149125002Y-37975000D02*
X149125002Y-57025000D01*
X149125002Y-57025000D02*
X130075002Y-57025000D01*
X111024999Y-40474997D02*
X130074999Y-40474997D01*
X111024999Y-59524997D02*
X111024999Y-40474997D01*
X113549998Y-56999997D02*
X113550002Y-55999991D01*
X113549998Y-56999997D02*
X114549999Y-56999996D01*
X113549999Y-42999996D02*
X113550000Y-43999997D01*
X114550005Y-43000000D02*
X113549999Y-42999996D01*
D11*
X118849998Y-45600000D02*
X122149999Y-42299997D01*
X118849998Y-46200000D02*
X122249999Y-42799997D01*
X118849999Y-42599997D02*
X119149996Y-42299996D01*
X118849999Y-43199997D02*
X119749999Y-42299997D01*
X118849999Y-43799997D02*
X120349997Y-42299995D01*
X118850000Y-44399996D02*
X120949999Y-42299997D01*
X118850000Y-44999996D02*
X121549996Y-42299995D01*
X118950004Y-46699993D02*
X122250000Y-43399995D01*
X119550002Y-46699997D02*
X122249998Y-43999999D01*
X120149999Y-46699997D02*
X122249999Y-44599997D01*
X120750000Y-46699996D02*
X122249998Y-45199998D01*
X121349999Y-46699999D02*
X122249999Y-45799997D01*
D10*
X127549996Y-44000003D02*
X127550000Y-42999997D01*
X127549998Y-55999997D02*
X127549999Y-56999998D01*
X127549999Y-56999998D02*
X126549993Y-56999994D01*
X127550000Y-42999997D02*
X126549999Y-42999998D01*
X130074999Y-40474997D02*
X130074999Y-59524997D01*
X130074999Y-59524997D02*
X111024999Y-59524997D01*
X149125000Y-54525000D02*
X168175000Y-54525000D01*
X149125000Y-73575000D02*
X149125000Y-54525000D01*
X151650000Y-57050000D02*
X151650000Y-58050000D01*
X151650000Y-71050000D02*
X151650000Y-70050000D01*
X151650000Y-71050000D02*
X152650000Y-71050000D01*
X152650000Y-57050000D02*
X151650000Y-57050000D01*
D11*
X156950000Y-56650000D02*
X157250000Y-56350000D01*
X156950000Y-57250000D02*
X157850000Y-56350000D01*
X156950000Y-57850000D02*
X158450000Y-56350000D01*
X156950000Y-58450000D02*
X159050000Y-56350000D01*
X156950000Y-59050000D02*
X159650000Y-56350000D01*
X156950000Y-59650000D02*
X160250000Y-56350000D01*
X156950000Y-60250000D02*
X160350000Y-56850000D01*
X157050000Y-60750000D02*
X160350000Y-57450000D01*
X157650000Y-60750000D02*
X160350000Y-58050000D01*
X158250000Y-60750000D02*
X160350000Y-58650000D01*
X158850000Y-60750000D02*
X160350000Y-59250000D01*
X159450000Y-60750000D02*
X160350000Y-59850000D01*
D10*
X165650000Y-57050000D02*
X164650000Y-57050000D01*
X165650000Y-58050000D02*
X165650000Y-57050000D01*
X165650000Y-70050000D02*
X165650000Y-71050000D01*
X165650000Y-71050000D02*
X164650000Y-71050000D01*
X168175000Y-54525000D02*
X168175000Y-73575000D01*
X168175000Y-73575000D02*
X149125000Y-73575000D01*
X149125000Y-92625000D02*
X168175000Y-92625000D01*
X149125000Y-111675000D02*
X149125000Y-92625000D01*
X151650000Y-95150000D02*
X151650000Y-96150000D01*
X151650000Y-109150000D02*
X151650000Y-108150000D01*
X151650000Y-109150000D02*
X152650000Y-109150000D01*
X152650000Y-95150000D02*
X151650000Y-95150000D01*
D11*
X156950000Y-94750000D02*
X157250000Y-94450000D01*
X156950000Y-95350000D02*
X157850000Y-94450000D01*
X156950000Y-95950000D02*
X158450000Y-94450000D01*
X156950000Y-96550000D02*
X159050000Y-94450000D01*
X156950000Y-97150000D02*
X159650000Y-94450000D01*
X156950000Y-97750000D02*
X160250000Y-94450000D01*
X156950000Y-98350000D02*
X160350000Y-94950000D01*
X157050000Y-98850000D02*
X160350000Y-95550000D01*
X157650000Y-98850000D02*
X160350000Y-96150000D01*
X158250000Y-98850000D02*
X160350000Y-96750000D01*
X158850000Y-98850000D02*
X160350000Y-97350000D01*
X159450000Y-98850000D02*
X160350000Y-97950000D01*
D10*
X165650000Y-95150000D02*
X164650000Y-95150000D01*
X165650000Y-96150000D02*
X165650000Y-95150000D01*
X165650000Y-108150000D02*
X165650000Y-109150000D01*
X165650000Y-109150000D02*
X164650000Y-109150000D01*
X168175000Y-92625000D02*
X168175000Y-111675000D01*
X168175000Y-111675000D02*
X149125000Y-111675000D01*
X130075000Y-95124999D02*
X149125000Y-95124999D01*
X130075000Y-114174999D02*
X130075000Y-95124999D01*
X132600000Y-97649999D02*
X132600000Y-98649999D01*
X132600000Y-111649999D02*
X132600000Y-110649999D01*
X132600000Y-111649999D02*
X133600000Y-111649999D01*
X133600000Y-97649999D02*
X132600000Y-97649999D01*
D11*
X137900000Y-97249999D02*
X138200000Y-96949999D01*
X137900000Y-97849999D02*
X138800000Y-96949999D01*
X137900000Y-98449999D02*
X139400000Y-96949999D01*
X137900000Y-99049999D02*
X140000000Y-96949999D01*
X137900000Y-99649999D02*
X140600000Y-96949999D01*
X137900000Y-100249999D02*
X141200000Y-96949999D01*
X137900000Y-100849999D02*
X141300000Y-97449999D01*
X138000000Y-101349999D02*
X141300000Y-98049999D01*
X138600000Y-101349999D02*
X141300000Y-98649999D01*
X139200000Y-101349999D02*
X141300000Y-99249999D01*
X139800000Y-101349999D02*
X141300000Y-99849999D01*
X140400000Y-101349999D02*
X141300000Y-100449999D01*
D10*
X146600000Y-97649999D02*
X145600000Y-97649999D01*
X146600000Y-98649999D02*
X146600000Y-97649999D01*
X146600000Y-110649999D02*
X146600000Y-111649999D01*
X146600000Y-111649999D02*
X145600000Y-111649999D01*
X149125000Y-95124999D02*
X149125000Y-114174999D01*
X149125000Y-114174999D02*
X130075000Y-114174999D01*
X130075000Y-114175000D02*
X149125000Y-114175000D01*
X130075000Y-133225000D02*
X130075000Y-114175000D01*
X132600000Y-116700000D02*
X132600000Y-117700000D01*
X132600000Y-130700000D02*
X132600000Y-129700000D01*
X132600000Y-130700000D02*
X133600000Y-130700000D01*
X133600000Y-116700000D02*
X132600000Y-116700000D01*
D11*
X137900000Y-116300000D02*
X138200000Y-116000000D01*
X137900000Y-116900000D02*
X138800000Y-116000000D01*
X137900000Y-117500000D02*
X139400000Y-116000000D01*
X137900000Y-118100000D02*
X140000000Y-116000000D01*
X137900000Y-118700000D02*
X140600000Y-116000000D01*
X137900000Y-119300000D02*
X141200000Y-116000000D01*
X137900000Y-119900000D02*
X141300000Y-116500000D01*
X138000000Y-120400000D02*
X141300000Y-117100000D01*
X138600000Y-120400000D02*
X141300000Y-117700000D01*
X139200000Y-120400000D02*
X141300000Y-118300000D01*
X139800000Y-120400000D02*
X141300000Y-118900000D01*
X140400000Y-120400000D02*
X141300000Y-119500000D01*
D10*
X146600000Y-116700000D02*
X145600000Y-116700000D01*
X146600000Y-117700000D02*
X146600000Y-116700000D01*
X146600000Y-129700000D02*
X146600000Y-130700000D01*
X146600000Y-130700000D02*
X145600000Y-130700000D01*
X149125000Y-114175000D02*
X149125000Y-133225000D01*
X149125000Y-133225000D02*
X130075000Y-133225000D01*
X168175000Y-95125000D02*
X187225000Y-95125000D01*
X168175000Y-114175000D02*
X168175000Y-95125000D01*
X170700000Y-97650000D02*
X170700000Y-98650000D01*
X170700000Y-111650000D02*
X170700000Y-110650000D01*
X170700000Y-111650000D02*
X171700000Y-111650000D01*
X171700000Y-97650000D02*
X170700000Y-97650000D01*
D11*
X176000000Y-97250000D02*
X176300000Y-96950000D01*
X176000000Y-97850000D02*
X176900000Y-96950000D01*
X176000000Y-98450000D02*
X177500000Y-96950000D01*
X176000000Y-99050000D02*
X178100000Y-96950000D01*
X176000000Y-99650000D02*
X178700000Y-96950000D01*
X176000000Y-100250000D02*
X179300000Y-96950000D01*
X176000000Y-100850000D02*
X179400000Y-97450000D01*
X176100000Y-101350000D02*
X179400000Y-98050000D01*
X176700000Y-101350000D02*
X179400000Y-98650000D01*
X177300000Y-101350000D02*
X179400000Y-99250000D01*
X177900000Y-101350000D02*
X179400000Y-99850000D01*
X178500000Y-101350000D02*
X179400000Y-100450000D01*
D10*
X184700000Y-97650000D02*
X183700000Y-97650000D01*
X184700000Y-98650000D02*
X184700000Y-97650000D01*
X184700000Y-110650000D02*
X184700000Y-111650000D01*
X184700000Y-111650000D02*
X183700000Y-111650000D01*
X187225000Y-95125000D02*
X187225000Y-114175000D01*
X187225000Y-114175000D02*
X168175000Y-114175000D01*
X149125000Y-73575000D02*
X168175000Y-73575000D01*
X149125000Y-92625000D02*
X149125000Y-73575000D01*
X151650000Y-76100000D02*
X151650000Y-77100000D01*
X151650000Y-90100000D02*
X151650000Y-89100000D01*
X151650000Y-90100000D02*
X152650000Y-90100000D01*
X152650000Y-76100000D02*
X151650000Y-76100000D01*
D11*
X156950000Y-75700000D02*
X157250000Y-75400000D01*
X156950000Y-76300000D02*
X157850000Y-75400000D01*
X156950000Y-76900000D02*
X158450000Y-75400000D01*
X156950000Y-77500000D02*
X159050000Y-75400000D01*
X156950000Y-78100000D02*
X159650000Y-75400000D01*
X156950000Y-78700000D02*
X160250000Y-75400000D01*
X156950000Y-79300000D02*
X160350000Y-75900000D01*
X157050000Y-79800000D02*
X160350000Y-76500000D01*
X157650000Y-79800000D02*
X160350000Y-77100000D01*
X158250000Y-79800000D02*
X160350000Y-77700000D01*
X158850000Y-79800000D02*
X160350000Y-78300000D01*
X159450000Y-79800000D02*
X160350000Y-78900000D01*
D10*
X165650000Y-76100000D02*
X164650000Y-76100000D01*
X165650000Y-77100000D02*
X165650000Y-76100000D01*
X165650000Y-89100000D02*
X165650000Y-90100000D01*
X165650000Y-90100000D02*
X164650000Y-90100000D01*
X168175000Y-73575000D02*
X168175000Y-92625000D01*
X168175000Y-92625000D02*
X149125000Y-92625000D01*
X130075000Y-76075000D02*
X149125000Y-76075000D01*
X130075000Y-95125000D02*
X130075000Y-76075000D01*
X132600000Y-78600000D02*
X132600000Y-79600000D01*
X132600000Y-92600000D02*
X132600000Y-91600000D01*
X132600000Y-92600000D02*
X133600000Y-92600000D01*
X133600000Y-78600000D02*
X132600000Y-78600000D01*
D11*
X137900000Y-78200000D02*
X138200000Y-77900000D01*
X137900000Y-78800000D02*
X138800000Y-77900000D01*
X137900000Y-79400000D02*
X139400000Y-77900000D01*
X137900000Y-80000000D02*
X140000000Y-77900000D01*
X137900000Y-80600000D02*
X140600000Y-77900000D01*
X137900000Y-81200000D02*
X141200000Y-77900000D01*
X137900000Y-81800000D02*
X141300000Y-78400000D01*
X138000000Y-82300000D02*
X141300000Y-79000000D01*
X138600000Y-82300000D02*
X141300000Y-79600000D01*
X139200000Y-82300000D02*
X141300000Y-80200000D01*
X139800000Y-82300000D02*
X141300000Y-80800000D01*
X140400000Y-82300000D02*
X141300000Y-81400000D01*
D10*
X146600000Y-78600000D02*
X145600000Y-78600000D01*
X146600000Y-79600000D02*
X146600000Y-78600000D01*
X146600000Y-91600000D02*
X146600000Y-92600000D01*
X146600000Y-92600000D02*
X145600000Y-92600000D01*
X149125000Y-76075000D02*
X149125000Y-95125000D01*
X149125000Y-95125000D02*
X130075000Y-95125000D01*
X206275000Y-42875000D02*
X225325000Y-42875000D01*
X206275000Y-61925000D02*
X206275000Y-42875000D01*
X208800000Y-45400000D02*
X208800000Y-46400000D01*
X208800000Y-59400000D02*
X208800000Y-58400000D01*
X208800000Y-59400000D02*
X209800000Y-59400000D01*
X209800000Y-45400000D02*
X208800000Y-45400000D01*
D11*
X214100000Y-45000000D02*
X214400000Y-44700000D01*
X214100000Y-45600000D02*
X215000000Y-44700000D01*
X214100000Y-46200000D02*
X215600000Y-44700000D01*
X214100000Y-46800000D02*
X216200000Y-44700000D01*
X214100000Y-47400000D02*
X216800000Y-44700000D01*
X214100000Y-48000000D02*
X217400000Y-44700000D01*
X214100000Y-48600000D02*
X217500000Y-45200000D01*
X214200000Y-49100000D02*
X217500000Y-45800000D01*
X214800000Y-49100000D02*
X217500000Y-46400000D01*
X215400000Y-49100000D02*
X217500000Y-47000000D01*
X216000000Y-49100000D02*
X217500000Y-47600000D01*
X216600000Y-49100000D02*
X217500000Y-48200000D01*
D10*
X222800000Y-45400000D02*
X221800000Y-45400000D01*
X222800000Y-46400000D02*
X222800000Y-45400000D01*
X222800000Y-58400000D02*
X222800000Y-59400000D01*
X222800000Y-59400000D02*
X221800000Y-59400000D01*
X225325000Y-42875000D02*
X225325000Y-61925000D01*
X225325000Y-61925000D02*
X206275000Y-61925000D01*
X105934304Y-121664808D02*
X124335191Y-116734305D01*
X109026785Y-123450253D02*
X109285605Y-124416178D01*
X109992717Y-123191435D02*
X109026785Y-123450253D01*
X110864807Y-140065695D02*
X105934304Y-121664808D01*
X112650252Y-136973214D02*
X112391434Y-136007282D01*
X112650252Y-136973214D02*
X113616177Y-136714394D01*
D11*
X114042664Y-121692141D02*
X114254793Y-121324718D01*
X114197956Y-122271697D02*
X114834352Y-121169426D01*
X114353247Y-122851252D02*
X115413905Y-121014134D01*
X114508539Y-123430807D02*
X115993463Y-120858844D01*
X114663831Y-124010362D02*
X116573015Y-120703551D01*
X114819121Y-124589922D02*
X117152574Y-120548261D01*
X114974414Y-125169477D02*
X117378576Y-121005342D01*
X115200419Y-125626550D02*
X117533868Y-121584895D01*
X115779973Y-125471263D02*
X117689158Y-122164455D01*
X116359526Y-125315972D02*
X117844450Y-122744008D01*
X116939082Y-125160680D02*
X117999741Y-123323565D01*
X117518637Y-125005391D02*
X118155033Y-123903119D01*
D10*
X122549746Y-119826786D02*
X121583821Y-120085606D01*
X122808564Y-120792718D02*
X122549746Y-119826786D01*
X124335191Y-116734305D02*
X129265694Y-135135192D01*
X125914393Y-132383822D02*
X126173213Y-133349747D01*
X126173213Y-133349747D02*
X125207281Y-133608565D01*
X129265694Y-135135192D02*
X110864807Y-140065695D01*
D13*
X103000000Y-119000000D03*
D14*
X91500000Y-93500000D03*
X107000000Y-93500000D03*
D13*
X206225000Y-61775000D03*
X206175000Y-100025000D03*
X130502100Y-57648600D03*
X130400100Y-95927600D03*
M02*
