G04 #@! TF.GenerationSoftware,KiCad,Pcbnew,8.99.0-3407-g6a48e2c35a*
G04 #@! TF.CreationDate,2025-03-01T11:14:55+00:00*
G04 #@! TF.ProjectId,DragonBoard,44726167-6f6e-4426-9f61-72642e6b6963,rev?*
G04 #@! TF.SameCoordinates,Original*
G04 #@! TF.FileFunction,Soldermask,Top*
G04 #@! TF.FilePolarity,Negative*
%FSLAX46Y46*%
G04 Gerber Fmt 4.6, Leading zero omitted, Abs format (unit mm)*
G04 Created by KiCad (PCBNEW 8.99.0-3407-g6a48e2c35a) date 2025-03-01 11:14:55*
%MOMM*%
%LPD*%
G01*
G04 APERTURE LIST*
G04 Aperture macros list*
%AMRoundRect*
0 Rectangle with rounded corners*
0 $1 Rounding radius*
0 $2 $3 $4 $5 $6 $7 $8 $9 X,Y pos of 4 corners*
0 Add a 4 corners polygon primitive as box body*
4,1,4,$2,$3,$4,$5,$6,$7,$8,$9,$2,$3,0*
0 Add four circle primitives for the rounded corners*
1,1,$1+$1,$2,$3*
1,1,$1+$1,$4,$5*
1,1,$1+$1,$6,$7*
1,1,$1+$1,$8,$9*
0 Add four rect primitives between the rounded corners*
20,1,$1+$1,$2,$3,$4,$5,0*
20,1,$1+$1,$4,$5,$6,$7,0*
20,1,$1+$1,$6,$7,$8,$9,0*
20,1,$1+$1,$8,$9,$2,$3,0*%
%AMRotRect*
0 Rectangle, with rotation*
0 The origin of the aperture is its center*
0 $1 length*
0 $2 width*
0 $3 Rotation angle, in degrees counterclockwise*
0 Add horizontal line*
21,1,$1,$2,0,0,$3*%
G04 Aperture macros list end*
%ADD10C,0.150000*%
%ADD11C,4.700000*%
%ADD12C,1.524000*%
%ADD13R,1.000000X0.600000*%
%ADD14R,0.950000X1.300000*%
%ADD15R,1.300000X0.950000*%
%ADD16RotRect,1.300000X0.950000X210.000000*%
%ADD17C,4.000000*%
%ADD18C,1.397000*%
%ADD19C,2.000000*%
%ADD20R,2.000000X3.200000*%
%ADD21RotRect,1.300000X0.950000X285.000000*%
%ADD22RoundRect,0.155000X-0.155000X0.212500X-0.155000X-0.212500X0.155000X-0.212500X0.155000X0.212500X0*%
%ADD23C,1.900000*%
%ADD24C,1.700000*%
%ADD25C,3.000000*%
%ADD26C,4.100000*%
%ADD27R,1.600000X1.000000*%
%ADD28R,2.300000X2.000000*%
%ADD29RotRect,1.600000X1.000000X120.000000*%
%ADD30RotRect,2.300000X2.000000X300.000000*%
%ADD31RoundRect,0.250000X0.625000X-0.350000X0.625000X0.350000X-0.625000X0.350000X-0.625000X-0.350000X0*%
%ADD32O,1.750000X1.200000*%
%ADD33RoundRect,0.155000X0.155000X-0.212500X0.155000X0.212500X-0.155000X0.212500X-0.155000X-0.212500X0*%
%ADD34R,0.800000X1.000000*%
%ADD35C,0.900000*%
%ADD36R,1.500000X0.700000*%
%ADD37RoundRect,0.250000X0.350000X0.625000X-0.350000X0.625000X-0.350000X-0.625000X0.350000X-0.625000X0*%
%ADD38O,1.200000X1.750000*%
%ADD39RotRect,1.600000X1.000000X195.000000*%
%ADD40RotRect,2.300000X2.000000X15.000000*%
G04 APERTURE END LIST*
D10*
G36*
X194658403Y-120214929D02*
G01*
X194820868Y-120239992D01*
X194944842Y-120277032D01*
X195073651Y-120340569D01*
X195183509Y-120421160D01*
X195276560Y-120519506D01*
X195353949Y-120637413D01*
X195405898Y-120750127D01*
X195444047Y-120874897D01*
X195467812Y-121013426D01*
X195476070Y-121167664D01*
X195464866Y-121322215D01*
X195430763Y-121478829D01*
X195376376Y-121627028D01*
X195308641Y-121748840D01*
X195221762Y-121855469D01*
X195120617Y-121944460D01*
X195003880Y-122016988D01*
X194869493Y-122073316D01*
X194701030Y-122114287D01*
X194518394Y-122128271D01*
X194353041Y-122122531D01*
X194211014Y-122118379D01*
X193920121Y-122112640D01*
X193821813Y-122112640D01*
X193629472Y-122122043D01*
X193536171Y-122128271D01*
X193449552Y-122116755D01*
X193384618Y-122084918D01*
X193351676Y-122052427D01*
X193332540Y-122015041D01*
X193326000Y-121970979D01*
X193332991Y-121925665D01*
X193352134Y-121893920D01*
X193383866Y-121870328D01*
X193436886Y-121849468D01*
X193483443Y-121830734D01*
X193508450Y-121806359D01*
X193523269Y-121768844D01*
X193537759Y-121688390D01*
X193557542Y-121288930D01*
X193566457Y-120698962D01*
X193562324Y-120620560D01*
X194210892Y-120620560D01*
X194210892Y-121683627D01*
X194221120Y-121760412D01*
X194246551Y-121803917D01*
X194290352Y-121829017D01*
X194366841Y-121839088D01*
X194467792Y-121827685D01*
X194550468Y-121795425D01*
X194619058Y-121742769D01*
X194675749Y-121666933D01*
X194720401Y-121562275D01*
X194750586Y-121420892D01*
X194761904Y-121233121D01*
X194749728Y-121009558D01*
X194717251Y-120839774D01*
X194669336Y-120712884D01*
X194609417Y-120623814D01*
X194534386Y-120561982D01*
X194441621Y-120523942D01*
X194325808Y-120510406D01*
X194267956Y-120517658D01*
X194236293Y-120535319D01*
X194218180Y-120566093D01*
X194210892Y-120620560D01*
X193562324Y-120620560D01*
X193560947Y-120594435D01*
X193549238Y-120547653D01*
X193523014Y-120516074D01*
X193467905Y-120487570D01*
X193412247Y-120455811D01*
X193381524Y-120414877D01*
X193371063Y-120362029D01*
X193378315Y-120319598D01*
X193399680Y-120284335D01*
X193437375Y-120254318D01*
X193511329Y-120226483D01*
X193620923Y-120215727D01*
X193711171Y-120217071D01*
X193877745Y-120221223D01*
X194318847Y-120208400D01*
X194448785Y-120205591D01*
X194658403Y-120214929D01*
G37*
G36*
X196228094Y-120752695D02*
G01*
X196294037Y-120759657D01*
X196319074Y-120774189D01*
X196332044Y-120806928D01*
X196348139Y-120905958D01*
X196362752Y-120950378D01*
X196386607Y-120962011D01*
X196409411Y-120954037D01*
X196435212Y-120924398D01*
X196497496Y-120846490D01*
X196565347Y-120794051D01*
X196640013Y-120763190D01*
X196724029Y-120752695D01*
X196804556Y-120762152D01*
X196872381Y-120789278D01*
X196930414Y-120834150D01*
X196964896Y-120878421D01*
X196994039Y-120936610D01*
X197012955Y-120999105D01*
X197018952Y-121057022D01*
X197011613Y-121121412D01*
X196988544Y-121189768D01*
X196953008Y-121252681D01*
X196909775Y-121301753D01*
X196846541Y-121348298D01*
X196775017Y-121376169D01*
X196692644Y-121385773D01*
X196625588Y-121379136D01*
X196574064Y-121360982D01*
X196524538Y-121327876D01*
X196449500Y-121260965D01*
X196421249Y-121239422D01*
X196398819Y-121233487D01*
X196370354Y-121243294D01*
X196352413Y-121275253D01*
X196344924Y-121328825D01*
X196341300Y-121455504D01*
X196345981Y-121646648D01*
X196356199Y-121738337D01*
X196368285Y-121774399D01*
X196381722Y-121793536D01*
X196403526Y-121807032D01*
X196453163Y-121824921D01*
X196527424Y-121859744D01*
X196566242Y-121903445D01*
X196578949Y-121958156D01*
X196568828Y-122012384D01*
X196538282Y-122059272D01*
X196492162Y-122094481D01*
X196431059Y-122116181D01*
X196284080Y-122135811D01*
X196045034Y-122143903D01*
X195817247Y-122131471D01*
X195676227Y-122101160D01*
X195609615Y-122066201D01*
X195573630Y-122021510D01*
X195561555Y-121964384D01*
X195569953Y-121919480D01*
X195596255Y-121876479D01*
X195645208Y-121833592D01*
X195698697Y-121787430D01*
X195718603Y-121730644D01*
X195733623Y-121579613D01*
X195740463Y-121269025D01*
X195736484Y-121212924D01*
X195727274Y-121182685D01*
X195708917Y-121160467D01*
X195674639Y-121141041D01*
X195615893Y-121107941D01*
X195585146Y-121070257D01*
X195575233Y-121026247D01*
X195582363Y-120984656D01*
X195604076Y-120946791D01*
X195643254Y-120911087D01*
X195723863Y-120867833D01*
X195869057Y-120816809D01*
X196073640Y-120767756D01*
X196228094Y-120752695D01*
G37*
G36*
X198008556Y-120751359D02*
G01*
X198142268Y-120792269D01*
X198258607Y-120858697D01*
X198335069Y-120930468D01*
X198382071Y-121008051D01*
X198407305Y-121100350D01*
X198417242Y-121238250D01*
X198414556Y-121442926D01*
X198424242Y-121636397D01*
X198444231Y-121717332D01*
X198471586Y-121754335D01*
X198527396Y-121768746D01*
X198562180Y-121787272D01*
X198574413Y-121830417D01*
X198562076Y-121896357D01*
X198521168Y-121970002D01*
X198460969Y-122035685D01*
X198383903Y-122090780D01*
X198277358Y-122136705D01*
X198167504Y-122151718D01*
X198075243Y-122140060D01*
X197999928Y-122106874D01*
X197937549Y-122051945D01*
X197909009Y-122024924D01*
X197887357Y-122017873D01*
X197860331Y-122024605D01*
X197817260Y-122051212D01*
X197721359Y-122107028D01*
X197617978Y-122140378D01*
X197504751Y-122151718D01*
X197386851Y-122142199D01*
X197291023Y-122115746D01*
X197213003Y-122074293D01*
X197147600Y-122015647D01*
X197096865Y-121940815D01*
X197064727Y-121856281D01*
X197054123Y-121768623D01*
X197063429Y-121701090D01*
X197616614Y-121701090D01*
X197624754Y-121762303D01*
X197647023Y-121806970D01*
X197682441Y-121836937D01*
X197727501Y-121846903D01*
X197770058Y-121837297D01*
X197801494Y-121808738D01*
X197823760Y-121754779D01*
X197832891Y-121661889D01*
X197828181Y-121592589D01*
X197817992Y-121560773D01*
X197797792Y-121542152D01*
X197761695Y-121534272D01*
X197707749Y-121546210D01*
X197659845Y-121583487D01*
X197627550Y-121637088D01*
X197616614Y-121701090D01*
X197063429Y-121701090D01*
X197066699Y-121677361D01*
X197104426Y-121593355D01*
X197170138Y-121513878D01*
X197264450Y-121441854D01*
X197382008Y-121387553D01*
X197527849Y-121352173D01*
X197708327Y-121338878D01*
X197778629Y-121333928D01*
X197805414Y-121323979D01*
X197818713Y-121302734D01*
X197824709Y-121253027D01*
X197815875Y-121118006D01*
X197795278Y-121043466D01*
X197770965Y-121007117D01*
X197739975Y-120986478D01*
X197700145Y-120979353D01*
X197662629Y-120985396D01*
X197629193Y-121003533D01*
X197597384Y-121033900D01*
X197550424Y-121092926D01*
X197481380Y-121176882D01*
X197416486Y-121230073D01*
X197354422Y-121259238D01*
X197293115Y-121268536D01*
X197229851Y-121257946D01*
X197181007Y-121227626D01*
X197148696Y-121180996D01*
X197137532Y-121120281D01*
X197150038Y-121055174D01*
X197190777Y-120986191D01*
X197251691Y-120925040D01*
X197335002Y-120869443D01*
X197504370Y-120795385D01*
X197676416Y-120751643D01*
X197853286Y-120737064D01*
X198008556Y-120751359D01*
G37*
G36*
X200130941Y-120675949D02*
G01*
X200161380Y-120706656D01*
X200181380Y-120749128D01*
X200188247Y-120798979D01*
X200180222Y-120856134D01*
X200153076Y-120926352D01*
X200113216Y-120991647D01*
X200068080Y-121039925D01*
X200043620Y-121065668D01*
X200038038Y-121080225D01*
X200040725Y-121112099D01*
X200044877Y-121164000D01*
X200032309Y-121267723D01*
X199995773Y-121357669D01*
X199934479Y-121437186D01*
X199864139Y-121496171D01*
X199779810Y-121547017D01*
X199679489Y-121589471D01*
X199518600Y-121629727D01*
X199337305Y-121643693D01*
X199248034Y-121638198D01*
X199193812Y-121634046D01*
X199154988Y-121642132D01*
X199133375Y-121663910D01*
X199125302Y-121703288D01*
X199136203Y-121742440D01*
X199170976Y-121773997D01*
X199221736Y-121792775D01*
X199296272Y-121800009D01*
X199456984Y-121784866D01*
X199666902Y-121759662D01*
X199788177Y-121753114D01*
X199895570Y-121760198D01*
X199977814Y-121779249D01*
X200040114Y-121807824D01*
X200104417Y-121857984D01*
X200154297Y-121925549D01*
X200185887Y-122004039D01*
X200196429Y-122088215D01*
X200185652Y-122179183D01*
X200152579Y-122269852D01*
X200094458Y-122362256D01*
X200004818Y-122454354D01*
X199888037Y-122531556D01*
X199738840Y-122593432D01*
X199615061Y-122624948D01*
X199474241Y-122644907D01*
X199314102Y-122651928D01*
X199112438Y-122640004D01*
X198950225Y-122607309D01*
X198820487Y-122557406D01*
X198740277Y-122504961D01*
X198679559Y-122439803D01*
X198639738Y-122364188D01*
X198627047Y-122288250D01*
X198634512Y-122235300D01*
X198637003Y-122229876D01*
X199028338Y-122229876D01*
X199037337Y-122278422D01*
X199064631Y-122321029D01*
X199114311Y-122359691D01*
X199173794Y-122386225D01*
X199247510Y-122403409D01*
X199338648Y-122409639D01*
X199463493Y-122399587D01*
X199545889Y-122374101D01*
X199589263Y-122345548D01*
X199612612Y-122313306D01*
X199620260Y-122275794D01*
X199613547Y-122245585D01*
X199592783Y-122219618D01*
X199562518Y-122202502D01*
X199524395Y-122196537D01*
X199462235Y-122202032D01*
X199290777Y-122214245D01*
X199156565Y-122207406D01*
X199078163Y-122196415D01*
X199058624Y-122193850D01*
X199036347Y-122202351D01*
X199028338Y-122229876D01*
X198637003Y-122229876D01*
X198656967Y-122186401D01*
X198691530Y-122146036D01*
X198733293Y-122119845D01*
X198764627Y-122101825D01*
X198771883Y-122087605D01*
X198766052Y-122073706D01*
X198739032Y-122046205D01*
X198674135Y-121978259D01*
X198639337Y-121914015D01*
X198628390Y-121850933D01*
X198640778Y-121784696D01*
X198681635Y-121711715D01*
X198741440Y-121648235D01*
X198813648Y-121601073D01*
X198838447Y-121584035D01*
X198844301Y-121571397D01*
X198837184Y-121553491D01*
X198804489Y-121517908D01*
X198740730Y-121448613D01*
X198697084Y-121376205D01*
X198671284Y-121299536D01*
X198662584Y-121216879D01*
X198673876Y-121136401D01*
X199208711Y-121136401D01*
X199220952Y-121270296D01*
X199252919Y-121363547D01*
X199287845Y-121413075D01*
X199325847Y-121439665D01*
X199368690Y-121448299D01*
X199432287Y-121435014D01*
X199480554Y-121395909D01*
X199510825Y-121336896D01*
X199521953Y-121254492D01*
X199509685Y-121122815D01*
X199478355Y-121036017D01*
X199444201Y-120991500D01*
X199404194Y-120965716D01*
X199356356Y-120955905D01*
X199296083Y-120968338D01*
X199249256Y-121005120D01*
X199219519Y-121060416D01*
X199208711Y-121136401D01*
X198673876Y-121136401D01*
X198674968Y-121128621D01*
X198712898Y-121043100D01*
X198772294Y-120967287D01*
X198852972Y-120902050D01*
X198966476Y-120840106D01*
X199085140Y-120796112D01*
X199210121Y-120769527D01*
X199342801Y-120760511D01*
X199452234Y-120766972D01*
X199581182Y-120787988D01*
X199751297Y-120812535D01*
X199845790Y-120800255D01*
X199942909Y-120761916D01*
X200045243Y-120693100D01*
X200078321Y-120671953D01*
X200098244Y-120666722D01*
X200130941Y-120675949D01*
G37*
G36*
X201233903Y-120745632D02*
G01*
X201347767Y-120770600D01*
X201452772Y-120811429D01*
X201550267Y-120868344D01*
X201634676Y-120936933D01*
X201707290Y-121018034D01*
X201768743Y-121112831D01*
X201816454Y-121220336D01*
X201844606Y-121329455D01*
X201853983Y-121441582D01*
X201843305Y-121556700D01*
X201811776Y-121663523D01*
X201758989Y-121764087D01*
X201683021Y-121859868D01*
X201580554Y-121951683D01*
X201445206Y-122039374D01*
X201301931Y-122101423D01*
X201148914Y-122138943D01*
X200983868Y-122151718D01*
X200821446Y-122138984D01*
X200681110Y-122102678D01*
X200559061Y-122044376D01*
X200452396Y-121963896D01*
X200366202Y-121866294D01*
X200305020Y-121756333D01*
X200267490Y-121631535D01*
X200254437Y-121488355D01*
X200264499Y-121360271D01*
X200293708Y-121244845D01*
X200299487Y-121232144D01*
X200871639Y-121232144D01*
X200878224Y-121320798D01*
X200902291Y-121455382D01*
X200936860Y-121592155D01*
X200975198Y-121705975D01*
X201010858Y-121769746D01*
X201054804Y-121804167D01*
X201109531Y-121815640D01*
X201160449Y-121806463D01*
X201195386Y-121780936D01*
X201218279Y-121736615D01*
X201227256Y-121664820D01*
X201220118Y-121546836D01*
X201196604Y-121404091D01*
X201160828Y-121265666D01*
X201122476Y-121166809D01*
X201087082Y-121113514D01*
X201046895Y-121083935D01*
X201000110Y-121073142D01*
X200947461Y-121084070D01*
X200906810Y-121116373D01*
X200881041Y-121164966D01*
X200871639Y-121232144D01*
X200299487Y-121232144D01*
X200341476Y-121139870D01*
X200408404Y-121043639D01*
X200496237Y-120955051D01*
X200628302Y-120860250D01*
X200772784Y-120792651D01*
X200932128Y-120751315D01*
X201109531Y-120737064D01*
X201233903Y-120745632D01*
G37*
G36*
X203609235Y-121253637D02*
G01*
X203628408Y-121735773D01*
X203634609Y-121785741D01*
X203645016Y-121815030D01*
X203728425Y-121914070D01*
X203744245Y-121940500D01*
X203750041Y-121978428D01*
X203738471Y-122032942D01*
X203704067Y-122075180D01*
X203640376Y-122107755D01*
X203509826Y-122132736D01*
X203252884Y-122143903D01*
X203077759Y-122133749D01*
X202985072Y-122110563D01*
X202937554Y-122080938D01*
X202911066Y-122043572D01*
X202902029Y-121996014D01*
X202910578Y-121953882D01*
X202966021Y-121889035D01*
X202989638Y-121843330D01*
X203010218Y-121731830D01*
X203019510Y-121507650D01*
X203013526Y-121381329D01*
X202998052Y-121291463D01*
X202976157Y-121229579D01*
X202947380Y-121191054D01*
X202906301Y-121167656D01*
X202848540Y-121159115D01*
X202792125Y-121166367D01*
X202752759Y-121185808D01*
X202725808Y-121216635D01*
X202702840Y-121286767D01*
X202692591Y-121427783D01*
X202692591Y-121699014D01*
X202695724Y-121772848D01*
X202702605Y-121808801D01*
X202769894Y-121924206D01*
X202781538Y-121951295D01*
X202785526Y-121982458D01*
X202774233Y-122030746D01*
X202739241Y-122071010D01*
X202671831Y-122105068D01*
X202542419Y-122132385D01*
X202319755Y-122143903D01*
X202150114Y-122133531D01*
X202043248Y-122107913D01*
X201980228Y-122073219D01*
X201946943Y-122031942D01*
X201936049Y-121981970D01*
X201939449Y-121950273D01*
X201948139Y-121929824D01*
X202004559Y-121879754D01*
X202033327Y-121851843D01*
X202048279Y-121821746D01*
X202065864Y-121657371D01*
X202075390Y-121329108D01*
X202070879Y-121243369D01*
X202061468Y-121206621D01*
X202038900Y-121178803D01*
X201980257Y-121135912D01*
X201933809Y-121091678D01*
X201919685Y-121041879D01*
X201931665Y-120991482D01*
X201968533Y-120950654D01*
X202030938Y-120916210D01*
X202166736Y-120862482D01*
X202420016Y-120784569D01*
X202533098Y-120758792D01*
X202587567Y-120752695D01*
X202626781Y-120760534D01*
X202659252Y-120784081D01*
X202681147Y-120818318D01*
X202688439Y-120858208D01*
X202687096Y-120893013D01*
X202685752Y-120911820D01*
X202692211Y-120948206D01*
X202708643Y-120967185D01*
X202736433Y-120973857D01*
X202765263Y-120963612D01*
X202802989Y-120923665D01*
X202868884Y-120848972D01*
X202946533Y-120796404D01*
X203038226Y-120764069D01*
X203147738Y-120752695D01*
X203260259Y-120763301D01*
X203358432Y-120793843D01*
X203445103Y-120843798D01*
X203519994Y-120915920D01*
X203566492Y-120996694D01*
X203592775Y-121095070D01*
X203609235Y-121253637D01*
G37*
G36*
X205135951Y-120237370D02*
G01*
X205256775Y-120258714D01*
X205362225Y-120298856D01*
X205451558Y-120358609D01*
X205510523Y-120420592D01*
X205552242Y-120491103D01*
X205577827Y-120571849D01*
X205586747Y-120665379D01*
X205576823Y-120759117D01*
X205546691Y-120851247D01*
X205498941Y-120933703D01*
X205439102Y-120995595D01*
X205402275Y-121034009D01*
X205392818Y-121062273D01*
X205404166Y-121089077D01*
X205447773Y-121116129D01*
X205519072Y-121152367D01*
X205587203Y-121202813D01*
X205652692Y-121269147D01*
X205704827Y-121348466D01*
X205736769Y-121440778D01*
X205747947Y-121549538D01*
X205739100Y-121645700D01*
X205712709Y-121737244D01*
X205668108Y-121825669D01*
X205603477Y-121912116D01*
X205523295Y-121987209D01*
X205429245Y-122046548D01*
X205319211Y-122090529D01*
X205190311Y-122118394D01*
X205039032Y-122128271D01*
X204790271Y-122121188D01*
X204569109Y-122112640D01*
X204386049Y-122113983D01*
X204104803Y-122121799D01*
X203991230Y-122128271D01*
X203912878Y-122116729D01*
X203856164Y-122084918D01*
X203818986Y-122036417D01*
X203806949Y-121980626D01*
X203811907Y-121943957D01*
X203825267Y-121918344D01*
X203912462Y-121848857D01*
X203944194Y-121815837D01*
X203965707Y-121764960D01*
X203998191Y-121516321D01*
X204004177Y-121416303D01*
X204667295Y-121416303D01*
X204667295Y-121546240D01*
X204675411Y-121709437D01*
X204692574Y-121781813D01*
X204714438Y-121812994D01*
X204747096Y-121832050D01*
X204794545Y-121839088D01*
X204869068Y-121829162D01*
X204923341Y-121802026D01*
X204962647Y-121758103D01*
X204988525Y-121693212D01*
X204998366Y-121599485D01*
X204986786Y-121479714D01*
X204956691Y-121398130D01*
X204911897Y-121344143D01*
X204851474Y-121311546D01*
X204769999Y-121299799D01*
X204717551Y-121306988D01*
X204689399Y-121324590D01*
X204673918Y-121355662D01*
X204667295Y-121416303D01*
X204004177Y-121416303D01*
X204017077Y-121200757D01*
X204024203Y-120781760D01*
X204017539Y-120635790D01*
X204014736Y-120622880D01*
X204667295Y-120622880D01*
X204667295Y-120907301D01*
X204672229Y-120968428D01*
X204683537Y-121000113D01*
X204704736Y-121019226D01*
X204739957Y-121026247D01*
X204803094Y-121018670D01*
X204850433Y-120997892D01*
X204885892Y-120964698D01*
X204909997Y-120920906D01*
X204926484Y-120858265D01*
X204932787Y-120770647D01*
X204926560Y-120685939D01*
X204909781Y-120621260D01*
X204884427Y-120572322D01*
X204847754Y-120533514D01*
X204803196Y-120510584D01*
X204748139Y-120502591D01*
X204707733Y-120509701D01*
X204684758Y-120528236D01*
X204672649Y-120559699D01*
X204667295Y-120622880D01*
X204014736Y-120622880D01*
X204003443Y-120570857D01*
X203971343Y-120526031D01*
X203906234Y-120485616D01*
X203852228Y-120453001D01*
X203823293Y-120415053D01*
X203813788Y-120369845D01*
X203827305Y-120313913D01*
X203869109Y-120268362D01*
X203929947Y-120239469D01*
X204010281Y-120229039D01*
X204129594Y-120235755D01*
X204388736Y-120244670D01*
X204791736Y-120232947D01*
X204962584Y-120229039D01*
X205135951Y-120237370D01*
G37*
G36*
X206802640Y-120745632D02*
G01*
X206916504Y-120770600D01*
X207021509Y-120811429D01*
X207119004Y-120868344D01*
X207203412Y-120936933D01*
X207276027Y-121018034D01*
X207337480Y-121112831D01*
X207385190Y-121220336D01*
X207413343Y-121329455D01*
X207422720Y-121441582D01*
X207412042Y-121556700D01*
X207380513Y-121663523D01*
X207327726Y-121764087D01*
X207251758Y-121859868D01*
X207149290Y-121951683D01*
X207013943Y-122039374D01*
X206870668Y-122101423D01*
X206717651Y-122138943D01*
X206552605Y-122151718D01*
X206390183Y-122138984D01*
X206249847Y-122102678D01*
X206127798Y-122044376D01*
X206021133Y-121963896D01*
X205934939Y-121866294D01*
X205873757Y-121756333D01*
X205836227Y-121631535D01*
X205823174Y-121488355D01*
X205833236Y-121360271D01*
X205862444Y-121244845D01*
X205868224Y-121232144D01*
X206440376Y-121232144D01*
X206446961Y-121320798D01*
X206471028Y-121455382D01*
X206505597Y-121592155D01*
X206543935Y-121705975D01*
X206579595Y-121769746D01*
X206623541Y-121804167D01*
X206678268Y-121815640D01*
X206729186Y-121806463D01*
X206764123Y-121780936D01*
X206787016Y-121736615D01*
X206795993Y-121664820D01*
X206788855Y-121546836D01*
X206765341Y-121404091D01*
X206729565Y-121265666D01*
X206691213Y-121166809D01*
X206655819Y-121113514D01*
X206615632Y-121083935D01*
X206568847Y-121073142D01*
X206516198Y-121084070D01*
X206475547Y-121116373D01*
X206449778Y-121164966D01*
X206440376Y-121232144D01*
X205868224Y-121232144D01*
X205910213Y-121139870D01*
X205977141Y-121043639D01*
X206064974Y-120955051D01*
X206197039Y-120860250D01*
X206341521Y-120792651D01*
X206500865Y-120751315D01*
X206678268Y-120737064D01*
X206802640Y-120745632D01*
G37*
G36*
X208452380Y-120751359D02*
G01*
X208586092Y-120792269D01*
X208702431Y-120858697D01*
X208778893Y-120930468D01*
X208825895Y-121008051D01*
X208851129Y-121100350D01*
X208861066Y-121238250D01*
X208858380Y-121442926D01*
X208868066Y-121636397D01*
X208888055Y-121717332D01*
X208915410Y-121754335D01*
X208971220Y-121768746D01*
X209006004Y-121787272D01*
X209018237Y-121830417D01*
X209005900Y-121896357D01*
X208964992Y-121970002D01*
X208904793Y-122035685D01*
X208827727Y-122090780D01*
X208721182Y-122136705D01*
X208611328Y-122151718D01*
X208519067Y-122140060D01*
X208443752Y-122106874D01*
X208381374Y-122051945D01*
X208352833Y-122024924D01*
X208331182Y-122017873D01*
X208304155Y-122024605D01*
X208261084Y-122051212D01*
X208165184Y-122107028D01*
X208061802Y-122140378D01*
X207948575Y-122151718D01*
X207830675Y-122142199D01*
X207734847Y-122115746D01*
X207656827Y-122074293D01*
X207591425Y-122015647D01*
X207540690Y-121940815D01*
X207508551Y-121856281D01*
X207497947Y-121768623D01*
X207507253Y-121701090D01*
X208060438Y-121701090D01*
X208068578Y-121762303D01*
X208090847Y-121806970D01*
X208126265Y-121836937D01*
X208171325Y-121846903D01*
X208213882Y-121837297D01*
X208245318Y-121808738D01*
X208267584Y-121754779D01*
X208276715Y-121661889D01*
X208272005Y-121592589D01*
X208261817Y-121560773D01*
X208241616Y-121542152D01*
X208205519Y-121534272D01*
X208151573Y-121546210D01*
X208103669Y-121583487D01*
X208071374Y-121637088D01*
X208060438Y-121701090D01*
X207507253Y-121701090D01*
X207510523Y-121677361D01*
X207548250Y-121593355D01*
X207613962Y-121513878D01*
X207708274Y-121441854D01*
X207825832Y-121387553D01*
X207971673Y-121352173D01*
X208152152Y-121338878D01*
X208222453Y-121333928D01*
X208249238Y-121323979D01*
X208262537Y-121302734D01*
X208268533Y-121253027D01*
X208259699Y-121118006D01*
X208239102Y-121043466D01*
X208214789Y-121007117D01*
X208183799Y-120986478D01*
X208143969Y-120979353D01*
X208106454Y-120985396D01*
X208073017Y-121003533D01*
X208041209Y-121033900D01*
X207994249Y-121092926D01*
X207925204Y-121176882D01*
X207860310Y-121230073D01*
X207798246Y-121259238D01*
X207736939Y-121268536D01*
X207673675Y-121257946D01*
X207624831Y-121227626D01*
X207592520Y-121180996D01*
X207581356Y-121120281D01*
X207593862Y-121055174D01*
X207634601Y-120986191D01*
X207695515Y-120925040D01*
X207778826Y-120869443D01*
X207948194Y-120795385D01*
X208120240Y-120751643D01*
X208297110Y-120737064D01*
X208452380Y-120751359D01*
G37*
G36*
X209741562Y-120752695D02*
G01*
X209807505Y-120759657D01*
X209832542Y-120774189D01*
X209845512Y-120806928D01*
X209861607Y-120905958D01*
X209876220Y-120950378D01*
X209900076Y-120962011D01*
X209922880Y-120954037D01*
X209948680Y-120924398D01*
X210010964Y-120846490D01*
X210078815Y-120794051D01*
X210153482Y-120763190D01*
X210237497Y-120752695D01*
X210318024Y-120762152D01*
X210385850Y-120789278D01*
X210443882Y-120834150D01*
X210478365Y-120878421D01*
X210507507Y-120936610D01*
X210526424Y-120999105D01*
X210532420Y-121057022D01*
X210525081Y-121121412D01*
X210502012Y-121189768D01*
X210466476Y-121252681D01*
X210423244Y-121301753D01*
X210360009Y-121348298D01*
X210288485Y-121376169D01*
X210206112Y-121385773D01*
X210139057Y-121379136D01*
X210087532Y-121360982D01*
X210038006Y-121327876D01*
X209962968Y-121260965D01*
X209934717Y-121239422D01*
X209912288Y-121233487D01*
X209883823Y-121243294D01*
X209865882Y-121275253D01*
X209858392Y-121328825D01*
X209854768Y-121455504D01*
X209859449Y-121646648D01*
X209869667Y-121738337D01*
X209881753Y-121774399D01*
X209895191Y-121793536D01*
X209916994Y-121807032D01*
X209966632Y-121824921D01*
X210040892Y-121859744D01*
X210079710Y-121903445D01*
X210092417Y-121958156D01*
X210082297Y-122012384D01*
X210051750Y-122059272D01*
X210005631Y-122094481D01*
X209944528Y-122116181D01*
X209797549Y-122135811D01*
X209558502Y-122143903D01*
X209330715Y-122131471D01*
X209189695Y-122101160D01*
X209123083Y-122066201D01*
X209087098Y-122021510D01*
X209075023Y-121964384D01*
X209083421Y-121919480D01*
X209109723Y-121876479D01*
X209158676Y-121833592D01*
X209212166Y-121787430D01*
X209232071Y-121730644D01*
X209247091Y-121579613D01*
X209253931Y-121269025D01*
X209249952Y-121212924D01*
X209240742Y-121182685D01*
X209222385Y-121160467D01*
X209188108Y-121141041D01*
X209129361Y-121107941D01*
X209098615Y-121070257D01*
X209088701Y-121026247D01*
X209095832Y-120984656D01*
X209117545Y-120946791D01*
X209156722Y-120911087D01*
X209237331Y-120867833D01*
X209382525Y-120816809D01*
X209587108Y-120767756D01*
X209741562Y-120752695D01*
G37*
G36*
X212121817Y-120252762D02*
G01*
X212157644Y-120274086D01*
X212179407Y-120308354D01*
X212187532Y-120360563D01*
X212187532Y-121606935D01*
X212196080Y-121742001D01*
X212211044Y-121768999D01*
X212244563Y-121799032D01*
X212289109Y-121834109D01*
X212311974Y-121860215D01*
X212325060Y-121889095D01*
X212329681Y-121925061D01*
X212319152Y-121970880D01*
X212285446Y-122013500D01*
X212219633Y-122054821D01*
X212106810Y-122093711D01*
X211907397Y-122131449D01*
X211709549Y-122143903D01*
X211668843Y-122139527D01*
X211650198Y-122129736D01*
X211639787Y-122110483D01*
X211631879Y-122065134D01*
X211622361Y-122024624D01*
X211607186Y-122005167D01*
X211586572Y-121999067D01*
X211563002Y-122006460D01*
X211516597Y-122039122D01*
X211418271Y-122102263D01*
X211314922Y-122139292D01*
X211204088Y-122151718D01*
X211100931Y-122141931D01*
X211003641Y-122112819D01*
X210910471Y-122063689D01*
X210820138Y-121992472D01*
X210729604Y-121889896D01*
X210658083Y-121772653D01*
X210611753Y-121662657D01*
X210584692Y-121553907D01*
X210577605Y-121467472D01*
X211235351Y-121467472D01*
X211244068Y-121590691D01*
X211267206Y-121681891D01*
X211301541Y-121748351D01*
X211336920Y-121786136D01*
X211378415Y-121808099D01*
X211428181Y-121815640D01*
X211478899Y-121804965D01*
X211520073Y-121772805D01*
X211553966Y-121713058D01*
X211581719Y-121594068D01*
X211593655Y-121379056D01*
X211586516Y-121236165D01*
X211569165Y-121148247D01*
X211546394Y-121098177D01*
X211502809Y-121057551D01*
X211441736Y-121041879D01*
X211389455Y-121051686D01*
X211344482Y-121081273D01*
X211304594Y-121135058D01*
X211268002Y-121221972D01*
X211244079Y-121331109D01*
X211235351Y-121467472D01*
X210577605Y-121467472D01*
X210575773Y-121445124D01*
X210587441Y-121317913D01*
X210622661Y-121193188D01*
X210682874Y-121069112D01*
X210757118Y-120965710D01*
X210846446Y-120880438D01*
X210952274Y-120811802D01*
X211049626Y-120769396D01*
X211143151Y-120744998D01*
X211234130Y-120737064D01*
X211338545Y-120745299D01*
X211433309Y-120769281D01*
X211520138Y-120808627D01*
X211551157Y-120819007D01*
X211569744Y-120810897D01*
X211584190Y-120780584D01*
X211590969Y-120707633D01*
X211584706Y-120665821D01*
X211567888Y-120637779D01*
X211539042Y-120617125D01*
X211484479Y-120596136D01*
X211431972Y-120571788D01*
X211404550Y-120541103D01*
X211395574Y-120502591D01*
X211405164Y-120459696D01*
X211435798Y-120419458D01*
X211495244Y-120380061D01*
X211596464Y-120342245D01*
X211920039Y-120262861D01*
X212066143Y-120244670D01*
X212121817Y-120252762D01*
G37*
G36*
X214452274Y-121546607D02*
G01*
X214288387Y-121913215D01*
X214245968Y-121998761D01*
X214219022Y-122040344D01*
X214189757Y-122065798D01*
X214159182Y-122073561D01*
X214129689Y-122066971D01*
X214102884Y-122046205D01*
X214033397Y-121924817D01*
X213943760Y-121739192D01*
X213763509Y-121331795D01*
X213722415Y-121265346D01*
X213689137Y-121249485D01*
X213668153Y-121255818D01*
X213653342Y-121275965D01*
X213645173Y-121318240D01*
X213635648Y-121617559D01*
X213639932Y-121748626D01*
X213649203Y-121810267D01*
X213673383Y-121852643D01*
X213757891Y-121901492D01*
X213792835Y-121934104D01*
X213805030Y-121986000D01*
X213794151Y-122034003D01*
X213760543Y-122074107D01*
X213696048Y-122108212D01*
X213585554Y-122133589D01*
X213408990Y-122143903D01*
X213263003Y-122134355D01*
X213170100Y-122110628D01*
X213114453Y-122078115D01*
X213084469Y-122038739D01*
X213074500Y-121990274D01*
X213079519Y-121954087D01*
X213092330Y-121932388D01*
X213181845Y-121879754D01*
X213219560Y-121855197D01*
X213241073Y-121825044D01*
X213253573Y-121781627D01*
X213267085Y-121687901D01*
X213290288Y-121327765D01*
X213301279Y-120898753D01*
X213290624Y-120693837D01*
X213267452Y-120596868D01*
X213240341Y-120556935D01*
X213181845Y-120522008D01*
X213123266Y-120483791D01*
X213092507Y-120442927D01*
X213082682Y-120397566D01*
X213091706Y-120350906D01*
X213119807Y-120307318D01*
X213162066Y-120273015D01*
X213217992Y-120249677D01*
X213379071Y-120218780D01*
X213549674Y-120205591D01*
X213712349Y-120214413D01*
X213798436Y-120234534D01*
X213831728Y-120251610D01*
X213855833Y-120272514D01*
X213915184Y-120369234D01*
X214199482Y-120894845D01*
X214262619Y-120999136D01*
X214282345Y-121012670D01*
X214309392Y-121017455D01*
X214333534Y-121012658D01*
X214355554Y-120997793D01*
X214404280Y-120922322D01*
X214596865Y-120545211D01*
X214643272Y-120450201D01*
X214716313Y-120326873D01*
X214777239Y-120265553D01*
X214837472Y-120235871D01*
X214934432Y-120214239D01*
X215082665Y-120205591D01*
X215252879Y-120216803D01*
X215361318Y-120244681D01*
X215426379Y-120282935D01*
X215461510Y-120329348D01*
X215473209Y-120386575D01*
X215468990Y-120424899D01*
X215457699Y-120452399D01*
X215437092Y-120477003D01*
X215395173Y-120511994D01*
X215345689Y-120568268D01*
X215317504Y-120648159D01*
X215294693Y-120847493D01*
X215286119Y-121108801D01*
X215294900Y-121448056D01*
X215318847Y-121722095D01*
X215330375Y-121779974D01*
X215343394Y-121808313D01*
X215367733Y-121832204D01*
X215430466Y-121877189D01*
X215468909Y-121917542D01*
X215481391Y-121968414D01*
X215468255Y-122025529D01*
X215428167Y-122071301D01*
X215351698Y-122107999D01*
X215284455Y-122126292D01*
X215212968Y-122137064D01*
X214989730Y-122143903D01*
X214773014Y-122134177D01*
X214644371Y-122110930D01*
X214567908Y-122076336D01*
X214528584Y-122033789D01*
X214515899Y-121981481D01*
X214520346Y-121949604D01*
X214532752Y-121925427D01*
X214618481Y-121847148D01*
X214645316Y-121810568D01*
X214665498Y-121738337D01*
X214674484Y-121642691D01*
X214678443Y-121460633D01*
X214675254Y-121361319D01*
X214668673Y-121319461D01*
X214653505Y-121294689D01*
X214629106Y-121286854D01*
X214595951Y-121297890D01*
X214558031Y-121338512D01*
X214520529Y-121404015D01*
X214452274Y-121546607D01*
G37*
G36*
X216934880Y-121006097D02*
G01*
X217459636Y-121667018D01*
X217531321Y-121747985D01*
X217560392Y-121766668D01*
X217603983Y-121784621D01*
X217672991Y-121813458D01*
X217711695Y-121841652D01*
X217735066Y-121878266D01*
X217743324Y-121927381D01*
X217734833Y-121975452D01*
X217708397Y-122021659D01*
X217668891Y-122059667D01*
X217619126Y-122086383D01*
X217531191Y-122112235D01*
X217413474Y-122130836D01*
X217278046Y-122140165D01*
X217071290Y-122143903D01*
X216851871Y-122136137D01*
X216720679Y-122117524D01*
X216656759Y-122094486D01*
X216610648Y-122062570D01*
X216579888Y-122020959D01*
X216570103Y-121975619D01*
X216583804Y-121920624D01*
X216626524Y-121875602D01*
X216669623Y-121839835D01*
X216679402Y-121817838D01*
X216669350Y-121772694D01*
X216627139Y-121687037D01*
X216529437Y-121537936D01*
X216510801Y-121517876D01*
X216498907Y-121513145D01*
X216468865Y-121534028D01*
X216348453Y-121694374D01*
X216305279Y-121768758D01*
X216296551Y-121797078D01*
X216306074Y-121818114D01*
X216351140Y-121860459D01*
X216393458Y-121909080D01*
X216407193Y-121968048D01*
X216395388Y-122025446D01*
X216360877Y-122068337D01*
X216297895Y-122099817D01*
X216150602Y-122132075D01*
X215964748Y-122143903D01*
X215758280Y-122133663D01*
X215627570Y-122108487D01*
X215582544Y-122087445D01*
X215544894Y-122053533D01*
X215519360Y-122011280D01*
X215511311Y-121968658D01*
X215521985Y-121914974D01*
X215552832Y-121875480D01*
X215600353Y-121850333D01*
X215670801Y-121839088D01*
X215753767Y-121823193D01*
X215821743Y-121782545D01*
X215892574Y-121707782D01*
X216039486Y-121520961D01*
X216262968Y-121262552D01*
X216280676Y-121231900D01*
X216263212Y-121203323D01*
X215901489Y-120742803D01*
X215794144Y-120613233D01*
X215763883Y-120593132D01*
X215712078Y-120572810D01*
X215637392Y-120544724D01*
X215604123Y-120524450D01*
X215568095Y-120476537D01*
X215556374Y-120421136D01*
X215566927Y-120367504D01*
X215598771Y-120322408D01*
X215657290Y-120283468D01*
X215753477Y-120251875D01*
X215965873Y-120217793D01*
X216217417Y-120205591D01*
X216468231Y-120216471D01*
X216587689Y-120240152D01*
X216627006Y-120260556D01*
X216657787Y-120291809D01*
X216677921Y-120330351D01*
X216684531Y-120371799D01*
X216671197Y-120432316D01*
X216632263Y-120475480D01*
X216595749Y-120502224D01*
X216590253Y-120524084D01*
X216599646Y-120563234D01*
X216639346Y-120637291D01*
X216688280Y-120702285D01*
X216710543Y-120714960D01*
X216732108Y-120702222D01*
X216787602Y-120633138D01*
X216835244Y-120556798D01*
X216844755Y-120528114D01*
X216837916Y-120508330D01*
X216786258Y-120467298D01*
X216754784Y-120428924D01*
X216743638Y-120372776D01*
X216754885Y-120320048D01*
X216788715Y-120277768D01*
X216851715Y-120243571D01*
X216976685Y-120216059D01*
X217201105Y-120204248D01*
X217367788Y-120212560D01*
X217474168Y-120233069D01*
X217545057Y-120267488D01*
X217583854Y-120315049D01*
X217597145Y-120379248D01*
X217589947Y-120424554D01*
X217569266Y-120460487D01*
X217533764Y-120489402D01*
X217498352Y-120499951D01*
X217403582Y-120510406D01*
X217338113Y-120527092D01*
X217265463Y-120570857D01*
X217193871Y-120636091D01*
X217097912Y-120746101D01*
X216935002Y-120946746D01*
X216917905Y-120978131D01*
X216934880Y-121006097D01*
G37*
D11*
X103000000Y-119000000D03*
D12*
X92180000Y-41230000D03*
X108718815Y-42425745D03*
X92180000Y-43770000D03*
X108718815Y-44965745D03*
X92180000Y-46310000D03*
X108718815Y-47505745D03*
X92180000Y-48850000D03*
X108718815Y-50045745D03*
X92180000Y-51390000D03*
X108718815Y-52585745D03*
X92180000Y-53930000D03*
X108718815Y-55125745D03*
X92180000Y-56470000D03*
X108718815Y-57665745D03*
X92180000Y-59010000D03*
X108718815Y-60205745D03*
X92180000Y-61550000D03*
X108718815Y-62745745D03*
X92180000Y-64090000D03*
X108718815Y-65285745D03*
X92180000Y-66630000D03*
X108718815Y-67825745D03*
X92180000Y-69170000D03*
X108718815Y-70365745D03*
X93478815Y-70365745D03*
X107420000Y-69170000D03*
X93478815Y-67825745D03*
X107420000Y-66630000D03*
X93478815Y-65285745D03*
X107420000Y-64090000D03*
X93478815Y-62745745D03*
X107420000Y-61550000D03*
X93478815Y-60205745D03*
X107420000Y-59010000D03*
X93478815Y-57665745D03*
X107420000Y-56470000D03*
X93478815Y-55125745D03*
X107420000Y-53930000D03*
X93478815Y-52585745D03*
X107420000Y-51390000D03*
X93478815Y-50045745D03*
X107420000Y-48850000D03*
X93478815Y-47505745D03*
X107420000Y-46310000D03*
X93478815Y-44965745D03*
X107420000Y-43770000D03*
X93478815Y-42425745D03*
X107420000Y-41230000D03*
D13*
X102739100Y-71652600D03*
X102739100Y-70752600D03*
X100639100Y-71652600D03*
X100639100Y-70752600D03*
X98439100Y-71652600D03*
X98439100Y-70752600D03*
D14*
X128705000Y-44452000D03*
X128705000Y-48002000D03*
X131245000Y-44455000D03*
X131245000Y-48005000D03*
X150345000Y-41955000D03*
X150345000Y-45505000D03*
X169345000Y-44455000D03*
X169345000Y-48005000D03*
X188239100Y-45327600D03*
X188239100Y-48877600D03*
X207545000Y-49355000D03*
X207545000Y-52905000D03*
X128705000Y-82555000D03*
X128705000Y-86105000D03*
X128705000Y-101655000D03*
X128705000Y-105205000D03*
D15*
X105225000Y-97000000D03*
X108775000Y-97000000D03*
D16*
X95544195Y-124463500D03*
X92469805Y-126238500D03*
D17*
X91500000Y-93500000D03*
D13*
X96229100Y-71654900D03*
X96229100Y-70754900D03*
D18*
X95369400Y-74600000D03*
X97909400Y-74600000D03*
X100449400Y-74600000D03*
X102989400Y-74600000D03*
X105529400Y-74600000D03*
D17*
X107000000Y-93500000D03*
D19*
X101889121Y-99452640D03*
X96889121Y-99452640D03*
X99389121Y-99452640D03*
D20*
X104989121Y-106952640D03*
X93789121Y-106952640D03*
D19*
X96889121Y-113952640D03*
X101889121Y-113952640D03*
D11*
X206225000Y-61775000D03*
D14*
X128705000Y-63555000D03*
X128705000Y-67105000D03*
X131245000Y-63555000D03*
X131245000Y-67105000D03*
X150345000Y-61045000D03*
X150345000Y-64595000D03*
X169345000Y-63455000D03*
X169345000Y-67005000D03*
X188439100Y-64927600D03*
X188439100Y-68477600D03*
X207445000Y-68255000D03*
X207445000Y-71805000D03*
D21*
X108914596Y-127446482D03*
X109833404Y-130875518D03*
D11*
X206175000Y-100025000D03*
D14*
X150345000Y-80145000D03*
X150345000Y-83695000D03*
X168839100Y-80427600D03*
X168839100Y-83977600D03*
X188139100Y-82927600D03*
X188139100Y-86477600D03*
X207445000Y-87455000D03*
X207445000Y-91005000D03*
X131245000Y-120655000D03*
X131245000Y-124205000D03*
X150345000Y-118245000D03*
X150345000Y-121795000D03*
X207495000Y-106455000D03*
X207495000Y-110005000D03*
X131245000Y-101655000D03*
X131245000Y-105205000D03*
X150345000Y-99145000D03*
X150345000Y-102695000D03*
X168639100Y-99527600D03*
X168639100Y-103077600D03*
X188139100Y-102127600D03*
X188139100Y-105677600D03*
X131245000Y-82555000D03*
X131245000Y-86105000D03*
X169239100Y-118327600D03*
X169239100Y-121877600D03*
D11*
X130502100Y-57648600D03*
X130400100Y-95927600D03*
D22*
X165269703Y-73905140D03*
X165269703Y-75040140D03*
D23*
X182780000Y-123699999D03*
D24*
X182200000Y-123699999D03*
D25*
X181510000Y-126239999D03*
X180240000Y-128779999D03*
D26*
X177700000Y-123699999D03*
D25*
X175160000Y-128779999D03*
X173890000Y-126240000D03*
D24*
X173200000Y-123699999D03*
D23*
X172620000Y-123699999D03*
D27*
X180100000Y-117324999D03*
X180100000Y-119074999D03*
X175300000Y-119074999D03*
X175300000Y-117324999D03*
D28*
X170700000Y-126279999D03*
X183400000Y-128819999D03*
D23*
X182780000Y-66552640D03*
D24*
X182200000Y-66552640D03*
D25*
X181510000Y-69092640D03*
X180240000Y-71632640D03*
D26*
X177700000Y-66552640D03*
D25*
X175160000Y-71632640D03*
X173890000Y-69092641D03*
D24*
X173200000Y-66552640D03*
D23*
X172620000Y-66552640D03*
D27*
X180100000Y-60177640D03*
X180100000Y-61927640D03*
X175300000Y-61927640D03*
X175300000Y-60177640D03*
D28*
X170700000Y-69132640D03*
X183400000Y-71672640D03*
D23*
X220880000Y-71449999D03*
D24*
X220300000Y-71449999D03*
D25*
X219610000Y-73989999D03*
X218340000Y-76529999D03*
D26*
X215800000Y-71449999D03*
D25*
X213260000Y-76529999D03*
X211990000Y-73990000D03*
D24*
X211300000Y-71449999D03*
D23*
X210720000Y-71449999D03*
D27*
X218200000Y-65074999D03*
X218200000Y-66824999D03*
X213400000Y-66824999D03*
X213400000Y-65074999D03*
D28*
X208800000Y-74029999D03*
X221500000Y-76569999D03*
D22*
X184069196Y-116805140D03*
X184069196Y-117940140D03*
X195339120Y-41515140D03*
X195339120Y-42650140D03*
X222900721Y-81355140D03*
X222900721Y-82490140D03*
D23*
X182780000Y-85600000D03*
D24*
X182200000Y-85600000D03*
D25*
X181510000Y-88140000D03*
X180240000Y-90680000D03*
D26*
X177700000Y-85600000D03*
D25*
X175160000Y-90680000D03*
X173890000Y-88140001D03*
D24*
X173200000Y-85600000D03*
D23*
X172620000Y-85600000D03*
D27*
X180100000Y-79225000D03*
X180100000Y-80975000D03*
X175300000Y-80975000D03*
X175300000Y-79225000D03*
D28*
X170700000Y-88180000D03*
X183400000Y-90720000D03*
D22*
X119839120Y-116015140D03*
X119839120Y-117150140D03*
D23*
X220880000Y-90499999D03*
D24*
X220300000Y-90499999D03*
D25*
X219610000Y-93039999D03*
X218340000Y-95579999D03*
D26*
X215800000Y-90499999D03*
D25*
X213260000Y-95579999D03*
X211990000Y-93040000D03*
D24*
X211300000Y-90499999D03*
D23*
X210720000Y-90499999D03*
D27*
X218200000Y-84124999D03*
X218200000Y-85874999D03*
X213400000Y-85874999D03*
X213400000Y-84124999D03*
D28*
X208800000Y-93079999D03*
X221500000Y-95619999D03*
D22*
X128839120Y-76463494D03*
X128839120Y-77598494D03*
X165454658Y-114555140D03*
X165454658Y-115690140D03*
D23*
X220880000Y-109550000D03*
D24*
X220300000Y-109550000D03*
D25*
X219610000Y-112090000D03*
X218340000Y-114630000D03*
D26*
X215800000Y-109550000D03*
D25*
X213260000Y-114630000D03*
X211990000Y-112090001D03*
D24*
X211300000Y-109550000D03*
D23*
X210720000Y-109550000D03*
D27*
X218200000Y-103175000D03*
X218200000Y-104925000D03*
X213400000Y-104925000D03*
X213400000Y-103175000D03*
D28*
X208800000Y-112130000D03*
X221500000Y-114670000D03*
D23*
X125630000Y-88100000D03*
D24*
X125050000Y-88100000D03*
D25*
X124360000Y-90640000D03*
X123090000Y-93180000D03*
D26*
X120550000Y-88100000D03*
D25*
X118010000Y-93180000D03*
X116740000Y-90640001D03*
D24*
X116050000Y-88100000D03*
D23*
X115470000Y-88100000D03*
D27*
X122950000Y-81725000D03*
X122950000Y-83475000D03*
X118150000Y-83475000D03*
X118150000Y-81725000D03*
D28*
X113550000Y-90680000D03*
X126250000Y-93220000D03*
D22*
X221974393Y-100355140D03*
X221974393Y-101490140D03*
X106889364Y-129515140D03*
X106889364Y-130650140D03*
X183839120Y-95515140D03*
X183839120Y-96650140D03*
D23*
X201830000Y-52400000D03*
D24*
X201250000Y-52400000D03*
D25*
X200560000Y-54940000D03*
X199290000Y-57480000D03*
D26*
X196750000Y-52400000D03*
D25*
X194210000Y-57480000D03*
X192940000Y-54940001D03*
D24*
X192250000Y-52400000D03*
D23*
X191670000Y-52400000D03*
D27*
X199150000Y-46025000D03*
X199150000Y-47775000D03*
X194350000Y-47775000D03*
X194350000Y-46025000D03*
D28*
X189750000Y-54980000D03*
X202450000Y-57520000D03*
D23*
X201830000Y-90500000D03*
D24*
X201250000Y-90500000D03*
D25*
X200560000Y-93040000D03*
X199290000Y-95580000D03*
D26*
X196750000Y-90500000D03*
D25*
X194210000Y-95580000D03*
X192940000Y-93040001D03*
D24*
X192250000Y-90500000D03*
D23*
X191670000Y-90500000D03*
D27*
X199150000Y-84125000D03*
X199150000Y-85875000D03*
X194350000Y-85875000D03*
X194350000Y-84125000D03*
D28*
X189750000Y-93080000D03*
X202450000Y-95620000D03*
D22*
X143255833Y-113855140D03*
X143255833Y-114990140D03*
D23*
X99251204Y-137802049D03*
D24*
X98961204Y-137299754D03*
D25*
X96416499Y-137972197D03*
X93581795Y-138142345D03*
D26*
X96711204Y-133402640D03*
D25*
X91041795Y-133742935D03*
X92606499Y-131373084D03*
D24*
X94461204Y-129505526D03*
D23*
X94171204Y-129003231D03*
D29*
X103432116Y-132293601D03*
X101916571Y-133168601D03*
X99516571Y-129011679D03*
X101032116Y-128136679D03*
D30*
X90976858Y-128630462D03*
X95127154Y-140898985D03*
D22*
X164997376Y-54904941D03*
X164997376Y-56039941D03*
D23*
X201830000Y-109550000D03*
D24*
X201250000Y-109550000D03*
D25*
X200560000Y-112090000D03*
X199290000Y-114630000D03*
D26*
X196750000Y-109550000D03*
D25*
X194210000Y-114630000D03*
X192940000Y-112090001D03*
D24*
X192250000Y-109550000D03*
D23*
X191670000Y-109550000D03*
D27*
X199150000Y-103175000D03*
X199150000Y-104925000D03*
X194350000Y-104925000D03*
X194350000Y-103175000D03*
D28*
X189750000Y-112130000D03*
X202450000Y-114670000D03*
D22*
X202542030Y-102355140D03*
X202542030Y-103490140D03*
X201327253Y-62752461D03*
X201327253Y-63887461D03*
D31*
X94639100Y-81602600D03*
X94639100Y-81602600D03*
D32*
X94639100Y-83602600D03*
X94639100Y-79602600D03*
D23*
X125630000Y-107150000D03*
D24*
X125050000Y-107150000D03*
D25*
X124360000Y-109690000D03*
X123090000Y-112230000D03*
D26*
X120550000Y-107150000D03*
D25*
X118010000Y-112230000D03*
X116740000Y-109690001D03*
D24*
X116050000Y-107150000D03*
D23*
X115470000Y-107150000D03*
D27*
X122950000Y-100775000D03*
X122950000Y-102525000D03*
X118150000Y-102525000D03*
X118150000Y-100775000D03*
D28*
X113550000Y-109730000D03*
X126250000Y-112270000D03*
D22*
X144702222Y-76655140D03*
X144702222Y-77790140D03*
D23*
X125630000Y-69100000D03*
D24*
X125050000Y-69100000D03*
D25*
X124360000Y-71640000D03*
X123090000Y-74180000D03*
D26*
X120550000Y-69100000D03*
D25*
X118010000Y-74180000D03*
X116740000Y-71640001D03*
D24*
X116050000Y-69100000D03*
D23*
X115470000Y-69100000D03*
D27*
X122950000Y-62725000D03*
X122950000Y-64475000D03*
X118150000Y-64475000D03*
X118150000Y-62725000D03*
D28*
X113550000Y-71680000D03*
X126250000Y-74220000D03*
D22*
X145366286Y-57405140D03*
X145366286Y-58540140D03*
X173917436Y-38155140D03*
X173917436Y-39290140D03*
X137959998Y-37837120D03*
X137959998Y-38972120D03*
D23*
X144680000Y-66550000D03*
D24*
X144100000Y-66550000D03*
D25*
X143410000Y-69090000D03*
X142140000Y-71630000D03*
D26*
X139600000Y-66550000D03*
D25*
X137060000Y-71630000D03*
X135790000Y-69090001D03*
D24*
X135100000Y-66550000D03*
D23*
X134520000Y-66550000D03*
D27*
X142000000Y-60175000D03*
X142000000Y-61925000D03*
X137200000Y-61925000D03*
X137200000Y-60175000D03*
D28*
X132600000Y-69130000D03*
X145300000Y-71670000D03*
D22*
X122839120Y-39015140D03*
X122839120Y-40150140D03*
X165380369Y-93005140D03*
X165380369Y-94140140D03*
D23*
X163730002Y-45000000D03*
D24*
X163150002Y-45000000D03*
D25*
X162460002Y-47540000D03*
X161190003Y-50079998D03*
D26*
X158650002Y-45000000D03*
D25*
X156109999Y-50080000D03*
X154840001Y-47539999D03*
D24*
X154150002Y-45000000D03*
D23*
X153570002Y-45000000D03*
D27*
X161050002Y-38625002D03*
X161050004Y-40375000D03*
X156250000Y-40375000D03*
X156250005Y-38625001D03*
D28*
X151650002Y-47580001D03*
X164350003Y-50120002D03*
D19*
X90339120Y-83152640D03*
X90339120Y-89652640D03*
D23*
X182780000Y-47500000D03*
D24*
X182200000Y-47500000D03*
D25*
X181510000Y-50040000D03*
X180240000Y-52580000D03*
D26*
X177700000Y-47500000D03*
D25*
X175160000Y-52580000D03*
X173890000Y-50040001D03*
D24*
X173200000Y-47500000D03*
D23*
X172620000Y-47500000D03*
D27*
X180100000Y-41125000D03*
X180100000Y-42875000D03*
X175300000Y-42875000D03*
X175300000Y-41125000D03*
D28*
X170700000Y-50080000D03*
X183400000Y-52620000D03*
D33*
X152805145Y-37950140D03*
X152805145Y-36815140D03*
D22*
X183410472Y-58015140D03*
X183410472Y-59150140D03*
D34*
X91094100Y-72952600D03*
X88884100Y-72952600D03*
D35*
X89984100Y-75102600D03*
X89984100Y-78102600D03*
D34*
X91094100Y-80252600D03*
X88884100Y-80252600D03*
D36*
X91744100Y-74352600D03*
X91744100Y-77352600D03*
X91744100Y-78852600D03*
D23*
X201830000Y-71450000D03*
D24*
X201250000Y-71450000D03*
D25*
X200560000Y-73990000D03*
X199290000Y-76530000D03*
D26*
X196750000Y-71450000D03*
D25*
X194210000Y-76530000D03*
X192940000Y-73990001D03*
D24*
X192250000Y-71450000D03*
D23*
X191670000Y-71450000D03*
D27*
X199150000Y-65075000D03*
X199150000Y-66825000D03*
X194350000Y-66825000D03*
X194350000Y-65075000D03*
D28*
X189750000Y-74030000D03*
X202450000Y-76570000D03*
D23*
X163730000Y-121199999D03*
D24*
X163150000Y-121199999D03*
D25*
X162460000Y-123739999D03*
X161190000Y-126279999D03*
D26*
X158650000Y-121199999D03*
D25*
X156110000Y-126279999D03*
X154840000Y-123740000D03*
D24*
X154150000Y-121199999D03*
D23*
X153570000Y-121199999D03*
D27*
X161050000Y-114824999D03*
X161050000Y-116574999D03*
X156250000Y-116574999D03*
X156250000Y-114824999D03*
D28*
X151650000Y-123779999D03*
X164350000Y-126319999D03*
D23*
X144680002Y-47500000D03*
D24*
X144100002Y-47500000D03*
D25*
X143410002Y-50040000D03*
X142140003Y-52579998D03*
D26*
X139600002Y-47500000D03*
D25*
X137059999Y-52580000D03*
X135790001Y-50039999D03*
D24*
X135100002Y-47500000D03*
D23*
X134520002Y-47500000D03*
D27*
X142000002Y-41125002D03*
X142000004Y-42875000D03*
X137200000Y-42875000D03*
X137200005Y-41125001D03*
D28*
X132600002Y-50080001D03*
X145300003Y-52620002D03*
D22*
X183612382Y-76455140D03*
X183612382Y-77590140D03*
D23*
X125629999Y-49999997D03*
D24*
X125049999Y-49999997D03*
D25*
X124359999Y-52539997D03*
X123090001Y-55079997D03*
D26*
X120549999Y-49999997D03*
D25*
X118009998Y-55079997D03*
X116739999Y-52539996D03*
D24*
X116049999Y-49999997D03*
D23*
X115469999Y-49999997D03*
D27*
X122949997Y-43624998D03*
X122950000Y-45374996D03*
X118149997Y-45374997D03*
X118150000Y-43624998D03*
D28*
X113549999Y-52579998D03*
X126249997Y-55119999D03*
D23*
X163730000Y-64050000D03*
D24*
X163150000Y-64050000D03*
D25*
X162460000Y-66590000D03*
X161190000Y-69130000D03*
D26*
X158650000Y-64050000D03*
D25*
X156110000Y-69130000D03*
X154840000Y-66590001D03*
D24*
X154150000Y-64050000D03*
D23*
X153570000Y-64050000D03*
D27*
X161050000Y-57675000D03*
X161050000Y-59425000D03*
X156250000Y-59425000D03*
X156250000Y-57675000D03*
D28*
X151650000Y-66630000D03*
X164350000Y-69170000D03*
D23*
X163730000Y-102150000D03*
D24*
X163150000Y-102150000D03*
D25*
X162460000Y-104690000D03*
X161190000Y-107230000D03*
D26*
X158650000Y-102150000D03*
D25*
X156110000Y-107230000D03*
X154840000Y-104690001D03*
D24*
X154150000Y-102150000D03*
D23*
X153570000Y-102150000D03*
D27*
X161050000Y-95775000D03*
X161050000Y-97525000D03*
X156250000Y-97525000D03*
X156250000Y-95775000D03*
D28*
X151650000Y-104730000D03*
X164350000Y-107270000D03*
D23*
X144680000Y-104649999D03*
D24*
X144100000Y-104649999D03*
D25*
X143410000Y-107189999D03*
X142140000Y-109729999D03*
D26*
X139600000Y-104649999D03*
D25*
X137060000Y-109729999D03*
X135790000Y-107190000D03*
D24*
X135100000Y-104649999D03*
D23*
X134520000Y-104649999D03*
D27*
X142000000Y-98274999D03*
X142000000Y-100024999D03*
X137200000Y-100024999D03*
X137200000Y-98274999D03*
D28*
X132600000Y-107229999D03*
X145300000Y-109769999D03*
D37*
X99339100Y-93602600D03*
X99339100Y-93602600D03*
D38*
X101339100Y-93602600D03*
X97339100Y-93602600D03*
D23*
X144680000Y-123700000D03*
D24*
X144100000Y-123700000D03*
D25*
X143410000Y-126240000D03*
X142140000Y-128780000D03*
D26*
X139600000Y-123700000D03*
D25*
X137060000Y-128780000D03*
X135790000Y-126240001D03*
D24*
X135100000Y-123700000D03*
D23*
X134520000Y-123700000D03*
D27*
X142000000Y-117325000D03*
X142000000Y-119075000D03*
X137200000Y-119075000D03*
X137200000Y-117325000D03*
D28*
X132600000Y-126280000D03*
X145300000Y-128820000D03*
D22*
X145253684Y-95355140D03*
X145253684Y-96490140D03*
D23*
X182780000Y-104650000D03*
D24*
X182200000Y-104650000D03*
D25*
X181510000Y-107190000D03*
X180240000Y-109730000D03*
D26*
X177700000Y-104650000D03*
D25*
X175160000Y-109730000D03*
X173890000Y-107190001D03*
D24*
X173200000Y-104650000D03*
D23*
X172620000Y-104650000D03*
D27*
X180100000Y-98275000D03*
X180100000Y-100025000D03*
X175300000Y-100025000D03*
X175300000Y-98275000D03*
D28*
X170700000Y-107230000D03*
X183400000Y-109770000D03*
D22*
X126839120Y-98055140D03*
X126839120Y-99190140D03*
X203051709Y-81355140D03*
X203051709Y-82490140D03*
X220339120Y-62555140D03*
X220339120Y-63690140D03*
D13*
X104929100Y-71652600D03*
X104929100Y-70752600D03*
D22*
X127221645Y-60089896D03*
X127221645Y-61224896D03*
X213339120Y-43268011D03*
X213339120Y-44403011D03*
D23*
X163730000Y-83100000D03*
D24*
X163150000Y-83100000D03*
D25*
X162460000Y-85640000D03*
X161190000Y-88180000D03*
D26*
X158650000Y-83100000D03*
D25*
X156110000Y-88180000D03*
X154840000Y-85640001D03*
D24*
X154150000Y-83100000D03*
D23*
X153570000Y-83100000D03*
D27*
X161050000Y-76725000D03*
X161050000Y-78475000D03*
X156250000Y-78475000D03*
X156250000Y-76725000D03*
D28*
X151650000Y-85680000D03*
X164350000Y-88220000D03*
D23*
X144680000Y-85600000D03*
D24*
X144100000Y-85600000D03*
D25*
X143410000Y-88140000D03*
X142140000Y-90680000D03*
D26*
X139600000Y-85600000D03*
D25*
X137060000Y-90680000D03*
X135790000Y-88140001D03*
D24*
X135100000Y-85600000D03*
D23*
X134520000Y-85600000D03*
D27*
X142000000Y-79225000D03*
X142000000Y-80975000D03*
X137200000Y-80975000D03*
X137200000Y-79225000D03*
D28*
X132600000Y-88180000D03*
X145300000Y-90720000D03*
D23*
X220880000Y-52400000D03*
D24*
X220300000Y-52400000D03*
D25*
X219610000Y-54940000D03*
X218340000Y-57480000D03*
D26*
X215800000Y-52400000D03*
D25*
X213260000Y-57480000D03*
X211990000Y-54940001D03*
D24*
X211300000Y-52400000D03*
D23*
X210720000Y-52400000D03*
D27*
X218200000Y-46025000D03*
X218200000Y-47775000D03*
X213400000Y-47775000D03*
X213400000Y-46025000D03*
D28*
X208800000Y-54980000D03*
X221500000Y-57520000D03*
D23*
X122506902Y-127085199D03*
D24*
X121946665Y-127235314D03*
D25*
X121937577Y-129867351D03*
X121368253Y-132649502D03*
D26*
X117599999Y-128400000D03*
D25*
X116461347Y-133964304D03*
X114577222Y-131839551D03*
D24*
X113253333Y-129564686D03*
D23*
X112693096Y-129714801D03*
D39*
X118268248Y-121621059D03*
X118721184Y-123311426D03*
X114084737Y-124553759D03*
X113631807Y-122863389D03*
D40*
X111506272Y-132703823D03*
X124430928Y-131870274D03*
D35*
X89984100Y-78102600D03*
X89984100Y-75102600D03*
M02*
